M48
;Layer_Color=9474304
;FILE_FORMAT=4:4
METRIC,LZ
;TYPE=PLATED
T1F00S00C0.5000
;TYPE=NON_PLATED
%
T01
X008115Y006495
X00878Y0077225
X0097325Y0075075
X009755Y0070375
X0103225Y006575
X0107175Y0065325
X0106275Y0060225
X01052Y006025
X0104125
X0103075
X0076Y0055925
X0074625Y006505
X0072275Y006815
X0071076Y00685257
X00692509Y00686757
X00682Y0068775
X00681759Y00698257
X00666508Y00696507
X00655508Y00707258
X00643757Y00715508
X00632757Y00715008
X00622006Y00714508
X00603547Y0071649
X0060175Y0073125
X00612256Y00730259
X00637257Y00681756
X0065275Y00651
X006225Y0062775
X00614756Y00634254
X0061Y0061725
X0060225Y00596
X005585Y0063125
X00565Y006425
X0055025
X00566003Y0076376
X0066025Y007915
X0073025Y0078075
X0074475Y007265
X00793Y0072675
X0078925Y006795
X0074075Y0082225
X007155Y008095
X0070475Y0080925
X00694
X00683
X006725
X00653757Y00809513
X0064325Y008105
X0063275
X00624249Y00816999
X0061475Y008245
X0060425Y0082575
X0059375Y00826
X00584004Y00831264
X0060725Y0083625
X00633Y0088825
X00647Y0088275
X006645Y0090175
X0067575
X00706Y0089975
X00764Y00909
X0068075Y00956
X006615Y009595
X0061225Y0094225
X0085275Y0084625
X0085575Y0082925
M30
