M48
;Layer_Color=9474304
;FILE_FORMAT=4:4
METRIC,LZ
;TYPE=PLATED
T1F00S00C0.5000
;TYPE=NON_PLATED
%
T01
X008065Y0063925
X0082825Y0062575
X0086Y0064
X00875518Y00634504
X00895Y006235
X0096Y006
X01
X0104
X0108
X0112
X0112725Y0061525
X01127Y006295
X0102Y0064
X0098
X0096875Y0064225
X0097825Y007115
X009Y0072
X0086
X0104Y0076
X007745Y007045
X00709Y006695
X0068Y0076
X0064
X006
X0062Y0072
X0058
X0054Y0064
X0052Y006
X00536Y0088675
Y008975
X0052Y0092
X0056
X0064
X0068
X0066Y0088
X00704Y00832
X00769Y00916
X0083825Y0090725
X0084Y0084
X008
X0086Y008
X009
X0094
X0103725Y0082725
X0102Y0088
X01Y0092
X0104
X010775Y00867
X01134Y00868
X01155Y00882
X01169
X01162Y00896
M30
