M48
;Layer_Color=9474304
;FILE_FORMAT=4:4
METRIC,LZ
;TYPE=PLATED
T1F00S00C0.5000
;TYPE=NON_PLATED
%
T01
X0083Y00578
X0085275Y005775
X008655Y0057925
X008775Y0059075
X00844267Y00587752
X00843Y0062925
X00801265Y00649505
X0081475Y0067825
X0086225Y006875
X00873018Y00682757
X008745Y00694
X0087325Y0070525
X0088275Y0068725
X00881519Y00676408
X0091377Y00679256
X0091852Y00689507
X0092975Y0069025
X0092725Y00703
X00919771Y00712508
X0092325Y0072925
X0093325
X00908Y0073175
X0091477Y00760213
X0091427Y00778511
X0092425Y0077325
X0085625Y0075575
X0083024Y0074926
X00819516Y0074801
X007955Y007935
X0090327Y00691007
X0090425Y0064275
X0092725Y006375
X009895Y007405
X01040001Y0069
X01140001Y007
Y0071
Y0072
X0112975Y0074475
X011375Y00777
X01150001Y0064
X01160001
X01170001
X01100001Y0062
X007875Y00639
X0076925Y005915
X007555Y0059425
X0067925Y005955
X0072025Y0072525
X00725011Y0075726
X00769263Y00783011
X0077925Y0078725
X00571501Y00792001
X00576001Y00765001
X0059375Y006825
X0054775Y00662
X005385
X00558Y00801001
X00567001
X0059Y00850001
Y00860001
X006
X0061
Y00870001
X006
X00585Y00909001
X00576001
X005805Y00918001
X00589501
X00585Y00927001
X00576001
X0053752Y0085925
X0052825
X0068875Y008
X00773Y008025
X00787764Y00805262
X00782648Y00814293
X0074075Y00877
X0075125Y0088775
X00742512Y00911768
X0072225Y0090775
X00825Y009045
X00848517Y00910768
X00847767Y00920768
X00852517Y00896017
X00863Y009
X00873
X00883Y009055
X00866518Y00885266
X0088625Y0084125
X0089625
X0090025Y008245
X0093525Y008885
X0097675Y008805
X00992774Y00839764
X0102175Y00794
X01060001Y0081
X01070001
X01080001
Y0082
Y0083
X01090001
X01070001Y0082
X01060001
X00815515Y00859265
X008745Y00948
M30
