M48
;Layer_Color=9474304
;FILE_FORMAT=4:4
METRIC,LZ
;TYPE=PLATED
T1F00S00C0.5000
;TYPE=NON_PLATED
%
T01
X009005Y0066425
X009705Y0059825
X0102779Y00585835
X0105577Y00586105
X0105502Y0055773
X0102804Y0055746
X0104475Y006405
X0109175Y0063775
X011035Y00694
X011205Y0069425
X0107Y0078575
X0104302Y0078548
X0077Y00686
X0075825
X007715Y0065275
X0068775Y006495
X0066Y006
X0064
X0062
X0068475Y005665
X0069825Y0056125
X0064825Y0073425
X006365Y007925
X0060852Y0079223
X00730619Y0082198
X0073875Y0096475
X00941021Y00880016
X00983Y00870375
X0100773Y00870645
X0100748Y0089902
X009825Y0089875
X0104252Y0089898
X010675Y0089925
X0106775Y00870875
X0104302Y00870605
Y0084223
X010685Y008425
X0107075Y00814125
X0104277Y00813855
M30
