M48
;Layer_Color=9474304
;FILE_FORMAT=4:4
METRIC,LZ
;TYPE=PLATED
T1F00S00C0.5000
T4F00S00C0.9000
;TYPE=NON_PLATED
T5F00S00C3.2000
%
T01
X00800015Y00595002
X0081Y0059475
X00837016Y00594752
X00881269Y00579501
X0088475Y0056957
X0089465Y00568073
X0090875Y005725
Y0058275
Y0059275
X0089875
X0091075Y006255
X00943022Y00622004
X01002Y0058375
X01003775Y00776511
X0097325Y0076425
X0090427Y0075851
X00883269Y0075976
X0088525Y0074975
X0086925Y007625
X0085075Y0076825
X0085425Y00789
X0080525Y0078875
X0092075Y007935
X0112975Y0073375
X00778764Y00742759
X00770513Y00731259
X007605Y0073225
X00727761Y00731759
X0070425Y007605
X007895Y0078425
X00792014Y00588252
X00779Y0059475
X00738512Y00595002
X00722Y00595
X00772763Y00821263
X0078255Y00916804
X0078525Y0093675
X00732261Y00905017
X0073525Y0089425
X0071175Y009112
X00695259Y00897517
X006425Y00896
X00657Y00846
X00804765Y00829014
X008115Y008
X00814015Y00919268
X00803086Y009243
X00844017Y0094877
X009345Y0092175
X0092052Y00850515
X0091175Y00856
X00971Y00833
X009865Y00828
X00985774Y00800012
X01010275Y00794012
X01020525Y00817263
X010855Y008555
T04
X0058625Y00564
X006124
X006378
X006632
X00514Y0064595
Y0067135
Y0069675
X007795Y009675
X008049
X008303
X008557
X00856Y009375
X008306
X008052
X00927
X009524
X009778
Y009675
X009524
X00927
X010425Y009375
X010679
T05
X0116Y0059
X0054
Y0094
X0116
M30
