G04 Layer_Color=16711935*
%FSLAX44Y44*%
%MOMM*%
G71*
G01*
G75*
%ADD71C,1.4732*%
%ADD73R,0.7516X1.2016*%
%ADD74R,1.9032X1.1532*%
%ADD77R,1.2032X1.1032*%
%ADD79R,1.6032X1.7032*%
%ADD84R,1.1032X1.2032*%
%ADD86R,2.1032X1.5532*%
%ADD87R,2.0032X1.3532*%
%ADD90R,1.5532X2.1032*%
%ADD91R,3.7632X1.6032*%
%ADD92R,1.4232X1.1132*%
%ADD97C,1.7032*%
%ADD98R,1.7032X1.7032*%
%ADD99O,1.4532X1.2532*%
%ADD100O,2.1032X1.4282*%
%ADD101C,3.4032*%
%ADD102R,1.7032X1.7032*%
%ADD103C,1.0432*%
%ADD104R,0.9032X1.1032*%
%ADD105R,1.1532X0.7032*%
%ADD106O,1.7032X0.7532*%
%ADD107O,0.4532X1.9032*%
D71*
X1055750Y726750D02*
D03*
D73*
X1082501Y675999D02*
D03*
X1092001D02*
D03*
X1101501D02*
D03*
Y651999D02*
D03*
X1082501D02*
D03*
D74*
X681500Y944000D02*
D03*
Y917000D02*
D03*
X1140001Y628749D02*
D03*
Y655749D02*
D03*
X1063751Y612999D02*
D03*
Y640999D02*
D03*
X959001Y583999D02*
D03*
Y610999D02*
D03*
D77*
X802250Y727750D02*
D03*
Y743750D02*
D03*
X805750Y679750D02*
D03*
Y695750D02*
D03*
X802250Y772750D02*
D03*
Y756750D02*
D03*
X959000Y703750D02*
D03*
Y719750D02*
D03*
X959000Y751750D02*
D03*
Y767750D02*
D03*
X641750Y650750D02*
D03*
Y634750D02*
D03*
D79*
X895250Y629500D02*
D03*
X925250D02*
D03*
D84*
X809250Y661500D02*
D03*
X793250D02*
D03*
X809250Y874000D02*
D03*
X793250D02*
D03*
X723000Y669000D02*
D03*
X739000D02*
D03*
D86*
X661250Y946500D02*
D03*
Y915500D02*
D03*
X635000Y946250D02*
D03*
Y915250D02*
D03*
X589750Y616750D02*
D03*
Y647750D02*
D03*
D87*
X1109251Y738749D02*
D03*
Y708749D02*
D03*
X938750Y561000D02*
D03*
Y590000D02*
D03*
D90*
X765000Y805500D02*
D03*
X796000D02*
D03*
X731750Y649500D02*
D03*
X700750D02*
D03*
X1083751Y608249D02*
D03*
X1114751D02*
D03*
X995750Y629500D02*
D03*
X964750D02*
D03*
X1168751Y675999D02*
D03*
X1137751D02*
D03*
X770750Y929500D02*
D03*
X739750D02*
D03*
D91*
X1029500Y621450D02*
D03*
Y676050D02*
D03*
D92*
X1082500Y726600D02*
D03*
Y693900D02*
D03*
D97*
X977800Y937500D02*
D03*
X952400D02*
D03*
X514000Y671350D02*
D03*
Y645950D02*
D03*
X663200Y564000D02*
D03*
X637800D02*
D03*
X612400D02*
D03*
X855700Y967500D02*
D03*
X830300D02*
D03*
X804900D02*
D03*
X805200Y937500D02*
D03*
X830600D02*
D03*
X952400Y967500D02*
D03*
X977800D02*
D03*
X1067900Y937500D02*
D03*
D98*
X927000D02*
D03*
X586250Y564000D02*
D03*
X779500Y967500D02*
D03*
X856000Y937500D02*
D03*
X927000Y967500D02*
D03*
X1042500Y937500D02*
D03*
D99*
X552875Y742750D02*
D03*
Y787250D02*
D03*
X1147625Y786750D02*
D03*
Y742250D02*
D03*
D100*
X521625Y724125D02*
D03*
Y805875D02*
D03*
X1178875Y805375D02*
D03*
Y723625D02*
D03*
D101*
X1160000Y590000D02*
D03*
Y940000D02*
D03*
X540000D02*
D03*
Y590000D02*
D03*
D102*
X514000Y696750D02*
D03*
D103*
X894650Y568073D02*
D03*
X898750Y592750D02*
D03*
X908750Y582750D02*
D03*
X800015Y595002D02*
D03*
X771500Y652750D02*
D03*
X687750Y649500D02*
D03*
X970500Y598250D02*
D03*
X1027790Y585835D02*
D03*
X1055770Y586105D02*
D03*
X1028040Y557460D02*
D03*
X1055020Y557730D02*
D03*
X608520Y792230D02*
D03*
X636500Y792500D02*
D03*
X684750Y566500D02*
D03*
X698250Y561250D02*
D03*
X982500Y898750D02*
D03*
X1007480Y899020D02*
D03*
X983000Y870375D02*
D03*
X1007730Y870645D02*
D03*
X1070000Y785750D02*
D03*
X1043020Y785480D02*
D03*
X1070750Y814125D02*
D03*
X1042770Y813855D02*
D03*
X1068500Y842500D02*
D03*
X1043020Y842230D02*
D03*
X1067750Y870875D02*
D03*
X1043020Y870605D02*
D03*
X1067500Y899250D02*
D03*
X1042520Y898980D02*
D03*
X900500Y664250D02*
D03*
X660000Y600000D02*
D03*
X640000D02*
D03*
X620000D02*
D03*
X610000Y617250D02*
D03*
X738750Y964750D02*
D03*
X730250Y780750D02*
D03*
X740750Y822250D02*
D03*
X730619Y821980D02*
D03*
X770513Y731259D02*
D03*
X778764Y742759D02*
D03*
X760500Y732250D02*
D03*
X727761Y731759D02*
D03*
X648250Y734250D02*
D03*
X744750Y726500D02*
D03*
X883269Y759760D02*
D03*
X793000Y726750D02*
D03*
X758250Y686000D02*
D03*
X770000D02*
D03*
X633000Y888250D02*
D03*
X607250Y836250D02*
D03*
X565000Y642500D02*
D03*
X558500Y631250D02*
D03*
X550250Y642500D02*
D03*
X779000Y594750D02*
D03*
X792014Y588252D02*
D03*
X837016Y594752D02*
D03*
X738512Y595002D02*
D03*
X566003Y763760D02*
D03*
X934500Y921750D02*
D03*
X941021Y880016D02*
D03*
X844017Y948770D02*
D03*
X803086Y924300D02*
D03*
X764000Y909000D02*
D03*
X804765Y829014D02*
D03*
X814015Y919268D02*
D03*
X782550Y916804D02*
D03*
X985774Y800012D02*
D03*
X986500Y828000D02*
D03*
X1003775Y776511D02*
D03*
X1010275Y794012D02*
D03*
X975500Y703750D02*
D03*
X680750Y956000D02*
D03*
X661500Y959500D02*
D03*
X637257Y681756D02*
D03*
X643757Y715508D02*
D03*
X632757Y715008D02*
D03*
X655508Y707258D02*
D03*
X666508Y696507D02*
D03*
X681759Y698257D02*
D03*
X603547Y716490D02*
D03*
X622006Y714508D02*
D03*
X602250Y596000D02*
D03*
X704250Y760500D02*
D03*
X971000Y833000D02*
D03*
X1129750Y733750D02*
D03*
X692509Y686757D02*
D03*
X710760Y685257D02*
D03*
X682000Y687750D02*
D03*
X601750Y731250D02*
D03*
X612256Y730259D02*
D03*
X785250Y936750D02*
D03*
X647000Y882750D02*
D03*
X811500Y800000D02*
D03*
X772763Y821263D02*
D03*
X805250Y788750D02*
D03*
X789500Y784250D02*
D03*
X885250Y749750D02*
D03*
X904270Y758510D02*
D03*
X850750Y768250D02*
D03*
X869250Y762500D02*
D03*
X683000Y809250D02*
D03*
X715500Y809500D02*
D03*
X694000Y809250D02*
D03*
X675750Y901750D02*
D03*
X711750Y911200D02*
D03*
X664500Y901750D02*
D03*
X632750Y810500D02*
D03*
X614750Y824500D02*
D03*
X624249Y816999D02*
D03*
X706000Y899750D02*
D03*
X722750Y681500D02*
D03*
X1002000Y583750D02*
D03*
X1085500Y855500D02*
D03*
X1091750Y637750D02*
D03*
X1103500Y694000D02*
D03*
X1044750Y640500D02*
D03*
X1120500Y694250D02*
D03*
X660250Y791500D02*
D03*
X652750Y651000D02*
D03*
X695259Y897517D02*
D03*
X672500Y809250D02*
D03*
X653757Y809513D02*
D03*
X704750Y809250D02*
D03*
X855750Y829250D02*
D03*
X852750Y846250D02*
D03*
X643250Y810500D02*
D03*
X878000Y772250D02*
D03*
X920750Y793500D02*
D03*
X642500Y896000D02*
D03*
X604250Y825750D02*
D03*
X593750Y826000D02*
D03*
X584004Y831264D02*
D03*
X735250Y894250D02*
D03*
X732261Y905017D02*
D03*
X622500Y627750D02*
D03*
X614756Y634254D02*
D03*
X746250Y650500D02*
D03*
X1020525Y817263D02*
D03*
X657000Y846000D02*
D03*
X612250Y942250D02*
D03*
X722000Y595000D02*
D03*
X911750Y856000D02*
D03*
X920520Y850515D02*
D03*
X1032250Y657500D02*
D03*
X1030750Y602500D02*
D03*
X1041250D02*
D03*
X1052000D02*
D03*
X1062750Y602250D02*
D03*
X1071750Y653250D02*
D03*
X943022Y622004D02*
D03*
X910750Y625500D02*
D03*
X973250Y764250D02*
D03*
Y750750D02*
D03*
X810000Y594750D02*
D03*
X908750Y592750D02*
D03*
Y572500D02*
D03*
X881269Y579501D02*
D03*
X789250Y679500D02*
D03*
X811500Y649500D02*
D03*
X854250Y789000D02*
D03*
X760000Y559250D02*
D03*
X884750Y569570D02*
D03*
D104*
X1172750Y655750D02*
D03*
X1158750D02*
D03*
D105*
X918750Y607250D02*
D03*
X939250Y600750D02*
D03*
Y613750D02*
D03*
D106*
X938500Y871750D02*
D03*
Y863750D02*
D03*
Y855750D02*
D03*
Y847750D02*
D03*
Y839750D02*
D03*
Y831750D02*
D03*
Y823750D02*
D03*
Y815750D02*
D03*
Y807750D02*
D03*
Y799750D02*
D03*
Y791750D02*
D03*
Y783750D02*
D03*
Y775750D02*
D03*
Y767750D02*
D03*
Y759750D02*
D03*
Y751750D02*
D03*
Y743750D02*
D03*
Y735750D02*
D03*
Y727750D02*
D03*
Y719750D02*
D03*
Y711750D02*
D03*
Y703750D02*
D03*
Y695750D02*
D03*
Y687750D02*
D03*
Y679750D02*
D03*
Y671750D02*
D03*
Y663750D02*
D03*
X825500Y871750D02*
D03*
Y863750D02*
D03*
Y855750D02*
D03*
Y847750D02*
D03*
Y839750D02*
D03*
Y831750D02*
D03*
Y823750D02*
D03*
Y815750D02*
D03*
Y807750D02*
D03*
Y799750D02*
D03*
Y791750D02*
D03*
Y783750D02*
D03*
Y775750D02*
D03*
Y767750D02*
D03*
Y759750D02*
D03*
Y751750D02*
D03*
Y743750D02*
D03*
Y735750D02*
D03*
Y727750D02*
D03*
Y719750D02*
D03*
Y711750D02*
D03*
Y703750D02*
D03*
Y695750D02*
D03*
Y687750D02*
D03*
Y679750D02*
D03*
Y671750D02*
D03*
Y663750D02*
D03*
D107*
X576750Y861000D02*
D03*
X581750D02*
D03*
X586750D02*
D03*
X591750D02*
D03*
X596750D02*
D03*
X601750D02*
D03*
X606750D02*
D03*
X611750D02*
D03*
X616750D02*
D03*
X621750D02*
D03*
X626750D02*
D03*
X631750D02*
D03*
X636750D02*
D03*
X641750D02*
D03*
X646750D02*
D03*
X651750D02*
D03*
X656750D02*
D03*
X661750D02*
D03*
X666750D02*
D03*
X671750D02*
D03*
X676750D02*
D03*
X681750D02*
D03*
X686750D02*
D03*
X691750D02*
D03*
X696750D02*
D03*
X701750D02*
D03*
X706750D02*
D03*
X711750D02*
D03*
X576750Y669000D02*
D03*
X581750D02*
D03*
X586750D02*
D03*
X591750D02*
D03*
X596750D02*
D03*
X601750D02*
D03*
X606750D02*
D03*
X611750D02*
D03*
X616750D02*
D03*
X621750D02*
D03*
X626750D02*
D03*
X631750D02*
D03*
X636750D02*
D03*
X641750D02*
D03*
X646750D02*
D03*
X651750D02*
D03*
X656750D02*
D03*
X661750D02*
D03*
X666750D02*
D03*
X671750D02*
D03*
X676750D02*
D03*
X681750D02*
D03*
X686750D02*
D03*
X691750D02*
D03*
X696750D02*
D03*
X701750D02*
D03*
X706750D02*
D03*
X711750D02*
D03*
M02*
