G04 Layer_Physical_Order=2*
G04 Layer_Color=32768*
%FSLAX44Y44*%
%MOMM*%
G71*
G01*
G75*
%ADD47C,1.0160*%
G04:AMPARAMS|DCode=48|XSize=2.424mm|YSize=2.424mm|CornerRadius=0mm|HoleSize=0mm|Usage=FLASHONLY|Rotation=0.000|XOffset=0mm|YOffset=0mm|HoleType=Round|Shape=Relief|Width=0.254mm|Gap=0.254mm|Entries=4|*
%AMTHD48*
7,0,0,2.4240,1.9160,0.2540,45*
%
%ADD48THD48*%
%ADD49C,1.9160*%
%AMTHOVALD50*
21,1,0.2000,2.1740,0,0,360.0*
1,1,2.1740,-0.1000,0.0000*
1,1,2.1740,0.1000,0.0000*
21,0,0.2000,1.6660,0,0,360.0*
1,0,1.6660,-0.1000,0.0000*
1,0,1.6660,0.1000,0.0000*
4,0,4,-0.0102,-0.0898,-0.7788,-0.8584,-0.9584,-0.6788,-0.1898,0.0898,-0.0102,-0.0898,0.0*
4,0,4,0.1898,-0.0898,0.9584,0.6788,0.7788,0.8584,0.0102,0.0898,0.1898,-0.0898,0.0*
4,0,4,-0.1898,-0.0898,-0.9584,0.6788,-0.7788,0.8584,-0.0102,0.0898,-0.1898,-0.0898,0.0*
4,0,4,0.0102,-0.0898,0.7788,-0.8584,0.9584,-0.6788,0.1898,0.0898,0.0102,-0.0898,0.0*
%
%ADD50THOVALD50*%

%AMTHOVALD51*
21,1,0.6750,2.3490,0,0,360.0*
1,1,2.3490,-0.3375,0.0000*
1,1,2.3490,0.3375,0.0000*
21,0,0.6750,1.8410,0,0,360.0*
1,0,1.8410,-0.3375,0.0000*
1,0,1.8410,0.3375,0.0000*
4,0,4,-0.2477,-0.0898,-1.0782,-0.9203,-1.2578,-0.7407,-0.4273,0.0898,-0.2477,-0.0898,0.0*
4,0,4,0.4273,-0.0898,1.2578,0.7407,1.0782,0.9203,0.2477,0.0898,0.4273,-0.0898,0.0*
4,0,4,-0.4273,-0.0898,-1.2578,0.7407,-1.0782,0.9203,-0.2477,0.0898,-0.4273,-0.0898,0.0*
4,0,4,0.2477,-0.0898,1.0782,-0.9203,1.2578,-0.7407,0.4273,0.0898,0.2477,-0.0898,0.0*
%
%ADD51THOVALD51*%

%ADD52C,4.2160*%
%AMTHOVALD53*
21,1,0.2000,2.1740,0,0,540.0*
1,1,2.1740,0.1000,0.0000*
1,1,2.1740,-0.1000,0.0000*
21,0,0.2000,1.6660,0,0,540.0*
1,0,1.6660,0.1000,0.0000*
1,0,1.6660,-0.1000,0.0000*
4,0,4,0.0102,0.0898,0.7788,0.8584,0.9584,0.6788,0.1898,-0.0898,0.0102,0.0898,0.0*
4,0,4,-0.1898,0.0898,-0.9584,-0.6788,-0.7788,-0.8584,-0.0102,-0.0898,-0.1898,0.0898,0.0*
4,0,4,0.1898,0.0898,0.9584,-0.6788,0.7788,-0.8584,0.0102,-0.0898,0.1898,0.0898,0.0*
4,0,4,-0.0102,0.0898,-0.7788,0.8584,-0.9584,0.6788,-0.1898,-0.0898,-0.0102,0.0898,0.0*
%
%ADD53THOVALD53*%

%AMTHOVALD54*
21,1,0.6750,2.3490,0,0,540.0*
1,1,2.3490,0.3375,0.0000*
1,1,2.3490,-0.3375,0.0000*
21,0,0.6750,1.8410,0,0,540.0*
1,0,1.8410,0.3375,0.0000*
1,0,1.8410,-0.3375,0.0000*
4,0,4,0.2477,0.0898,1.0782,0.9203,1.2578,0.7407,0.4273,-0.0898,0.2477,0.0898,0.0*
4,0,4,-0.4273,0.0898,-1.2578,-0.7407,-1.0782,-0.9203,-0.2477,-0.0898,-0.4273,0.0898,0.0*
4,0,4,0.4273,0.0898,1.2578,-0.7407,1.0782,-0.9203,0.2477,-0.0898,0.4273,0.0898,0.0*
4,0,4,-0.2477,0.0898,-1.0782,0.9203,-1.2578,0.7407,-0.4273,-0.0898,-0.2477,0.0898,0.0*
%
%ADD54THOVALD54*%

%AMTHOVALD55*
21,1,0.6750,2.3490,0,0,180.0*
1,1,2.3490,0.3375,0.0000*
1,1,2.3490,-0.3375,0.0000*
21,0,0.6750,1.8410,0,0,180.0*
1,0,1.8410,0.3375,0.0000*
1,0,1.8410,-0.3375,0.0000*
4,0,4,0.2477,0.0898,1.0782,0.9203,1.2578,0.7407,0.4273,-0.0898,0.2477,0.0898,0.0*
4,0,4,-0.4273,0.0898,-1.2578,-0.7407,-1.0782,-0.9203,-0.2477,-0.0898,-0.4273,0.0898,0.0*
4,0,4,0.4273,0.0898,1.2578,-0.7407,1.0782,-0.9203,0.2477,-0.0898,0.4273,0.0898,0.0*
4,0,4,-0.2477,0.0898,-1.0782,0.9203,-1.2578,0.7407,-0.4273,-0.0898,-0.2477,0.0898,0.0*
%
%ADD55THOVALD55*%

%AMTHOVALD56*
21,1,0.2000,2.1740,0,0,180.0*
1,1,2.1740,0.1000,0.0000*
1,1,2.1740,-0.1000,0.0000*
21,0,0.2000,1.6660,0,0,180.0*
1,0,1.6660,0.1000,0.0000*
1,0,1.6660,-0.1000,0.0000*
4,0,4,0.0102,0.0898,0.7788,0.8584,0.9584,0.6788,0.1898,-0.0898,0.0102,0.0898,0.0*
4,0,4,-0.1898,0.0898,-0.9584,-0.6788,-0.7788,-0.8584,-0.0102,-0.0898,-0.1898,0.0898,0.0*
4,0,4,0.1898,0.0898,0.9584,-0.6788,0.7788,-0.8584,0.0102,-0.0898,0.1898,0.0898,0.0*
4,0,4,-0.0102,0.0898,-0.7788,0.8584,-0.9584,0.6788,-0.1898,-0.0898,-0.0102,0.0898,0.0*
%
%ADD56THOVALD56*%

%ADD57C,1.5160*%
G04:AMPARAMS|DCode=58|XSize=2.024mm|YSize=2.024mm|CornerRadius=0mm|HoleSize=0mm|Usage=FLASHONLY|Rotation=0.000|XOffset=0mm|YOffset=0mm|HoleType=Round|Shape=Relief|Width=0.254mm|Gap=0.254mm|Entries=4|*
%AMTHD58*
7,0,0,2.0240,1.5160,0.2540,45*
%
%ADD58THD58*%
D47*
X1160000Y550000D02*
G03*
X1200000Y590000I0J40000D01*
G01*
Y940000D02*
G03*
X1160000Y980000I-40000J0D01*
G01*
X540000D02*
G03*
X500000Y940000I0J-40000D01*
G01*
Y590000D02*
G03*
X540000Y550000I40000J0D01*
G01*
X1160000D01*
X1200000Y590000D02*
Y940000D01*
X540000Y980000D02*
X1160000D01*
X500000Y590000D02*
Y940000D01*
D48*
X977800Y937500D02*
D03*
X514000Y645950D02*
D03*
X663200Y564000D02*
D03*
X855700Y967500D02*
D03*
X805200Y937500D02*
D03*
X977800Y967500D02*
D03*
X1067900Y937500D02*
D03*
D49*
X952400D02*
D03*
X927000D02*
D03*
X514000Y696750D02*
D03*
Y671350D02*
D03*
X637800Y564000D02*
D03*
X612400D02*
D03*
X586250D02*
D03*
X830300Y967500D02*
D03*
X804900D02*
D03*
X779500D02*
D03*
X830600Y937500D02*
D03*
X856000D02*
D03*
X927000Y967500D02*
D03*
X952400D02*
D03*
X1042500Y937500D02*
D03*
D50*
X552875Y742750D02*
D03*
Y787250D02*
D03*
D51*
X521625Y724125D02*
D03*
Y805875D02*
D03*
D52*
X1160000Y590000D02*
D03*
Y940000D02*
D03*
X540000D02*
D03*
Y590000D02*
D03*
D53*
X1147625Y786750D02*
D03*
D54*
X1178875Y805375D02*
D03*
D55*
Y723625D02*
D03*
D56*
X1147625Y742250D02*
D03*
D57*
X1100001Y620000D02*
D03*
X1090001Y830000D02*
D03*
X1080001D02*
D03*
Y820000D02*
D03*
Y810000D02*
D03*
X1070001Y820000D02*
D03*
Y810000D02*
D03*
X1060001Y820000D02*
D03*
Y810000D02*
D03*
X610000Y870001D02*
D03*
Y860001D02*
D03*
X600000Y870001D02*
D03*
Y860001D02*
D03*
X590000D02*
D03*
Y850001D02*
D03*
X801265Y649505D02*
D03*
X787500Y639000D02*
D03*
X894650Y568073D02*
D03*
X898750Y592750D02*
D03*
X908750Y582750D02*
D03*
X800015Y595002D02*
D03*
X679250Y595500D02*
D03*
X976750Y880500D02*
D03*
X547750Y662000D02*
D03*
X538500D02*
D03*
X725011Y757260D02*
D03*
X773000Y802500D02*
D03*
X770513Y731259D02*
D03*
X778764Y742759D02*
D03*
X760500Y732250D02*
D03*
X727761Y731759D02*
D03*
X769263Y783011D02*
D03*
X883269Y759760D02*
D03*
X769250Y591500D02*
D03*
X779000Y594750D02*
D03*
X792014Y588252D02*
D03*
X837016Y594752D02*
D03*
X844267Y587752D02*
D03*
X755500Y594250D02*
D03*
X738512Y595002D02*
D03*
X720250Y725250D02*
D03*
X934500Y921750D02*
D03*
X935250Y888500D02*
D03*
X844017Y948770D02*
D03*
X825000Y904500D02*
D03*
X852517Y896017D02*
D03*
X803086Y924300D02*
D03*
X804765Y829014D02*
D03*
X815515Y859265D02*
D03*
X814015Y919268D02*
D03*
X782550Y916804D02*
D03*
X985774Y800012D02*
D03*
X986500Y828000D02*
D03*
X1003775Y776511D02*
D03*
X1010275Y794012D02*
D03*
X1021750Y794000D02*
D03*
X537520Y859250D02*
D03*
X558000Y801001D02*
D03*
X528250Y859250D02*
D03*
X1140001Y720000D02*
D03*
Y710000D02*
D03*
Y700000D02*
D03*
X580500Y918001D02*
D03*
X576001Y909001D02*
D03*
X585000Y927001D02*
D03*
X576001D02*
D03*
X585000Y909001D02*
D03*
X589501Y918001D02*
D03*
X576001Y765001D02*
D03*
X567001Y801001D02*
D03*
X571501Y792001D02*
D03*
X704250Y760500D02*
D03*
X971000Y833000D02*
D03*
X992774Y839764D02*
D03*
X1129750Y744750D02*
D03*
X1137500Y777000D02*
D03*
X1129750Y733750D02*
D03*
X814750Y678250D02*
D03*
X785250Y936750D02*
D03*
X862250Y687500D02*
D03*
X819516Y748010D02*
D03*
X830240Y749260D02*
D03*
X811500Y800000D02*
D03*
X772763Y821263D02*
D03*
X805250Y788750D02*
D03*
X789500Y784250D02*
D03*
X885250Y749750D02*
D03*
X914770Y760213D02*
D03*
X904270Y758510D02*
D03*
X924250Y773250D02*
D03*
X850750Y768250D02*
D03*
X869250Y762500D02*
D03*
X711750Y911200D02*
D03*
X722250Y907750D02*
D03*
X989500Y740500D02*
D03*
X751250Y887750D02*
D03*
X1002000Y583750D02*
D03*
X1085500Y855500D02*
D03*
X1040001Y690000D02*
D03*
X1170001Y640000D02*
D03*
X1160001D02*
D03*
X1150001D02*
D03*
X695259Y897517D02*
D03*
X688750Y800000D02*
D03*
X795500Y793500D02*
D03*
X856250Y755750D02*
D03*
X920750Y793500D02*
D03*
X914270Y778511D02*
D03*
X642500Y896000D02*
D03*
X740750Y877000D02*
D03*
X735250Y894250D02*
D03*
X732261Y905017D02*
D03*
X742512Y911768D02*
D03*
X843000Y629250D02*
D03*
X873250Y705250D02*
D03*
X874500Y694000D02*
D03*
X847767Y920768D02*
D03*
X866518Y885266D02*
D03*
X863000Y900000D02*
D03*
X848517Y910768D02*
D03*
X883000Y905500D02*
D03*
X873000Y900000D02*
D03*
X1020525Y817263D02*
D03*
X657000Y846000D02*
D03*
X782648Y814293D02*
D03*
X787764Y805262D02*
D03*
X779250Y787250D02*
D03*
X904250Y642750D02*
D03*
X927250Y637500D02*
D03*
X722000Y595000D02*
D03*
X886250Y841250D02*
D03*
X896250D02*
D03*
X911750Y856000D02*
D03*
X920520Y850515D02*
D03*
X900250Y824500D02*
D03*
X874500Y948000D02*
D03*
X943022Y622004D02*
D03*
X910750Y625500D02*
D03*
X973250Y764250D02*
D03*
X933250Y729250D02*
D03*
X881519Y676408D02*
D03*
X873018Y682757D02*
D03*
X882750Y687250D02*
D03*
X923250Y729250D02*
D03*
X903270Y691007D02*
D03*
X913770Y679256D02*
D03*
X918520Y689507D02*
D03*
X919771Y712508D02*
D03*
X929750Y690250D02*
D03*
X927250Y703000D02*
D03*
X908000Y731750D02*
D03*
X593750Y682500D02*
D03*
X852750Y577500D02*
D03*
X830000Y578000D02*
D03*
X810000Y594750D02*
D03*
X908750Y592750D02*
D03*
Y572500D02*
D03*
X881269Y579501D02*
D03*
X865500Y579250D02*
D03*
X854250Y789000D02*
D03*
X877500Y590750D02*
D03*
X884750Y569570D02*
D03*
D58*
X949250Y880250D02*
D03*
X687750Y649500D02*
D03*
X1162000Y896000D02*
D03*
X1169000Y882000D02*
D03*
X1155000D02*
D03*
X1134000Y868000D02*
D03*
X970500Y598250D02*
D03*
X806500Y639250D02*
D03*
X1032750Y584000D02*
D03*
X1062000Y573500D02*
D03*
X1028040Y557460D02*
D03*
X1055020Y557730D02*
D03*
X608500Y779750D02*
D03*
X624500Y779500D02*
D03*
X684750Y566500D02*
D03*
X698250Y561250D02*
D03*
X982500Y893750D02*
D03*
X1007480Y899020D02*
D03*
X1007730Y870645D02*
D03*
X1070000Y785750D02*
D03*
X1043020Y785480D02*
D03*
X1042770Y813855D02*
D03*
X1077500Y882500D02*
D03*
X1044250Y877250D02*
D03*
X1077500Y899250D02*
D03*
X1047500Y901500D02*
D03*
X1037250Y827250D02*
D03*
X1077500Y867000D02*
D03*
X664000Y592500D02*
D03*
X640000Y590250D02*
D03*
X619500D02*
D03*
X769000Y916000D02*
D03*
X738750Y964750D02*
D03*
X730750Y819500D02*
D03*
X648250Y734250D02*
D03*
X774500Y704500D02*
D03*
X774750Y684750D02*
D03*
X1120000Y600000D02*
D03*
X1100000Y720000D02*
D03*
X1080000Y600000D02*
D03*
X1040000Y920000D02*
D03*
Y760000D02*
D03*
Y600000D02*
D03*
X1000000Y920000D02*
D03*
X1020000Y880000D02*
D03*
Y640000D02*
D03*
X1000000Y600000D02*
D03*
X980000Y640000D02*
D03*
X960000Y600000D02*
D03*
X940000Y800000D02*
D03*
X900000D02*
D03*
Y720000D02*
D03*
X840000Y840000D02*
D03*
X860000Y800000D02*
D03*
Y720000D02*
D03*
Y640000D02*
D03*
X800000Y840000D02*
D03*
X680000Y920000D02*
D03*
Y760000D02*
D03*
X640000Y920000D02*
D03*
X660000Y880000D02*
D03*
X640000Y760000D02*
D03*
X600000D02*
D03*
X620000Y720000D02*
D03*
X560000Y920000D02*
D03*
X580000Y720000D02*
D03*
X520000Y920000D02*
D03*
X540000Y640000D02*
D03*
X520000Y600000D02*
D03*
X709000Y669500D02*
D03*
X704000Y832000D02*
D03*
X838250Y907250D02*
D03*
X978250Y711500D02*
D03*
X536000Y886750D02*
D03*
Y897500D02*
D03*
X1127000Y629500D02*
D03*
X1127250Y615250D02*
D03*
X1035750Y642000D02*
D03*
X1153000Y694000D02*
D03*
X968750Y642250D02*
D03*
X828250Y625750D02*
D03*
X875518Y634504D02*
D03*
X895000Y623500D02*
D03*
M02*
