G04 Layer_Physical_Order=3*
G04 Layer_Color=36540*
%FSLAX44Y44*%
%MOMM*%
G71*
G01*
G75*
%ADD35C,0.2540*%
%ADD36C,0.2100*%
%ADD40C,1.5000*%
%ADD41R,1.5000X1.5000*%
%ADD46C,0.8400*%
G36*
X635602Y863904D02*
Y851284D01*
X601327D01*
X600904Y850862D01*
X599888Y851602D01*
X600567Y853241D01*
X600631Y853731D01*
X587369D01*
X587434Y853241D01*
X587033Y852274D01*
X586101Y851888D01*
X584693Y850808D01*
X583613Y849400D01*
X582934Y847760D01*
X582869Y847271D01*
X589501D01*
Y844731D01*
X582869D01*
X582934Y844241D01*
X583613Y842602D01*
X584693Y841194D01*
X586101Y840113D01*
X586670Y839878D01*
X586418Y838608D01*
X580654D01*
Y864233D01*
X603597Y887176D01*
X612330D01*
X635602Y863904D01*
D02*
G37*
G36*
X604250Y946500D02*
Y912250D01*
X563250Y871250D01*
Y824500D01*
X584250Y803500D01*
X584250Y749148D01*
X583352Y748250D01*
X568574D01*
Y758623D01*
X570113Y759651D01*
X570134Y759682D01*
X571728Y759783D01*
X572601Y759113D01*
X574241Y758434D01*
X574730Y758370D01*
Y765001D01*
Y771632D01*
X574241Y771567D01*
X572601Y770888D01*
X571193Y769808D01*
X570113Y768400D01*
X569567Y768234D01*
X568227Y769130D01*
X566003Y769572D01*
X563779Y769130D01*
X561894Y767870D01*
X560634Y765984D01*
X560192Y763760D01*
X560634Y761536D01*
X561894Y759651D01*
X562926Y758961D01*
Y748250D01*
X557795D01*
X557279Y748646D01*
X555637Y749326D01*
X553875Y749558D01*
X551875D01*
X550113Y749326D01*
X548471Y748646D01*
X547955Y748250D01*
X546679D01*
Y781128D01*
X547949Y781754D01*
X548471Y781354D01*
X550113Y780674D01*
X551875Y780442D01*
X553875D01*
X555637Y780674D01*
X557279Y781354D01*
X558689Y782436D01*
X559771Y783846D01*
X560451Y785488D01*
X560683Y787250D01*
X560451Y789012D01*
X559771Y790654D01*
X558689Y792064D01*
X557483Y792990D01*
X557663Y793852D01*
X557864Y794221D01*
X558000Y794202D01*
X559760Y794434D01*
X561399Y795113D01*
X562500Y795958D01*
X563601Y795113D01*
X565217Y794444D01*
X564934Y793760D01*
X564869Y793271D01*
X578131D01*
X578067Y793760D01*
X577388Y795400D01*
X576307Y796808D01*
X574899Y797888D01*
X573284Y798557D01*
X573567Y799241D01*
X573631Y799731D01*
X567001D01*
Y801001D01*
X565731D01*
Y807632D01*
X565241Y807567D01*
X563601Y806888D01*
X562500Y806043D01*
X561399Y806888D01*
X559760Y807567D01*
X559271Y807632D01*
Y801001D01*
X558000D01*
Y799731D01*
X551370D01*
X551434Y799241D01*
X552113Y797602D01*
X553193Y796194D01*
X554396Y795270D01*
X554211Y794397D01*
X554016Y794040D01*
X553875Y794058D01*
X551875D01*
X550113Y793826D01*
X548471Y793146D01*
X547949Y792746D01*
X546679Y793372D01*
Y854653D01*
X547099Y855282D01*
X547314Y856363D01*
X547314Y856363D01*
Y911070D01*
X582744Y946500D01*
X604250Y946500D01*
D02*
G37*
G36*
X929740Y890016D02*
X929438Y888500D01*
X929881Y886276D01*
X931141Y884390D01*
X933026Y883131D01*
X934572Y882823D01*
X935301Y882430D01*
X935494Y881443D01*
X935210Y880016D01*
X935652Y877792D01*
X936912Y875907D01*
X938798Y874647D01*
X941021Y874204D01*
X943245Y874647D01*
X945131Y875907D01*
X946391Y877792D01*
X946833Y880016D01*
X946391Y882240D01*
X945717Y883249D01*
X946703Y884059D01*
X956926Y873836D01*
Y847085D01*
X955752Y846599D01*
X889839Y912512D01*
X890325Y913686D01*
X906070D01*
X929740Y890016D01*
D02*
G37*
G36*
X907627Y784084D02*
X907627Y784084D01*
X908544Y783472D01*
X908886Y783404D01*
X909477Y782222D01*
X909300Y781879D01*
X908754Y781335D01*
X906159D01*
X860859Y826636D01*
X861119Y827026D01*
X861413Y828502D01*
X862791Y828920D01*
X907627Y784084D01*
D02*
G37*
G36*
X884270Y898869D02*
X884760Y898933D01*
X886399Y899613D01*
X887807Y900693D01*
X888887Y902101D01*
X889350Y903217D01*
X890740Y903623D01*
X952886Y841477D01*
Y833660D01*
X951712Y833174D01*
X925405Y859482D01*
X925298Y859553D01*
X923167Y861684D01*
X922967Y861983D01*
X916684Y868267D01*
X915767Y868879D01*
X914686Y869094D01*
X914686Y869094D01*
X907900D01*
X879228Y897766D01*
X879164Y898013D01*
X879296Y898490D01*
X880711Y899153D01*
X881240Y898933D01*
X881730Y898869D01*
Y905500D01*
X884270D01*
Y898869D01*
D02*
G37*
G36*
X935220Y895542D02*
X934818Y894418D01*
X933580Y894164D01*
X909237Y918507D01*
X908321Y919119D01*
X907240Y919334D01*
X907240Y919334D01*
X868260D01*
X867179Y919119D01*
X866263Y918507D01*
X866263Y918507D01*
X854514Y906758D01*
X854251Y906804D01*
X853655Y908197D01*
X853886Y908544D01*
X854123Y909734D01*
X865295Y920906D01*
X909856D01*
X935220Y895542D01*
D02*
G37*
G36*
X562926Y720376D02*
X562926Y720376D01*
X563141Y719295D01*
X563753Y718379D01*
X586254Y695878D01*
X585768Y694704D01*
X580290D01*
X546679Y728315D01*
Y736628D01*
X547949Y737254D01*
X548471Y736854D01*
X550113Y736174D01*
X551875Y735942D01*
X553875D01*
X555637Y736174D01*
X557279Y736854D01*
X558689Y737936D01*
X559771Y739346D01*
X560451Y740988D01*
X560683Y742750D01*
X560451Y744512D01*
X560102Y745356D01*
X560950Y746626D01*
X562926D01*
Y720376D01*
D02*
G37*
G36*
X1166277Y979630D02*
X1172399Y978160D01*
X1178216Y975751D01*
X1183584Y972461D01*
X1188372Y968372D01*
X1192461Y963584D01*
X1195751Y958216D01*
X1198160Y952399D01*
X1199630Y946277D01*
X1200114Y940123D01*
X1200000Y940000D01*
X1200000D01*
X1200124Y590000D01*
X1199630Y583723D01*
X1198160Y577601D01*
X1195751Y571784D01*
X1192461Y566416D01*
X1188372Y561628D01*
X1183584Y557539D01*
X1178216Y554249D01*
X1172399Y551840D01*
X1166277Y550370D01*
X1160123Y549886D01*
X1160000Y550000D01*
Y550000D01*
X540000Y549876D01*
X533723Y550370D01*
X527601Y551840D01*
X521784Y554249D01*
X516416Y557539D01*
X511628Y561628D01*
X507539Y566416D01*
X504249Y571784D01*
X501840Y577601D01*
X500370Y583723D01*
X499886Y589877D01*
X500000Y590000D01*
X500000D01*
X499978Y652946D01*
X501247Y653876D01*
X507460D01*
X507891Y652606D01*
X507581Y652369D01*
X506138Y650489D01*
X505232Y648299D01*
X504922Y645950D01*
X505232Y643600D01*
X506138Y641411D01*
X507581Y639531D01*
X509461Y638088D01*
X511651Y637182D01*
X514000Y636872D01*
X516349Y637182D01*
X518539Y638088D01*
X520419Y639531D01*
X521861Y641411D01*
X522768Y643600D01*
X523078Y645950D01*
X522768Y648299D01*
X521861Y650489D01*
X520419Y652369D01*
X520109Y652606D01*
X520540Y653876D01*
X533813D01*
X534158Y654019D01*
X534531Y654044D01*
X534710Y654248D01*
X534961Y654352D01*
X535104Y654697D01*
X535350Y654978D01*
X535556Y655584D01*
X536046Y656297D01*
X537039Y656479D01*
X538500Y656188D01*
X540724Y656631D01*
X542609Y657890D01*
X543641D01*
X545526Y656631D01*
X547750Y656188D01*
X549974Y656631D01*
X551859Y657890D01*
X553119Y659776D01*
X553562Y662000D01*
X553119Y664224D01*
X552519Y665122D01*
X552983Y666714D01*
X553218Y666830D01*
X553397Y667035D01*
X553648Y667139D01*
X553791Y667484D01*
X554037Y667765D01*
X554020Y668036D01*
X554124Y668287D01*
Y680701D01*
X553648Y681849D01*
X552500Y682325D01*
X541124D01*
Y724086D01*
X542394Y724612D01*
X577123Y689883D01*
X578039Y689271D01*
X579120Y689056D01*
X579120Y689056D01*
X590529D01*
X590690Y688838D01*
X590395Y687113D01*
X589641Y686609D01*
X588381Y684724D01*
X587938Y682500D01*
X588381Y680276D01*
X589641Y678391D01*
X591526Y677131D01*
X593750Y676688D01*
X595974Y677131D01*
X597859Y678391D01*
X598718Y679676D01*
X609375D01*
X650547Y638503D01*
X651464Y637891D01*
X652544Y637676D01*
X652544Y637676D01*
X773250D01*
X773250Y637676D01*
X774331Y637891D01*
X775247Y638503D01*
X782587Y645842D01*
X783137Y645749D01*
X783471Y644404D01*
X782693Y643807D01*
X781613Y642399D01*
X780934Y640760D01*
X780869Y640270D01*
X794131D01*
X794066Y640760D01*
X793387Y642399D01*
X792307Y643807D01*
X790914Y644876D01*
X790907Y644925D01*
X791180Y646146D01*
X796654D01*
X797155Y645395D01*
X799041Y644136D01*
X801265Y643693D01*
X803489Y644136D01*
X805374Y645395D01*
X806135Y645420D01*
X806693Y644693D01*
X808101Y643613D01*
X809741Y642934D01*
X810230Y642869D01*
Y649500D01*
Y656131D01*
X809741Y656067D01*
X808101Y655387D01*
X806693Y654307D01*
X806142Y653589D01*
X805374Y653614D01*
X803489Y654874D01*
X801265Y655316D01*
X799041Y654874D01*
X797155Y653614D01*
X795939Y651794D01*
X781720D01*
X781720Y651794D01*
X780639Y651579D01*
X779723Y650967D01*
X779723Y650967D01*
X772080Y643324D01*
X749857D01*
X749605Y644594D01*
X749649Y644613D01*
X751057Y645693D01*
X752137Y647101D01*
X752816Y648740D01*
X752881Y649230D01*
X739619D01*
X739684Y648740D01*
X740363Y647101D01*
X741443Y645693D01*
X742851Y644613D01*
X742895Y644594D01*
X742643Y643324D01*
X691053D01*
X690668Y644594D01*
X691859Y645390D01*
X693119Y647276D01*
X693562Y649500D01*
X693119Y651724D01*
X691859Y653609D01*
X689974Y654869D01*
X687750Y655312D01*
X685526Y654869D01*
X683641Y653609D01*
X682381Y651724D01*
X681938Y649500D01*
X682381Y647276D01*
X683641Y645390D01*
X684832Y644594D01*
X684447Y643324D01*
X655150D01*
X654898Y644594D01*
X656149Y645113D01*
X657557Y646193D01*
X658637Y647601D01*
X659316Y649240D01*
X659381Y649730D01*
X652750D01*
Y651000D01*
X651480D01*
Y657631D01*
X650991Y657567D01*
X649351Y656887D01*
X647943Y655807D01*
X646863Y654399D01*
X646183Y652759D01*
X646149Y652500D01*
X644947Y652092D01*
X612542Y684497D01*
X611625Y685109D01*
X610544Y685324D01*
X610544Y685324D01*
X598718D01*
X597859Y686609D01*
X597105Y687113D01*
X596810Y688838D01*
X596971Y689056D01*
X635988D01*
X636259Y688664D01*
X635687Y687256D01*
X635033Y687126D01*
X633147Y685866D01*
X631887Y683980D01*
X631445Y681756D01*
X631887Y679532D01*
X633147Y677647D01*
X635033Y676387D01*
X637257Y675945D01*
X639481Y676387D01*
X639721Y676548D01*
X654016Y662253D01*
X654016Y662253D01*
X654932Y661641D01*
X656013Y661426D01*
X839000D01*
X839000Y661426D01*
X840081Y661641D01*
X840997Y662253D01*
X860734Y681990D01*
X862250Y681688D01*
X864474Y682131D01*
X865988Y683143D01*
X866585Y682953D01*
X867186Y682623D01*
X867244Y682570D01*
X867508Y681240D01*
X820882Y634614D01*
X794060D01*
X793505Y635884D01*
X794066Y637240D01*
X794131Y637730D01*
X780869D01*
X780934Y637240D01*
X781495Y635884D01*
X780940Y634614D01*
X626540D01*
X625459Y634399D01*
X624543Y633787D01*
X624016Y633260D01*
X622500Y633562D01*
X621465Y633356D01*
X620567Y634254D01*
X620567Y634254D01*
X620125Y636478D01*
X618865Y638364D01*
X616980Y639623D01*
X614756Y640066D01*
X612532Y639623D01*
X610646Y638364D01*
X609386Y636478D01*
X608944Y634254D01*
X609386Y632030D01*
X610646Y630145D01*
X612532Y628885D01*
X612706Y628850D01*
Y624863D01*
X612706Y624863D01*
X612921Y623782D01*
X613042Y623600D01*
X612352Y622773D01*
X612162Y622632D01*
X610000Y623062D01*
X607776Y622619D01*
X605891Y621359D01*
X604631Y619474D01*
X604188Y617250D01*
X604631Y615026D01*
X605891Y613140D01*
X607776Y611881D01*
X610000Y611438D01*
X611712Y611779D01*
X611919Y611641D01*
X613000Y611426D01*
X613000Y611426D01*
X846000D01*
X846000Y611426D01*
X847081Y611641D01*
X847997Y612253D01*
X875747Y640003D01*
X891086Y655342D01*
X891698Y656258D01*
X891913Y657339D01*
X891913Y657339D01*
Y680911D01*
X891698Y681992D01*
X891086Y682908D01*
X891086Y682908D01*
X888260Y685734D01*
X888562Y687250D01*
X888119Y689474D01*
X886860Y691359D01*
X884974Y692619D01*
X882750Y693062D01*
X881365Y692786D01*
X880285Y693866D01*
X880312Y694000D01*
X879869Y696224D01*
X878609Y698109D01*
X876859Y699279D01*
X876696Y699977D01*
X876664Y700676D01*
X877359Y701141D01*
X878619Y703026D01*
X879062Y705250D01*
X878619Y707474D01*
X877990Y708416D01*
X878669Y709686D01*
X884930D01*
X899191Y695425D01*
X899160Y695116D01*
X897900Y693231D01*
X897458Y691007D01*
X897900Y688783D01*
X899160Y686897D01*
X901046Y685638D01*
X903270Y685195D01*
X905494Y685638D01*
X907156Y686748D01*
X908426Y686352D01*
Y681777D01*
X908426Y681777D01*
X908465Y681577D01*
X908401Y681480D01*
X907959Y679256D01*
X908401Y677032D01*
X909661Y675147D01*
X911546Y673887D01*
X913770Y673445D01*
X915994Y673887D01*
X917880Y675147D01*
X919139Y677032D01*
X919582Y679256D01*
X919139Y681480D01*
X918466Y682488D01*
X918469Y682551D01*
X919109Y683812D01*
X920744Y684137D01*
X922630Y685397D01*
X923620Y686879D01*
X924873Y687023D01*
X925089Y686966D01*
X925640Y686141D01*
X927526Y684881D01*
X929750Y684438D01*
X931974Y684881D01*
X933859Y686141D01*
X935119Y688026D01*
X935562Y690250D01*
X935119Y692474D01*
X933859Y694360D01*
X931974Y695619D01*
X929750Y696062D01*
X929266Y695965D01*
X929013Y696244D01*
X929471Y697630D01*
X929474Y697631D01*
X931359Y698891D01*
X932619Y700776D01*
X933062Y703000D01*
X932619Y705224D01*
X931359Y707110D01*
X929474Y708369D01*
X927250Y708812D01*
X925443Y708452D01*
X924624Y709512D01*
X925140Y710284D01*
X925582Y712508D01*
X925140Y714732D01*
X923880Y716617D01*
X921994Y717877D01*
X919771Y718320D01*
X917546Y717877D01*
X916625Y717262D01*
X909037Y724850D01*
X909455Y726228D01*
X910224Y726381D01*
X912110Y727641D01*
X913369Y729526D01*
X913812Y731750D01*
X913369Y733974D01*
X912110Y735860D01*
X910224Y737119D01*
X908000Y737562D01*
X906484Y737260D01*
X904997Y738747D01*
X904081Y739359D01*
X903000Y739574D01*
X903000Y739574D01*
X812920D01*
X790247Y762247D01*
X789331Y762859D01*
X788250Y763074D01*
X788250Y763074D01*
X741000D01*
X739919Y762859D01*
X739003Y762247D01*
X739003Y762247D01*
X732950Y756194D01*
X731747Y756787D01*
X731809Y757260D01*
X731578Y759020D01*
X730898Y760659D01*
X729818Y762067D01*
X728410Y763148D01*
X726770Y763827D01*
X726281Y763891D01*
Y757260D01*
X725011D01*
Y755990D01*
X718380D01*
X718445Y755501D01*
X718907Y754384D01*
X718211Y753114D01*
X657688D01*
X655385Y755417D01*
X654469Y756029D01*
X653388Y756244D01*
X653388Y756244D01*
X623920D01*
X622839Y756029D01*
X621923Y755417D01*
X621923Y755417D01*
X603266Y736760D01*
X601750Y737062D01*
X599526Y736619D01*
X597640Y735359D01*
X596381Y733474D01*
X595938Y731250D01*
X596381Y729026D01*
X597640Y727141D01*
X599526Y725881D01*
X601750Y725438D01*
X603974Y725881D01*
X605859Y727141D01*
X605908Y727213D01*
X607435D01*
X608146Y726149D01*
X610031Y724890D01*
X610805Y724736D01*
X611223Y723358D01*
X608393Y720527D01*
X607656Y720599D01*
X605771Y721859D01*
X603547Y722301D01*
X601323Y721859D01*
X599437Y720599D01*
X598177Y718714D01*
X597735Y716490D01*
X598177Y714266D01*
X599437Y712380D01*
X601323Y711121D01*
X603547Y710678D01*
X605771Y711121D01*
X607656Y712380D01*
X608762Y714035D01*
X609027Y714088D01*
X609871Y714651D01*
X638620Y743400D01*
X649238D01*
X652506Y740132D01*
X653350Y739568D01*
X654345Y739370D01*
X733800D01*
X733959Y739402D01*
X734040Y739386D01*
X734387D01*
X734387Y739386D01*
X735468Y739601D01*
X736384Y740213D01*
X745517Y749346D01*
X775786D01*
X776474Y748169D01*
X776460Y748076D01*
X774654Y746869D01*
X773394Y744983D01*
X772952Y742759D01*
X773394Y740535D01*
X774654Y738650D01*
X776540Y737390D01*
X778764Y736948D01*
X780988Y737390D01*
X782873Y738650D01*
X784133Y740535D01*
X784575Y742759D01*
X784133Y744983D01*
X782873Y746869D01*
X781067Y748076D01*
X781053Y748169D01*
X781741Y749346D01*
X783733D01*
X806406Y726673D01*
X807322Y726061D01*
X808403Y725846D01*
X855255D01*
X855741Y724672D01*
X852163Y721094D01*
X798684D01*
X798130Y722364D01*
X798887Y723351D01*
X799566Y724990D01*
X799631Y725480D01*
X786369D01*
X786433Y724990D01*
X787113Y723351D01*
X787870Y722364D01*
X787316Y721094D01*
X750698D01*
X750072Y722364D01*
X750637Y723101D01*
X751317Y724741D01*
X751381Y725230D01*
X738119D01*
X738184Y724741D01*
X738863Y723101D01*
X739428Y722364D01*
X738801Y721094D01*
X727040D01*
X726350Y722364D01*
X726816Y723491D01*
X726990Y724806D01*
X727761Y725947D01*
X729985Y726390D01*
X731871Y727649D01*
X733130Y729535D01*
X733573Y731759D01*
X733130Y733983D01*
X731871Y735868D01*
X729985Y737128D01*
X727761Y737570D01*
X725537Y737128D01*
X723652Y735868D01*
X722392Y733983D01*
X721962Y731823D01*
X721520Y731881D01*
Y725250D01*
X720250D01*
Y723980D01*
X713619D01*
X713683Y723491D01*
X714150Y722364D01*
X713665Y721349D01*
X713577Y721225D01*
X713369Y721059D01*
X712463Y720879D01*
X712449Y720870D01*
X712442D01*
X704943Y728368D01*
X704100Y728932D01*
X703105Y729130D01*
X652959D01*
X652533Y730400D01*
X653619Y732026D01*
X654062Y734250D01*
X653619Y736474D01*
X652359Y738360D01*
X650474Y739619D01*
X648250Y740062D01*
X646026Y739619D01*
X644140Y738360D01*
X642881Y736474D01*
X642438Y734250D01*
X642881Y732026D01*
X643967Y730400D01*
X643541Y729130D01*
X634733D01*
X633737Y728932D01*
X632894Y728368D01*
X624334Y719808D01*
X624230Y719877D01*
X622006Y720320D01*
X619782Y719877D01*
X617896Y718617D01*
X616637Y716732D01*
X616194Y714508D01*
X616637Y712284D01*
X617896Y710399D01*
X619782Y709139D01*
X622006Y708696D01*
X624230Y709139D01*
X626115Y710399D01*
X626785Y711400D01*
X628312D01*
X628647Y710899D01*
X630532Y709639D01*
X632757Y709196D01*
X634981Y709639D01*
X636866Y710899D01*
X637660Y712087D01*
X639184Y712092D01*
X639647Y711399D01*
X641533Y710139D01*
X643757Y709696D01*
X645981Y710139D01*
X647867Y711399D01*
X649126Y713284D01*
X649569Y715508D01*
X649846Y715846D01*
X697831D01*
X699212Y714465D01*
X698726Y713291D01*
X676701D01*
X675620Y713076D01*
X674704Y712464D01*
X674704Y712464D01*
X672322Y710082D01*
X660476D01*
X659617Y711367D01*
X657732Y712627D01*
X655508Y713069D01*
X653284Y712627D01*
X651398Y711367D01*
X650138Y709482D01*
X649831Y707936D01*
X649087Y707039D01*
X648487Y706824D01*
X596420D01*
X586754Y716490D01*
Y732260D01*
X596287Y741793D01*
X596899Y742709D01*
X597114Y743790D01*
X597114Y743790D01*
Y810254D01*
X597114Y810254D01*
X596899Y811335D01*
X596287Y812252D01*
X585963Y822576D01*
X585927Y822629D01*
X584334Y824223D01*
X584752Y825601D01*
X586228Y825894D01*
X586700Y826210D01*
X586995Y826160D01*
X588024Y825567D01*
X588381Y823776D01*
X589641Y821890D01*
X591526Y820631D01*
X593750Y820188D01*
X595974Y820631D01*
X597859Y821890D01*
X598282Y822522D01*
X599552D01*
X600140Y821640D01*
X602026Y820381D01*
X604250Y819938D01*
X606474Y820381D01*
X608359Y821640D01*
X609846Y821580D01*
X610640Y820390D01*
X612526Y819131D01*
X614750Y818688D01*
X616974Y819131D01*
X617756Y819653D01*
X618800Y818824D01*
X618438Y816999D01*
X618880Y814775D01*
X620140Y812890D01*
X622025Y811630D01*
X624249Y811188D01*
X625843Y811505D01*
X626945Y810534D01*
X626938Y810500D01*
X627381Y808276D01*
X628641Y806391D01*
X630526Y805131D01*
X632750Y804688D01*
X634974Y805131D01*
X636860Y806391D01*
X637365Y807147D01*
X638635D01*
X639141Y806391D01*
X641026Y805131D01*
X643250Y804688D01*
X645474Y805131D01*
X647359Y806391D01*
X647410Y806466D01*
X648938D01*
X649648Y805403D01*
X650933Y804545D01*
Y801743D01*
X650933Y801742D01*
X651148Y800662D01*
X651760Y799745D01*
X655033Y796473D01*
X655033Y796473D01*
X655177Y796377D01*
X655558Y794754D01*
X655546Y794719D01*
X654881Y793724D01*
X654438Y791500D01*
X654881Y789276D01*
X656141Y787391D01*
X658026Y786131D01*
X660250Y785688D01*
X661766Y785990D01*
X680753Y767003D01*
X680753Y767003D01*
X681669Y766391D01*
X682750Y766176D01*
X682750Y766176D01*
X700199D01*
X700584Y764906D01*
X700141Y764610D01*
X698881Y762724D01*
X698438Y760500D01*
X698881Y758276D01*
X700141Y756391D01*
X702026Y755131D01*
X704250Y754688D01*
X706474Y755131D01*
X708360Y756391D01*
X709619Y758276D01*
X710062Y760500D01*
X709619Y762724D01*
X708360Y764610D01*
X707916Y764906D01*
X708301Y766176D01*
X797830D01*
X814084Y749922D01*
X813704Y748010D01*
X814146Y745786D01*
X815406Y743900D01*
X817292Y742640D01*
X819516Y742198D01*
X821740Y742640D01*
X823625Y743900D01*
X824532Y745257D01*
X825995Y745353D01*
X826131Y745150D01*
X828016Y743891D01*
X830240Y743448D01*
X832464Y743891D01*
X834350Y745150D01*
X835610Y747036D01*
X836052Y749260D01*
X835610Y751484D01*
X834350Y753369D01*
X832464Y754629D01*
X830240Y755071D01*
X828724Y754770D01*
X808457Y775037D01*
X807541Y775649D01*
X806460Y775864D01*
X806460Y775864D01*
X736597D01*
X735971Y777134D01*
X736137Y777351D01*
X736816Y778990D01*
X736881Y779480D01*
X723619D01*
X723683Y778990D01*
X724363Y777351D01*
X724529Y777134D01*
X723903Y775864D01*
X689737D01*
X665134Y800467D01*
X664218Y801079D01*
X663137Y801294D01*
X663137Y801294D01*
X658200D01*
X656582Y802912D01*
Y804545D01*
X657867Y805403D01*
X659127Y807289D01*
X659569Y809513D01*
X659127Y811737D01*
X657867Y813622D01*
X657009Y814196D01*
X657394Y815466D01*
X662001D01*
X662001Y815466D01*
X663082Y815681D01*
X663998Y816293D01*
X676880Y829176D01*
X736693D01*
X737049Y827906D01*
X735943Y827057D01*
X735189Y826074D01*
X734728Y826089D01*
X732843Y827349D01*
X730619Y827792D01*
X728395Y827349D01*
X726510Y826089D01*
X725250Y824204D01*
X724807Y821980D01*
X725250Y819756D01*
X726510Y817870D01*
X728395Y816611D01*
X730619Y816168D01*
X732843Y816611D01*
X734728Y817870D01*
X735302Y817889D01*
X735961Y817429D01*
X737351Y816363D01*
X738990Y815684D01*
X739480Y815619D01*
Y822250D01*
X740750D01*
Y823520D01*
X747381D01*
X747317Y824009D01*
X746637Y825649D01*
X745557Y827057D01*
X744451Y827906D01*
X744807Y829176D01*
X784979D01*
X798148Y816007D01*
X798148Y816006D01*
X799065Y815394D01*
X800145Y815179D01*
X800146Y815179D01*
X817265D01*
X845441Y787003D01*
X845441Y787003D01*
X846357Y786391D01*
X847438Y786176D01*
X847438Y786176D01*
X849282D01*
X850141Y784891D01*
X852026Y783631D01*
X854250Y783188D01*
X856474Y783631D01*
X857126Y784066D01*
X858396Y783387D01*
Y779890D01*
X852266Y773760D01*
X850750Y774062D01*
X848526Y773619D01*
X847274Y772783D01*
X846004Y773462D01*
Y779026D01*
X845789Y780106D01*
X845177Y781023D01*
X816633Y809567D01*
X815716Y810179D01*
X814636Y810394D01*
X814635Y810394D01*
X808364D01*
X807284Y810179D01*
X806367Y809567D01*
X806367Y809567D01*
X796010Y799210D01*
X795500Y799312D01*
X793276Y798869D01*
X791391Y797609D01*
X790131Y795724D01*
X789688Y793500D01*
X790131Y791276D01*
X790241Y791111D01*
X789536Y790054D01*
X789500Y790062D01*
X787276Y789619D01*
X786048Y788799D01*
X784643Y789353D01*
X784619Y789474D01*
X783359Y791359D01*
X781474Y792619D01*
X779250Y793062D01*
X777633Y792740D01*
X777081Y793109D01*
X776000Y793324D01*
X776000Y793324D01*
X768383D01*
X767951Y793757D01*
X767034Y794369D01*
X765953Y794584D01*
X765953Y794584D01*
X725690D01*
X725689Y794584D01*
X724609Y794369D01*
X723692Y793757D01*
X723260Y793324D01*
X693208D01*
X692777Y794594D01*
X693557Y795193D01*
X694637Y796601D01*
X695316Y798241D01*
X695381Y798730D01*
X688750D01*
Y801270D01*
X695381D01*
X695316Y801759D01*
X695069Y802356D01*
X695100Y802451D01*
X696122Y803134D01*
X702763Y796493D01*
X702763Y796493D01*
X703679Y795881D01*
X704760Y795666D01*
X720060D01*
X720061Y795666D01*
X721141Y795881D01*
X722057Y796493D01*
X722740Y797176D01*
X770500D01*
X770661Y797208D01*
X770776Y797131D01*
X773000Y796688D01*
X775224Y797131D01*
X777109Y798391D01*
X778369Y800276D01*
X778812Y802500D01*
X778627Y803430D01*
X779707Y804510D01*
X779761Y804499D01*
X782104D01*
X782395Y803038D01*
X783655Y801153D01*
X785540Y799893D01*
X787764Y799451D01*
X789988Y799893D01*
X791873Y801153D01*
X793133Y803038D01*
X793576Y805262D01*
X793133Y807486D01*
X791873Y809372D01*
X789988Y810632D01*
X788749Y810878D01*
X788017Y812069D01*
X788460Y814293D01*
X788017Y816517D01*
X786758Y818403D01*
X784872Y819662D01*
X782648Y820105D01*
X780424Y819662D01*
X779418Y818990D01*
X778275Y819754D01*
X778575Y821263D01*
X778133Y823487D01*
X776873Y825373D01*
X774987Y826633D01*
X772763Y827075D01*
X770539Y826633D01*
X768654Y825373D01*
X767394Y823487D01*
X766952Y821263D01*
X767394Y819039D01*
X768372Y817576D01*
X768377Y817485D01*
X767957Y816328D01*
X767866Y816220D01*
X767359Y816119D01*
X766442Y815507D01*
X763260Y812324D01*
X720468D01*
X719610Y813609D01*
X717724Y814869D01*
X715500Y815312D01*
X713276Y814869D01*
X711391Y813609D01*
X710805Y812733D01*
X709278D01*
X708859Y813360D01*
X706974Y814619D01*
X704750Y815062D01*
X702526Y814619D01*
X700640Y813360D01*
X700139Y812608D01*
X698611D01*
X698109Y813360D01*
X696224Y814619D01*
X694000Y815062D01*
X691776Y814619D01*
X689891Y813360D01*
X689264Y812421D01*
X687736D01*
X687109Y813360D01*
X685224Y814619D01*
X683000Y815062D01*
X680776Y814619D01*
X678891Y813360D01*
X678385Y812603D01*
X677115D01*
X676609Y813360D01*
X674724Y814619D01*
X672500Y815062D01*
X670276Y814619D01*
X668391Y813360D01*
X667131Y811474D01*
X666688Y809250D01*
X667131Y807026D01*
X668391Y805141D01*
X669676Y804282D01*
Y799000D01*
X669676Y799000D01*
X669891Y797919D01*
X670503Y797003D01*
X683043Y784463D01*
X683043Y784463D01*
X683959Y783851D01*
X685040Y783636D01*
X723007D01*
X723554Y782817D01*
X723665Y782366D01*
X723619Y782020D01*
X736881D01*
X736816Y782510D01*
X736354Y783626D01*
X737050Y784896D01*
X762695D01*
X763615Y783835D01*
X763452Y783011D01*
X763894Y780787D01*
X765154Y778902D01*
X767039Y777642D01*
X769263Y777200D01*
X771487Y777642D01*
X773373Y778902D01*
X774632Y780787D01*
X774837Y781816D01*
X776248Y782400D01*
X777026Y781881D01*
X779250Y781438D01*
X781474Y781881D01*
X782702Y782701D01*
X784107Y782147D01*
X784131Y782026D01*
X785390Y780141D01*
X787276Y778881D01*
X789500Y778438D01*
X791724Y778881D01*
X793609Y780141D01*
X794869Y782026D01*
X795312Y784250D01*
X794869Y786474D01*
X794759Y786639D01*
X795464Y787695D01*
X795500Y787688D01*
X797724Y788131D01*
X798203Y788451D01*
X799614Y787866D01*
X799881Y786526D01*
X801141Y784641D01*
X803026Y783381D01*
X805250Y782938D01*
X807474Y783381D01*
X809360Y784641D01*
X810619Y786526D01*
X811062Y788750D01*
X810619Y790974D01*
X809360Y792859D01*
X807474Y794119D01*
X805250Y794562D01*
X803026Y794119D01*
X802547Y793799D01*
X801136Y794384D01*
X800869Y795724D01*
X800726Y795938D01*
X804459Y799670D01*
X805837Y799252D01*
X806131Y797776D01*
X807391Y795891D01*
X809276Y794631D01*
X811500Y794188D01*
X813724Y794631D01*
X815610Y795891D01*
X816869Y797776D01*
X817163Y799252D01*
X818541Y799670D01*
X840356Y777856D01*
Y758115D01*
X840356Y758114D01*
X840571Y757034D01*
X841183Y756117D01*
X851117Y746183D01*
X851117Y746183D01*
X852034Y745571D01*
X853114Y745356D01*
X865636D01*
X865636Y745356D01*
X866716Y745571D01*
X867633Y746183D01*
X877419Y755969D01*
X879054Y755808D01*
X879159Y755651D01*
X880381Y754835D01*
X880959Y754092D01*
X880705Y753207D01*
X879881Y751974D01*
X879438Y749750D01*
X879881Y747526D01*
X881141Y745640D01*
X883026Y744381D01*
X885250Y743938D01*
X887474Y744381D01*
X889360Y745640D01*
X890619Y747526D01*
X891062Y749750D01*
X890619Y751974D01*
X889360Y753859D01*
X888138Y754676D01*
X887560Y755418D01*
X887814Y756303D01*
X888638Y757536D01*
X889080Y759760D01*
X888638Y761984D01*
X887378Y763870D01*
X885493Y765129D01*
X883269Y765572D01*
X881045Y765129D01*
X880314Y764641D01*
X879044Y765320D01*
Y766646D01*
X880224Y766881D01*
X882110Y768140D01*
X883369Y770026D01*
X883812Y772250D01*
X883369Y774474D01*
X882110Y776359D01*
X880224Y777619D01*
X878000Y778062D01*
X875776Y777619D01*
X873891Y776359D01*
X873394Y775617D01*
X872124Y776002D01*
Y792469D01*
X873298Y792955D01*
X901445Y764808D01*
Y763478D01*
X900160Y762620D01*
X898901Y760734D01*
X898458Y758510D01*
X898901Y756286D01*
X900160Y754401D01*
X902046Y753141D01*
X904270Y752699D01*
X906494Y753141D01*
X908379Y754401D01*
X909325Y755816D01*
X910497Y756068D01*
X910845Y755980D01*
X912546Y754844D01*
X914770Y754401D01*
X916994Y754844D01*
X918879Y756103D01*
X920139Y757989D01*
X920581Y760213D01*
X920139Y762437D01*
X918879Y764322D01*
X916994Y765582D01*
X914770Y766024D01*
X914070Y765885D01*
X905538Y774417D01*
X906064Y775687D01*
X909302D01*
X910161Y774402D01*
X912046Y773142D01*
X914270Y772700D01*
X916494Y773142D01*
X917218Y773626D01*
X917664Y773488D01*
X918497Y772953D01*
X918881Y771026D01*
X920141Y769140D01*
X922026Y767881D01*
X924250Y767438D01*
X925286Y767644D01*
X926556Y766602D01*
Y736550D01*
X924766Y734760D01*
X923250Y735062D01*
X921026Y734619D01*
X919140Y733360D01*
X917881Y731474D01*
X917438Y729250D01*
X917881Y727026D01*
X919140Y725141D01*
X921026Y723881D01*
X923250Y723438D01*
X925474Y723881D01*
X927359Y725141D01*
X927615Y725523D01*
X928885D01*
X929140Y725141D01*
X931026Y723881D01*
X933250Y723438D01*
X935474Y723881D01*
X936126Y724316D01*
X937396Y723637D01*
Y686640D01*
X907340Y656584D01*
X899690D01*
X899689Y656584D01*
X898609Y656369D01*
X897692Y655757D01*
X897692Y655757D01*
X851694Y609758D01*
X791434D01*
X790353Y609543D01*
X789437Y608931D01*
X789437Y608931D01*
X780724Y600219D01*
X779000Y600562D01*
X776776Y600119D01*
X774891Y598859D01*
X774188Y597808D01*
X772649Y597387D01*
X771010Y598066D01*
X770520Y598131D01*
Y591500D01*
Y584869D01*
X771010Y584934D01*
X772649Y585613D01*
X774057Y586693D01*
X775137Y588101D01*
X775412Y588764D01*
X776776Y589381D01*
X779000Y588938D01*
X781224Y589381D01*
X783110Y590640D01*
X784369Y592526D01*
X784812Y594750D01*
X784552Y596057D01*
X792604Y604110D01*
X850099D01*
X850585Y602936D01*
X843710Y596061D01*
X842494Y596430D01*
X842386Y596976D01*
X841126Y598862D01*
X839240Y600121D01*
X837016Y600564D01*
X834792Y600121D01*
X832907Y598862D01*
X831647Y596976D01*
X831205Y594752D01*
X831647Y592528D01*
X832907Y590643D01*
X834792Y589383D01*
X837016Y588941D01*
X837640Y589064D01*
X838538Y588166D01*
X838455Y587752D01*
X838897Y585528D01*
X840157Y583642D01*
X842043Y582383D01*
X844267Y581940D01*
X846491Y582383D01*
X848376Y583642D01*
X849636Y585528D01*
X850078Y587752D01*
X849636Y589976D01*
X848376Y591861D01*
X848298Y592660D01*
X896510Y640873D01*
X897900Y640467D01*
X898363Y639351D01*
X899443Y637943D01*
X900851Y636863D01*
X902490Y636184D01*
X902980Y636119D01*
Y642750D01*
X904250D01*
Y644020D01*
X910881D01*
X910816Y644510D01*
X910336Y645669D01*
X910830Y646855D01*
X911035Y647065D01*
X911264Y647111D01*
X912180Y647723D01*
X946257Y681799D01*
X946869Y682716D01*
X947084Y683797D01*
Y733811D01*
X946869Y734891D01*
X946257Y735807D01*
X946257Y735808D01*
X944324Y737740D01*
Y762333D01*
X945337Y763346D01*
X945949Y764262D01*
X946164Y765343D01*
X946164Y765343D01*
Y797907D01*
X946164Y797907D01*
X945949Y798988D01*
X945337Y799904D01*
X945337Y799904D01*
X901994Y843247D01*
X901591Y843517D01*
X900359Y845359D01*
X898474Y846619D01*
X896250Y847062D01*
X894026Y846619D01*
X892141Y845359D01*
X891885Y844977D01*
X890615D01*
X890359Y845359D01*
X888474Y846619D01*
X886342Y847043D01*
X854565Y878820D01*
X853649Y879432D01*
X852568Y879647D01*
X852568Y879647D01*
X825097D01*
X796384Y908360D01*
Y921365D01*
X796384Y921365D01*
X796169Y922445D01*
X795557Y923362D01*
X788922Y929997D01*
X788305Y930409D01*
X788138Y931464D01*
X788200Y931865D01*
X789360Y932641D01*
X790619Y934526D01*
X791062Y936750D01*
X790619Y938974D01*
X789360Y940860D01*
X787474Y942119D01*
X785250Y942562D01*
X783026Y942119D01*
X781141Y940860D01*
X779881Y938974D01*
X779438Y936750D01*
X779881Y934526D01*
X781141Y932641D01*
X781958Y932094D01*
X781573Y930824D01*
X654500D01*
X654500Y930824D01*
X653419Y930609D01*
X652503Y929997D01*
X631003Y908497D01*
X630391Y907581D01*
X630176Y906500D01*
X630176Y906500D01*
Y893218D01*
X628890Y892359D01*
X627631Y890474D01*
X627188Y888250D01*
X627631Y886026D01*
X628890Y884140D01*
X630776Y882881D01*
X633000Y882438D01*
X635224Y882881D01*
X637109Y884140D01*
X638369Y886026D01*
X638812Y888250D01*
X638391Y890362D01*
X638635Y890665D01*
X639402Y891215D01*
X640276Y890631D01*
X642500Y890188D01*
X644724Y890631D01*
X646609Y891890D01*
X647869Y893776D01*
X648312Y896000D01*
X647869Y898224D01*
X646609Y900109D01*
X644724Y901369D01*
X642500Y901812D01*
X640276Y901369D01*
X638391Y900109D01*
X637131Y898224D01*
X637094Y898041D01*
X635824Y898166D01*
Y905330D01*
X655670Y925176D01*
X682817D01*
X683303Y924002D01*
X666470Y907170D01*
X664500Y907562D01*
X662276Y907119D01*
X660390Y905860D01*
X659131Y903974D01*
X658688Y901750D01*
X659131Y899526D01*
X660390Y897641D01*
X662276Y896381D01*
X664500Y895938D01*
X666724Y896381D01*
X668609Y897641D01*
X669361Y898766D01*
X670889D01*
X671640Y897641D01*
X673526Y896381D01*
X675750Y895938D01*
X677974Y896381D01*
X679859Y897641D01*
X681119Y899526D01*
X681562Y901750D01*
X681260Y903266D01*
X694920Y916926D01*
X707774D01*
X708159Y915656D01*
X707641Y915310D01*
X706381Y913424D01*
X705938Y911200D01*
X706381Y908976D01*
X707641Y907091D01*
X709526Y905831D01*
X711750Y905388D01*
X713974Y905831D01*
X714510Y906189D01*
X715860Y905564D01*
X716363Y904351D01*
X717443Y902943D01*
X718851Y901863D01*
X720490Y901183D01*
X720980Y901119D01*
Y907750D01*
X723520D01*
Y901119D01*
X724009Y901183D01*
X725649Y901863D01*
X725872Y902034D01*
X727589Y901750D01*
X728152Y900908D01*
X730037Y899648D01*
X730612Y899534D01*
X730839Y899030D01*
X731007Y898160D01*
X729881Y896474D01*
X729438Y894250D01*
X729881Y892026D01*
X731141Y890141D01*
X733026Y888881D01*
X735250Y888438D01*
X737474Y888881D01*
X739360Y890141D01*
X740619Y892026D01*
X741062Y894250D01*
X740619Y896474D01*
X739360Y898360D01*
X737474Y899619D01*
X736899Y899734D01*
X736673Y900237D01*
X736504Y901107D01*
X737631Y902793D01*
X738073Y905017D01*
X737767Y906555D01*
X738910Y907319D01*
X740288Y906398D01*
X742512Y905956D01*
X744212Y906294D01*
X754836Y895669D01*
X754745Y894894D01*
X753441Y894138D01*
X753009Y894316D01*
X752520Y894381D01*
Y887750D01*
Y881119D01*
X753009Y881183D01*
X754126Y881646D01*
X755396Y880950D01*
Y877390D01*
X748370Y870364D01*
X743117D01*
X742974Y871631D01*
X744859Y872890D01*
X746119Y874776D01*
X746562Y877000D01*
X746119Y879224D01*
X744859Y881109D01*
X742974Y882369D01*
X740750Y882812D01*
X738526Y882369D01*
X736640Y881109D01*
X735782Y879824D01*
X729920D01*
X711510Y898234D01*
X711812Y899750D01*
X711369Y901974D01*
X710109Y903859D01*
X708224Y905119D01*
X706000Y905562D01*
X703776Y905119D01*
X701890Y903859D01*
X700631Y901974D01*
X700612Y901879D01*
X699279Y901687D01*
X697484Y902886D01*
X695259Y903329D01*
X693036Y902886D01*
X691150Y901626D01*
X689890Y899741D01*
X689448Y897517D01*
X689890Y895293D01*
X691150Y893408D01*
X693036Y892148D01*
X695259Y891705D01*
X697484Y892148D01*
X699369Y893408D01*
X700629Y895293D01*
X700648Y895388D01*
X701981Y895580D01*
X703776Y894381D01*
X706000Y893938D01*
X707516Y894240D01*
X726753Y875003D01*
X726753Y875003D01*
X727669Y874391D01*
X728750Y874176D01*
X735782D01*
X736640Y872890D01*
X738526Y871631D01*
X738383Y870364D01*
X663380D01*
X652510Y881234D01*
X652812Y882750D01*
X652369Y884974D01*
X651109Y886860D01*
X649224Y888119D01*
X647000Y888562D01*
X644776Y888119D01*
X642890Y886860D01*
X641631Y884974D01*
X641188Y882750D01*
X641631Y880526D01*
X642890Y878641D01*
X644776Y877381D01*
X647000Y876938D01*
X648516Y877240D01*
X658690Y867066D01*
X658204Y865893D01*
X641601D01*
X615497Y891997D01*
X614581Y892609D01*
X613500Y892824D01*
X613500Y892824D01*
X605191D01*
X604705Y893998D01*
X650053Y939346D01*
X682490D01*
X682490Y939346D01*
X683571Y939561D01*
X684488Y940173D01*
X689260Y944946D01*
X798213D01*
X798595Y943676D01*
X797338Y942039D01*
X796432Y939849D01*
X796122Y937500D01*
X796432Y935151D01*
X797338Y932961D01*
X798781Y931081D01*
X799669Y930400D01*
X799618Y928838D01*
X798976Y928410D01*
X797717Y926524D01*
X797274Y924300D01*
X797717Y922076D01*
X798976Y920191D01*
X800862Y918931D01*
X803086Y918488D01*
X805310Y918931D01*
X807076Y920111D01*
X807525Y919968D01*
X808246Y919482D01*
X808204Y919268D01*
X808646Y917044D01*
X809906Y915158D01*
X811791Y913899D01*
X814015Y913456D01*
X816239Y913899D01*
X818125Y915158D01*
X819385Y917044D01*
X819827Y919268D01*
X819385Y921492D01*
X818125Y923378D01*
X816239Y924637D01*
X814015Y925080D01*
X811791Y924637D01*
X810025Y923457D01*
X809576Y923600D01*
X808855Y924087D01*
X808897Y924300D01*
X808455Y926524D01*
X807792Y927517D01*
X807777Y927593D01*
X808300Y929043D01*
X809739Y929639D01*
X811619Y931081D01*
X813061Y932961D01*
X813968Y935151D01*
X814278Y937500D01*
X814026Y939407D01*
X815229Y940000D01*
X817426Y937804D01*
Y933326D01*
X817426Y933326D01*
X817641Y932245D01*
X818253Y931329D01*
X829176Y920406D01*
Y911270D01*
X827906Y910592D01*
X826759Y911067D01*
X826270Y911131D01*
Y904500D01*
Y897869D01*
X826759Y897934D01*
X828399Y898613D01*
X829807Y899693D01*
X830887Y901101D01*
X831151Y901736D01*
X832649Y902034D01*
X851630Y883053D01*
X851630Y883053D01*
X852546Y882441D01*
X853627Y882226D01*
X861694D01*
X862408Y881157D01*
X864294Y879897D01*
X866518Y879455D01*
X868742Y879897D01*
X869394Y880332D01*
X870664Y879654D01*
Y879012D01*
X870664Y879012D01*
X870879Y877931D01*
X871491Y877015D01*
X950176Y798330D01*
Y782920D01*
X948663Y781407D01*
X948051Y780491D01*
X947836Y779410D01*
X947836Y779410D01*
Y740840D01*
X947836Y740840D01*
X948051Y739759D01*
X948663Y738843D01*
X949676Y737830D01*
Y674420D01*
X910554Y635298D01*
X907724D01*
X907724Y635298D01*
X906643Y635083D01*
X905727Y634471D01*
X905727Y634471D01*
X892606Y621350D01*
X880250D01*
X879255Y621152D01*
X878412Y620588D01*
X853412Y595588D01*
X852848Y594745D01*
X852650Y593750D01*
Y583292D01*
X850526Y582869D01*
X848641Y581609D01*
X847381Y579724D01*
X846938Y577500D01*
X847381Y575276D01*
X848641Y573391D01*
X850526Y572131D01*
X852750Y571688D01*
X854974Y572131D01*
X856859Y573391D01*
X858119Y575276D01*
X858562Y577500D01*
X858119Y579724D01*
X857850Y580127D01*
Y592673D01*
X881327Y616150D01*
X892905D01*
X892919Y616141D01*
X894000Y615926D01*
X895081Y616141D01*
X895997Y616753D01*
X903826Y624582D01*
X905204Y624164D01*
X905381Y623276D01*
X906640Y621390D01*
X908526Y620131D01*
X910750Y619688D01*
X912974Y620131D01*
X914859Y621390D01*
X916119Y623276D01*
X916562Y625500D01*
X916119Y627724D01*
X914859Y629609D01*
X914734Y629693D01*
X914573Y631329D01*
X919471Y636227D01*
X920673Y635818D01*
X920684Y635741D01*
X921363Y634101D01*
X922443Y632693D01*
X923851Y631613D01*
X925490Y630933D01*
X925980Y630869D01*
Y637500D01*
X927250D01*
Y638770D01*
X933881D01*
X933817Y639259D01*
X933137Y640899D01*
X932057Y642307D01*
X930649Y643387D01*
X929009Y644066D01*
X928932Y644077D01*
X928523Y645279D01*
X954497Y671253D01*
X954497Y671253D01*
X955109Y672169D01*
X955324Y673250D01*
Y739000D01*
X955109Y740081D01*
X954497Y740997D01*
X954497Y740997D01*
X953484Y742010D01*
Y778240D01*
X954997Y779753D01*
X954997Y779753D01*
X955609Y780669D01*
X955824Y781750D01*
Y799500D01*
X955609Y800581D01*
X954997Y801497D01*
X954997Y801497D01*
X876312Y880182D01*
Y888153D01*
X876097Y889234D01*
X875485Y890151D01*
X875485Y890151D01*
X872678Y892958D01*
X872844Y893594D01*
X873203Y894229D01*
X874516Y894490D01*
X904733Y864273D01*
X904733Y864273D01*
X905649Y863661D01*
X906730Y863446D01*
X913516D01*
X914502Y862461D01*
X914281Y862004D01*
X913753Y861413D01*
X911750Y861812D01*
X909526Y861369D01*
X907641Y860109D01*
X906381Y858224D01*
X905938Y856000D01*
X906381Y853776D01*
X907641Y851890D01*
X909526Y850631D01*
X911750Y850188D01*
X913508Y850538D01*
X914074Y850527D01*
X914871Y849702D01*
X915151Y848291D01*
X916411Y846405D01*
X918297Y845145D01*
X920520Y844703D01*
X922745Y845145D01*
X924630Y846405D01*
X925890Y848291D01*
X926043Y849059D01*
X927421Y849477D01*
X948846Y828052D01*
Y819080D01*
X948846Y819080D01*
X949061Y817999D01*
X949673Y817083D01*
X958676Y808080D01*
Y778454D01*
X956203Y775981D01*
X955591Y775065D01*
X955376Y773984D01*
X955376Y773984D01*
Y744516D01*
X955376Y744516D01*
X955591Y743435D01*
X956203Y742519D01*
X957096Y741626D01*
Y655590D01*
X914580Y613074D01*
X881741D01*
X880660Y612859D01*
X879743Y612247D01*
X879743Y612247D01*
X871254Y603757D01*
X870641Y602841D01*
X870638Y602824D01*
X863662Y595848D01*
X863098Y595004D01*
X862900Y594009D01*
Y584368D01*
X861391Y583359D01*
X860131Y581474D01*
X859688Y579250D01*
X860131Y577026D01*
X861391Y575140D01*
X863276Y573881D01*
X864045Y573728D01*
X864463Y572350D01*
X861437Y569324D01*
X842670D01*
X835510Y576484D01*
X835812Y578000D01*
X835369Y580224D01*
X834109Y582109D01*
X832224Y583369D01*
X830000Y583812D01*
X827776Y583369D01*
X825891Y582109D01*
X824631Y580224D01*
X824188Y578000D01*
X824631Y575776D01*
X825891Y573890D01*
X827776Y572631D01*
X830000Y572188D01*
X831516Y572490D01*
X839503Y564503D01*
X839503Y564503D01*
X840419Y563891D01*
X841500Y563676D01*
X841500Y563676D01*
X862607D01*
X862607Y563676D01*
X863688Y563891D01*
X864604Y564503D01*
X874809Y574708D01*
X874809Y574708D01*
X875421Y575624D01*
X875434Y575688D01*
X876782Y575956D01*
X877159Y575392D01*
X879045Y574132D01*
X879372Y574067D01*
X879957Y572656D01*
X879381Y571794D01*
X878938Y569570D01*
X879381Y567346D01*
X880640Y565461D01*
X882526Y564201D01*
X884750Y563758D01*
X886974Y564201D01*
X888859Y565461D01*
X889964Y564827D01*
X890540Y563964D01*
X891467Y563344D01*
X891082Y562074D01*
X834920D01*
X809190Y587805D01*
X809815Y588975D01*
X810000Y588938D01*
X812224Y589381D01*
X814109Y590640D01*
X815369Y592526D01*
X815812Y594750D01*
X815369Y596974D01*
X814109Y598859D01*
X812224Y600119D01*
X810000Y600562D01*
X807776Y600119D01*
X805891Y598859D01*
X805727Y598614D01*
X804457D01*
X804124Y599112D01*
X802239Y600371D01*
X800015Y600814D01*
X797791Y600371D01*
X795905Y599112D01*
X794645Y597226D01*
X794203Y595002D01*
X794219Y594920D01*
X793139Y593840D01*
X792014Y594063D01*
X789790Y593621D01*
X787905Y592361D01*
X786645Y590476D01*
X786203Y588252D01*
X786645Y586028D01*
X787905Y584142D01*
X789790Y582883D01*
X792014Y582440D01*
X792474Y582532D01*
X822319Y552687D01*
X822319Y552687D01*
X823235Y552075D01*
X824316Y551860D01*
X824316Y551860D01*
X948355D01*
X948355Y551860D01*
X949436Y552075D01*
X950352Y552687D01*
X988611Y590946D01*
X989223Y591862D01*
X989438Y592943D01*
Y636518D01*
X998747Y645826D01*
X999359Y646742D01*
X999574Y647823D01*
X999574Y647823D01*
Y770935D01*
X1000844Y771614D01*
X1001551Y771142D01*
X1003775Y770699D01*
X1005999Y771142D01*
X1007884Y772402D01*
X1009144Y774287D01*
X1009586Y776511D01*
X1009144Y778735D01*
X1007884Y780620D01*
X1005999Y781880D01*
X1003775Y782323D01*
X1001551Y781880D01*
X1000844Y781408D01*
X999574Y782087D01*
Y817750D01*
X999359Y818831D01*
X998747Y819747D01*
X998747Y819747D01*
X992010Y826484D01*
X992312Y828000D01*
X991869Y830224D01*
X990609Y832110D01*
X988724Y833369D01*
X986500Y833812D01*
X984276Y833369D01*
X982391Y832110D01*
X981131Y830224D01*
X980688Y828000D01*
X981131Y825776D01*
X982391Y823891D01*
X984276Y822631D01*
X986500Y822188D01*
X988016Y822490D01*
X993926Y816580D01*
Y747020D01*
X992656Y746488D01*
X991260Y747066D01*
X990770Y747131D01*
Y740500D01*
Y733869D01*
X991260Y733933D01*
X992656Y734512D01*
X993926Y733980D01*
Y648993D01*
X986572Y641639D01*
X985398Y642125D01*
Y733656D01*
X986669Y734378D01*
X987740Y733933D01*
X988230Y733869D01*
Y740500D01*
Y747750D01*
X987574Y748325D01*
Y790643D01*
X987359Y791724D01*
X986747Y792640D01*
X986747Y792640D01*
X986364Y793023D01*
X986782Y794401D01*
X987998Y794643D01*
X989883Y795903D01*
X991143Y797788D01*
X991585Y800012D01*
X991143Y802236D01*
X989883Y804122D01*
X987998Y805381D01*
X985774Y805824D01*
X983550Y805381D01*
X982898Y804946D01*
X981628Y805625D01*
Y815696D01*
X981628Y815696D01*
X981413Y816777D01*
X980801Y817693D01*
X980801Y817693D01*
X973824Y824670D01*
Y828032D01*
X975109Y828891D01*
X976369Y830776D01*
X976812Y833000D01*
X976369Y835224D01*
X975109Y837110D01*
X973224Y838369D01*
X971000Y838812D01*
X968776Y838369D01*
X966890Y837110D01*
X965631Y835224D01*
X965188Y833000D01*
X965631Y830776D01*
X966890Y828891D01*
X968176Y828032D01*
Y823500D01*
X968176Y823500D01*
X968391Y822419D01*
X969003Y821503D01*
X975979Y814527D01*
Y796589D01*
X975979Y796589D01*
X976194Y795508D01*
X976807Y794592D01*
X981926Y789473D01*
Y746777D01*
X980533Y745384D01*
X979921Y744468D01*
X979706Y743387D01*
X979706Y743387D01*
Y737613D01*
X979706Y737613D01*
X979750Y737390D01*
Y710446D01*
X978480Y709811D01*
X977260Y710316D01*
X976770Y710381D01*
Y703750D01*
Y697119D01*
X977260Y697184D01*
X978480Y697689D01*
X979750Y697054D01*
Y595787D01*
X946038Y562074D01*
X898218D01*
X897833Y563344D01*
X898760Y563964D01*
X900019Y565849D01*
X900462Y568073D01*
X900019Y570297D01*
X898760Y572183D01*
X896874Y573442D01*
X894650Y573885D01*
X892426Y573442D01*
X890541Y572183D01*
X889436Y572816D01*
X888859Y573679D01*
X886974Y574939D01*
X886646Y575004D01*
X886062Y576416D01*
X886638Y577277D01*
X887080Y579501D01*
X886638Y581726D01*
X885378Y583611D01*
X883493Y584871D01*
X881762Y585215D01*
X881475Y586550D01*
X881609Y586641D01*
X882869Y588526D01*
X883312Y590750D01*
X883010Y592266D01*
X889670Y598926D01*
X895447D01*
X895832Y597656D01*
X894641Y596860D01*
X893381Y594974D01*
X892938Y592750D01*
X893381Y590526D01*
X894641Y588641D01*
X896526Y587381D01*
X898750Y586938D01*
X900974Y587381D01*
X902859Y588641D01*
X903115Y589023D01*
X904385D01*
X904641Y588641D01*
X905023Y588385D01*
Y587115D01*
X904641Y586860D01*
X903381Y584974D01*
X902938Y582750D01*
X903381Y580526D01*
X904641Y578641D01*
X905210Y578260D01*
Y576990D01*
X904641Y576609D01*
X903381Y574724D01*
X902938Y572500D01*
X903381Y570276D01*
X904641Y568391D01*
X906526Y567131D01*
X908750Y566688D01*
X910974Y567131D01*
X912859Y568391D01*
X914119Y570276D01*
X914562Y572500D01*
X914119Y574724D01*
X912859Y576609D01*
X912290Y576990D01*
Y578260D01*
X912859Y578641D01*
X914119Y580526D01*
X914562Y582750D01*
X914119Y584974D01*
X912859Y586860D01*
X912477Y587115D01*
Y588385D01*
X912859Y588641D01*
X914119Y590526D01*
X914562Y592750D01*
X914119Y594974D01*
X912859Y596860D01*
X911668Y597656D01*
X912053Y598926D01*
X938338D01*
X938339Y598926D01*
X939419Y599141D01*
X940336Y599753D01*
X969997Y629414D01*
X970609Y630331D01*
X970824Y631411D01*
X970824Y631412D01*
Y697406D01*
X971963Y697968D01*
X972101Y697863D01*
X973740Y697184D01*
X974230Y697119D01*
Y703750D01*
Y710381D01*
X973740Y710316D01*
X972101Y709637D01*
X971963Y709532D01*
X970824Y710094D01*
Y743213D01*
X971980Y744024D01*
Y750750D01*
X973250D01*
Y752020D01*
X979881D01*
X979817Y752510D01*
X979137Y754149D01*
X978057Y755557D01*
X976649Y756637D01*
X975010Y757317D01*
X974474Y757387D01*
X974432Y758673D01*
X975474Y758881D01*
X977359Y760141D01*
X978619Y762026D01*
X979062Y764250D01*
X978619Y766474D01*
X977359Y768359D01*
X975474Y769619D01*
X973250Y770062D01*
X971026Y769619D01*
X970296Y770659D01*
X971997Y772360D01*
X971997Y772360D01*
X972609Y773276D01*
X972824Y774357D01*
Y812177D01*
X972824Y812177D01*
X972609Y813258D01*
X971997Y814174D01*
X962574Y823597D01*
Y875006D01*
X962574Y875006D01*
X962359Y876087D01*
X961747Y877003D01*
X961747Y877003D01*
X913023Y925727D01*
X912107Y926339D01*
X911026Y926554D01*
X911026Y926554D01*
X864125D01*
X864125Y926554D01*
X863044Y926339D01*
X862128Y925727D01*
X862128Y925727D01*
X854098Y917697D01*
X853111Y918507D01*
X853136Y918544D01*
X853579Y920768D01*
X853136Y922992D01*
X851876Y924878D01*
X849991Y926137D01*
X847767Y926580D01*
X846251Y926278D01*
X843794Y928735D01*
Y941654D01*
X843794Y941654D01*
X843782Y941715D01*
X843813Y941878D01*
X844745Y943103D01*
X845730Y943299D01*
X847000Y942496D01*
Y928500D01*
X865000D01*
Y937176D01*
X904330D01*
X968206Y873300D01*
Y853308D01*
X968206Y853308D01*
X968421Y852227D01*
X969033Y851311D01*
X982577Y837767D01*
X982577Y837767D01*
X983493Y837155D01*
X984574Y836940D01*
X987806D01*
X988665Y835655D01*
X990550Y834395D01*
X992774Y833952D01*
X994998Y834395D01*
X996883Y835655D01*
X998143Y837540D01*
X998586Y839764D01*
X998143Y841988D01*
X996883Y843874D01*
X994998Y845133D01*
X992774Y845576D01*
X990550Y845133D01*
X988665Y843874D01*
X987806Y842588D01*
X985744D01*
X973854Y854478D01*
Y873261D01*
X974695Y873823D01*
X975124Y873916D01*
X976750Y873702D01*
X976849Y873715D01*
X977631Y872599D01*
X977188Y870375D01*
X977631Y868151D01*
X978891Y866265D01*
X980776Y865006D01*
X983000Y864563D01*
X985224Y865006D01*
X987109Y866265D01*
X988369Y868151D01*
X988812Y870375D01*
X988369Y872599D01*
X987109Y874484D01*
X985224Y875744D01*
X983466Y876094D01*
X983142Y876488D01*
X982826Y877136D01*
X982773Y877428D01*
X983316Y878740D01*
X983381Y879230D01*
X976750D01*
Y880500D01*
X975480D01*
Y887131D01*
X974990Y887066D01*
X973351Y886387D01*
X971943Y885307D01*
X970863Y883899D01*
X970183Y882260D01*
X970049Y881241D01*
X968708Y880786D01*
X934792Y914702D01*
X935210Y916080D01*
X936724Y916381D01*
X938609Y917641D01*
X939869Y919526D01*
X940312Y921750D01*
X939869Y923974D01*
X938609Y925860D01*
X936724Y927119D01*
X936054Y927253D01*
X936000Y928500D01*
X936000Y928500D01*
X936000Y928500D01*
Y946500D01*
X918000D01*
Y933154D01*
X916827Y932667D01*
X907497Y941997D01*
X906581Y942609D01*
X905500Y942824D01*
X905500Y942824D01*
X879126D01*
X878746Y944094D01*
X879869Y945776D01*
X880312Y948000D01*
X880160Y948763D01*
X881147Y949926D01*
X976830D01*
X979064Y947692D01*
X978470Y946489D01*
X977800Y946578D01*
X975451Y946268D01*
X973261Y945361D01*
X971381Y943919D01*
X969939Y942039D01*
X969032Y939849D01*
X968722Y937500D01*
X969032Y935151D01*
X969939Y932961D01*
X971381Y931081D01*
X973261Y929639D01*
X975451Y928732D01*
X977800Y928422D01*
X980150Y928732D01*
X982339Y929639D01*
X984219Y931081D01*
X985661Y932961D01*
X986568Y935151D01*
X986878Y937500D01*
X986789Y938170D01*
X987992Y938764D01*
X1029426Y897330D01*
Y796400D01*
X1028156Y796148D01*
X1027637Y797399D01*
X1026557Y798807D01*
X1025149Y799887D01*
X1023510Y800566D01*
X1023020Y800631D01*
Y794000D01*
Y787369D01*
X1023510Y787433D01*
X1025149Y788113D01*
X1026557Y789193D01*
X1027637Y790601D01*
X1028156Y791852D01*
X1029426Y791600D01*
Y662468D01*
X1028140Y661609D01*
X1026881Y659724D01*
X1026438Y657500D01*
X1026881Y655276D01*
X1028140Y653391D01*
X1030026Y652131D01*
X1032250Y651688D01*
X1034474Y652131D01*
X1036359Y653391D01*
X1037619Y655276D01*
X1038062Y657500D01*
X1037619Y659724D01*
X1036359Y661609D01*
X1035074Y662468D01*
Y683684D01*
X1036344Y684310D01*
X1036601Y684113D01*
X1038241Y683434D01*
X1038731Y683369D01*
Y690000D01*
Y696631D01*
X1038241Y696567D01*
X1036601Y695888D01*
X1036344Y695690D01*
X1035074Y696317D01*
Y898500D01*
X1035074Y898500D01*
X1034859Y899581D01*
X1034247Y900497D01*
X1034247Y900497D01*
X979997Y954747D01*
X979081Y955359D01*
X978000Y955574D01*
X978000Y955574D01*
X879250D01*
X878169Y955359D01*
X877253Y954747D01*
X877253Y954747D01*
X876016Y953510D01*
X874500Y953812D01*
X872276Y953369D01*
X870390Y952109D01*
X869131Y950224D01*
X868688Y948000D01*
X869131Y945776D01*
X870254Y944094D01*
X869874Y942824D01*
X865000D01*
Y946500D01*
X850672D01*
X849630Y947770D01*
X849828Y948770D01*
X849386Y950993D01*
X848126Y952879D01*
X846241Y954139D01*
X844017Y954581D01*
X841793Y954139D01*
X839907Y952879D01*
X838648Y950993D01*
X838444Y949970D01*
X837066Y949552D01*
X832811Y953807D01*
X831895Y954419D01*
X830814Y954634D01*
X830814Y954634D01*
X687585D01*
X686543Y955904D01*
X686562Y956000D01*
X686119Y958224D01*
X684859Y960109D01*
X682974Y961369D01*
X680750Y961812D01*
X678526Y961369D01*
X676640Y960109D01*
X675381Y958224D01*
X674938Y956000D01*
X675240Y954484D01*
X673830Y953074D01*
X666284D01*
X665853Y954344D01*
X666307Y954693D01*
X667387Y956101D01*
X668066Y957740D01*
X668131Y958230D01*
X654869D01*
X654933Y957740D01*
X655613Y956101D01*
X656693Y954693D01*
X657147Y954344D01*
X656716Y953074D01*
X582500D01*
X581419Y952859D01*
X580503Y952247D01*
X580503Y952247D01*
X575723Y947467D01*
X575089Y947412D01*
X574244Y947648D01*
X573946Y947772D01*
X573718Y948000D01*
X573395D01*
X573097Y948124D01*
X567874D01*
X567388Y949297D01*
X581967Y963876D01*
X654931D01*
X655491Y962606D01*
X654933Y961260D01*
X654869Y960770D01*
X668131D01*
X668066Y961260D01*
X667509Y962606D01*
X668069Y963876D01*
X733087D01*
X733115Y963862D01*
X733381Y962526D01*
X734641Y960640D01*
X736526Y959381D01*
X738750Y958938D01*
X740974Y959381D01*
X742859Y960640D01*
X744119Y962526D01*
X744385Y963862D01*
X744413Y963876D01*
X770500D01*
Y958500D01*
X788500D01*
Y963876D01*
X795123D01*
X795175Y963898D01*
X795229Y963880D01*
X795274Y963902D01*
X796742Y963564D01*
X796854Y963378D01*
X796903Y963289D01*
X797038Y962961D01*
X798481Y961081D01*
X800361Y959639D01*
X802551Y958732D01*
X804900Y958422D01*
X807250Y958732D01*
X809439Y959639D01*
X811319Y961081D01*
X812761Y962961D01*
X812897Y963289D01*
X812946Y963378D01*
X813057Y963564D01*
X814526Y963902D01*
X814571Y963880D01*
X814625Y963898D01*
X814677Y963876D01*
X820523D01*
X820575Y963898D01*
X820629Y963880D01*
X820674Y963902D01*
X822142Y963564D01*
X822254Y963378D01*
X822303Y963289D01*
X822439Y962961D01*
X823881Y961081D01*
X825761Y959639D01*
X827951Y958732D01*
X830300Y958422D01*
X832650Y958732D01*
X834839Y959639D01*
X836719Y961081D01*
X838161Y962961D01*
X838297Y963289D01*
X838346Y963378D01*
X838457Y963564D01*
X839926Y963902D01*
X839971Y963880D01*
X840025Y963898D01*
X840077Y963876D01*
X845923D01*
X845975Y963898D01*
X846029Y963880D01*
X846074Y963902D01*
X847542Y963564D01*
X847654Y963378D01*
X847703Y963289D01*
X847839Y962961D01*
X849281Y961081D01*
X851161Y959639D01*
X853351Y958732D01*
X855700Y958422D01*
X858049Y958732D01*
X860239Y959639D01*
X862119Y961081D01*
X863561Y962961D01*
X863697Y963289D01*
X863746Y963378D01*
X863857Y963564D01*
X865326Y963902D01*
X865371Y963880D01*
X865425Y963898D01*
X865477Y963876D01*
X918000D01*
Y958500D01*
X936000D01*
Y963876D01*
X942623D01*
X942675Y963898D01*
X942729Y963880D01*
X942774Y963902D01*
X944242Y963564D01*
X944354Y963378D01*
X944403Y963289D01*
X944538Y962961D01*
X945981Y961081D01*
X947861Y959639D01*
X950051Y958732D01*
X952400Y958422D01*
X954750Y958732D01*
X956939Y959639D01*
X958819Y961081D01*
X960262Y962961D01*
X960397Y963289D01*
X960446Y963378D01*
X960557Y963564D01*
X962026Y963902D01*
X962071Y963880D01*
X962125Y963898D01*
X962177Y963876D01*
X968023D01*
X968075Y963898D01*
X968129Y963880D01*
X968174Y963902D01*
X969642Y963564D01*
X969754Y963378D01*
X969803Y963289D01*
X969939Y962961D01*
X971381Y961081D01*
X973261Y959639D01*
X975451Y958732D01*
X977800Y958422D01*
X980150Y958732D01*
X982339Y959639D01*
X984219Y961081D01*
X985661Y962961D01*
X985797Y963289D01*
X985846Y963378D01*
X985957Y963564D01*
X987426Y963902D01*
X987471Y963880D01*
X987525Y963898D01*
X987577Y963876D01*
X1014376D01*
Y950250D01*
Y925000D01*
X1014852Y923852D01*
X1036807Y901897D01*
X1037151Y901204D01*
X1036708Y898980D01*
X1037151Y896756D01*
X1038410Y894871D01*
X1040296Y893611D01*
X1042520Y893168D01*
X1042645Y893193D01*
X1043626Y892387D01*
Y876914D01*
X1043020Y876417D01*
X1040796Y875974D01*
X1038911Y874715D01*
X1037651Y872829D01*
X1037208Y870605D01*
X1037651Y868381D01*
X1038911Y866496D01*
X1040796Y865236D01*
X1043020Y864793D01*
X1043626Y864296D01*
X1043626Y848539D01*
X1043020Y848042D01*
X1040796Y847599D01*
X1038911Y846339D01*
X1037651Y844454D01*
X1037208Y842230D01*
X1037651Y840006D01*
X1038911Y838120D01*
X1040796Y836861D01*
X1043020Y836418D01*
X1043626Y835921D01*
Y821055D01*
X1043746Y820768D01*
X1043604Y820455D01*
X1042828Y819655D01*
X1042770Y819667D01*
X1040546Y819224D01*
X1038661Y817964D01*
X1037401Y816079D01*
X1036958Y813855D01*
X1037401Y811631D01*
X1038661Y809745D01*
X1040546Y808486D01*
X1042770Y808043D01*
X1043626Y807340D01*
Y791789D01*
X1043020Y791292D01*
X1040796Y790849D01*
X1038911Y789589D01*
X1037651Y787704D01*
X1037208Y785480D01*
X1037651Y783256D01*
X1038911Y781370D01*
X1040796Y780111D01*
X1043020Y779668D01*
X1043626Y779171D01*
X1043626Y697169D01*
X1042356Y696320D01*
X1041760Y696567D01*
X1041271Y696631D01*
Y690000D01*
Y683369D01*
X1041760Y683434D01*
X1042356Y683681D01*
X1043626Y682832D01*
Y650172D01*
X1041862Y648409D01*
X1041710Y648040D01*
X1041457Y647732D01*
X1041481Y647487D01*
X1041387Y647261D01*
X1041540Y646892D01*
X1041579Y646495D01*
X1042074Y645567D01*
X1040640Y644610D01*
X1039682Y643176D01*
X1038755Y643671D01*
X1038358Y643710D01*
X1037989Y643863D01*
X1037763Y643769D01*
X1037518Y643793D01*
X1037210Y643540D01*
X1036841Y643388D01*
X1033327Y639874D01*
X1006500D01*
X1005352Y639398D01*
X1004876Y638250D01*
Y614750D01*
X1005352Y613602D01*
X1026435Y592519D01*
X1026066Y591304D01*
X1025566Y591204D01*
X1023680Y589944D01*
X1022421Y588059D01*
X1021978Y585835D01*
X1022421Y583611D01*
X1023680Y581726D01*
X1025566Y580466D01*
X1027790Y580023D01*
X1030014Y580466D01*
X1031899Y581726D01*
X1033159Y583611D01*
X1033602Y585835D01*
X1033398Y586856D01*
X1034441Y588126D01*
X1049359D01*
X1050165Y587145D01*
X1049958Y586105D01*
X1050401Y583881D01*
X1051661Y581996D01*
X1053546Y580736D01*
X1055770Y580293D01*
X1057994Y580736D01*
X1059879Y581996D01*
X1061139Y583881D01*
X1061582Y586105D01*
X1061375Y587145D01*
X1062180Y588126D01*
X1125000D01*
X1126148Y588602D01*
X1126624Y589750D01*
Y688874D01*
X1126530Y689101D01*
X1126554Y689345D01*
X1126301Y689654D01*
X1126148Y690022D01*
X1126077Y690051D01*
X1125709Y690530D01*
X1125480Y691444D01*
X1125869Y692026D01*
X1126312Y694250D01*
X1125869Y696474D01*
X1125480Y697056D01*
X1125709Y697970D01*
X1126077Y698449D01*
X1126148Y698478D01*
X1126301Y698846D01*
X1126554Y699155D01*
X1126530Y699399D01*
X1126624Y699626D01*
Y727572D01*
X1127894Y728308D01*
X1129750Y727938D01*
X1131974Y728381D01*
X1133859Y729641D01*
X1135119Y731526D01*
X1135562Y733750D01*
X1135119Y735974D01*
X1133859Y737859D01*
X1132921Y738486D01*
Y740014D01*
X1133859Y740640D01*
X1135119Y742526D01*
X1135562Y744750D01*
X1135208Y746531D01*
X1139338Y750662D01*
X1139902Y751505D01*
X1140100Y752500D01*
Y771882D01*
X1141609Y772890D01*
X1142869Y774776D01*
X1143312Y777000D01*
X1142869Y779224D01*
X1142724Y779441D01*
X1142813Y779672D01*
X1144408Y780362D01*
X1144863Y780174D01*
X1146625Y779942D01*
X1148625D01*
X1150387Y780174D01*
X1152029Y780854D01*
X1153439Y781936D01*
X1154521Y783346D01*
X1155201Y784988D01*
X1155433Y786750D01*
X1155201Y788512D01*
X1154521Y790154D01*
X1153439Y791564D01*
X1152029Y792646D01*
X1150387Y793326D01*
X1148625Y793558D01*
X1146625D01*
X1144863Y793326D01*
X1143221Y792646D01*
X1141811Y791564D01*
X1140729Y790154D01*
X1140049Y788512D01*
X1139817Y786750D01*
X1140049Y784988D01*
X1140729Y783346D01*
X1140919Y783098D01*
X1140039Y782159D01*
X1139724Y782369D01*
X1137500Y782812D01*
X1135276Y782369D01*
X1133391Y781109D01*
X1132131Y779224D01*
X1131688Y777000D01*
X1132131Y774776D01*
X1133391Y772890D01*
X1134900Y771882D01*
Y753577D01*
X1131531Y750208D01*
X1129750Y750562D01*
X1127894Y750192D01*
X1126624Y750928D01*
Y900500D01*
X1126148Y901648D01*
X1048868Y978928D01*
X1049354Y980102D01*
X1160000Y980124D01*
X1166277Y979630D01*
D02*
G37*
G36*
X961136Y649982D02*
Y634255D01*
X949922Y623041D01*
X948544Y623459D01*
X948391Y624227D01*
X947131Y626113D01*
X945246Y627373D01*
X943022Y627815D01*
X940798Y627373D01*
X938912Y626113D01*
X937652Y624227D01*
X937210Y622004D01*
X937652Y619780D01*
X938912Y617894D01*
X940798Y616634D01*
X941566Y616481D01*
X941984Y615103D01*
X935495Y608614D01*
X919768D01*
X919282Y609788D01*
X959962Y650468D01*
X961136Y649982D01*
D02*
G37*
G36*
X1125000Y900500D02*
Y747901D01*
X1124381Y746974D01*
X1123938Y744750D01*
X1124381Y742526D01*
X1125000Y741599D01*
Y736901D01*
X1124381Y735974D01*
X1123938Y733750D01*
X1124381Y731526D01*
X1125000Y730599D01*
Y699626D01*
X1123730Y698947D01*
X1122724Y699619D01*
X1120500Y700062D01*
X1118276Y699619D01*
X1116391Y698359D01*
X1115131Y696474D01*
X1114688Y694250D01*
X1115131Y692026D01*
X1116391Y690141D01*
X1118276Y688881D01*
X1120500Y688438D01*
X1122724Y688881D01*
X1123730Y689553D01*
X1125000Y688874D01*
Y589750D01*
X1060190D01*
X1059879Y590215D01*
X1057994Y591474D01*
X1055770Y591917D01*
X1053546Y591474D01*
X1051661Y590215D01*
X1051350Y589750D01*
X1032029D01*
X1031899Y589944D01*
X1030110Y591140D01*
X1006500Y614750D01*
Y638250D01*
X1034000D01*
X1037989Y642240D01*
X1039160Y641614D01*
X1038938Y640500D01*
X1039381Y638276D01*
X1040640Y636390D01*
X1042526Y635131D01*
X1044750Y634688D01*
X1046974Y635131D01*
X1048859Y636390D01*
X1050119Y638276D01*
X1050562Y640500D01*
X1050119Y642724D01*
X1048859Y644610D01*
X1046974Y645869D01*
X1044750Y646312D01*
X1043636Y646090D01*
X1043010Y647261D01*
X1045250Y649500D01*
Y687597D01*
X1045370Y687776D01*
X1045812Y690000D01*
X1045370Y692224D01*
X1045250Y692404D01*
X1045250Y780115D01*
X1047129Y781370D01*
X1048389Y783256D01*
X1048832Y785480D01*
X1048389Y787704D01*
X1047129Y789589D01*
X1045250Y790845D01*
Y808657D01*
X1046879Y809745D01*
X1048139Y811631D01*
X1048313Y812502D01*
X1049506Y813068D01*
X1049719Y813065D01*
X1051218Y812444D01*
X1050934Y811760D01*
X1050870Y811271D01*
X1057501D01*
Y810001D01*
X1058771D01*
Y803370D01*
X1059260Y803434D01*
X1060900Y804113D01*
X1062308Y805194D01*
X1063388Y806602D01*
X1064067Y808241D01*
X1064299Y810001D01*
X1064172Y810966D01*
X1064609Y811358D01*
X1065879Y811156D01*
X1066640Y810015D01*
X1068526Y808756D01*
X1070750Y808313D01*
X1072974Y808756D01*
X1074859Y810015D01*
X1076119Y811901D01*
X1076126Y811936D01*
X1077575Y812710D01*
X1078241Y812434D01*
X1078731Y812370D01*
Y819001D01*
X1080001D01*
Y820271D01*
X1086632D01*
X1086567Y820760D01*
X1086284Y821444D01*
X1087900Y822113D01*
X1089308Y823194D01*
X1090388Y824602D01*
X1091067Y826241D01*
X1091132Y826731D01*
X1084501D01*
Y828001D01*
X1083231D01*
Y834632D01*
X1082741Y834567D01*
X1081102Y833888D01*
X1080001Y833043D01*
X1078900Y833888D01*
X1077260Y834567D01*
X1076771Y834632D01*
Y828001D01*
X1075501D01*
Y826731D01*
X1068870D01*
X1068934Y826241D01*
X1069613Y824602D01*
X1070694Y823194D01*
X1072102Y822113D01*
X1073025Y821731D01*
X1073027Y820355D01*
X1072012Y819686D01*
X1070750Y819937D01*
X1069640Y819716D01*
X1068607Y820456D01*
X1068567Y820760D01*
X1067888Y822400D01*
X1066808Y823808D01*
X1065400Y824888D01*
X1063760Y825567D01*
X1063271Y825632D01*
Y819001D01*
X1060731D01*
Y825632D01*
X1060241Y825567D01*
X1058602Y824888D01*
X1057501Y824043D01*
X1056400Y824888D01*
X1054760Y825567D01*
X1054271Y825632D01*
Y819001D01*
X1051731D01*
Y825632D01*
X1051241Y825567D01*
X1049602Y824888D01*
X1048194Y823808D01*
X1047113Y822400D01*
X1046434Y820760D01*
X1045250Y821055D01*
Y836865D01*
X1047129Y838120D01*
X1048389Y840006D01*
X1048832Y842230D01*
X1048389Y844454D01*
X1047129Y846339D01*
X1045250Y847595D01*
X1045250Y865240D01*
X1047129Y866496D01*
X1048389Y868381D01*
X1048832Y870605D01*
X1048389Y872829D01*
X1047129Y874715D01*
X1045250Y875970D01*
Y893949D01*
X1046629Y894871D01*
X1047889Y896756D01*
X1048332Y898980D01*
X1047889Y901204D01*
X1046629Y903090D01*
X1044744Y904349D01*
X1042520Y904792D01*
X1040296Y904349D01*
X1038410Y903090D01*
X1037955Y903045D01*
X1016000Y925000D01*
Y950250D01*
Y965500D01*
X987577D01*
X986740Y966455D01*
X986878Y967500D01*
X986568Y969849D01*
X985661Y972039D01*
X984219Y973919D01*
X982339Y975361D01*
X980150Y976268D01*
X977800Y976578D01*
X975451Y976268D01*
X973261Y975361D01*
X971381Y973919D01*
X969939Y972039D01*
X969032Y969849D01*
X968722Y967500D01*
X968860Y966455D01*
X968023Y965500D01*
X962177D01*
X961340Y966455D01*
X961478Y967500D01*
X961168Y969849D01*
X960262Y972039D01*
X958819Y973919D01*
X956939Y975361D01*
X954750Y976268D01*
X952400Y976578D01*
X950051Y976268D01*
X947861Y975361D01*
X945981Y973919D01*
X944538Y972039D01*
X943632Y969849D01*
X943322Y967500D01*
X943460Y966455D01*
X942623Y965500D01*
X936000D01*
Y976500D01*
X918000D01*
Y965500D01*
X865477D01*
X864640Y966455D01*
X864778Y967500D01*
X864468Y969849D01*
X863561Y972039D01*
X862119Y973919D01*
X860239Y975361D01*
X858049Y976268D01*
X855700Y976578D01*
X853351Y976268D01*
X851161Y975361D01*
X849281Y973919D01*
X847839Y972039D01*
X846932Y969849D01*
X846622Y967500D01*
X846760Y966455D01*
X845923Y965500D01*
X840077D01*
X839240Y966455D01*
X839378Y967500D01*
X839068Y969849D01*
X838161Y972039D01*
X836719Y973919D01*
X834839Y975361D01*
X832650Y976268D01*
X830300Y976578D01*
X827951Y976268D01*
X825761Y975361D01*
X823881Y973919D01*
X822439Y972039D01*
X821532Y969849D01*
X821222Y967500D01*
X821360Y966455D01*
X820523Y965500D01*
X814677D01*
X813840Y966455D01*
X813978Y967500D01*
X813668Y969849D01*
X812761Y972039D01*
X811319Y973919D01*
X809439Y975361D01*
X807250Y976268D01*
X804900Y976578D01*
X802551Y976268D01*
X800361Y975361D01*
X798481Y973919D01*
X797038Y972039D01*
X796132Y969849D01*
X795822Y967500D01*
X795960Y966455D01*
X795123Y965500D01*
X788500D01*
Y976500D01*
X770500D01*
Y965500D01*
X744412D01*
X744119Y966974D01*
X742859Y968859D01*
X740974Y970119D01*
X738750Y970562D01*
X736526Y970119D01*
X734641Y968859D01*
X733381Y966974D01*
X733087Y965500D01*
X581295D01*
X567272Y951478D01*
X558474Y942680D01*
X557279Y943107D01*
X557247Y943431D01*
X556246Y946729D01*
X554621Y949770D01*
X552434Y952434D01*
X549770Y954621D01*
X546729Y956246D01*
X543431Y957247D01*
X540000Y957585D01*
X536569Y957247D01*
X533271Y956246D01*
X530230Y954621D01*
X527566Y952434D01*
X525379Y949770D01*
X523754Y946729D01*
X522753Y943431D01*
X522415Y940000D01*
X522753Y936569D01*
X523754Y933271D01*
X525379Y930230D01*
X527566Y927566D01*
X530230Y925379D01*
X533271Y923754D01*
X536569Y922753D01*
X539500Y922465D01*
Y912955D01*
Y867044D01*
X538790Y866435D01*
Y859250D01*
Y852065D01*
X539500Y851456D01*
Y680701D01*
X552500D01*
Y668287D01*
X551361Y667725D01*
X551149Y667887D01*
X549510Y668567D01*
X549020Y668631D01*
Y662000D01*
X546480D01*
Y668631D01*
X545990Y668567D01*
X544351Y667887D01*
X543125Y666947D01*
X541899Y667887D01*
X540260Y668567D01*
X539770Y668631D01*
Y662000D01*
X538500D01*
Y660730D01*
X531869D01*
X531934Y660240D01*
X532613Y658601D01*
X533693Y657193D01*
X534244Y656770D01*
X533813Y655500D01*
X500799D01*
Y940549D01*
X539500Y979250D01*
X1044250D01*
X1045250Y980250D01*
X1125000Y900500D01*
D02*
G37*
G36*
X881298Y844099D02*
X880881Y843474D01*
X880438Y841250D01*
X880881Y839026D01*
X882141Y837141D01*
X884026Y835881D01*
X886250Y835438D01*
X888474Y835881D01*
X890359Y837141D01*
X890615Y837523D01*
X891885D01*
X892141Y837141D01*
X894026Y835881D01*
X896250Y835438D01*
X898474Y835881D01*
X900211Y837042D01*
X908755Y828498D01*
X908270Y827324D01*
X905218D01*
X904360Y828609D01*
X902474Y829869D01*
X900250Y830312D01*
X898026Y829869D01*
X896141Y828609D01*
X894881Y826724D01*
X894438Y824500D01*
X894881Y822276D01*
X896141Y820390D01*
X898026Y819131D01*
X900250Y818688D01*
X902474Y819131D01*
X904360Y820390D01*
X905218Y821676D01*
X909864D01*
X922792Y808748D01*
X922306Y807574D01*
X905249D01*
X872424Y840399D01*
Y851314D01*
X873598Y851800D01*
X881298Y844099D01*
D02*
G37*
G36*
X652467Y849476D02*
X651631Y848224D01*
X651188Y846000D01*
X651631Y843776D01*
X652890Y841890D01*
X654402Y840881D01*
X654817Y839640D01*
X654829Y839325D01*
X654643Y839074D01*
X612839D01*
X612424Y839741D01*
X613111Y840996D01*
X638694D01*
X638694Y840996D01*
X639775Y841211D01*
X640691Y841823D01*
X649614Y850746D01*
X651788D01*
X652467Y849476D01*
D02*
G37*
G36*
X783059Y902444D02*
X783483Y901809D01*
X819746Y865546D01*
X819746Y865546D01*
X820663Y864934D01*
X821743Y864719D01*
X847555D01*
X862136Y850138D01*
Y839223D01*
X860962Y838737D01*
X857140Y842560D01*
X858119Y844026D01*
X858562Y846250D01*
X858119Y848474D01*
X856859Y850359D01*
X854974Y851619D01*
X852750Y852062D01*
X851234Y851760D01*
X848702Y854292D01*
X847786Y854904D01*
X846705Y855119D01*
X846705Y855119D01*
X821128D01*
X820449Y856389D01*
X820885Y857041D01*
X821327Y859265D01*
X820885Y861489D01*
X819625Y863374D01*
X817739Y864634D01*
X815515Y865077D01*
X813291Y864634D01*
X812733Y864261D01*
X769510Y907484D01*
X769812Y909000D01*
X769369Y911224D01*
X768110Y913110D01*
X766224Y914369D01*
X764000Y914812D01*
X761776Y914369D01*
X759891Y913110D01*
X758631Y911224D01*
X758188Y909000D01*
X758631Y906776D01*
X759891Y904891D01*
X761776Y903631D01*
X764000Y903188D01*
X765516Y903490D01*
X801843Y867163D01*
X801317Y865893D01*
X753546D01*
X753060Y867066D01*
X760217Y874223D01*
X760829Y875139D01*
X761044Y876220D01*
X761044Y876220D01*
Y896280D01*
X761044Y896280D01*
X760829Y897361D01*
X760217Y898277D01*
X760217Y898277D01*
X748058Y910436D01*
X748324Y911768D01*
X747881Y913992D01*
X746769Y915656D01*
X747164Y916926D01*
X768577D01*
X783059Y902444D01*
D02*
G37*
G36*
X873018Y676945D02*
X874059Y677152D01*
X874684Y675981D01*
X829277Y630574D01*
X826489D01*
X826003Y631748D01*
X871502Y677246D01*
X873018Y676945D01*
D02*
G37*
G36*
X573097Y946500D02*
X573582Y945327D01*
X546923Y918667D01*
X545750Y919154D01*
Y923457D01*
X546729Y923754D01*
X549770Y925379D01*
X552434Y927566D01*
X554621Y930230D01*
X556246Y933271D01*
X557247Y936569D01*
X557581Y939959D01*
X557616Y940091D01*
X557745Y940322D01*
X558474Y941056D01*
X558808Y941194D01*
X559169Y941212D01*
X559360Y941423D01*
X559622Y941532D01*
X564591Y946500D01*
X573097D01*
D02*
G37*
G36*
X643258Y946252D02*
X567753Y870747D01*
X567141Y869831D01*
X566926Y868750D01*
X566926Y868750D01*
Y828233D01*
X566926Y828232D01*
X567141Y827152D01*
X567753Y826235D01*
X587426Y806563D01*
Y746633D01*
X577293Y736500D01*
X576681Y735584D01*
X576466Y734503D01*
X576466Y734503D01*
Y715314D01*
X575292Y714828D01*
X568574Y721546D01*
Y746626D01*
X583352D01*
X584500Y747102D01*
X585398Y748000D01*
X585874Y749148D01*
X585874Y803500D01*
X585398Y804648D01*
X564874Y825173D01*
Y870577D01*
X605398Y911102D01*
X605874Y912250D01*
Y937402D01*
X607144Y937833D01*
X607443Y937443D01*
X608851Y936363D01*
X610490Y935684D01*
X610980Y935619D01*
Y942250D01*
X612250D01*
Y943520D01*
X618881D01*
X618816Y944009D01*
X618137Y945649D01*
X617749Y946156D01*
X618375Y947426D01*
X642772D01*
X643258Y946252D01*
D02*
G37*
G36*
X886264Y671196D02*
Y658509D01*
X871753Y643997D01*
X844830Y617074D01*
X626970D01*
X626728Y618344D01*
X627384Y618783D01*
X633527Y624926D01*
X830447D01*
X830447Y624926D01*
X831528Y625141D01*
X832444Y625753D01*
X835040Y628348D01*
X836380Y627893D01*
X836433Y627491D01*
X837113Y625851D01*
X838193Y624443D01*
X839601Y623363D01*
X841240Y622683D01*
X841730Y622619D01*
Y629250D01*
X843000D01*
Y630520D01*
X849631D01*
X849566Y631009D01*
X848887Y632649D01*
X847807Y634057D01*
X846399Y635137D01*
X844760Y635816D01*
X844357Y635869D01*
X843902Y637210D01*
X878356Y671665D01*
X879295Y671038D01*
X881519Y670596D01*
X883743Y671038D01*
X884994Y671875D01*
X886264Y671196D01*
D02*
G37*
G36*
X662984Y674503D02*
X663901Y673891D01*
X664981Y673676D01*
X664982Y673676D01*
X692958D01*
X692958Y673676D01*
X694039Y673891D01*
X694955Y674503D01*
X702885Y682432D01*
X705792D01*
X706651Y681147D01*
X708536Y679887D01*
X710760Y679445D01*
X712984Y679887D01*
X714730Y681053D01*
X715421Y680917D01*
X716064Y680648D01*
X716183Y679741D01*
X716863Y678101D01*
X717943Y676693D01*
X719351Y675613D01*
X720991Y674933D01*
X721480Y674869D01*
Y681500D01*
Y688131D01*
X720991Y688066D01*
X719351Y687387D01*
X717943Y686307D01*
X717717Y686012D01*
X716359Y686329D01*
X716130Y687481D01*
X714870Y689366D01*
X712984Y690626D01*
X711225Y690976D01*
X711350Y692246D01*
X755052D01*
X755437Y690976D01*
X754140Y690109D01*
X752881Y688224D01*
X752438Y686000D01*
X752881Y683776D01*
X754140Y681890D01*
X756026Y680631D01*
X758250Y680188D01*
X760474Y680631D01*
X762359Y681890D01*
X763419Y683477D01*
X763767Y683563D01*
X764483D01*
X764831Y683477D01*
X765891Y681890D01*
X767776Y680631D01*
X770000Y680188D01*
X772224Y680631D01*
X774109Y681890D01*
X775369Y683776D01*
X775812Y686000D01*
X775369Y688224D01*
X774109Y690109D01*
X772813Y690976D01*
X773198Y692246D01*
X857038D01*
X857717Y690976D01*
X856881Y689724D01*
X856438Y687500D01*
X856740Y685984D01*
X837830Y667074D01*
X809228D01*
X808742Y668248D01*
X813234Y672740D01*
X814750Y672438D01*
X816974Y672881D01*
X818859Y674140D01*
X820119Y676026D01*
X820562Y678250D01*
X820119Y680474D01*
X818859Y682359D01*
X816974Y683619D01*
X814750Y684062D01*
X812526Y683619D01*
X810640Y682359D01*
X809381Y680474D01*
X808938Y678250D01*
X809240Y676734D01*
X804080Y671574D01*
X790415D01*
X790414Y671588D01*
X788086D01*
X788085Y671574D01*
X662420D01*
X642072Y691922D01*
X642558Y693096D01*
X644391D01*
X662984Y674503D01*
D02*
G37*
G36*
X536616Y978662D02*
X501338Y943384D01*
X500184Y943916D01*
X500370Y946277D01*
X501840Y952399D01*
X504249Y958216D01*
X507539Y963584D01*
X511628Y968372D01*
X516416Y972461D01*
X521784Y975751D01*
X527601Y978160D01*
X533723Y979630D01*
X536084Y979816D01*
X536616Y978662D01*
D02*
G37*
G36*
X799766Y589240D02*
X830324Y558681D01*
X829838Y557508D01*
X825486D01*
X797216Y585778D01*
X797383Y586028D01*
X797826Y588252D01*
X797810Y588334D01*
X798889Y589414D01*
X799766Y589240D01*
D02*
G37*
%LPC*%
G36*
X1176632Y638730D02*
X1171271D01*
Y633369D01*
X1171760Y633434D01*
X1173400Y634113D01*
X1174808Y635193D01*
X1175888Y636601D01*
X1176567Y638241D01*
X1176632Y638730D01*
D02*
G37*
G36*
X910881Y641480D02*
X905520D01*
Y636119D01*
X906010Y636184D01*
X907649Y636863D01*
X909057Y637943D01*
X910137Y639351D01*
X910816Y640991D01*
X910881Y641480D01*
D02*
G37*
G36*
X537230Y668631D02*
X536740Y668567D01*
X535101Y667887D01*
X533693Y666807D01*
X532613Y665399D01*
X531934Y663760D01*
X531869Y663270D01*
X537230D01*
Y668631D01*
D02*
G37*
G36*
X1148731Y638730D02*
X1143370D01*
X1143434Y638241D01*
X1144113Y636601D01*
X1145194Y635193D01*
X1146601Y634113D01*
X1148241Y633434D01*
X1148731Y633369D01*
Y638730D01*
D02*
G37*
G36*
X795881Y678230D02*
X790520D01*
Y672869D01*
X791010Y672934D01*
X792649Y673613D01*
X794057Y674693D01*
X795137Y676101D01*
X795816Y677740D01*
X795881Y678230D01*
D02*
G37*
G36*
X1105731Y627631D02*
X1105241Y627567D01*
X1103602Y626888D01*
X1102501Y626043D01*
X1101400Y626888D01*
X1099760Y627567D01*
X1099271Y627631D01*
Y621001D01*
Y614370D01*
X1099760Y614434D01*
X1101400Y615113D01*
X1102501Y615958D01*
X1103602Y615113D01*
X1105241Y614434D01*
X1105731Y614370D01*
Y621001D01*
Y627631D01*
D02*
G37*
G36*
X787980Y686131D02*
X787490Y686067D01*
X785851Y685387D01*
X784443Y684307D01*
X783363Y682899D01*
X782683Y681260D01*
X782619Y680770D01*
X787980D01*
Y686131D01*
D02*
G37*
G36*
X849631Y627980D02*
X844270D01*
Y622619D01*
X844760Y622683D01*
X846399Y623363D01*
X847807Y624443D01*
X848887Y625851D01*
X849566Y627491D01*
X849631Y627980D01*
D02*
G37*
G36*
X729381Y680230D02*
X724020D01*
Y674869D01*
X724510Y674933D01*
X726149Y675613D01*
X727557Y676693D01*
X728637Y678101D01*
X729316Y679741D01*
X729381Y680230D01*
D02*
G37*
G36*
X1091750Y643562D02*
X1089526Y643119D01*
X1087641Y641859D01*
X1086381Y639974D01*
X1085938Y637750D01*
X1086381Y635526D01*
X1087641Y633641D01*
X1089526Y632381D01*
X1091750Y631938D01*
X1093974Y632381D01*
X1095860Y633641D01*
X1097119Y635526D01*
X1097562Y637750D01*
X1097119Y639974D01*
X1095860Y641859D01*
X1093974Y643119D01*
X1091750Y643562D01*
D02*
G37*
G36*
X933881Y636230D02*
X928520D01*
Y630869D01*
X929009Y630933D01*
X930649Y631613D01*
X932057Y632693D01*
X933137Y634101D01*
X933817Y635741D01*
X933881Y636230D01*
D02*
G37*
G36*
X787980Y678230D02*
X782619D01*
X782683Y677740D01*
X783363Y676101D01*
X784443Y674693D01*
X785851Y673613D01*
X787490Y672934D01*
X787980Y672869D01*
Y678230D01*
D02*
G37*
G36*
X812770Y656131D02*
Y650770D01*
X818131D01*
X818066Y651260D01*
X817387Y652899D01*
X816307Y654307D01*
X814899Y655387D01*
X813260Y656067D01*
X812770Y656131D01*
D02*
G37*
G36*
X1073020Y659881D02*
Y654520D01*
X1078381D01*
X1078316Y655010D01*
X1077637Y656649D01*
X1076557Y658057D01*
X1075149Y659137D01*
X1073510Y659817D01*
X1073020Y659881D01*
D02*
G37*
G36*
X1078381Y651980D02*
X1073020D01*
Y646619D01*
X1073510Y646684D01*
X1075149Y647363D01*
X1076557Y648443D01*
X1077637Y649851D01*
X1078316Y651490D01*
X1078381Y651980D01*
D02*
G37*
G36*
X771500Y658562D02*
X769276Y658119D01*
X767391Y656860D01*
X766131Y654974D01*
X765688Y652750D01*
X766131Y650526D01*
X767391Y648641D01*
X769276Y647381D01*
X771500Y646938D01*
X773724Y647381D01*
X775609Y648641D01*
X776869Y650526D01*
X777312Y652750D01*
X776869Y654974D01*
X775609Y656860D01*
X773724Y658119D01*
X771500Y658562D01*
D02*
G37*
G36*
X654020Y657631D02*
Y652270D01*
X659381D01*
X659316Y652759D01*
X658637Y654399D01*
X657557Y655807D01*
X656149Y656887D01*
X654510Y657567D01*
X654020Y657631D01*
D02*
G37*
G36*
X1070480Y659881D02*
X1069990Y659817D01*
X1068351Y659137D01*
X1066943Y658057D01*
X1065863Y656649D01*
X1065183Y655010D01*
X1065119Y654520D01*
X1070480D01*
Y659881D01*
D02*
G37*
G36*
X744980Y657131D02*
X744491Y657066D01*
X742851Y656387D01*
X741443Y655307D01*
X740363Y653899D01*
X739684Y652260D01*
X739619Y651770D01*
X744980D01*
Y657131D01*
D02*
G37*
G36*
X747520D02*
Y651770D01*
X752881D01*
X752816Y652260D01*
X752137Y653899D01*
X751057Y655307D01*
X749649Y656387D01*
X748009Y657066D01*
X747520Y657131D01*
D02*
G37*
G36*
X1070480Y651980D02*
X1065119D01*
X1065183Y651490D01*
X1065863Y649851D01*
X1066943Y648443D01*
X1068351Y647363D01*
X1069990Y646684D01*
X1070480Y646619D01*
Y651980D01*
D02*
G37*
G36*
X1148731Y646631D02*
X1148241Y646567D01*
X1146601Y645888D01*
X1145194Y644807D01*
X1144113Y643399D01*
X1143434Y641760D01*
X1143370Y641270D01*
X1148731D01*
Y646631D01*
D02*
G37*
G36*
X1171271D02*
Y641270D01*
X1176632D01*
X1176567Y641760D01*
X1175888Y643399D01*
X1174808Y644807D01*
X1173400Y645888D01*
X1171760Y646567D01*
X1171271Y646631D01*
D02*
G37*
G36*
X565000Y648312D02*
X562776Y647869D01*
X560891Y646609D01*
X559631Y644724D01*
X559188Y642500D01*
X559631Y640276D01*
X560891Y638391D01*
X561744Y637821D01*
X561727Y637477D01*
X561396Y637194D01*
X560416Y636680D01*
X558500Y637062D01*
X556276Y636619D01*
X554390Y635359D01*
X554344Y635290D01*
X553074Y635676D01*
Y637532D01*
X554359Y638391D01*
X555619Y640276D01*
X556062Y642500D01*
X555619Y644724D01*
X554359Y646609D01*
X552474Y647869D01*
X550250Y648312D01*
X548026Y647869D01*
X546141Y646609D01*
X544881Y644724D01*
X544438Y642500D01*
X544881Y640276D01*
X546141Y638391D01*
X547426Y637532D01*
Y610500D01*
X547426Y610500D01*
X547641Y609419D01*
X548253Y608503D01*
X582486Y574270D01*
X581960Y573000D01*
X577250D01*
Y555000D01*
X595250D01*
Y571881D01*
X595250Y572460D01*
X596520Y572986D01*
X603576Y565929D01*
X603322Y564000D01*
X603632Y561651D01*
X604538Y559461D01*
X605981Y557581D01*
X607861Y556138D01*
X610051Y555232D01*
X612400Y554922D01*
X614749Y555232D01*
X616939Y556138D01*
X618819Y557581D01*
X620261Y559461D01*
X621168Y561651D01*
X621438Y563696D01*
X622605Y564324D01*
X624927Y562003D01*
X624927Y562003D01*
X625843Y561391D01*
X626924Y561176D01*
X629228D01*
X629939Y559461D01*
X631381Y557581D01*
X633261Y556138D01*
X635451Y555232D01*
X637800Y554922D01*
X640150Y555232D01*
X642339Y556138D01*
X644219Y557581D01*
X645661Y559461D01*
X646568Y561651D01*
X646878Y564000D01*
X646568Y566349D01*
X645661Y568539D01*
X644219Y570419D01*
X642339Y571861D01*
X640150Y572768D01*
X637800Y573078D01*
X635451Y572768D01*
X633261Y571861D01*
X631381Y570419D01*
X629939Y568539D01*
X629296Y566988D01*
X628055Y566863D01*
X618651Y576267D01*
X617735Y576879D01*
X616654Y577094D01*
X616654Y577094D01*
X613644D01*
X602751Y587987D01*
X603206Y589328D01*
X604010Y589434D01*
X605649Y590113D01*
X607057Y591193D01*
X608137Y592601D01*
X608816Y594240D01*
X608881Y594730D01*
X602250D01*
Y596000D01*
X600980D01*
Y602631D01*
X600490Y602566D01*
X598851Y601887D01*
X597443Y600807D01*
X596363Y599399D01*
X595684Y597760D01*
X595578Y596956D01*
X594237Y596501D01*
X568294Y622444D01*
Y637846D01*
X569109Y638391D01*
X570369Y640276D01*
X570812Y642500D01*
X570369Y644724D01*
X569109Y646609D01*
X567224Y647869D01*
X565000Y648312D01*
D02*
G37*
G36*
X514000Y680428D02*
X511651Y680118D01*
X509461Y679211D01*
X507581Y677769D01*
X506138Y675889D01*
X505232Y673699D01*
X504922Y671350D01*
X505232Y669000D01*
X506138Y666811D01*
X507581Y664931D01*
X509461Y663488D01*
X511651Y662582D01*
X514000Y662272D01*
X516349Y662582D01*
X518539Y663488D01*
X520419Y664931D01*
X521861Y666811D01*
X522768Y669000D01*
X523078Y671350D01*
X522768Y673699D01*
X521861Y675889D01*
X520419Y677769D01*
X518539Y679211D01*
X516349Y680118D01*
X514000Y680428D01*
D02*
G37*
G36*
X1158731Y646631D02*
X1158241Y646567D01*
X1156601Y645888D01*
X1155958Y645394D01*
X1155001Y644906D01*
X1154043Y645394D01*
X1153400Y645888D01*
X1151760Y646567D01*
X1151271Y646631D01*
Y640000D01*
Y633369D01*
X1151760Y633434D01*
X1153400Y634113D01*
X1154043Y634607D01*
X1155001Y635095D01*
X1155958Y634607D01*
X1156601Y634113D01*
X1158241Y633434D01*
X1158731Y633369D01*
Y640000D01*
Y646631D01*
D02*
G37*
G36*
X900500Y670062D02*
X898276Y669619D01*
X896391Y668359D01*
X895131Y666474D01*
X894688Y664250D01*
X895131Y662026D01*
X896391Y660141D01*
X898276Y658881D01*
X900500Y658438D01*
X902724Y658881D01*
X904610Y660141D01*
X905869Y662026D01*
X906312Y664250D01*
X905869Y666474D01*
X904610Y668359D01*
X902724Y669619D01*
X900500Y670062D01*
D02*
G37*
G36*
X818131Y648230D02*
X812770D01*
Y642869D01*
X813260Y642934D01*
X814899Y643613D01*
X816307Y644693D01*
X817387Y646101D01*
X818066Y647740D01*
X818131Y648230D01*
D02*
G37*
G36*
X1168731Y646631D02*
X1168241Y646567D01*
X1166602Y645888D01*
X1165958Y645394D01*
X1165001Y644906D01*
X1164043Y645394D01*
X1163400Y645888D01*
X1161760Y646567D01*
X1161271Y646631D01*
Y640000D01*
Y633369D01*
X1161760Y633434D01*
X1163400Y634113D01*
X1164043Y634607D01*
X1165001Y635095D01*
X1165958Y634607D01*
X1166602Y634113D01*
X1168241Y633434D01*
X1168731Y633369D01*
Y640000D01*
Y646631D01*
D02*
G37*
G36*
X1000730Y590381D02*
X1000240Y590317D01*
X998601Y589637D01*
X997193Y588557D01*
X996113Y587149D01*
X995434Y585509D01*
X995369Y585020D01*
X1000730D01*
Y590381D01*
D02*
G37*
G36*
X1003270D02*
Y585020D01*
X1008631D01*
X1008567Y585509D01*
X1007887Y587149D01*
X1006807Y588557D01*
X1005399Y589637D01*
X1003760Y590317D01*
X1003270Y590381D01*
D02*
G37*
G36*
X1008631Y582480D02*
X1003270D01*
Y577119D01*
X1003760Y577183D01*
X1005399Y577863D01*
X1006807Y578943D01*
X1007887Y580351D01*
X1008567Y581991D01*
X1008631Y582480D01*
D02*
G37*
G36*
X767980Y590230D02*
X762619D01*
X762683Y589740D01*
X763363Y588101D01*
X764443Y586693D01*
X765851Y585613D01*
X767490Y584934D01*
X767980Y584869D01*
Y590230D01*
D02*
G37*
G36*
X677980Y594230D02*
X672619D01*
X672683Y593741D01*
X673363Y592101D01*
X674443Y590693D01*
X675851Y589613D01*
X677490Y588933D01*
X677980Y588869D01*
Y594230D01*
D02*
G37*
G36*
X738512Y600814D02*
X736288Y600371D01*
X734402Y599112D01*
X733142Y597226D01*
X732700Y595002D01*
X733142Y592778D01*
X734402Y590893D01*
X736288Y589633D01*
X738512Y589190D01*
X740736Y589633D01*
X742621Y590893D01*
X743881Y592778D01*
X744323Y595002D01*
X743881Y597226D01*
X742621Y599112D01*
X740736Y600371D01*
X738512Y600814D01*
D02*
G37*
G36*
X970500Y604062D02*
X968276Y603619D01*
X966391Y602360D01*
X965131Y600474D01*
X964688Y598250D01*
X965131Y596026D01*
X966391Y594141D01*
X968276Y592881D01*
X970500Y592438D01*
X972724Y592881D01*
X974610Y594141D01*
X975869Y596026D01*
X976312Y598250D01*
X975869Y600474D01*
X974610Y602360D01*
X972724Y603619D01*
X970500Y604062D01*
D02*
G37*
G36*
X685881Y594230D02*
X680520D01*
Y588869D01*
X681010Y588933D01*
X682649Y589613D01*
X684057Y590693D01*
X685137Y592101D01*
X685816Y593741D01*
X685881Y594230D01*
D02*
G37*
G36*
X722000Y600812D02*
X719776Y600369D01*
X717890Y599109D01*
X716631Y597224D01*
X716188Y595000D01*
X716631Y592776D01*
X717890Y590891D01*
X719776Y589631D01*
X722000Y589188D01*
X724224Y589631D01*
X726109Y590891D01*
X727369Y592776D01*
X727812Y595000D01*
X727369Y597224D01*
X726109Y599109D01*
X724224Y600369D01*
X722000Y600812D01*
D02*
G37*
G36*
X755500Y600062D02*
X753276Y599619D01*
X751391Y598359D01*
X750131Y596474D01*
X749688Y594250D01*
X750131Y592026D01*
X751391Y590140D01*
X752676Y589282D01*
Y560000D01*
X752676Y560000D01*
X752891Y558919D01*
X753503Y558003D01*
X754253Y557253D01*
X754661Y556980D01*
X755891Y555140D01*
X757776Y553881D01*
X760000Y553438D01*
X762224Y553881D01*
X764109Y555140D01*
X765369Y557026D01*
X765812Y559250D01*
X765369Y561474D01*
X764109Y563359D01*
X762224Y564619D01*
X760000Y565062D01*
X759306Y564924D01*
X758324Y565729D01*
Y589282D01*
X759610Y590140D01*
X760869Y592026D01*
X761312Y594250D01*
X760869Y596474D01*
X759610Y598359D01*
X757724Y599619D01*
X755500Y600062D01*
D02*
G37*
G36*
X663200Y573078D02*
X660851Y572768D01*
X658661Y571861D01*
X656781Y570419D01*
X655339Y568539D01*
X654432Y566349D01*
X654122Y564000D01*
X654432Y561651D01*
X655339Y559461D01*
X656781Y557581D01*
X658661Y556138D01*
X660851Y555232D01*
X663200Y554922D01*
X665549Y555232D01*
X667739Y556138D01*
X669619Y557581D01*
X671061Y559461D01*
X671968Y561651D01*
X672278Y564000D01*
X671968Y566349D01*
X671061Y568539D01*
X669619Y570419D01*
X667739Y571861D01*
X665549Y572768D01*
X663200Y573078D01*
D02*
G37*
G36*
X1028040Y563272D02*
X1025816Y562829D01*
X1023931Y561570D01*
X1022671Y559684D01*
X1022228Y557460D01*
X1022671Y555236D01*
X1023931Y553350D01*
X1025816Y552091D01*
X1028040Y551648D01*
X1030264Y552091D01*
X1032149Y553350D01*
X1033409Y555236D01*
X1033852Y557460D01*
X1033409Y559684D01*
X1032149Y561570D01*
X1030264Y562829D01*
X1028040Y563272D01*
D02*
G37*
G36*
X1055020Y563542D02*
X1052796Y563099D01*
X1050910Y561839D01*
X1049651Y559954D01*
X1049208Y557730D01*
X1049651Y555506D01*
X1050910Y553620D01*
X1052796Y552361D01*
X1055020Y551918D01*
X1057244Y552361D01*
X1059129Y553620D01*
X1060389Y555506D01*
X1060832Y557730D01*
X1060389Y559954D01*
X1059129Y561839D01*
X1057244Y563099D01*
X1055020Y563542D01*
D02*
G37*
G36*
X698250Y567062D02*
X696026Y566619D01*
X694140Y565359D01*
X692881Y563474D01*
X692438Y561250D01*
X692881Y559026D01*
X694140Y557141D01*
X696026Y555881D01*
X698250Y555438D01*
X700474Y555881D01*
X702359Y557141D01*
X703619Y559026D01*
X704062Y561250D01*
X703619Y563474D01*
X702359Y565359D01*
X700474Y566619D01*
X698250Y567062D01*
D02*
G37*
G36*
X1160000Y607585D02*
X1156569Y607247D01*
X1153271Y606246D01*
X1150230Y604621D01*
X1147566Y602434D01*
X1145379Y599770D01*
X1143754Y596729D01*
X1142753Y593431D01*
X1142415Y590000D01*
X1142753Y586569D01*
X1143754Y583271D01*
X1145379Y580230D01*
X1147566Y577566D01*
X1150230Y575379D01*
X1153271Y573754D01*
X1156569Y572753D01*
X1160000Y572415D01*
X1163431Y572753D01*
X1166729Y573754D01*
X1169770Y575379D01*
X1172434Y577566D01*
X1174621Y580230D01*
X1176246Y583271D01*
X1177247Y586569D01*
X1177585Y590000D01*
X1177247Y593431D01*
X1176246Y596729D01*
X1174621Y599770D01*
X1172434Y602434D01*
X1169770Y604621D01*
X1166729Y606246D01*
X1163431Y607247D01*
X1160000Y607585D01*
D02*
G37*
G36*
X1000730Y582480D02*
X995369D01*
X995434Y581991D01*
X996113Y580351D01*
X997193Y578943D01*
X998601Y577863D01*
X1000240Y577183D01*
X1000730Y577119D01*
Y582480D01*
D02*
G37*
G36*
X684750Y572312D02*
X682526Y571869D01*
X680640Y570610D01*
X679381Y568724D01*
X678938Y566500D01*
X679381Y564276D01*
X680640Y562391D01*
X682526Y561131D01*
X684750Y560688D01*
X686974Y561131D01*
X688859Y562391D01*
X690119Y564276D01*
X690562Y566500D01*
X690119Y568724D01*
X688859Y570610D01*
X686974Y571869D01*
X684750Y572312D01*
D02*
G37*
G36*
X540000Y607585D02*
X536569Y607247D01*
X533271Y606246D01*
X530230Y604621D01*
X527566Y602434D01*
X525379Y599770D01*
X523754Y596729D01*
X522753Y593431D01*
X522415Y590000D01*
X522753Y586569D01*
X523754Y583271D01*
X525379Y580230D01*
X527566Y577566D01*
X530230Y575379D01*
X533271Y573754D01*
X536569Y572753D01*
X540000Y572415D01*
X543431Y572753D01*
X546729Y573754D01*
X549770Y575379D01*
X552434Y577566D01*
X554621Y580230D01*
X556246Y583271D01*
X557247Y586569D01*
X557585Y590000D01*
X557247Y593431D01*
X556246Y596729D01*
X554621Y599770D01*
X552434Y602434D01*
X549770Y604621D01*
X546729Y606246D01*
X543431Y607247D01*
X540000Y607585D01*
D02*
G37*
G36*
X1029480Y609131D02*
X1028990Y609067D01*
X1027351Y608387D01*
X1025943Y607307D01*
X1024863Y605899D01*
X1024184Y604259D01*
X1024119Y603770D01*
X1029480D01*
Y609131D01*
D02*
G37*
G36*
X1050730D02*
X1050240Y609067D01*
X1048601Y608387D01*
X1047193Y607307D01*
X1046057D01*
X1044649Y608387D01*
X1043009Y609067D01*
X1042520Y609131D01*
Y602500D01*
Y595869D01*
X1043009Y595933D01*
X1044649Y596613D01*
X1046057Y597693D01*
X1047193D01*
X1048601Y596613D01*
X1050240Y595933D01*
X1050730Y595869D01*
Y602500D01*
Y609131D01*
D02*
G37*
G36*
X603520Y602631D02*
Y597270D01*
X608881D01*
X608816Y597760D01*
X608137Y599399D01*
X607057Y600807D01*
X605649Y601887D01*
X604010Y602566D01*
X603520Y602631D01*
D02*
G37*
G36*
X1064020Y608881D02*
Y603520D01*
X1069381D01*
X1069316Y604010D01*
X1068637Y605649D01*
X1067557Y607057D01*
X1066149Y608137D01*
X1064510Y608816D01*
X1064020Y608881D01*
D02*
G37*
G36*
X1039980Y609131D02*
X1039491Y609067D01*
X1037851Y608387D01*
X1036443Y607307D01*
X1035557D01*
X1034149Y608387D01*
X1032510Y609067D01*
X1032020Y609131D01*
Y602500D01*
Y595869D01*
X1032510Y595933D01*
X1034149Y596613D01*
X1035557Y597693D01*
X1036443D01*
X1037851Y596613D01*
X1039491Y595933D01*
X1039980Y595869D01*
Y602500D01*
Y609131D01*
D02*
G37*
G36*
X1096731Y627631D02*
X1096241Y627567D01*
X1094602Y626888D01*
X1093194Y625807D01*
X1092113Y624400D01*
X1091434Y622760D01*
X1091370Y622271D01*
X1096731D01*
Y627631D01*
D02*
G37*
G36*
X1108271D02*
Y622271D01*
X1113632D01*
X1113567Y622760D01*
X1112888Y624400D01*
X1111808Y625807D01*
X1110400Y626888D01*
X1108760Y627567D01*
X1108271Y627631D01*
D02*
G37*
G36*
X1096731Y619730D02*
X1091370D01*
X1091434Y619241D01*
X1092113Y617601D01*
X1093194Y616194D01*
X1094602Y615113D01*
X1096241Y614434D01*
X1096731Y614370D01*
Y619730D01*
D02*
G37*
G36*
X1113632D02*
X1108271D01*
Y614370D01*
X1108760Y614434D01*
X1110400Y615113D01*
X1111808Y616194D01*
X1112888Y617601D01*
X1113567Y619241D01*
X1113632Y619730D01*
D02*
G37*
G36*
X640000Y605812D02*
X637776Y605369D01*
X635891Y604109D01*
X634631Y602224D01*
X634188Y600000D01*
X634631Y597776D01*
X635891Y595891D01*
X637776Y594631D01*
X640000Y594188D01*
X642224Y594631D01*
X644109Y595891D01*
X645369Y597776D01*
X645812Y600000D01*
X645369Y602224D01*
X644109Y604109D01*
X642224Y605369D01*
X640000Y605812D01*
D02*
G37*
G36*
X660000D02*
X657776Y605369D01*
X655891Y604109D01*
X654631Y602224D01*
X654188Y600000D01*
X654631Y597776D01*
X655891Y595891D01*
X657776Y594631D01*
X660000Y594188D01*
X662224Y594631D01*
X664109Y595891D01*
X665369Y597776D01*
X665812Y600000D01*
X665369Y602224D01*
X664109Y604109D01*
X662224Y605369D01*
X660000Y605812D01*
D02*
G37*
G36*
X767980Y598131D02*
X767490Y598066D01*
X765851Y597387D01*
X764443Y596307D01*
X763363Y594899D01*
X762683Y593260D01*
X762619Y592770D01*
X767980D01*
Y598131D01*
D02*
G37*
G36*
X620000Y605812D02*
X617776Y605369D01*
X615891Y604109D01*
X614631Y602224D01*
X614188Y600000D01*
X614631Y597776D01*
X615891Y595891D01*
X617776Y594631D01*
X620000Y594188D01*
X622224Y594631D01*
X624109Y595891D01*
X625369Y597776D01*
X625812Y600000D01*
X625369Y602224D01*
X624109Y604109D01*
X622224Y605369D01*
X620000Y605812D01*
D02*
G37*
G36*
X1053270Y609131D02*
Y602500D01*
Y595869D01*
X1053760Y595933D01*
X1055399Y596613D01*
X1056807Y597693D01*
X1057751D01*
X1057943Y597443D01*
X1059351Y596363D01*
X1060991Y595684D01*
X1061480Y595619D01*
Y602250D01*
Y608881D01*
X1060991Y608816D01*
X1059351Y608137D01*
X1057943Y607057D01*
X1056999D01*
X1056807Y607307D01*
X1055399Y608387D01*
X1053760Y609067D01*
X1053270Y609131D01*
D02*
G37*
G36*
X677980Y602131D02*
X677490Y602066D01*
X675851Y601387D01*
X674443Y600307D01*
X673363Y598899D01*
X672683Y597259D01*
X672619Y596770D01*
X677980D01*
Y602131D01*
D02*
G37*
G36*
X680520D02*
Y596770D01*
X685881D01*
X685816Y597259D01*
X685137Y598899D01*
X684057Y600307D01*
X682649Y601387D01*
X681010Y602066D01*
X680520Y602131D01*
D02*
G37*
G36*
X1069381Y600980D02*
X1064020D01*
Y595619D01*
X1064510Y595684D01*
X1066149Y596363D01*
X1067557Y597443D01*
X1068637Y598851D01*
X1069316Y600490D01*
X1069381Y600980D01*
D02*
G37*
G36*
X1029480Y601230D02*
X1024119D01*
X1024184Y600741D01*
X1024863Y599101D01*
X1025943Y597693D01*
X1027351Y596613D01*
X1028990Y595933D01*
X1029480Y595869D01*
Y601230D01*
D02*
G37*
G36*
X790520Y686131D02*
Y680770D01*
X795881D01*
X795816Y681260D01*
X795137Y682899D01*
X794057Y684307D01*
X792649Y685387D01*
X791010Y686067D01*
X790520Y686131D01*
D02*
G37*
G36*
X601730Y879632D02*
X601241Y879567D01*
X599601Y878888D01*
X598194Y877808D01*
X597113Y876400D01*
X596434Y874760D01*
X596370Y874271D01*
X601730D01*
Y879632D01*
D02*
G37*
G36*
X613270D02*
Y874271D01*
X618632D01*
X618567Y874760D01*
X617888Y876400D01*
X616808Y877808D01*
X615400Y878888D01*
X613760Y879567D01*
X613270Y879632D01*
D02*
G37*
G36*
X1007730Y876457D02*
X1005506Y876014D01*
X1003621Y874754D01*
X1002361Y872869D01*
X1001918Y870645D01*
X1002361Y868421D01*
X1003621Y866535D01*
X1005506Y865276D01*
X1007730Y864833D01*
X1009954Y865276D01*
X1011840Y866535D01*
X1013099Y868421D01*
X1013542Y870645D01*
X1013099Y872869D01*
X1011840Y874754D01*
X1009954Y876014D01*
X1007730Y876457D01*
D02*
G37*
G36*
X1067750Y876687D02*
X1065526Y876244D01*
X1063641Y874985D01*
X1062381Y873099D01*
X1061938Y870875D01*
X1062381Y868651D01*
X1063641Y866766D01*
X1065526Y865506D01*
X1067750Y865063D01*
X1069974Y865506D01*
X1071860Y866766D01*
X1073119Y868651D01*
X1073562Y870875D01*
X1073119Y873099D01*
X1071860Y874985D01*
X1069974Y876244D01*
X1067750Y876687D01*
D02*
G37*
G36*
X978020Y887131D02*
Y881770D01*
X983381D01*
X983316Y882260D01*
X982637Y883899D01*
X981557Y885307D01*
X980149Y886387D01*
X978510Y887066D01*
X978020Y887131D01*
D02*
G37*
G36*
X749980Y894381D02*
X749491Y894316D01*
X747851Y893637D01*
X746443Y892557D01*
X745363Y891149D01*
X744684Y889510D01*
X744619Y889020D01*
X749980D01*
Y894381D01*
D02*
G37*
G36*
X610731Y879632D02*
X610241Y879567D01*
X608601Y878888D01*
X607500Y878043D01*
X606400Y878888D01*
X604760Y879567D01*
X604271Y879632D01*
Y873001D01*
X603000D01*
Y871731D01*
X596370D01*
X596434Y871241D01*
X596033Y870274D01*
X595101Y869888D01*
X593694Y868808D01*
X592613Y867400D01*
X591934Y865760D01*
X591870Y865271D01*
X598501D01*
Y862731D01*
X591870D01*
X591934Y862241D01*
X592217Y861557D01*
X590601Y860888D01*
X589193Y859808D01*
X588113Y858400D01*
X587434Y856760D01*
X587369Y856271D01*
X600631D01*
X600567Y856760D01*
X600284Y857444D01*
X601900Y858113D01*
X603000Y858958D01*
X604101Y858113D01*
X605741Y857434D01*
X606231Y857370D01*
Y864001D01*
X607500D01*
Y865271D01*
X614131D01*
X614067Y865760D01*
X614468Y866727D01*
X615400Y867113D01*
X616808Y868194D01*
X617888Y869602D01*
X618567Y871241D01*
X618632Y871731D01*
X612001D01*
Y873001D01*
X610731D01*
Y879632D01*
D02*
G37*
G36*
X749980Y886480D02*
X744619D01*
X744684Y885991D01*
X745363Y884351D01*
X746443Y882943D01*
X747851Y881863D01*
X749491Y881183D01*
X749980Y881119D01*
Y886480D01*
D02*
G37*
G36*
X536250Y865881D02*
X535760Y865816D01*
X534121Y865137D01*
X532885Y864189D01*
X531649Y865137D01*
X530009Y865816D01*
X529520Y865881D01*
Y859250D01*
Y852619D01*
X530009Y852683D01*
X531649Y853363D01*
X532885Y854311D01*
X534121Y853363D01*
X535760Y852683D01*
X536250Y852619D01*
Y859250D01*
Y865881D01*
D02*
G37*
G36*
X1085771Y834632D02*
Y829271D01*
X1091132D01*
X1091067Y829760D01*
X1090388Y831400D01*
X1089308Y832808D01*
X1087900Y833888D01*
X1086260Y834567D01*
X1085771Y834632D01*
D02*
G37*
G36*
X1068500Y848312D02*
X1066276Y847869D01*
X1064390Y846609D01*
X1063131Y844724D01*
X1062688Y842500D01*
X1063131Y840276D01*
X1064390Y838391D01*
X1066276Y837131D01*
X1068500Y836688D01*
X1070724Y837131D01*
X1072609Y838391D01*
X1073869Y840276D01*
X1074312Y842500D01*
X1073869Y844724D01*
X1072609Y846609D01*
X1070724Y847869D01*
X1068500Y848312D01*
D02*
G37*
G36*
X747381Y820980D02*
X742020D01*
Y815619D01*
X742510Y815684D01*
X744149Y816363D01*
X745557Y817443D01*
X746637Y818851D01*
X747317Y820490D01*
X747381Y820980D01*
D02*
G37*
G36*
X1074231Y834632D02*
X1073741Y834567D01*
X1072102Y833888D01*
X1070694Y832808D01*
X1069613Y831400D01*
X1068934Y829760D01*
X1068870Y829271D01*
X1074231D01*
Y834632D01*
D02*
G37*
G36*
X614131Y862731D02*
X608770D01*
Y857370D01*
X609260Y857434D01*
X610900Y858113D01*
X612308Y859194D01*
X613388Y860602D01*
X614067Y862241D01*
X614131Y862731D01*
D02*
G37*
G36*
X526980Y865881D02*
X526491Y865816D01*
X524851Y865137D01*
X523443Y864057D01*
X522363Y862649D01*
X521684Y861010D01*
X521619Y860520D01*
X526980D01*
Y865881D01*
D02*
G37*
G36*
X1085500Y861312D02*
X1083276Y860869D01*
X1081391Y859610D01*
X1080131Y857724D01*
X1079688Y855500D01*
X1080131Y853276D01*
X1081391Y851391D01*
X1083276Y850131D01*
X1085500Y849688D01*
X1087724Y850131D01*
X1089610Y851391D01*
X1090869Y853276D01*
X1091312Y855500D01*
X1090869Y857724D01*
X1089610Y859610D01*
X1087724Y860869D01*
X1085500Y861312D01*
D02*
G37*
G36*
X526980Y857980D02*
X521619D01*
X521684Y857490D01*
X522363Y855851D01*
X523443Y854443D01*
X524851Y853363D01*
X526491Y852683D01*
X526980Y852619D01*
Y857980D01*
D02*
G37*
G36*
X982500Y904562D02*
X980276Y904119D01*
X978391Y902859D01*
X977131Y900974D01*
X976688Y898750D01*
X977131Y896526D01*
X978391Y894641D01*
X980276Y893381D01*
X982500Y892938D01*
X984724Y893381D01*
X986609Y894641D01*
X987869Y896526D01*
X988312Y898750D01*
X987869Y900974D01*
X986609Y902859D01*
X984724Y904119D01*
X982500Y904562D01*
D02*
G37*
G36*
X952400Y946578D02*
X950051Y946268D01*
X947861Y945361D01*
X945981Y943919D01*
X944538Y942039D01*
X943632Y939849D01*
X943322Y937500D01*
X943632Y935151D01*
X944538Y932961D01*
X945981Y931081D01*
X947861Y929639D01*
X950051Y928732D01*
X952400Y928422D01*
X954750Y928732D01*
X956939Y929639D01*
X958819Y931081D01*
X960262Y932961D01*
X961168Y935151D01*
X961478Y937500D01*
X961168Y939849D01*
X960262Y942039D01*
X958819Y943919D01*
X956939Y945361D01*
X954750Y946268D01*
X952400Y946578D01*
D02*
G37*
G36*
X1067900D02*
X1065551Y946268D01*
X1063361Y945361D01*
X1061481Y943919D01*
X1060039Y942039D01*
X1059132Y939849D01*
X1058822Y937500D01*
X1059132Y935151D01*
X1060039Y932961D01*
X1061481Y931081D01*
X1063361Y929639D01*
X1065551Y928732D01*
X1067900Y928422D01*
X1070249Y928732D01*
X1072439Y929639D01*
X1074319Y931081D01*
X1075761Y932961D01*
X1076668Y935151D01*
X1076978Y937500D01*
X1076668Y939849D01*
X1075761Y942039D01*
X1074319Y943919D01*
X1072439Y945361D01*
X1070249Y946268D01*
X1067900Y946578D01*
D02*
G37*
G36*
X574730Y933632D02*
X574241Y933567D01*
X572601Y932888D01*
X571193Y931808D01*
X570113Y930400D01*
X569434Y928760D01*
X569370Y928271D01*
X574730D01*
Y933632D01*
D02*
G37*
G36*
X586270D02*
Y928271D01*
X591631D01*
X591567Y928760D01*
X590888Y930400D01*
X589808Y931808D01*
X588400Y932888D01*
X586760Y933567D01*
X586270Y933632D01*
D02*
G37*
G36*
X1041230Y947540D02*
X1032460D01*
Y938770D01*
X1041230D01*
Y947540D01*
D02*
G37*
G36*
X1052540D02*
X1043770D01*
Y938770D01*
X1052540D01*
Y947540D01*
D02*
G37*
G36*
X583731Y933632D02*
X583241Y933567D01*
X581601Y932888D01*
X580500Y932043D01*
X579400Y932888D01*
X577760Y933567D01*
X577271Y933632D01*
Y927001D01*
X576001D01*
Y925731D01*
X569370D01*
X569434Y925241D01*
X570113Y923602D01*
X571193Y922194D01*
X572601Y921113D01*
X574217Y920444D01*
X573934Y919760D01*
X573870Y919271D01*
X580500D01*
Y916731D01*
X573870D01*
X573934Y916241D01*
X574217Y915557D01*
X572601Y914888D01*
X571193Y913808D01*
X570113Y912400D01*
X569434Y910760D01*
X569370Y910271D01*
X576001D01*
Y909001D01*
X577271D01*
Y902370D01*
X577760Y902434D01*
X579400Y903113D01*
X580500Y903958D01*
X581601Y903113D01*
X583241Y902434D01*
X583731Y902370D01*
Y909001D01*
X585000D01*
Y910271D01*
X591631D01*
X591567Y910760D01*
X591284Y911444D01*
X592900Y912113D01*
X594308Y913194D01*
X595388Y914602D01*
X596067Y916241D01*
X596131Y916731D01*
X589501D01*
Y919271D01*
X596131D01*
X596067Y919760D01*
X595388Y921400D01*
X594308Y922808D01*
X592900Y923888D01*
X591284Y924557D01*
X591567Y925241D01*
X591631Y925731D01*
X585000D01*
Y927001D01*
X583731D01*
Y933632D01*
D02*
G37*
G36*
X618881Y940980D02*
X613520D01*
Y935619D01*
X614010Y935684D01*
X615649Y936363D01*
X617057Y937443D01*
X618137Y938851D01*
X618816Y940490D01*
X618881Y940980D01*
D02*
G37*
G36*
X1052540Y936230D02*
X1043770D01*
Y927460D01*
X1052540D01*
Y936230D01*
D02*
G37*
G36*
X823730Y903230D02*
X818369D01*
X818434Y902740D01*
X819113Y901101D01*
X820193Y899693D01*
X821601Y898613D01*
X823241Y897934D01*
X823730Y897869D01*
Y903230D01*
D02*
G37*
G36*
X574730Y907731D02*
X569370D01*
X569434Y907241D01*
X570113Y905602D01*
X571193Y904194D01*
X572601Y903113D01*
X574241Y902434D01*
X574730Y902370D01*
Y907731D01*
D02*
G37*
G36*
X1007480Y904832D02*
X1005256Y904389D01*
X1003371Y903130D01*
X1002111Y901244D01*
X1001668Y899020D01*
X1002111Y896796D01*
X1003371Y894911D01*
X1005256Y893651D01*
X1007480Y893208D01*
X1009704Y893651D01*
X1011589Y894911D01*
X1012849Y896796D01*
X1013292Y899020D01*
X1012849Y901244D01*
X1011589Y903130D01*
X1009704Y904389D01*
X1007480Y904832D01*
D02*
G37*
G36*
X1067500Y905062D02*
X1065276Y904619D01*
X1063391Y903360D01*
X1062131Y901474D01*
X1061688Y899250D01*
X1062131Y897026D01*
X1063391Y895141D01*
X1065276Y893881D01*
X1067500Y893438D01*
X1069724Y893881D01*
X1071609Y895141D01*
X1072869Y897026D01*
X1073312Y899250D01*
X1072869Y901474D01*
X1071609Y903360D01*
X1069724Y904619D01*
X1067500Y905062D01*
D02*
G37*
G36*
X1160000Y957585D02*
X1156569Y957247D01*
X1153271Y956246D01*
X1150230Y954621D01*
X1147566Y952434D01*
X1145379Y949770D01*
X1143754Y946729D01*
X1142753Y943431D01*
X1142415Y940000D01*
X1142753Y936569D01*
X1143754Y933271D01*
X1145379Y930230D01*
X1147566Y927566D01*
X1150230Y925379D01*
X1153271Y923754D01*
X1156569Y922753D01*
X1160000Y922415D01*
X1163431Y922753D01*
X1166729Y923754D01*
X1169770Y925379D01*
X1172434Y927566D01*
X1174621Y930230D01*
X1176246Y933271D01*
X1177247Y936569D01*
X1177585Y940000D01*
X1177247Y943431D01*
X1176246Y946729D01*
X1174621Y949770D01*
X1172434Y952434D01*
X1169770Y954621D01*
X1166729Y956246D01*
X1163431Y957247D01*
X1160000Y957585D01*
D02*
G37*
G36*
X1041230Y936230D02*
X1032460D01*
Y927460D01*
X1041230D01*
Y936230D01*
D02*
G37*
G36*
X591631Y907731D02*
X586270D01*
Y902370D01*
X586760Y902434D01*
X588400Y903113D01*
X589808Y904194D01*
X590888Y905602D01*
X591567Y907241D01*
X591631Y907731D01*
D02*
G37*
G36*
X823730Y911131D02*
X823241Y911067D01*
X821601Y910387D01*
X820193Y909307D01*
X819113Y907899D01*
X818434Y906260D01*
X818369Y905770D01*
X823730D01*
Y911131D01*
D02*
G37*
G36*
X760500Y738062D02*
X758276Y737619D01*
X756391Y736359D01*
X755131Y734474D01*
X754688Y732250D01*
X755131Y730026D01*
X756391Y728140D01*
X758276Y726881D01*
X760500Y726438D01*
X762724Y726881D01*
X764609Y728140D01*
X765742D01*
X766404Y727149D01*
X768289Y725890D01*
X770513Y725447D01*
X772737Y725890D01*
X774623Y727149D01*
X775882Y729035D01*
X776325Y731259D01*
X775882Y733483D01*
X774623Y735368D01*
X772737Y736628D01*
X770513Y737070D01*
X768289Y736628D01*
X766404Y735368D01*
X765272D01*
X764610Y736359D01*
X762724Y737619D01*
X760500Y738062D01*
D02*
G37*
G36*
X718980Y731881D02*
X718491Y731816D01*
X716851Y731137D01*
X715443Y730057D01*
X714363Y728649D01*
X713683Y727010D01*
X713619Y726520D01*
X718980D01*
Y731881D01*
D02*
G37*
G36*
X1138731Y726631D02*
X1138241Y726567D01*
X1136601Y725888D01*
X1135194Y724807D01*
X1134113Y723400D01*
X1133434Y721760D01*
X1133370Y721270D01*
X1138731D01*
Y726631D01*
D02*
G37*
G36*
X1141271D02*
Y721270D01*
X1146632D01*
X1146567Y721760D01*
X1145888Y723400D01*
X1144808Y724807D01*
X1143400Y725888D01*
X1141760Y726567D01*
X1141271Y726631D01*
D02*
G37*
G36*
X791730Y733381D02*
X791240Y733316D01*
X789601Y732637D01*
X788193Y731557D01*
X787113Y730149D01*
X786433Y728510D01*
X786369Y728020D01*
X791730D01*
Y733381D01*
D02*
G37*
G36*
X794270D02*
Y728020D01*
X799631D01*
X799566Y728510D01*
X798887Y730149D01*
X797807Y731557D01*
X796399Y732637D01*
X794760Y733316D01*
X794270Y733381D01*
D02*
G37*
G36*
X743480Y733131D02*
X742990Y733066D01*
X741351Y732387D01*
X739943Y731307D01*
X738863Y729899D01*
X738184Y728260D01*
X738119Y727770D01*
X743480D01*
Y733131D01*
D02*
G37*
G36*
X746020D02*
Y727770D01*
X751381D01*
X751317Y728260D01*
X750637Y729899D01*
X749557Y731307D01*
X748149Y732387D01*
X746509Y733066D01*
X746020Y733131D01*
D02*
G37*
G36*
X525000Y731816D02*
X518250D01*
X516259Y731554D01*
X514405Y730785D01*
X512812Y729563D01*
X511590Y727970D01*
X510821Y726115D01*
X510559Y724125D01*
X510821Y722134D01*
X511590Y720280D01*
X512812Y718687D01*
X514405Y717465D01*
X516259Y716696D01*
X518250Y716434D01*
X525000D01*
X526991Y716696D01*
X528845Y717465D01*
X530438Y718687D01*
X531660Y720280D01*
X532429Y722134D01*
X532691Y724125D01*
X532429Y726115D01*
X531660Y727970D01*
X530438Y729563D01*
X528845Y730785D01*
X526991Y731554D01*
X525000Y731816D01*
D02*
G37*
G36*
X1103500Y699812D02*
X1101276Y699369D01*
X1099390Y698109D01*
X1098131Y696224D01*
X1097688Y694000D01*
X1098131Y691776D01*
X1099390Y689891D01*
X1101276Y688631D01*
X1103500Y688188D01*
X1105724Y688631D01*
X1107609Y689891D01*
X1108869Y691776D01*
X1109312Y694000D01*
X1108869Y696224D01*
X1107609Y698109D01*
X1105724Y699369D01*
X1103500Y699812D01*
D02*
G37*
G36*
X1138731Y698730D02*
X1133370D01*
X1133434Y698241D01*
X1134113Y696601D01*
X1135194Y695193D01*
X1136601Y694113D01*
X1138241Y693434D01*
X1138731Y693369D01*
Y698730D01*
D02*
G37*
G36*
X724020Y688131D02*
Y682770D01*
X729381D01*
X729316Y683260D01*
X728637Y684899D01*
X727557Y686307D01*
X726149Y687387D01*
X724510Y688066D01*
X724020Y688131D01*
D02*
G37*
G36*
X523000Y705750D02*
X505000D01*
Y687750D01*
X523000D01*
Y705750D01*
D02*
G37*
G36*
X1146632Y718730D02*
X1133370D01*
X1133434Y718241D01*
X1134113Y716601D01*
X1134607Y715958D01*
X1135095Y715000D01*
X1134607Y714043D01*
X1134113Y713400D01*
X1133434Y711760D01*
X1133370Y711270D01*
X1146632D01*
X1146567Y711760D01*
X1145888Y713400D01*
X1145394Y714043D01*
X1144906Y715000D01*
X1145394Y715958D01*
X1145888Y716601D01*
X1146567Y718241D01*
X1146632Y718730D01*
D02*
G37*
G36*
X1182250Y731316D02*
X1175500D01*
X1173510Y731054D01*
X1171655Y730285D01*
X1170062Y729063D01*
X1168840Y727470D01*
X1168071Y725615D01*
X1167809Y723625D01*
X1168071Y721635D01*
X1168840Y719780D01*
X1170062Y718187D01*
X1171655Y716965D01*
X1173510Y716196D01*
X1175500Y715934D01*
X1182250D01*
X1184240Y716196D01*
X1186095Y716965D01*
X1187688Y718187D01*
X1188910Y719780D01*
X1189679Y721635D01*
X1189941Y723625D01*
X1189679Y725615D01*
X1188910Y727470D01*
X1187688Y729063D01*
X1186095Y730285D01*
X1184240Y731054D01*
X1182250Y731316D01*
D02*
G37*
G36*
X1146632Y698730D02*
X1141271D01*
Y693369D01*
X1141760Y693434D01*
X1143400Y694113D01*
X1144808Y695193D01*
X1145888Y696601D01*
X1146567Y698241D01*
X1146632Y698730D01*
D02*
G37*
G36*
Y708730D02*
X1133370D01*
X1133434Y708241D01*
X1134113Y706601D01*
X1134607Y705958D01*
X1135095Y705000D01*
X1134607Y704043D01*
X1134113Y703400D01*
X1133434Y701760D01*
X1133370Y701270D01*
X1146632D01*
X1146567Y701760D01*
X1145888Y703400D01*
X1145394Y704043D01*
X1144906Y705000D01*
X1145394Y705958D01*
X1145888Y706601D01*
X1146567Y708241D01*
X1146632Y708730D01*
D02*
G37*
G36*
X1148625Y749058D02*
X1146625D01*
X1144863Y748826D01*
X1143221Y748146D01*
X1141811Y747064D01*
X1140729Y745654D01*
X1140049Y744012D01*
X1139817Y742250D01*
X1140049Y740488D01*
X1140729Y738846D01*
X1141811Y737436D01*
X1143221Y736354D01*
X1144863Y735674D01*
X1146625Y735442D01*
X1148625D01*
X1150387Y735674D01*
X1152029Y736354D01*
X1153439Y737436D01*
X1154521Y738846D01*
X1155201Y740488D01*
X1155433Y742250D01*
X1155201Y744012D01*
X1154521Y745654D01*
X1153439Y747064D01*
X1152029Y748146D01*
X1150387Y748826D01*
X1148625Y749058D01*
D02*
G37*
G36*
X1182250Y813066D02*
X1175500D01*
X1173510Y812804D01*
X1171655Y812035D01*
X1170062Y810813D01*
X1168840Y809220D01*
X1168071Y807365D01*
X1167809Y805375D01*
X1168071Y803384D01*
X1168840Y801530D01*
X1170062Y799937D01*
X1171655Y798715D01*
X1173510Y797946D01*
X1175500Y797684D01*
X1182250D01*
X1184240Y797946D01*
X1186095Y798715D01*
X1187688Y799937D01*
X1188910Y801530D01*
X1189679Y803384D01*
X1189941Y805375D01*
X1189679Y807365D01*
X1188910Y809220D01*
X1187688Y810813D01*
X1186095Y812035D01*
X1184240Y812804D01*
X1182250Y813066D01*
D02*
G37*
G36*
X525000Y813566D02*
X518250D01*
X516259Y813304D01*
X514405Y812535D01*
X512812Y811313D01*
X511590Y809720D01*
X510821Y807866D01*
X510559Y805875D01*
X510821Y803885D01*
X511590Y802030D01*
X512812Y800437D01*
X514405Y799215D01*
X516259Y798446D01*
X518250Y798184D01*
X525000D01*
X526991Y798446D01*
X528845Y799215D01*
X530438Y800437D01*
X531660Y802030D01*
X532429Y803885D01*
X532691Y805875D01*
X532429Y807866D01*
X531660Y809720D01*
X530438Y811313D01*
X528845Y812535D01*
X526991Y813304D01*
X525000Y813566D01*
D02*
G37*
G36*
X636500Y798312D02*
X634276Y797869D01*
X632391Y796609D01*
X631131Y794724D01*
X630688Y792500D01*
X631131Y790276D01*
X632391Y788391D01*
X634276Y787131D01*
X636500Y786688D01*
X638724Y787131D01*
X640610Y788391D01*
X641869Y790276D01*
X642312Y792500D01*
X641869Y794724D01*
X640610Y796609D01*
X638724Y797869D01*
X636500Y798312D01*
D02*
G37*
G36*
X1020480Y800631D02*
X1019990Y800566D01*
X1018351Y799887D01*
X1016943Y798807D01*
X1016147Y797769D01*
X1014711Y797633D01*
X1014384Y798121D01*
X1012499Y799381D01*
X1010275Y799824D01*
X1008051Y799381D01*
X1006165Y798121D01*
X1004906Y796236D01*
X1004463Y794012D01*
X1004906Y791788D01*
X1006165Y789902D01*
X1008051Y788643D01*
X1010275Y788200D01*
X1012499Y788643D01*
X1014384Y789902D01*
X1014706Y790384D01*
X1016138Y790241D01*
X1016943Y789193D01*
X1018351Y788113D01*
X1019990Y787433D01*
X1020480Y787369D01*
Y794000D01*
Y800631D01*
D02*
G37*
G36*
X556730Y807632D02*
X556241Y807567D01*
X554601Y806888D01*
X553193Y805808D01*
X552113Y804400D01*
X551434Y802760D01*
X551370Y802271D01*
X556730D01*
Y807632D01*
D02*
G37*
G36*
X1020525Y823075D02*
X1018301Y822632D01*
X1016416Y821373D01*
X1015156Y819487D01*
X1014714Y817263D01*
X1015156Y815039D01*
X1016416Y813154D01*
X1018301Y811894D01*
X1020525Y811451D01*
X1022749Y811894D01*
X1024635Y813154D01*
X1025895Y815039D01*
X1026337Y817263D01*
X1025895Y819487D01*
X1024635Y821373D01*
X1022749Y822632D01*
X1020525Y823075D01*
D02*
G37*
G36*
X1086632Y817731D02*
X1081271D01*
Y812370D01*
X1081760Y812434D01*
X1083400Y813113D01*
X1084808Y814194D01*
X1085888Y815602D01*
X1086567Y817241D01*
X1086632Y817731D01*
D02*
G37*
G36*
X568270Y807632D02*
Y802271D01*
X573631D01*
X573567Y802760D01*
X572888Y804400D01*
X571808Y805808D01*
X570400Y806888D01*
X568760Y807567D01*
X568270Y807632D01*
D02*
G37*
G36*
X1056231Y808731D02*
X1050870D01*
X1050934Y808241D01*
X1051613Y806602D01*
X1052694Y805194D01*
X1054102Y804113D01*
X1055741Y803434D01*
X1056231Y803370D01*
Y808731D01*
D02*
G37*
G36*
X577271Y771632D02*
Y766271D01*
X582631D01*
X582567Y766760D01*
X581888Y768400D01*
X580807Y769808D01*
X579400Y770888D01*
X577760Y771567D01*
X577271Y771632D01*
D02*
G37*
G36*
X1070000Y791562D02*
X1067776Y791119D01*
X1065891Y789859D01*
X1064631Y787974D01*
X1064188Y785750D01*
X1064631Y783526D01*
X1065891Y781640D01*
X1067776Y780381D01*
X1070000Y779938D01*
X1072224Y780381D01*
X1074109Y781640D01*
X1075369Y783526D01*
X1075812Y785750D01*
X1075369Y787974D01*
X1074109Y789859D01*
X1072224Y791119D01*
X1070000Y791562D01*
D02*
G37*
G36*
X723741Y763891D02*
X723251Y763827D01*
X721612Y763148D01*
X720204Y762067D01*
X719124Y760659D01*
X718445Y759020D01*
X718380Y758530D01*
X723741D01*
Y763891D01*
D02*
G37*
G36*
X979881Y749480D02*
X974520D01*
Y744119D01*
X975010Y744184D01*
X976649Y744863D01*
X978057Y745943D01*
X979137Y747351D01*
X979817Y748990D01*
X979881Y749480D01*
D02*
G37*
G36*
X582631Y763731D02*
X577271D01*
Y758370D01*
X577760Y758434D01*
X579400Y759113D01*
X580807Y760194D01*
X581888Y761602D01*
X582567Y763241D01*
X582631Y763731D01*
D02*
G37*
G36*
X608520Y798042D02*
X606296Y797599D01*
X604411Y796339D01*
X603151Y794454D01*
X602708Y792230D01*
X603151Y790006D01*
X604411Y788120D01*
X606296Y786861D01*
X608520Y786418D01*
X610744Y786861D01*
X612630Y788120D01*
X613889Y790006D01*
X614332Y792230D01*
X613889Y794454D01*
X612630Y796339D01*
X610744Y797599D01*
X608520Y798042D01*
D02*
G37*
G36*
X578131Y790731D02*
X572771D01*
Y785370D01*
X573260Y785434D01*
X574899Y786113D01*
X576307Y787194D01*
X577388Y788602D01*
X578067Y790241D01*
X578131Y790731D01*
D02*
G37*
G36*
X570230D02*
X564869D01*
X564934Y790241D01*
X565613Y788602D01*
X566693Y787194D01*
X568101Y786113D01*
X569741Y785434D01*
X570230Y785370D01*
Y790731D01*
D02*
G37*
%LPD*%
G36*
X554390Y627141D02*
X555676Y626282D01*
Y615000D01*
X555676Y615000D01*
X555891Y613919D01*
X556503Y613003D01*
X595236Y574270D01*
X594710Y573000D01*
X594204Y573000D01*
X589074D01*
Y574500D01*
X588859Y575581D01*
X588247Y576497D01*
X588247Y576497D01*
X553074Y611670D01*
Y626824D01*
X554344Y627210D01*
X554390Y627141D01*
D02*
G37*
G36*
X562646Y624215D02*
Y621274D01*
X562646Y621274D01*
X562861Y620193D01*
X563473Y619277D01*
X609194Y573556D01*
X608946Y572311D01*
X607861Y571861D01*
X606600Y570894D01*
X561324Y616170D01*
Y624904D01*
X561376Y624935D01*
X562646Y624215D01*
D02*
G37*
D35*
X781720Y648970D02*
X801265D01*
X773250Y640500D02*
X781720Y648970D01*
X652544Y640500D02*
X773250D01*
X839000Y664250D02*
X862250Y687500D01*
X656013Y664250D02*
X839000D01*
X638507Y681756D02*
X656013Y664250D01*
X986614Y592943D02*
Y637687D01*
X824316Y554684D02*
X948355D01*
X986614Y592943D01*
X982574Y594617D02*
Y737569D01*
X947208Y559250D02*
X982574Y594617D01*
X833750Y559250D02*
X947208D01*
X984750Y745607D02*
Y790643D01*
X982530Y743387D02*
X984750Y745607D01*
X978804Y796589D02*
X984750Y790643D01*
X610000Y617250D02*
X613000Y614250D01*
X846000D01*
X914770Y760213D02*
Y761191D01*
X904270Y758510D02*
Y765977D01*
X856037Y797070D02*
X861220Y791887D01*
X789520Y905480D02*
Y919691D01*
X687084Y923790D02*
X785421D01*
X789520Y919691D01*
Y905480D02*
X822817Y872183D01*
X821743Y867543D02*
X848725D01*
X785480Y903807D02*
X821743Y867543D01*
X785480Y903807D02*
Y904017D01*
X769747Y919750D02*
X785480Y904017D01*
X822817Y872183D02*
X850646D01*
X665044Y901750D02*
X687084Y923790D01*
X693750Y919750D02*
X769747D01*
X675750Y901750D02*
X693750Y919750D01*
X662210Y867540D02*
X749540D01*
X647000Y882750D02*
X662210Y867540D01*
X640432Y863068D02*
X801855D01*
X806460Y773040D02*
X830240Y749260D01*
X688567Y773040D02*
X806460D01*
X663137Y798470D02*
X688567Y773040D01*
X799000Y769000D02*
X819516Y748484D01*
X682750Y769000D02*
X799000D01*
X660250Y791500D02*
X682750Y769000D01*
X731040Y750290D02*
X741000Y760250D01*
X656518Y750290D02*
X731040D01*
X744347Y752170D02*
X784903D01*
X734387Y742210D02*
X744347Y752170D01*
X734040Y742210D02*
X734387D01*
X742673Y756210D02*
X786577D01*
X732713Y746250D02*
X742673Y756210D01*
X741000Y760250D02*
X788250D01*
X785703Y807323D02*
X787764Y805262D01*
X779761Y807323D02*
X785703D01*
X777614Y809470D02*
X779761Y807323D01*
X770113Y809470D02*
X777614D01*
X768439Y813510D02*
X782648D01*
X764429Y809500D02*
X768439Y813510D01*
X715500Y809500D02*
X764429D01*
X653388Y753420D02*
X656518Y750290D01*
X701523Y722710D02*
X710602Y713630D01*
X641102Y722710D02*
X701523D01*
X633400Y715008D02*
X641102Y722710D01*
X710602Y713630D02*
X856154D01*
X784903Y752170D02*
X808403Y728670D01*
X786577Y756210D02*
X810077Y732710D01*
X788250Y760250D02*
X811750Y736750D01*
X564010Y763760D02*
X565750Y762021D01*
Y720376D02*
Y762021D01*
Y720376D02*
X590206Y695920D01*
X543855Y727145D02*
X579120Y691880D01*
X579290Y713398D02*
X592728Y699960D01*
X647235D01*
X590206Y695920D02*
X645561D01*
X579120Y691880D02*
X638120D01*
X647235Y699960D02*
X666655Y680540D01*
X638120Y691880D02*
X661250Y668750D01*
X645561Y695920D02*
X664981Y676500D01*
X648908Y704000D02*
X663971Y688937D01*
X595250Y704000D02*
X648908D01*
X583930Y715320D02*
X595250Y704000D01*
X685496Y680540D02*
X691712Y686757D01*
X666655Y680540D02*
X685496D01*
X692958Y676500D02*
X701729Y685271D01*
X664981Y676500D02*
X692958D01*
X691712Y686757D02*
X692509D01*
X805250Y668750D02*
X814750Y678250D01*
X661250Y668750D02*
X805250D01*
X632757Y715008D02*
X633400D01*
X699000Y718670D02*
X708680Y708990D01*
X644169Y718670D02*
X699000D01*
X643757Y718258D02*
X644169Y718670D01*
X768989Y783011D02*
X769263D01*
X786149Y832000D02*
X800145Y818004D01*
X675711Y832000D02*
X786149D01*
X800145Y818004D02*
X818435D01*
X787822Y836040D02*
X801819Y822044D01*
X820956D01*
X797200Y844870D02*
X805935Y836135D01*
X798873Y848910D02*
X807608Y840175D01*
X799927Y853570D02*
X809281Y844215D01*
X810955Y848255D02*
X835245D01*
X801000Y858210D02*
X810955Y848255D01*
X812628Y852295D02*
X846705D01*
X801855Y863068D02*
X812628Y852295D01*
X820956Y822044D02*
X845930Y797070D01*
X876220Y770470D02*
X878000Y772250D01*
X876220Y758764D02*
Y770470D01*
X865636Y748180D02*
X876220Y758764D01*
X713544Y718270D02*
X853333D01*
X859693Y724630D01*
X543855Y855728D02*
X544490Y856363D01*
X543855Y727145D02*
Y855728D01*
X646522Y858210D02*
X801000D01*
X648444Y853570D02*
X799927D01*
X669767Y848910D02*
X798873D01*
X663877Y843020D02*
X669767Y848910D01*
X671441Y844870D02*
X797200D01*
X673114Y840830D02*
X788746D01*
X674037Y836040D02*
X787822D01*
X662001Y818290D02*
X675711Y832000D01*
X749540Y867540D02*
X758220Y876220D01*
X638694Y843820D02*
X648444Y853570D01*
X633000Y906500D02*
X654500Y928000D01*
X633000Y888250D02*
Y906500D01*
X603890Y848460D02*
X636772D01*
X593369Y828846D02*
Y837940D01*
X604963Y843820D02*
X638694D01*
X599680Y838537D02*
X604963Y843820D01*
X599680Y833114D02*
Y838537D01*
X593369Y837940D02*
X603890Y848460D01*
X586250Y564000D02*
Y574500D01*
X550250Y610500D02*
X586250Y574500D01*
X550250Y610500D02*
Y642500D01*
X612474Y574270D02*
X616654D01*
X565470Y621274D02*
X612474Y574270D01*
X565470Y621274D02*
Y642030D01*
X609500Y564000D02*
X612400D01*
X558500Y615000D02*
X609500Y564000D01*
X626924D02*
X637800D01*
X616654Y574270D02*
X626924Y564000D01*
X755500Y560000D02*
Y594250D01*
X558500Y615000D02*
Y631250D01*
X565000Y642500D02*
X565470Y642030D01*
X779000Y594750D02*
X779250D01*
X792014Y586986D02*
Y588252D01*
X844267Y587752D02*
Y592624D01*
X841500Y566500D02*
X862607D01*
X830000Y578000D02*
X841500Y566500D01*
X700641Y710467D02*
X706759Y704350D01*
X676701Y710467D02*
X700641D01*
X907240Y916510D02*
X935250Y888500D01*
X911026Y923730D02*
X959750Y875006D01*
Y822427D02*
Y875006D01*
X830814Y951810D02*
X840970Y941654D01*
X686417Y951810D02*
X830814D01*
X852517Y896017D02*
X856298Y892236D01*
X811454Y947770D02*
X820250Y938974D01*
Y933326D02*
Y938974D01*
Y933326D02*
X832000Y921576D01*
X830100Y940000D02*
X836040Y934060D01*
Y912460D02*
Y934060D01*
Y912460D02*
X845470Y903030D01*
X832000Y906677D02*
Y921576D01*
Y906677D02*
X853627Y885050D01*
X813735Y859265D02*
X815515D01*
X764000Y909000D02*
X813735Y859265D01*
X821924Y829014D02*
X849228Y801710D01*
X804765Y829014D02*
X821924D01*
X818435Y818004D02*
X847438Y789000D01*
X846705Y852295D02*
X852750Y846250D01*
X680817Y946210D02*
X686417Y951810D01*
X688091Y947770D02*
X811454D01*
X682490Y942170D02*
X688091Y947770D01*
X904989Y778511D02*
X914270D01*
X978000Y952750D02*
X1032250Y898500D01*
X879250Y952750D02*
X978000D01*
X874500Y948000D02*
X879250Y952750D01*
X986614Y637687D02*
X996750Y647823D01*
X915750Y610250D02*
X959920Y654420D01*
X792014Y586986D02*
X824316Y554684D01*
X799000Y594000D02*
X833750Y559250D01*
X868260Y916510D02*
X907240D01*
X958200Y744516D02*
X959920Y742796D01*
Y654420D02*
Y742796D01*
X962240Y746189D02*
X963960Y744470D01*
X966280Y747863D02*
X968000Y746143D01*
X950660Y740840D02*
X952500Y739000D01*
Y673250D02*
Y739000D01*
X911724Y632474D02*
X952500Y673250D01*
X950660Y740840D02*
Y779410D01*
X675000Y950250D02*
X680750Y956000D01*
X648883Y942170D02*
X682490D01*
X647210Y946210D02*
X680817D01*
X582500Y950250D02*
X675000D01*
X758220Y876220D02*
Y896280D01*
X808403Y728670D02*
X893751D01*
X897183Y732710D02*
X917385Y712508D01*
X810077Y732710D02*
X897183D01*
X889447Y720590D02*
X919046Y690991D01*
X886100Y712510D02*
X903270Y695340D01*
X869804Y712510D02*
X886100D01*
X861644Y704350D02*
X869804Y712510D01*
X887773Y716550D02*
X911250Y693073D01*
X865636Y716550D02*
X887773D01*
X858076Y708990D02*
X865636Y716550D01*
X863114Y720590D02*
X889447D01*
X856154Y713630D02*
X863114Y720590D01*
X891120Y724630D02*
X919273Y696477D01*
X859693Y724630D02*
X891120D01*
X893751Y728670D02*
X919421Y703000D01*
X903000Y736750D02*
X908000Y731750D01*
X811750Y736750D02*
X903000D01*
X846000Y614250D02*
X873750Y642000D01*
X944260Y683797D02*
Y733811D01*
X910183Y649720D02*
X944260Y683797D01*
X908510Y653760D02*
X940220Y685470D01*
X680939Y796274D02*
Y807189D01*
X672500Y799000D02*
Y809250D01*
X657030Y798470D02*
X663137D01*
X653757Y801742D02*
X657030Y798470D01*
X653757Y801742D02*
Y809513D01*
X637257Y681756D02*
X638507D01*
X643757Y715508D02*
Y718258D01*
X655508Y707258D02*
X673492D01*
X676701Y710467D01*
X666508Y696507D02*
X669303D01*
X663971Y688937D02*
X672439D01*
X681759Y698257D01*
X579290Y713398D02*
Y734503D01*
X590250Y745463D01*
Y807732D01*
X594290Y743790D02*
Y810254D01*
X583930Y733430D02*
X594290Y743790D01*
X583930Y715320D02*
Y733430D01*
X573790Y867077D02*
X648883Y942170D01*
X569750Y868750D02*
X647210Y946210D01*
X577830Y837438D02*
Y865403D01*
Y837438D02*
X584004Y831264D01*
X573790Y830772D02*
X583930Y820632D01*
X573790Y830772D02*
Y867077D01*
X569750Y828232D02*
Y868750D01*
X971030Y853308D02*
Y874470D01*
Y853308D02*
X984574Y839764D01*
X992774D01*
X864960Y837308D02*
X901557Y800710D01*
X869600Y839230D02*
X904079Y804750D01*
X689230Y694980D02*
X703005D01*
X682000Y687750D02*
X689230Y694980D01*
X701743Y685257D02*
X710760D01*
X678623Y705827D02*
X698719D01*
X669303Y696507D02*
X678623Y705827D01*
X819516Y748010D02*
Y748484D01*
X850646Y872183D02*
X869600Y853230D01*
X848725Y867543D02*
X864960Y851308D01*
X681750Y809250D02*
X683000D01*
X680570Y808070D02*
X681750Y809250D01*
X632750Y810500D02*
Y817830D01*
X624249Y818969D02*
X632250Y826970D01*
X624249Y816999D02*
Y818969D01*
X615390Y824500D02*
X622500Y831610D01*
X614750Y824500D02*
X615390D01*
X664500Y901750D02*
X665044D01*
X680939Y807189D02*
X683000Y809250D01*
X632750Y817830D02*
X637250Y822330D01*
X660327D01*
X622500Y831610D02*
X658180D01*
X632250Y826970D02*
X659254D01*
X795500Y793500D02*
Y794706D01*
X808364Y807570D01*
X814636D01*
X859390Y758890D02*
Y770328D01*
X856250Y755750D02*
X859390Y758890D01*
X814636Y807570D02*
X843180Y779026D01*
Y758114D02*
Y779026D01*
Y758114D02*
X853114Y748180D01*
X865636D01*
X864960Y837308D02*
Y851308D01*
X869600Y839230D02*
Y853230D01*
X924250Y773250D02*
Y779237D01*
X917406Y786081D02*
X924250Y779237D01*
X909624Y786081D02*
X917406D01*
X636772Y848460D02*
X646522Y858210D01*
X599680Y833114D02*
X604250Y828544D01*
Y825750D02*
Y828544D01*
X593750Y826000D02*
Y828465D01*
X593369Y828846D02*
X593750Y828465D01*
X615530Y630637D02*
X615680Y630787D01*
X614756Y634254D02*
X615680Y635178D01*
X615530Y624863D02*
Y630637D01*
X867710Y699710D02*
X873250Y705250D01*
X865386Y695070D02*
X865437Y695019D01*
X865488Y695070D01*
X873430D01*
X874500Y694000D01*
X704837Y699710D02*
X867710D01*
X703095Y695070D02*
X865386D01*
X615530Y624863D02*
X619613Y620780D01*
X625387D01*
X866301Y885050D02*
X866518Y885266D01*
X856298Y892236D02*
X869405D01*
X873488Y888153D01*
Y879012D02*
Y888153D01*
X706000Y899750D02*
X728750Y877000D01*
X740750D01*
X848517Y910768D02*
X851162D01*
X875470Y912470D02*
X885887D01*
X863000Y900000D02*
X875470Y912470D01*
X852750Y842956D02*
Y846250D01*
Y842956D02*
X909624Y786081D01*
X852568Y876823D02*
X886009Y843383D01*
X703005Y694980D02*
X703095Y695070D01*
X698719Y705827D02*
X704837Y699710D01*
X706759Y704350D02*
X861644D01*
X708680Y708990D02*
X858076D01*
X610544Y682500D02*
X652544Y640500D01*
X885887Y912470D02*
X955710Y842647D01*
X982530Y737613D02*
X982574Y737569D01*
X982530Y737613D02*
Y743387D01*
X853627Y885050D02*
X866301D01*
X873750Y642000D02*
X889089Y657339D01*
Y680911D01*
X625387Y620780D02*
X632357Y627750D01*
X914686Y866270D02*
X920970Y859986D01*
Y859887D02*
Y859986D01*
X886009Y841009D02*
X886250Y841250D01*
X920970Y859887D02*
X923372Y857485D01*
X923408D01*
X951670Y829222D01*
X873000Y900000D02*
X906730Y866270D01*
X914686D01*
X845470Y903030D02*
X854780D01*
X868260Y916510D01*
X905500Y940000D02*
X971030Y874470D01*
X855500Y940000D02*
X905500D01*
X855500Y934000D02*
X859750Y938250D01*
X1032250Y657500D02*
Y898500D01*
X894000Y618750D02*
X907724Y632474D01*
X911724D01*
X654500Y928000D02*
X786925D01*
X900250Y824500D02*
X911034D01*
X904079Y804750D02*
X925070D01*
X901557Y800710D02*
X923397D01*
X896250Y841250D02*
X899997D01*
X951670Y819080D02*
Y829222D01*
Y819080D02*
X961500Y809250D01*
Y777284D02*
Y809250D01*
X955710Y820753D02*
Y842647D01*
X959750Y822427D02*
X970000Y812177D01*
X955710Y820753D02*
X965750Y810713D01*
Y775820D02*
Y810713D01*
X970000Y774357D02*
Y812177D01*
X962240Y772310D02*
X965750Y775820D01*
X966280Y770637D02*
X970000Y774357D01*
X958200Y773984D02*
X961500Y777284D01*
X950660Y779410D02*
X953000Y781750D01*
Y799500D01*
X873488Y879012D02*
X953000Y799500D01*
X966280Y747863D02*
Y770637D01*
X962240Y746189D02*
Y772310D01*
X958200Y744516D02*
Y773984D01*
X852863Y606934D02*
X899689Y653760D01*
X901363Y649720D02*
X910183D01*
X899689Y653760D02*
X908510D01*
X879105Y676408D02*
X881519D01*
X882750Y687250D02*
X889089Y680911D01*
X911250Y681777D02*
X913770Y679256D01*
X911250Y681777D02*
Y693073D01*
X903270Y691007D02*
Y695340D01*
X919046Y690991D02*
X920004D01*
X919421Y703000D02*
X927250D01*
X919273Y696477D02*
X923523D01*
X929750Y690250D01*
X917385Y712508D02*
X919771D01*
X940220Y685470D02*
Y732137D01*
X937460Y734897D02*
X940220Y732137D01*
X943340Y765343D02*
Y797907D01*
X899997Y841250D02*
X943340Y797907D01*
X939300Y767016D02*
Y796234D01*
X911034Y824500D02*
X939300Y796234D01*
X935260Y768689D02*
Y794560D01*
X925070Y804750D02*
X935260Y794560D01*
X931220Y770363D02*
Y792887D01*
X923397Y800710D02*
X931220Y792887D01*
X569750Y828232D02*
X590250Y807732D01*
X583930Y820614D02*
X594290Y810254D01*
X791434Y606934D02*
X852863D01*
X844267Y592624D02*
X901363Y649720D01*
X779250Y594750D02*
X791434Y606934D01*
X870530Y587863D02*
X872812Y585581D01*
X862607Y566500D02*
X872812Y576705D01*
Y585581D01*
X830447Y627750D02*
X879105Y676408D01*
X632357Y627750D02*
X830447D01*
X845930Y797070D02*
X856037D01*
X847438Y789000D02*
X854250D01*
X858784Y805750D02*
X869300Y795234D01*
X869250Y762500D02*
X869300Y762550D01*
Y795234D01*
X865260Y776198D02*
Y793560D01*
X861220Y778720D02*
Y791887D01*
X850750Y768250D02*
X861220Y778720D01*
X859390Y770328D02*
X865260Y776198D01*
X849228Y801710D02*
X857111D01*
X865260Y793560D01*
X544490Y856363D02*
Y912240D01*
X582500Y950250D01*
X660327Y822330D02*
X674037Y836040D01*
X643250Y810500D02*
X651040Y818290D01*
X662001D01*
X659254Y826970D02*
X673114Y840830D01*
X658180Y831610D02*
X671441Y844870D01*
X607250Y836250D02*
X657107D01*
X663877Y843020D01*
X577830Y865403D02*
X602427Y890000D01*
X613500D01*
X640432Y863068D01*
X786925Y928000D02*
X793560Y921365D01*
X823927Y876823D02*
X852568D01*
X793560Y907190D02*
Y921365D01*
Y907190D02*
X823927Y876823D01*
X601750Y731250D02*
X623920Y753420D01*
X653388D01*
X593750Y682500D02*
X610544D01*
X626540Y631790D02*
X822052D01*
X873018Y682757D01*
X788746Y840830D02*
X800562Y829014D01*
X804765D01*
X860457Y809790D02*
X904270Y765977D01*
X807608Y840175D02*
X828038D01*
X809281Y844215D02*
X829783D01*
X862131Y813830D02*
X914770Y761191D01*
X860168Y813830D02*
X862131D01*
X829783Y844215D02*
X860168Y813830D01*
X858423Y809790D02*
X860457D01*
X828038Y840175D02*
X858423Y809790D01*
X856750Y805750D02*
X858784D01*
X805935Y836135D02*
X826365D01*
X856750Y805750D01*
X996750Y647823D02*
Y817750D01*
X986500Y828000D02*
X996750Y817750D01*
X941500Y763503D02*
X943340Y765343D01*
X941500Y736571D02*
Y763503D01*
Y736571D02*
X944260Y733811D01*
X937460Y765176D02*
X939300Y767016D01*
X937460Y734897D02*
Y765176D01*
X933420Y766850D02*
X935260Y768689D01*
X929380Y768523D02*
X931220Y770363D01*
X933250Y729250D02*
X933420Y729420D01*
Y766850D01*
X923250Y729250D02*
X929380Y735380D01*
Y768523D01*
X881741Y610250D02*
X915750D01*
X870530Y587863D02*
Y593637D01*
X874613Y597720D01*
X873251Y601760D02*
X881741Y610250D01*
X874613Y597720D02*
X874924D01*
X882994Y605790D01*
X938339Y601750D02*
X968000Y631411D01*
X882994Y605790D02*
X936665D01*
X963960Y633085D01*
Y744470D01*
X968000Y631411D02*
Y746143D01*
X978804Y796589D02*
Y815696D01*
X971000Y823500D02*
Y833000D01*
Y823500D02*
X978804Y815696D01*
X877500Y590750D02*
X888500Y601750D01*
X938339D01*
X851162Y910768D02*
X864125Y923730D01*
X911026D01*
X840970Y927565D02*
Y941654D01*
Y927565D02*
X847767Y920768D01*
X776000Y790500D02*
X779250Y787250D01*
X727363Y787720D02*
X764280D01*
X764683Y804040D02*
X770113Y809470D01*
X718387Y802530D02*
X719897Y804040D01*
X764683D01*
X704760Y798490D02*
X720061D01*
X721571Y800000D01*
X770500D01*
X724429Y790500D02*
X725689Y791760D01*
X686713Y790500D02*
X724429D01*
X680939Y796274D02*
X686713Y790500D01*
X726103Y786460D02*
X727363Y787720D01*
X672500Y799000D02*
X685040Y786460D01*
X726103D01*
X764280Y787720D02*
X768989Y783011D01*
X725689Y791760D02*
X765953D01*
X767213Y790500D01*
X776000D01*
X694000Y809250D02*
X704760Y798490D01*
X704750Y809250D02*
X711470Y802530D01*
X718387D01*
X755500Y560000D02*
X756250Y559250D01*
X760000D01*
X886009Y841009D02*
Y841250D01*
Y843383D01*
X742622Y911878D02*
X758220Y896280D01*
X615680Y630787D02*
Y634254D01*
Y635178D01*
X621875Y627125D02*
X622500Y627750D01*
X626540Y631790D01*
X835245Y848255D02*
X855000Y828500D01*
X904989Y778511D01*
D36*
X655616Y745790D02*
X732500D01*
X770500Y800000D02*
X773000Y802500D01*
X651806Y749600D02*
X655616Y745790D01*
X711365Y718270D02*
X713544D01*
X703105Y726530D02*
X711365Y718270D01*
X634733Y726530D02*
X703105D01*
X622710Y714508D02*
X634733Y726530D01*
X622006Y714508D02*
X622710D01*
X1129750Y744750D02*
X1137500Y752500D01*
Y777000D01*
X880250Y618750D02*
X894000D01*
X608032Y716490D02*
X637543Y746000D01*
X650315D01*
X603547Y716490D02*
X608032D01*
X612256Y730259D02*
X631597Y749600D01*
X651806D01*
X733800Y741970D02*
X734040Y742210D01*
X650315Y746000D02*
X654345Y741970D01*
X733800D01*
X865500Y579250D02*
Y594009D01*
X873251Y601760D01*
X855250Y593750D02*
X880250Y618750D01*
X852750Y577500D02*
X855250Y580000D01*
Y593750D01*
D40*
X637800Y564000D02*
D03*
X612400D02*
D03*
X830600Y937500D02*
D03*
D41*
X586250Y564000D02*
D03*
X856000Y937500D02*
D03*
X1042500D02*
D03*
D46*
X800015Y595002D02*
D03*
X679250Y595500D02*
D03*
X976750Y880500D02*
D03*
X610000Y617250D02*
D03*
X547750Y662000D02*
D03*
X538500D02*
D03*
X730250Y780750D02*
D03*
X725011Y757260D02*
D03*
X740750Y822250D02*
D03*
X773000Y802500D02*
D03*
X769263Y783011D02*
D03*
X744750Y726500D02*
D03*
X793000Y726750D02*
D03*
X633000Y888250D02*
D03*
X607250Y836250D02*
D03*
X565000Y642500D02*
D03*
X558500Y631250D02*
D03*
X550250Y642500D02*
D03*
X769250Y591500D02*
D03*
X779000Y594750D02*
D03*
X792014Y588252D02*
D03*
X844267Y587752D02*
D03*
X755500Y594250D02*
D03*
X566003Y763760D02*
D03*
X720250Y725250D02*
D03*
X935250Y888500D02*
D03*
X825000Y904500D02*
D03*
X852517Y896017D02*
D03*
X764000Y909000D02*
D03*
X804765Y829014D02*
D03*
X815515Y859265D02*
D03*
X986500Y828000D02*
D03*
X1021750Y794000D02*
D03*
X975500Y703750D02*
D03*
X680750Y956000D02*
D03*
X661500Y959500D02*
D03*
X537520Y859250D02*
D03*
X558000Y801001D02*
D03*
X528250Y859250D02*
D03*
X637257Y681756D02*
D03*
X643757Y715508D02*
D03*
X632757Y715008D02*
D03*
X655508Y707258D02*
D03*
X666508Y696507D02*
D03*
X681759Y698257D02*
D03*
X603547Y716490D02*
D03*
X622006Y714508D02*
D03*
X1140001Y720000D02*
D03*
Y710000D02*
D03*
Y700000D02*
D03*
X580500Y918001D02*
D03*
X576001Y909001D02*
D03*
X585000Y927001D02*
D03*
X576001D02*
D03*
X585000Y909001D02*
D03*
X589501Y918001D02*
D03*
X576001Y765001D02*
D03*
X567001Y801001D02*
D03*
X571501Y792001D02*
D03*
X602250Y596000D02*
D03*
X971000Y833000D02*
D03*
X992774Y839764D02*
D03*
X1129750Y744750D02*
D03*
X1137500Y777000D02*
D03*
X692509Y686757D02*
D03*
X710760Y685257D02*
D03*
X682000Y687750D02*
D03*
X601750Y731250D02*
D03*
X612256Y730259D02*
D03*
X814750Y678250D02*
D03*
X647000Y882750D02*
D03*
X862250Y687500D02*
D03*
X819516Y748010D02*
D03*
X830240Y749260D02*
D03*
X914770Y760213D02*
D03*
X904270Y758510D02*
D03*
X924250Y773250D02*
D03*
X850750Y768250D02*
D03*
X869250Y762500D02*
D03*
X683000Y809250D02*
D03*
X715500Y809500D02*
D03*
X694000Y809250D02*
D03*
X675750Y901750D02*
D03*
X722250Y907750D02*
D03*
X664500Y901750D02*
D03*
X632750Y810500D02*
D03*
X614750Y824500D02*
D03*
X624249Y816999D02*
D03*
X989500Y740500D02*
D03*
X706000Y899750D02*
D03*
X722750Y681500D02*
D03*
X751250Y887750D02*
D03*
X1002000Y583750D02*
D03*
X1040001Y690000D02*
D03*
X1170001Y640000D02*
D03*
X1160001D02*
D03*
X1150001D02*
D03*
X660250Y791500D02*
D03*
X652750Y651000D02*
D03*
X672500Y809250D02*
D03*
X653757Y809513D02*
D03*
X704750Y809250D02*
D03*
X855750Y829250D02*
D03*
X852750Y846250D02*
D03*
X688750Y800000D02*
D03*
X643250Y810500D02*
D03*
X795500Y793500D02*
D03*
X878000Y772250D02*
D03*
X856250Y755750D02*
D03*
X914270Y778511D02*
D03*
X604250Y825750D02*
D03*
X593750Y826000D02*
D03*
X584004Y831264D02*
D03*
X740750Y877000D02*
D03*
X742512Y911768D02*
D03*
X622500Y627750D02*
D03*
X614756Y634254D02*
D03*
X746250Y650500D02*
D03*
X843000Y629250D02*
D03*
X873250Y705250D02*
D03*
X874500Y694000D02*
D03*
X847767Y920768D02*
D03*
X866518Y885266D02*
D03*
X863000Y900000D02*
D03*
X848517Y910768D02*
D03*
X883000Y905500D02*
D03*
X873000Y900000D02*
D03*
X782648Y814293D02*
D03*
X787764Y805262D02*
D03*
X779250Y787250D02*
D03*
X612250Y942250D02*
D03*
X904250Y642750D02*
D03*
X927250Y637500D02*
D03*
X886250Y841250D02*
D03*
X896250D02*
D03*
X900250Y824500D02*
D03*
X874500Y948000D02*
D03*
X1032250Y657500D02*
D03*
X1030750Y602500D02*
D03*
X1041250D02*
D03*
X1052000D02*
D03*
X1062750Y602250D02*
D03*
X1071750Y653250D02*
D03*
X973250Y750750D02*
D03*
X933250Y729250D02*
D03*
X881519Y676408D02*
D03*
X873018Y682757D02*
D03*
X882750Y687250D02*
D03*
X923250Y729250D02*
D03*
X903270Y691007D02*
D03*
X913770Y679256D02*
D03*
X918520Y689507D02*
D03*
X919771Y712508D02*
D03*
X929750Y690250D02*
D03*
X927250Y703000D02*
D03*
X908000Y731750D02*
D03*
X593750Y682500D02*
D03*
X852750Y577500D02*
D03*
X830000Y578000D02*
D03*
X865500Y579250D02*
D03*
X789250Y679500D02*
D03*
X787500Y639000D02*
D03*
X801265Y649505D02*
D03*
X811500Y649500D02*
D03*
X854250Y789000D02*
D03*
X589501Y846001D02*
D03*
X594001Y855001D02*
D03*
X598501Y864001D02*
D03*
X607500D02*
D03*
X603000Y873001D02*
D03*
X612001D02*
D03*
X1057501Y810001D02*
D03*
X1053001Y819001D02*
D03*
X1062001D02*
D03*
X1075501Y828001D02*
D03*
X1080001Y819001D02*
D03*
X1084501Y828001D02*
D03*
X1098001Y621001D02*
D03*
X1107001D02*
D03*
X877500Y590750D02*
D03*
X760000Y559250D02*
D03*
M02*
