G04 Layer_Physical_Order=4*
G04 Layer_Color=16711680*
%FSLAX44Y44*%
%MOMM*%
G71*
G01*
G75*
%ADD10C,1.2700*%
%ADD12R,0.6500X1.1000*%
%ADD13R,1.7000X0.9500*%
%ADD16R,1.0000X0.9000*%
%ADD18R,1.4000X1.5000*%
%ADD23R,0.9000X1.0000*%
%ADD25R,1.9000X1.3500*%
%ADD26R,1.8000X1.1500*%
%ADD29R,1.3500X1.9000*%
%ADD30R,3.5600X1.4000*%
%ADD31R,1.2200X0.9100*%
%ADD35C,0.2540*%
%ADD36C,0.2100*%
%ADD40C,1.5000*%
%ADD41R,1.5000X1.5000*%
%ADD42O,1.2500X1.0500*%
%ADD43O,1.9000X1.2250*%
%ADD44C,3.2000*%
%ADD45R,1.5000X1.5000*%
%ADD46C,0.8400*%
%ADD59R,0.7000X0.9000*%
%ADD60R,0.9500X0.5000*%
%ADD61O,1.5000X0.5500*%
%ADD62O,0.2500X1.7000*%
%ADD63R,8.1800X3.4700*%
G36*
X960466Y850657D02*
Y804305D01*
X948718Y792557D01*
X947340Y792975D01*
X947253Y793408D01*
X946314Y794814D01*
X945864Y795115D01*
Y796385D01*
X946314Y796686D01*
X947253Y798092D01*
X947583Y799750D01*
X947253Y801408D01*
X946314Y802814D01*
X945864Y803115D01*
Y804385D01*
X946314Y804686D01*
X947253Y806092D01*
X947583Y807750D01*
X947253Y809408D01*
X946314Y810814D01*
X945864Y811115D01*
Y812385D01*
X946314Y812686D01*
X947253Y814092D01*
X947583Y815750D01*
X947253Y817408D01*
X946314Y818814D01*
X945864Y819115D01*
Y820385D01*
X946314Y820686D01*
X947253Y822092D01*
X947583Y823750D01*
X947253Y825408D01*
X946314Y826814D01*
X945864Y827115D01*
Y828385D01*
X946314Y828686D01*
X947253Y830092D01*
X947583Y831750D01*
X947253Y833408D01*
X946314Y834814D01*
X945864Y835115D01*
Y836385D01*
X946314Y836686D01*
X947253Y838092D01*
X947505Y839356D01*
X959292Y851143D01*
X960466Y850657D01*
D02*
G37*
G36*
X558285Y919072D02*
X559075Y918602D01*
Y794515D01*
X557936Y793953D01*
X557804Y794054D01*
X555909Y794839D01*
X554145Y795072D01*
Y787250D01*
Y779428D01*
X555909Y779660D01*
X557804Y780445D01*
X557936Y780547D01*
X559075Y779985D01*
Y776548D01*
X540673Y758146D01*
X539500Y758632D01*
Y900823D01*
X557833Y919156D01*
X558285Y919072D01*
D02*
G37*
G36*
X666837Y808502D02*
X667131Y807026D01*
X668391Y805141D01*
X670276Y803881D01*
X672500Y803438D01*
X674724Y803881D01*
X676609Y805141D01*
X677115Y805897D01*
X678385D01*
X678891Y805141D01*
X680776Y803881D01*
X683000Y803438D01*
X685224Y803881D01*
X687109Y805141D01*
X687736Y806079D01*
X689264D01*
X689891Y805141D01*
X691776Y803881D01*
X694000Y803438D01*
X695516Y803740D01*
X702758Y796498D01*
X702272Y795324D01*
X672750D01*
X672750Y795324D01*
X671669Y795109D01*
X670753Y794497D01*
X670753Y794497D01*
X667166Y790910D01*
X666711Y791153D01*
X666045Y791585D01*
X665619Y793724D01*
X664360Y795610D01*
X664152Y795748D01*
Y807613D01*
X665459Y808921D01*
X666837Y808502D01*
D02*
G37*
G36*
X795750Y774989D02*
Y770244D01*
X783736Y758231D01*
X783124Y757314D01*
X782909Y756234D01*
X782909Y756234D01*
Y748372D01*
X781639Y747693D01*
X780988Y748129D01*
X778764Y748571D01*
X776540Y748129D01*
X774654Y746869D01*
X774130Y746084D01*
X751240D01*
X750159Y745869D01*
X749243Y745257D01*
X749203Y745197D01*
X734645Y730639D01*
X733475Y731265D01*
X733573Y731759D01*
X733130Y733983D01*
X733085Y734050D01*
Y740841D01*
X766700Y774456D01*
X792387D01*
X792387Y774456D01*
X793468Y774671D01*
X794384Y775283D01*
X794577Y775475D01*
X795750Y774989D01*
D02*
G37*
G36*
X699951Y764326D02*
X698881Y762724D01*
X698438Y760500D01*
X698740Y758984D01*
X684080Y744324D01*
X602143D01*
X601062Y744109D01*
X600146Y743497D01*
X600146Y743497D01*
X570733Y714084D01*
X570121Y713168D01*
X569906Y712087D01*
X569906Y712087D01*
Y647712D01*
X568792Y647152D01*
X567824Y647778D01*
Y715790D01*
X597920Y745886D01*
X651137D01*
X651137Y745886D01*
X652218Y746101D01*
X653134Y746713D01*
X672017Y765596D01*
X699505D01*
X699951Y764326D01*
D02*
G37*
G36*
X808753Y765753D02*
X808753Y765753D01*
X809669Y765141D01*
X810750Y764926D01*
X817526D01*
X817686Y764686D01*
X818136Y764385D01*
Y763115D01*
X817686Y762814D01*
X816747Y761408D01*
X816417Y759750D01*
X816747Y758092D01*
X817267Y757312D01*
X817095Y755670D01*
X816936Y755564D01*
X815767Y753814D01*
X815609Y753020D01*
X825500D01*
Y750480D01*
X815609D01*
X815767Y749686D01*
X816936Y747936D01*
X817095Y747830D01*
X817267Y746187D01*
X816747Y745408D01*
X816515Y744243D01*
X811060Y738788D01*
X809790Y738907D01*
Y742480D01*
X794710D01*
Y738704D01*
X791880D01*
X790799Y738489D01*
X789883Y737877D01*
X789883Y737877D01*
X761580Y709574D01*
X714670D01*
X707466Y716778D01*
X706549Y717391D01*
X705469Y717606D01*
X705469Y717606D01*
X653174D01*
X652093Y717391D01*
X651177Y716778D01*
X651177Y716778D01*
X650705Y716306D01*
X649327Y716724D01*
X649126Y717732D01*
X647867Y719617D01*
X645981Y720877D01*
X643757Y721320D01*
X641533Y720877D01*
X639647Y719617D01*
X638853Y718429D01*
X637329Y718424D01*
X636866Y719118D01*
X634981Y720377D01*
X632757Y720820D01*
X630532Y720377D01*
X628647Y719118D01*
X627978Y718116D01*
X626450D01*
X626115Y718617D01*
X624230Y719877D01*
X622006Y720320D01*
X619782Y719877D01*
X617896Y718617D01*
X616637Y716732D01*
X616194Y714508D01*
X616637Y712284D01*
X617896Y710399D01*
X618926Y709711D01*
Y679631D01*
X618067Y679015D01*
X617656Y678874D01*
X616750Y679054D01*
X615844Y678874D01*
X615433Y679015D01*
X614574Y679631D01*
Y708250D01*
X614359Y709331D01*
X613747Y710247D01*
X613747Y710247D01*
X609051Y714943D01*
X609358Y716490D01*
X608916Y718714D01*
X607656Y720599D01*
X607660Y722124D01*
X610360Y724824D01*
X612256Y724447D01*
X614479Y724890D01*
X616365Y726149D01*
X617625Y728035D01*
X618067Y730259D01*
X617625Y732483D01*
X616365Y734368D01*
X614479Y735628D01*
X612256Y736070D01*
X610031Y735628D01*
X608146Y734368D01*
X608098Y734296D01*
X606570D01*
X605859Y735359D01*
X603974Y736619D01*
X603785Y736657D01*
X603327Y737993D01*
X603874Y738676D01*
X641730D01*
X642262Y737406D01*
X641684Y736010D01*
X641619Y735520D01*
X654881D01*
X654817Y736010D01*
X654238Y737406D01*
X654770Y738676D01*
X685250D01*
X685250Y738676D01*
X686331Y738891D01*
X687247Y739503D01*
X702734Y754990D01*
X704250Y754688D01*
X706474Y755131D01*
X707126Y755566D01*
X708396Y754887D01*
Y721603D01*
X708396Y721603D01*
X708611Y720522D01*
X709223Y719606D01*
X715826Y713003D01*
X715826Y713003D01*
X716742Y712391D01*
X717823Y712176D01*
X753857D01*
X753857Y712176D01*
X754938Y712391D01*
X755854Y713003D01*
X768666Y725815D01*
X770513Y725447D01*
X772737Y725890D01*
X774623Y727149D01*
X775882Y729035D01*
X776325Y731259D01*
X776181Y731983D01*
X776986Y732965D01*
X781650D01*
X781651Y732965D01*
X782731Y733180D01*
X783648Y733792D01*
X787731Y737875D01*
X787731Y737875D01*
X788343Y738792D01*
X788558Y739872D01*
Y755064D01*
X793537Y760042D01*
X794710Y759557D01*
Y758020D01*
X800980D01*
Y763790D01*
X798943D01*
X798457Y764963D01*
X800244Y766750D01*
X807756D01*
X808753Y765753D01*
D02*
G37*
G36*
X901445Y802405D02*
Y764099D01*
X900778Y763684D01*
X900207Y763851D01*
X899474Y764302D01*
X899309Y765131D01*
X898697Y766047D01*
X890497Y774247D01*
X889581Y774859D01*
X888500Y775074D01*
X888500Y775074D01*
X882968D01*
X882110Y776359D01*
X880224Y777619D01*
X878000Y778062D01*
X876879Y777839D01*
X876253Y779009D01*
X900175Y802931D01*
X901445Y802405D01*
D02*
G37*
G36*
X929495Y807356D02*
X929747Y806092D01*
X930246Y805344D01*
X929567Y804074D01*
X916000D01*
X916000Y804074D01*
X914919Y803859D01*
X914003Y803247D01*
X909843Y799087D01*
X909230Y798170D01*
X909015Y797090D01*
X909016Y797090D01*
Y764371D01*
X907761Y763684D01*
X907094Y764099D01*
Y802850D01*
X911920Y807676D01*
X929175D01*
X929495Y807356D01*
D02*
G37*
G36*
X786210Y875270D02*
X793250D01*
Y874000D01*
X794520D01*
Y866460D01*
X796057D01*
X796543Y865287D01*
X791370Y860114D01*
X785077D01*
X785077Y860114D01*
X783996Y859899D01*
X783080Y859287D01*
X783080Y859287D01*
X748867Y825074D01*
X745718D01*
X744859Y826359D01*
X742974Y827619D01*
X740750Y828062D01*
X738526Y827619D01*
X736640Y826359D01*
X736067Y826341D01*
X735408Y826801D01*
X734018Y827867D01*
X732378Y828547D01*
X731889Y828611D01*
Y821980D01*
Y815349D01*
X732378Y815414D01*
X734018Y816093D01*
X735426Y817173D01*
X736180Y818156D01*
X736640Y818140D01*
X738526Y816881D01*
X740750Y816438D01*
X742974Y816881D01*
X744859Y818140D01*
X745718Y819426D01*
X747272D01*
X747758Y818252D01*
X728870Y799364D01*
X720921D01*
X720534Y800207D01*
X720486Y800634D01*
X724467Y804616D01*
X724467Y804616D01*
X725079Y805532D01*
X725294Y806613D01*
Y815969D01*
X726564Y816596D01*
X727220Y816093D01*
X728860Y815414D01*
X729349Y815349D01*
Y821980D01*
Y828611D01*
X728860Y828547D01*
X727220Y827867D01*
X726626Y827411D01*
X725787Y828368D01*
X776964Y879546D01*
X786210D01*
Y875270D01*
D02*
G37*
G36*
X610926Y912272D02*
Y882784D01*
X610926Y882784D01*
X611141Y881703D01*
X611753Y880787D01*
X620532Y872008D01*
X620213Y870530D01*
X619767Y870233D01*
X618733D01*
X617823Y870840D01*
X616750Y871054D01*
X615677Y870840D01*
X615108Y870460D01*
X614250Y870318D01*
X613392Y870460D01*
X612823Y870840D01*
X611750Y871054D01*
X610677Y870840D01*
X609767Y870233D01*
X608733D01*
X607823Y870840D01*
X606750Y871054D01*
X605677Y870840D01*
X605108Y870460D01*
X604250Y870318D01*
X603392Y870460D01*
X602823Y870840D01*
X601750Y871054D01*
X600677Y870840D01*
X600108Y870460D01*
X599250Y870318D01*
X598392Y870460D01*
X597823Y870840D01*
X596750Y871054D01*
X595677Y870840D01*
X594767Y870233D01*
X593733D01*
X592823Y870840D01*
X591750Y871054D01*
X590677Y870840D01*
X590108Y870460D01*
X589250Y870318D01*
X588392Y870460D01*
X587823Y870840D01*
X586750Y871054D01*
X585844Y870874D01*
X585433Y871015D01*
X584574Y871631D01*
Y887580D01*
X609752Y912758D01*
X610926Y912272D01*
D02*
G37*
G36*
X945059Y886947D02*
X944421Y885903D01*
X942781Y886583D01*
X942291Y886647D01*
Y880016D01*
X941021D01*
Y878746D01*
X934391D01*
X934434Y878414D01*
X934297Y877928D01*
X934190Y877767D01*
X933557Y877105D01*
X931686Y876733D01*
X929936Y875564D01*
X928767Y873814D01*
X928609Y873020D01*
X938500D01*
Y870480D01*
X928609D01*
X928767Y869686D01*
X929802Y868137D01*
X929545Y867304D01*
X929268Y866855D01*
X928492Y866752D01*
X904752Y890492D01*
X905238Y891666D01*
X940340D01*
X945059Y886947D01*
D02*
G37*
G36*
X754389Y870672D02*
X719498Y835781D01*
X718324Y836267D01*
Y838466D01*
X718324Y838466D01*
X718109Y839547D01*
X717497Y840463D01*
X717497Y840463D01*
X707968Y849992D01*
X708287Y851470D01*
X708733Y851767D01*
X709767D01*
X710677Y851160D01*
X711750Y850946D01*
X712823Y851160D01*
X713733Y851767D01*
X714340Y852677D01*
X714554Y853750D01*
Y868250D01*
X714340Y869323D01*
X713733Y870233D01*
X713219Y870576D01*
X713605Y871846D01*
X753903D01*
X754389Y870672D01*
D02*
G37*
G36*
X701926Y837080D02*
Y814218D01*
X700640Y813360D01*
X700139Y812608D01*
X698611D01*
X698109Y813360D01*
X696224Y814619D01*
X694574Y814947D01*
Y842635D01*
X695844Y843162D01*
X701926Y837080D01*
D02*
G37*
G36*
X816660Y854525D02*
X816747Y854092D01*
X817686Y852686D01*
X818136Y852385D01*
Y851115D01*
X817686Y850814D01*
X816747Y849408D01*
X816417Y847750D01*
X816747Y846092D01*
X817686Y844686D01*
X817823Y844594D01*
X817438Y843324D01*
X792000D01*
X790919Y843109D01*
X790003Y842497D01*
X790003Y842497D01*
X774279Y826773D01*
X772763Y827075D01*
X770539Y826633D01*
X768654Y825373D01*
X767795Y824088D01*
X763241D01*
X762755Y825261D01*
X787920Y850426D01*
X809595D01*
X809595Y850426D01*
X810676Y850641D01*
X811592Y851253D01*
X815282Y854943D01*
X816660Y854525D01*
D02*
G37*
G36*
X635677Y851160D02*
X636750Y850946D01*
X637823Y851160D01*
X638392Y851540D01*
X639250Y851682D01*
X640108Y851540D01*
X640677Y851160D01*
X641750Y850946D01*
X642798Y851155D01*
X642823Y851160D01*
X644124Y850502D01*
X644141Y850419D01*
X644753Y849503D01*
X650253Y844003D01*
X650253Y844003D01*
X651169Y843391D01*
X651998Y843226D01*
X652890Y841890D01*
X654776Y840631D01*
X657000Y840188D01*
X659224Y840631D01*
X661109Y841890D01*
X662369Y843776D01*
X662812Y846000D01*
X662369Y848224D01*
X661364Y849728D01*
X661550Y850313D01*
X661898Y850943D01*
X661937Y850983D01*
X662823Y851160D01*
X663392Y851540D01*
X664250Y851682D01*
X665108Y851540D01*
X665677Y851160D01*
X666750Y850946D01*
X667656Y851126D01*
X668067Y850985D01*
X668926Y850369D01*
Y832420D01*
X651094Y814588D01*
X649648Y813622D01*
X649597Y813546D01*
X648070D01*
X647359Y814609D01*
X646074Y815468D01*
Y830641D01*
X646074Y830641D01*
X645859Y831722D01*
X645247Y832638D01*
X645247Y832638D01*
X627906Y849980D01*
X628242Y851440D01*
X628392Y851540D01*
X629250Y851682D01*
X630108Y851540D01*
X630677Y851160D01*
X631750Y850946D01*
X632823Y851160D01*
X633733Y851767D01*
X634767D01*
X635677Y851160D01*
D02*
G37*
G36*
X817686Y716686D02*
X818136Y716385D01*
Y715115D01*
X817686Y714814D01*
X816747Y713408D01*
X816417Y711750D01*
X816747Y710092D01*
X817267Y709313D01*
X817095Y707670D01*
X816936Y707564D01*
X815767Y705814D01*
X815728Y705616D01*
X814512Y705248D01*
X813263Y706497D01*
X812347Y707109D01*
X811266Y707324D01*
X811266Y707324D01*
X774730D01*
X774244Y708498D01*
X782672Y716926D01*
X817526D01*
X817686Y716686D01*
D02*
G37*
G36*
X875264Y580541D02*
X875589Y580167D01*
X875457Y579501D01*
X875811Y577721D01*
X874140Y576050D01*
X801036D01*
X800550Y577223D01*
X804253Y580926D01*
X805389D01*
X805440Y580916D01*
X814560D01*
X814560Y580916D01*
X814611Y580926D01*
X832417D01*
X832456Y580918D01*
X832456Y580918D01*
X873668D01*
X873669Y580918D01*
X874476Y581078D01*
X875264Y580541D01*
D02*
G37*
G36*
X873180Y635640D02*
X873141Y635581D01*
X872926Y634500D01*
X872926Y634500D01*
Y619750D01*
X872926Y619750D01*
X873141Y618669D01*
X873753Y617753D01*
X894641Y596865D01*
X894641Y596859D01*
X893381Y594974D01*
X892938Y592750D01*
X892975Y592565D01*
X891805Y591940D01*
X891236Y592509D01*
X890319Y593121D01*
X889239Y593336D01*
X889238Y593336D01*
X874724D01*
X873644Y593121D01*
X872727Y592509D01*
X870825Y590606D01*
X842629D01*
X841950Y591876D01*
X842386Y592528D01*
X842828Y594752D01*
X842386Y596976D01*
X841126Y598862D01*
X839841Y599720D01*
Y604097D01*
X872194Y636450D01*
X873180Y635640D01*
D02*
G37*
G36*
X992926Y672919D02*
Y640500D01*
X987500D01*
Y618500D01*
X992926D01*
Y596762D01*
X969238Y573074D01*
X928106D01*
X928106Y573074D01*
X927025Y572859D01*
X926109Y572247D01*
X926109Y572247D01*
X915686Y561824D01*
X913220D01*
X912978Y563094D01*
X913634Y563533D01*
X917717Y567616D01*
X917717Y567616D01*
X918329Y568532D01*
X918544Y569613D01*
Y575780D01*
X918329Y576861D01*
X917717Y577777D01*
X917717Y577777D01*
X914260Y581234D01*
X914562Y582750D01*
X914119Y584974D01*
X912859Y586860D01*
X912477Y587115D01*
Y588385D01*
X912859Y588641D01*
X914119Y590526D01*
X914562Y592750D01*
X914119Y594974D01*
X912859Y596860D01*
X910974Y598119D01*
X908750Y598562D01*
X907234Y598260D01*
X885921Y619574D01*
X886790Y620500D01*
X903750D01*
Y622676D01*
X905782D01*
X906640Y621390D01*
X908526Y620131D01*
X910750Y619688D01*
X912974Y620131D01*
X914656Y621254D01*
X915926Y620874D01*
Y611250D01*
X912500D01*
Y603250D01*
X925000D01*
Y611250D01*
X921574D01*
Y620500D01*
X933750D01*
Y637136D01*
X942423D01*
X942423Y637136D01*
X945836D01*
X946322Y635962D01*
X941024Y630665D01*
X940412Y629749D01*
X940197Y628668D01*
X940197Y628668D01*
Y626972D01*
X938912Y626113D01*
X937652Y624227D01*
X937210Y622004D01*
X937652Y619780D01*
X938160Y619020D01*
X937481Y617750D01*
X933000D01*
Y609750D01*
X945500D01*
Y610926D01*
X949001D01*
Y604749D01*
X965812D01*
X966243Y603479D01*
X965693Y603057D01*
X964613Y601649D01*
X963933Y600009D01*
X963869Y599520D01*
X969230D01*
Y605613D01*
X969001Y605814D01*
Y617249D01*
X969001Y617249D01*
X969001D01*
X969047Y618500D01*
X973000D01*
Y640500D01*
X960507D01*
X960021Y641673D01*
X991752Y673405D01*
X992926Y672919D01*
D02*
G37*
G36*
X778659Y581240D02*
X778173Y580066D01*
X757442D01*
X744022Y593486D01*
X744323Y595002D01*
X743881Y597226D01*
X743446Y597878D01*
X744124Y599148D01*
X760751D01*
X778659Y581240D01*
D02*
G37*
G36*
X876010Y563094D02*
X875389Y561824D01*
X765941D01*
X765624Y562352D01*
X766344Y563622D01*
X801139D01*
X801281Y563650D01*
X875578D01*
X876010Y563094D01*
D02*
G37*
G36*
X716272Y594578D02*
X716631Y592776D01*
X717890Y590891D01*
X719776Y589631D01*
X722000Y589188D01*
X723781Y589543D01*
X739728Y573595D01*
X739242Y572422D01*
X713502D01*
X703472Y582452D01*
X703553Y583277D01*
X703809Y583911D01*
X715015Y595116D01*
X716272Y594578D01*
D02*
G37*
G36*
X733578Y597878D02*
X733142Y597226D01*
X732700Y595002D01*
X733142Y592778D01*
X734402Y590893D01*
X736288Y589633D01*
X738512Y589190D01*
X740028Y589492D01*
X752325Y577195D01*
X751839Y576022D01*
X744655D01*
X727457Y593219D01*
X727812Y595000D01*
X727369Y597224D01*
X726932Y597878D01*
X727611Y599148D01*
X732899D01*
X733578Y597878D01*
D02*
G37*
G36*
X592798Y748753D02*
X563003Y718958D01*
X562391Y718041D01*
X562176Y716960D01*
X562176Y716960D01*
Y647689D01*
X561125Y646997D01*
X560044Y647510D01*
Y723837D01*
X586134Y749926D01*
X592312D01*
X592798Y748753D01*
D02*
G37*
G36*
X708156Y696673D02*
X708156Y696673D01*
X709072Y696061D01*
X710153Y695846D01*
X766097D01*
X766097Y695846D01*
X767178Y696061D01*
X768094Y696673D01*
X773097Y701676D01*
X798210D01*
Y697020D01*
X813767D01*
X814463Y697308D01*
X816515Y695257D01*
X816747Y694092D01*
X817686Y692686D01*
X818136Y692385D01*
Y691115D01*
X817686Y690814D01*
X816747Y689408D01*
X816417Y687750D01*
X816747Y686092D01*
X817686Y684686D01*
X817696Y684679D01*
X817793Y683257D01*
X817090Y682574D01*
X812250D01*
Y685750D01*
X799250D01*
Y682324D01*
X794218D01*
X793359Y683609D01*
X791474Y684869D01*
X789250Y685312D01*
X787026Y684869D01*
X785141Y683609D01*
X784108Y682065D01*
X783259Y681497D01*
X755086Y653324D01*
X751218D01*
X750359Y654610D01*
X748474Y655869D01*
X746250Y656312D01*
X744026Y655869D01*
X742141Y654610D01*
X741270Y653307D01*
X740000Y653424D01*
Y660190D01*
X740000Y660500D01*
X740748Y661460D01*
X746040D01*
Y667730D01*
X731960D01*
Y664941D01*
X730690Y664562D01*
X730338Y665088D01*
X729000Y666427D01*
Y675500D01*
X726316D01*
X725931Y676770D01*
X726860Y677391D01*
X728119Y679276D01*
X728562Y681500D01*
X728119Y683724D01*
X726860Y685609D01*
X724974Y686869D01*
X722750Y687312D01*
X720526Y686869D01*
X718641Y685609D01*
X717639Y684110D01*
X716442Y684606D01*
X716572Y685257D01*
X716130Y687481D01*
X714870Y689366D01*
X712984Y690626D01*
X710760Y691068D01*
X708536Y690626D01*
X706651Y689366D01*
X705391Y687481D01*
X704949Y685257D01*
X705087Y684559D01*
X704174Y683645D01*
X702904Y684172D01*
Y690454D01*
X702904Y690454D01*
X702689Y691535D01*
X702076Y692451D01*
X694273Y700254D01*
X693357Y700866D01*
X692276Y701081D01*
X692276Y701081D01*
X686727D01*
X685868Y702367D01*
X685810Y702406D01*
X686195Y703676D01*
X701153D01*
X708156Y696673D01*
D02*
G37*
G36*
X639647Y711399D02*
X640473Y710847D01*
Y689326D01*
X640473Y689326D01*
X640688Y688245D01*
X641301Y687329D01*
X640357Y686540D01*
X639481Y687126D01*
X637257Y687568D01*
X635033Y687126D01*
X634031Y686456D01*
X632761Y687135D01*
Y709197D01*
X634981Y709639D01*
X636866Y710899D01*
X637660Y712087D01*
X639184Y712092D01*
X639647Y711399D01*
D02*
G37*
G36*
X930686Y716686D02*
X931136Y716385D01*
Y715115D01*
X930686Y714814D01*
X929747Y713408D01*
X929417Y711750D01*
X929747Y710092D01*
X930686Y708686D01*
X931136Y708385D01*
Y707115D01*
X930686Y706814D01*
X929747Y705408D01*
X929417Y703750D01*
X929747Y702092D01*
X930686Y700686D01*
X930696Y700679D01*
X930792Y699257D01*
X930090Y698574D01*
X896301D01*
X895815Y699748D01*
X912993Y716926D01*
X930526D01*
X930686Y716686D01*
D02*
G37*
G36*
X595251Y728818D02*
X595265Y728760D01*
X584753Y718247D01*
X584141Y717331D01*
X583926Y716250D01*
X583926Y716250D01*
Y679631D01*
X583067Y679015D01*
X582656Y678874D01*
X581750Y679054D01*
X580677Y678840D01*
X580108Y678460D01*
X579250Y678318D01*
X578392Y678460D01*
X577823Y678840D01*
X576750Y679054D01*
X575554Y680111D01*
Y710917D01*
X593844Y729207D01*
X595251Y728818D01*
D02*
G37*
G36*
X717000Y662500D02*
X725573D01*
X725900Y662173D01*
Y660500D01*
X723500D01*
Y640054D01*
X709000D01*
Y658804D01*
X710270Y659432D01*
X710677Y659160D01*
X711750Y658946D01*
X712823Y659160D01*
X713733Y659767D01*
X714340Y660677D01*
X714554Y661750D01*
Y666400D01*
X717000D01*
Y662500D01*
D02*
G37*
G36*
X1090700Y687250D02*
X1086000D01*
X1086000Y667950D01*
X1009600D01*
Y687250D01*
X1048250D01*
X1060000Y699000D01*
X1090700D01*
Y687250D01*
D02*
G37*
G36*
X817686Y676686D02*
X818136Y676385D01*
Y675115D01*
X817686Y674814D01*
X816747Y673408D01*
X816417Y671750D01*
X816747Y670092D01*
X817686Y668686D01*
X817696Y668679D01*
X817793Y667257D01*
X817090Y666574D01*
X815250D01*
Y668000D01*
X803250D01*
Y655000D01*
X807186D01*
X807571Y653730D01*
X807391Y653609D01*
X806131Y651724D01*
X805688Y649500D01*
X806131Y647276D01*
X807391Y645390D01*
X809276Y644131D01*
X811500Y643688D01*
X812380Y643863D01*
X813005Y642693D01*
X810367Y640054D01*
X740000D01*
Y647576D01*
X741270Y647693D01*
X742141Y646391D01*
X744026Y645131D01*
X746250Y644688D01*
X748474Y645131D01*
X750359Y646391D01*
X751218Y647676D01*
X756256D01*
X756256Y647676D01*
X757337Y647891D01*
X758253Y648503D01*
X763560Y653811D01*
X764763Y653217D01*
X764702Y652750D01*
X764933Y650991D01*
X765613Y649351D01*
X766693Y647943D01*
X768101Y646863D01*
X769741Y646183D01*
X770230Y646119D01*
Y652750D01*
X771500D01*
Y654020D01*
X778131D01*
X778066Y654510D01*
X777387Y656149D01*
X776307Y657557D01*
X774899Y658637D01*
X773260Y659316D01*
X771500Y659548D01*
X771033Y659487D01*
X770440Y660689D01*
X785141Y675390D01*
X787026Y674131D01*
X789250Y673688D01*
X791474Y674131D01*
X793359Y675390D01*
X794218Y676676D01*
X799250D01*
Y673750D01*
X812250D01*
Y676926D01*
X817526D01*
X817686Y676686D01*
D02*
G37*
G36*
X722900Y938673D02*
Y902233D01*
X723098Y901238D01*
X723662Y900394D01*
X729499Y894557D01*
X729438Y894250D01*
X729881Y892026D01*
X730644Y890884D01*
X729965Y889614D01*
X684071D01*
X684071Y889614D01*
X682990Y889399D01*
X682074Y888787D01*
X670844Y877558D01*
X669574Y878084D01*
Y892124D01*
X673780Y896330D01*
X675750Y895938D01*
X677974Y896381D01*
X679859Y897641D01*
X681119Y899526D01*
X681562Y901750D01*
X681119Y903974D01*
X679859Y905860D01*
X677974Y907119D01*
X675750Y907562D01*
X673526Y907119D01*
X673443Y907064D01*
X672250Y907794D01*
Y909852D01*
X673148Y910750D01*
X691500D01*
X692426Y909919D01*
Y902479D01*
X691150Y901626D01*
X689890Y899741D01*
X689448Y897517D01*
X689890Y895293D01*
X691150Y893408D01*
X693036Y892148D01*
X695259Y891705D01*
X697484Y892148D01*
X699369Y893408D01*
X700629Y895293D01*
X700648Y895388D01*
X701981Y895580D01*
X703776Y894381D01*
X706000Y893938D01*
X708224Y894381D01*
X710109Y895640D01*
X711369Y897526D01*
X711812Y899750D01*
X711369Y901974D01*
X710109Y903859D01*
X708224Y905119D01*
X706324Y905497D01*
Y906775D01*
X707594Y907160D01*
X707641Y907091D01*
X709526Y905831D01*
X711750Y905388D01*
X713974Y905831D01*
X715860Y907091D01*
X717119Y908976D01*
X717562Y911200D01*
X717119Y913424D01*
X715860Y915310D01*
X714574Y916168D01*
Y919062D01*
X714359Y920143D01*
X713747Y921059D01*
X713747Y921059D01*
X696929Y937877D01*
X696013Y938489D01*
X694932Y938704D01*
X694932Y938704D01*
X691500D01*
Y950250D01*
X684690D01*
X684305Y951520D01*
X684859Y951890D01*
X686119Y953776D01*
X686562Y956000D01*
X686119Y958224D01*
X684859Y960109D01*
X682974Y961369D01*
X680750Y961812D01*
X678526Y961369D01*
X676640Y960109D01*
X675381Y958224D01*
X674938Y956000D01*
X675381Y953776D01*
X676640Y951890D01*
X677195Y951520D01*
X676810Y950250D01*
X672250D01*
Y954750D01*
X666709D01*
X666030Y956020D01*
X666869Y957276D01*
X667312Y959500D01*
X666869Y961724D01*
X665610Y963609D01*
X663724Y964869D01*
X661500Y965312D01*
X659276Y964869D01*
X657391Y963609D01*
X656131Y961724D01*
X655688Y959500D01*
X656131Y957276D01*
X656970Y956020D01*
X656291Y954750D01*
X650250D01*
Y949074D01*
X646000D01*
Y954500D01*
X624000D01*
Y945074D01*
X617218D01*
X616359Y946359D01*
X614474Y947619D01*
X612250Y948062D01*
X610026Y947619D01*
X608140Y946359D01*
X606881Y944474D01*
X606438Y942250D01*
X606881Y940026D01*
X608140Y938140D01*
X610026Y936881D01*
X612250Y936438D01*
X614474Y936881D01*
X616359Y938140D01*
X617218Y939426D01*
X620665D01*
X621050Y938156D01*
X620633Y937877D01*
X574753Y891997D01*
X574141Y891081D01*
X573926Y890000D01*
X573926Y890000D01*
Y861000D01*
X573946Y860897D01*
Y853750D01*
X574160Y852677D01*
X574767Y851767D01*
X575677Y851160D01*
X576750Y850946D01*
X577823Y851160D01*
X578392Y851540D01*
X579250Y851682D01*
X580108Y851540D01*
X580677Y851160D01*
X581750Y850946D01*
X582656Y851126D01*
X583067Y850985D01*
X583926Y850369D01*
Y837920D01*
X582852Y836846D01*
X581780Y836633D01*
X579895Y835373D01*
X578635Y833488D01*
X578192Y831264D01*
X578635Y829040D01*
X579895Y827154D01*
X581780Y825894D01*
X584004Y825452D01*
X586228Y825894D01*
X586700Y826210D01*
X586995Y826160D01*
X588024Y825567D01*
X588381Y823776D01*
X589641Y821890D01*
X591526Y820631D01*
X593750Y820188D01*
X595974Y820631D01*
X597859Y821890D01*
X598282Y822522D01*
X599552D01*
X600140Y821640D01*
X602026Y820381D01*
X604250Y819938D01*
X606474Y820381D01*
X608359Y821640D01*
X609846Y821580D01*
X610640Y820390D01*
X612526Y819131D01*
X614750Y818688D01*
X616974Y819131D01*
X617756Y819653D01*
X618800Y818824D01*
X618438Y816999D01*
X618880Y814775D01*
X620140Y812890D01*
X622025Y811630D01*
X624249Y811188D01*
X625843Y811505D01*
X626945Y810534D01*
X626938Y810500D01*
X627381Y808276D01*
X628641Y806391D01*
X630526Y805131D01*
X632750Y804688D01*
X634974Y805131D01*
X636860Y806391D01*
X637365Y807147D01*
X638635D01*
X639141Y806391D01*
X641026Y805131D01*
X643250Y804688D01*
X645474Y805131D01*
X647359Y806391D01*
X647410Y806466D01*
X648938D01*
X649648Y805403D01*
X651534Y804143D01*
X653757Y803701D01*
X655982Y804143D01*
X657233Y804980D01*
X658503Y804301D01*
Y796964D01*
X658026Y796869D01*
X656141Y795610D01*
X654881Y793724D01*
X654438Y791500D01*
X654881Y789276D01*
X656141Y787391D01*
X658026Y786131D01*
X660165Y785705D01*
X660597Y785039D01*
X660840Y784584D01*
X642811Y766555D01*
X570991D01*
X570113Y767870D01*
X568227Y769130D01*
X566003Y769572D01*
X563779Y769130D01*
X561894Y767870D01*
X560634Y765984D01*
X560192Y763760D01*
X560634Y761536D01*
X561894Y759651D01*
X563779Y758391D01*
X566003Y757949D01*
X568227Y758391D01*
X570113Y759651D01*
X570951Y760906D01*
X643980D01*
X643981Y760906D01*
X645061Y761121D01*
X645978Y761734D01*
X673920Y789676D01*
X731750D01*
X731750Y789676D01*
X732831Y789891D01*
X733747Y790503D01*
X755577Y812333D01*
X756750Y811846D01*
Y801244D01*
X739080Y783574D01*
X735218D01*
X734360Y784859D01*
X732474Y786119D01*
X730250Y786562D01*
X728026Y786119D01*
X726141Y784859D01*
X724881Y782974D01*
X724438Y780750D01*
X724881Y778526D01*
X726141Y776640D01*
X728026Y775381D01*
X730250Y774938D01*
X732474Y775381D01*
X734360Y776640D01*
X735218Y777926D01*
X740250D01*
X740250Y777926D01*
X741331Y778141D01*
X742247Y778753D01*
X757994Y794500D01*
X773250D01*
Y815548D01*
X774987Y815894D01*
X776873Y817154D01*
X778133Y819039D01*
X778575Y821263D01*
X778273Y822779D01*
X793170Y837676D01*
X817025D01*
X817686Y836686D01*
X817696Y836679D01*
X817793Y835257D01*
X817090Y834574D01*
X806027D01*
X804765Y834825D01*
X802541Y834383D01*
X800655Y833123D01*
X799396Y831238D01*
X798953Y829014D01*
X799396Y826790D01*
X800655Y824904D01*
X802541Y823644D01*
X804765Y823202D01*
X806989Y823644D01*
X808874Y824904D01*
X810134Y826790D01*
X810559Y828926D01*
X817526D01*
X817686Y828686D01*
X818136Y828385D01*
Y827115D01*
X817686Y826814D01*
X816747Y825408D01*
X816417Y823750D01*
X816747Y822092D01*
X817686Y820686D01*
X818136Y820385D01*
Y819115D01*
X817686Y818814D01*
X816747Y817408D01*
X816417Y815750D01*
X816747Y814092D01*
X817686Y812686D01*
X817696Y812679D01*
X817793Y811257D01*
X817090Y810574D01*
X804250D01*
Y816500D01*
X787750D01*
Y801244D01*
X787503Y800997D01*
X786891Y800081D01*
X786676Y799000D01*
X786676Y799000D01*
Y789218D01*
X785390Y788360D01*
X784131Y786474D01*
X783688Y784250D01*
X784131Y782026D01*
X784566Y781374D01*
X783887Y780104D01*
X765530D01*
X765530Y780104D01*
X764449Y779889D01*
X763533Y779277D01*
X728378Y744122D01*
X728332Y744054D01*
X728264Y744008D01*
X727652Y743092D01*
X727437Y742011D01*
Y737506D01*
X725537Y737128D01*
X723652Y735868D01*
X723594Y735782D01*
X722324Y736168D01*
Y766534D01*
X722109Y767615D01*
X721497Y768531D01*
X721497Y768531D01*
X711531Y778497D01*
X710615Y779109D01*
X709534Y779324D01*
X709534Y779324D01*
X667500D01*
X666419Y779109D01*
X665503Y778497D01*
X665503Y778497D01*
X646620Y759615D01*
X583290D01*
X582210Y759400D01*
X581293Y758788D01*
X562568Y740062D01*
X561543Y740670D01*
X561470Y740760D01*
X561565Y741480D01*
X554145D01*
Y734928D01*
X555864Y735155D01*
X555955Y735082D01*
X556563Y734057D01*
X548253Y725747D01*
X547641Y724831D01*
X547426Y723750D01*
X547426Y723750D01*
Y647468D01*
X546141Y646609D01*
X544881Y644724D01*
X544438Y642500D01*
X544881Y640276D01*
X546141Y638391D01*
X548026Y637131D01*
X550250Y636688D01*
X552474Y637131D01*
X553126Y637566D01*
X554396Y636887D01*
Y635363D01*
X554390Y635359D01*
X553131Y633474D01*
X552688Y631250D01*
X553131Y629026D01*
X554390Y627141D01*
X556276Y625881D01*
X558500Y625438D01*
X560724Y625881D01*
X562609Y627141D01*
X563869Y629026D01*
X564312Y631250D01*
X563869Y633474D01*
X562609Y635359D01*
X560870Y636522D01*
X560812Y636916D01*
X561273Y637344D01*
X562080Y637596D01*
X562776Y637131D01*
X565000Y636688D01*
X567224Y637131D01*
X568636Y638074D01*
X569906Y637470D01*
Y611028D01*
X568732Y610542D01*
X543100Y636175D01*
Y740423D01*
X544286Y740716D01*
X545070Y738821D01*
X546319Y737194D01*
X547946Y735946D01*
X549841Y735161D01*
X551605Y734928D01*
Y742750D01*
Y750572D01*
X549841Y750340D01*
X547946Y749555D01*
X546319Y748306D01*
X545070Y746679D01*
X544286Y744784D01*
X543100Y745077D01*
Y753219D01*
X563513Y773633D01*
X564077Y774476D01*
X564275Y775471D01*
Y917848D01*
X613577Y967150D01*
X694423D01*
X722900Y938673D01*
D02*
G37*
G36*
X624000Y919612D02*
Y907000D01*
X634626D01*
X635000Y906926D01*
X635374Y907000D01*
X639256D01*
X643311Y902945D01*
X642685Y901775D01*
X642500Y901812D01*
X640276Y901369D01*
X638391Y900109D01*
X637532Y898824D01*
X630893D01*
X629812Y898609D01*
X628896Y897997D01*
X628896Y897997D01*
X623933Y893034D01*
X623321Y892118D01*
X623106Y891037D01*
X623106Y891037D01*
Y879218D01*
X622867Y879016D01*
X621909Y878618D01*
X616574Y883953D01*
Y913846D01*
X622827Y920098D01*
X624000Y919612D01*
D02*
G37*
G36*
X947861Y959639D02*
X950051Y958732D01*
X952096Y958462D01*
X952724Y957295D01*
X938097Y942667D01*
X937485Y941751D01*
X937270Y940670D01*
X937270Y940670D01*
Y929889D01*
X937120Y929789D01*
X936000Y930387D01*
Y946500D01*
X921113D01*
X920627Y947673D01*
X922380Y949426D01*
X936400D01*
X936400Y949426D01*
X937481Y949641D01*
X938397Y950253D01*
X947817Y959673D01*
X947861Y959639D01*
D02*
G37*
G36*
X1166277Y979630D02*
X1172399Y978160D01*
X1178216Y975751D01*
X1183584Y972461D01*
X1188372Y968372D01*
X1192461Y963584D01*
X1195751Y958216D01*
X1198160Y952399D01*
X1199630Y946277D01*
X1200114Y940123D01*
X1200000Y940000D01*
X1200000D01*
X1200124Y590000D01*
X1199630Y583723D01*
X1198160Y577601D01*
X1195751Y571784D01*
X1192461Y566416D01*
X1188372Y561628D01*
X1183584Y557539D01*
X1178216Y554249D01*
X1172399Y551840D01*
X1166277Y550370D01*
X1160123Y549886D01*
X1160000Y550000D01*
Y550000D01*
X1057075Y549980D01*
X1056779Y551163D01*
X1058419Y551843D01*
X1059827Y552923D01*
X1060907Y554331D01*
X1061587Y555970D01*
X1061651Y556460D01*
X1048389D01*
X1048454Y555970D01*
X1049133Y554331D01*
X1050213Y552923D01*
X1051621Y551843D01*
X1053260Y551163D01*
X1052966Y549979D01*
X1030899Y549974D01*
X1030646Y551244D01*
X1031439Y551573D01*
X1032847Y552653D01*
X1033927Y554061D01*
X1034606Y555700D01*
X1034671Y556190D01*
X1021409D01*
X1021473Y555700D01*
X1022153Y554061D01*
X1023233Y552653D01*
X1024641Y551573D01*
X1025436Y551243D01*
X1025184Y549973D01*
X540000Y549876D01*
X533723Y550370D01*
X527601Y551840D01*
X521784Y554249D01*
X516416Y557539D01*
X511628Y561628D01*
X507539Y566416D01*
X504249Y571784D01*
X501840Y577601D01*
X500370Y583723D01*
X499886Y589877D01*
X500000Y590000D01*
X500000D01*
X499876Y940000D01*
X500370Y946277D01*
X501840Y952399D01*
X504249Y958216D01*
X507539Y963584D01*
X511628Y968372D01*
X516416Y972461D01*
X521784Y975751D01*
X527601Y978160D01*
X533723Y979630D01*
X539877Y980114D01*
X540000Y980000D01*
Y980000D01*
X847947Y980061D01*
X848473Y978792D01*
X840045Y970363D01*
X838804Y970488D01*
X838161Y972039D01*
X836719Y973919D01*
X834839Y975361D01*
X832650Y976268D01*
X830300Y976578D01*
X827951Y976268D01*
X825761Y975361D01*
X823881Y973919D01*
X822439Y972039D01*
X821532Y969849D01*
X821222Y967500D01*
X821532Y965151D01*
X822439Y962961D01*
X823881Y961081D01*
X825761Y959639D01*
X827951Y958732D01*
X830300Y958422D01*
X832650Y958732D01*
X834839Y959639D01*
X836719Y961081D01*
X838161Y962961D01*
X838872Y964676D01*
X841176D01*
X841176Y964676D01*
X842257Y964891D01*
X843173Y965503D01*
X844395Y966724D01*
X845735Y966269D01*
X845918Y964879D01*
X846930Y962437D01*
X848539Y960339D01*
X850637Y958730D01*
X853079Y957718D01*
X854430Y957541D01*
Y967500D01*
X855700D01*
Y968770D01*
X865659D01*
X865482Y970121D01*
X864470Y972563D01*
X863616Y973676D01*
X864243Y974946D01*
X918000D01*
Y963244D01*
X884550Y929794D01*
X865000D01*
Y946500D01*
X850672D01*
X849630Y947770D01*
X849828Y948770D01*
X849386Y950993D01*
X848126Y952879D01*
X846241Y954139D01*
X844017Y954581D01*
X842501Y954279D01*
X842033Y954747D01*
X841117Y955359D01*
X840036Y955574D01*
X840036Y955574D01*
X820820D01*
X812958Y963436D01*
X813668Y965151D01*
X813978Y967500D01*
X813668Y969849D01*
X812761Y972039D01*
X811319Y973919D01*
X809439Y975361D01*
X807250Y976268D01*
X804900Y976578D01*
X802551Y976268D01*
X800361Y975361D01*
X798481Y973919D01*
X797038Y972039D01*
X796132Y969849D01*
X795822Y967500D01*
X796132Y965151D01*
X797038Y962961D01*
X798481Y961081D01*
X800361Y959639D01*
X802551Y958732D01*
X804900Y958422D01*
X807250Y958732D01*
X808964Y959442D01*
X817653Y950753D01*
X817653Y950753D01*
X818569Y950141D01*
X819650Y949926D01*
X819650Y949926D01*
X837434D01*
X838240Y948944D01*
X838205Y948770D01*
X838648Y946545D01*
X839907Y944660D01*
X841793Y943400D01*
X844017Y942958D01*
X845730Y943299D01*
X847000Y942496D01*
Y929794D01*
X837317D01*
X836909Y930997D01*
X837019Y931081D01*
X838461Y932961D01*
X839368Y935151D01*
X839678Y937500D01*
X839368Y939849D01*
X838461Y942039D01*
X837019Y943919D01*
X835139Y945361D01*
X832950Y946268D01*
X830600Y946578D01*
X828251Y946268D01*
X826061Y945361D01*
X824181Y943919D01*
X822738Y942039D01*
X821832Y939849D01*
X821522Y937500D01*
X821832Y935151D01*
X822738Y932961D01*
X824181Y931081D01*
X824291Y930997D01*
X823883Y929794D01*
X813543D01*
X812917Y931064D01*
X813970Y932437D01*
X814982Y934879D01*
X815159Y936230D01*
X795241D01*
X795418Y934879D01*
X796430Y932437D01*
X798039Y930339D01*
X799015Y929591D01*
X798976Y928409D01*
X797717Y926524D01*
X797274Y924300D01*
X797717Y922076D01*
X798976Y920191D01*
X800862Y918931D01*
X803086Y918488D01*
X805310Y918931D01*
X807076Y920111D01*
X807525Y919968D01*
X808246Y919482D01*
X808204Y919268D01*
X808646Y917044D01*
X809174Y916254D01*
X808495Y914984D01*
X789268D01*
X788242Y916204D01*
X788362Y916804D01*
X787919Y919028D01*
X786659Y920914D01*
X784774Y922173D01*
X782550Y922616D01*
X780326Y922173D01*
X780120Y922036D01*
X779000Y922635D01*
Y933926D01*
X780282D01*
X781141Y932641D01*
X783026Y931381D01*
X785250Y930938D01*
X787474Y931381D01*
X789360Y932641D01*
X790619Y934526D01*
X791062Y936750D01*
X790619Y938974D01*
X789360Y940860D01*
X787474Y942119D01*
X785250Y942562D01*
X783026Y942119D01*
X781141Y940860D01*
X780282Y939574D01*
X779000D01*
Y940500D01*
X762500D01*
Y918500D01*
X776075D01*
X776880Y917518D01*
X776738Y916804D01*
X777181Y914580D01*
X778440Y912695D01*
X780326Y911435D01*
X782550Y910993D01*
X784066Y911294D01*
X785197Y910163D01*
X785197Y910163D01*
X786113Y909551D01*
X787194Y909336D01*
X787194Y909336D01*
X942356D01*
X945124Y906568D01*
X944638Y905394D01*
X769793D01*
X769194Y906514D01*
X769369Y906776D01*
X769812Y909000D01*
X769369Y911224D01*
X768110Y913110D01*
X766224Y914369D01*
X764000Y914812D01*
X762484Y914510D01*
X758574Y918420D01*
Y942580D01*
X774494Y958500D01*
X788500D01*
Y976500D01*
X770500D01*
Y962494D01*
X753753Y945747D01*
X753141Y944831D01*
X752926Y943750D01*
X752926Y943750D01*
Y917250D01*
X752926Y917250D01*
X753141Y916169D01*
X753753Y915253D01*
X758490Y910516D01*
X758188Y909000D01*
X758631Y906776D01*
X759891Y904891D01*
X761776Y903631D01*
X762545Y903478D01*
X762963Y902100D01*
X750477Y889614D01*
X740535D01*
X739856Y890884D01*
X740619Y892026D01*
X741062Y894250D01*
X740619Y896474D01*
X739360Y898360D01*
X737474Y899619D01*
X736899Y899734D01*
X736673Y900237D01*
X736504Y901107D01*
X737631Y902793D01*
X738073Y905017D01*
X737631Y907241D01*
X736371Y909127D01*
X734485Y910387D01*
X732261Y910829D01*
X732100Y910961D01*
Y917460D01*
X738480D01*
Y929500D01*
Y941540D01*
X731992D01*
X731902Y941995D01*
X731338Y942838D01*
X698988Y975188D01*
X698145Y975752D01*
X697150Y975950D01*
X608350D01*
X607355Y975752D01*
X606511Y975188D01*
X535062Y903738D01*
X534498Y902895D01*
X534300Y901900D01*
Y809384D01*
X533030Y809131D01*
X532569Y810245D01*
X531180Y812055D01*
X529370Y813444D01*
X527262Y814317D01*
X525000Y814615D01*
X522895D01*
Y805875D01*
Y797135D01*
X525000D01*
X527262Y797433D01*
X529370Y798306D01*
X531180Y799695D01*
X532569Y801505D01*
X533030Y802618D01*
X534300Y802366D01*
Y727634D01*
X533030Y727382D01*
X532569Y728495D01*
X531180Y730305D01*
X529370Y731694D01*
X527262Y732567D01*
X525000Y732865D01*
X522895D01*
Y724125D01*
Y715385D01*
X525000D01*
X527262Y715683D01*
X529370Y716556D01*
X531180Y717945D01*
X532569Y719755D01*
X533030Y720869D01*
X534300Y720616D01*
Y633100D01*
X534498Y632105D01*
X535062Y631262D01*
X535162Y631161D01*
X535162Y631161D01*
X582286Y584037D01*
X582287Y584036D01*
X590262Y576062D01*
X591105Y575498D01*
X592100Y575300D01*
X662383D01*
X662387Y575240D01*
X664013D01*
X664017Y575300D01*
X698179D01*
X709096Y564383D01*
X709939Y563820D01*
X710934Y563622D01*
X754538D01*
X755217Y562352D01*
X754631Y561474D01*
X754188Y559250D01*
X754631Y557026D01*
X755891Y555140D01*
X757776Y553881D01*
X760000Y553438D01*
X762224Y553881D01*
X764109Y555140D01*
X764801Y556176D01*
X916856D01*
X916856Y556176D01*
X917937Y556391D01*
X918853Y557003D01*
X926037Y564187D01*
X927210Y563701D01*
Y562270D01*
X950290D01*
Y567426D01*
X970407D01*
X970407Y567426D01*
X971488Y567641D01*
X972404Y568253D01*
X997747Y593595D01*
X997747Y593596D01*
X998359Y594512D01*
X998574Y595592D01*
X998574Y595593D01*
Y618500D01*
X1004000D01*
Y640500D01*
X998574D01*
Y674513D01*
X1006803Y682742D01*
X1007976Y682256D01*
Y667950D01*
X1008452Y666802D01*
X1009600Y666326D01*
X1086000D01*
X1087148Y666802D01*
X1087624Y667950D01*
X1087633Y667959D01*
X1090731D01*
Y675999D01*
Y684039D01*
X1088730D01*
X1088599Y684356D01*
X1089448Y685626D01*
X1090700D01*
X1091848Y686102D01*
X1092324Y687250D01*
Y699000D01*
X1091848Y700148D01*
X1090700Y700624D01*
X1062177D01*
X1061691Y701797D01*
X1080444Y720550D01*
X1090100D01*
Y730206D01*
X1095819Y735925D01*
X1098751D01*
Y731499D01*
X1116507D01*
X1159957Y688049D01*
X1160501Y686999D01*
X1160501D01*
X1160501Y686999D01*
Y664999D01*
X1169926D01*
Y661750D01*
X1167750D01*
Y649750D01*
X1177750D01*
Y661750D01*
X1175574D01*
Y664999D01*
X1177001D01*
Y686999D01*
X1168995D01*
X1129160Y726834D01*
X1129403Y727289D01*
X1129835Y727955D01*
X1131974Y728381D01*
X1133859Y729641D01*
X1135119Y731526D01*
X1135562Y733750D01*
X1135119Y735974D01*
X1133859Y737859D01*
X1133574Y738050D01*
Y826750D01*
X1133574Y826750D01*
X1133359Y827831D01*
X1132747Y828747D01*
X1132747Y828747D01*
X1103997Y857497D01*
X1103081Y858109D01*
X1102000Y858324D01*
X1102000Y858324D01*
X1090468D01*
X1089610Y859610D01*
X1087724Y860869D01*
X1085500Y861312D01*
X1083276Y860869D01*
X1081391Y859610D01*
X1080131Y857724D01*
X1079688Y855500D01*
X1080131Y853276D01*
X1081391Y851391D01*
X1083276Y850131D01*
X1085500Y849688D01*
X1087724Y850131D01*
X1089610Y851391D01*
X1090468Y852676D01*
X1100830D01*
X1127926Y825580D01*
Y739199D01*
X1127526Y739119D01*
X1125640Y737859D01*
X1124381Y735974D01*
X1123955Y733835D01*
X1123289Y733403D01*
X1122834Y733160D01*
X1119751Y736243D01*
Y745999D01*
X1098751D01*
Y741573D01*
X1094649D01*
X1093568Y741358D01*
X1092652Y740746D01*
X1084556Y732650D01*
X1074900D01*
Y729424D01*
X1063139D01*
X1062607Y730709D01*
X1061349Y732349D01*
X1059709Y733607D01*
X1057799Y734398D01*
X1055750Y734668D01*
X1053701Y734398D01*
X1051791Y733607D01*
X1050151Y732349D01*
X1048893Y730709D01*
X1048102Y728799D01*
X1047832Y726750D01*
X1048102Y724701D01*
X1048893Y722791D01*
X1050151Y721151D01*
X1051791Y719893D01*
X1053701Y719102D01*
X1055750Y718832D01*
X1057799Y719102D01*
X1059709Y719893D01*
X1061349Y721151D01*
X1062607Y722791D01*
X1063015Y723776D01*
X1073885D01*
X1074412Y722506D01*
X1044750Y692844D01*
X1008453D01*
X1007372Y692629D01*
X1007004Y692384D01*
X1005734Y693049D01*
Y760694D01*
X1005734Y760694D01*
X1005519Y761774D01*
X1004907Y762691D01*
X1004907Y762691D01*
X1001474Y766124D01*
Y769862D01*
X1002744Y770904D01*
X1003775Y770699D01*
X1005999Y771142D01*
X1007884Y772402D01*
X1009144Y774287D01*
X1009586Y776511D01*
X1009144Y778735D01*
X1007884Y780620D01*
X1005999Y781880D01*
X1003775Y782323D01*
X1002058Y781981D01*
X1001433Y783152D01*
X1007375Y789094D01*
X1008051Y788643D01*
X1010275Y788200D01*
X1012499Y788643D01*
X1014384Y789902D01*
X1015644Y791788D01*
X1016087Y794012D01*
X1015644Y796236D01*
X1014384Y798121D01*
X1012499Y799381D01*
X1011730Y799534D01*
X1011312Y800912D01*
X1022181Y811781D01*
X1022749Y811894D01*
X1024635Y813154D01*
X1025895Y815039D01*
X1026337Y817263D01*
X1025895Y819487D01*
X1024635Y821373D01*
X1022749Y822632D01*
X1020525Y823075D01*
X1018301Y822632D01*
X1016416Y821373D01*
X1015156Y819487D01*
X1014714Y817263D01*
X1015156Y815039D01*
X1016075Y813663D01*
X990528Y788116D01*
X989354Y788602D01*
Y795549D01*
X989883Y795903D01*
X991143Y797788D01*
X991585Y800012D01*
X991143Y802236D01*
X989883Y804122D01*
X987998Y805381D01*
X985774Y805824D01*
X983550Y805381D01*
X981664Y804122D01*
X980404Y802236D01*
X979962Y800012D01*
X980404Y797788D01*
X981664Y795903D01*
X983550Y794643D01*
X983706Y794612D01*
Y762698D01*
X982532Y762212D01*
X978706Y766038D01*
X978619Y766474D01*
X977359Y768359D01*
X975474Y769619D01*
X973250Y770062D01*
X971026Y769619D01*
X969140Y768359D01*
X967881Y766474D01*
X967810Y766118D01*
X966540Y766243D01*
Y766480D01*
X960270D01*
Y760710D01*
X966540D01*
Y762257D01*
X967810Y762382D01*
X967881Y762026D01*
X969140Y760141D01*
X971026Y758881D01*
X973250Y758438D01*
X975474Y758881D01*
X976913Y759842D01*
X983926Y752830D01*
Y697367D01*
X983806Y696764D01*
X983806Y696764D01*
Y696300D01*
X949611Y662106D01*
X948911Y662480D01*
X939770D01*
Y658356D01*
X943250D01*
X944269Y658559D01*
X944894Y657389D01*
X942410Y654904D01*
X878080D01*
X878080Y654904D01*
X876999Y654689D01*
X876083Y654077D01*
X819580Y597574D01*
X814968D01*
X814109Y598859D01*
X812224Y600119D01*
X810000Y600562D01*
X807776Y600119D01*
X805891Y598859D01*
X805727Y598614D01*
X804457D01*
X804124Y599112D01*
X802239Y600371D01*
X800015Y600814D01*
X797791Y600371D01*
X795905Y599112D01*
X794645Y597226D01*
X794203Y595002D01*
X794219Y594920D01*
X793139Y593840D01*
X792014Y594063D01*
X789790Y593621D01*
X787905Y592361D01*
X786645Y590476D01*
X786203Y588252D01*
X786645Y586028D01*
X787080Y585376D01*
X786402Y584106D01*
X783781D01*
X780037Y587850D01*
X780455Y589228D01*
X781224Y589381D01*
X783110Y590640D01*
X784369Y592526D01*
X784812Y594750D01*
X784369Y596974D01*
X783110Y598859D01*
X781224Y600119D01*
X779000Y600562D01*
X776776Y600119D01*
X774891Y598859D01*
X773631Y596974D01*
X773478Y596205D01*
X772100Y595787D01*
X763918Y603969D01*
X763001Y604581D01*
X761921Y604796D01*
X761921Y604796D01*
X717877D01*
X717877Y604796D01*
X716796Y604581D01*
X715880Y603969D01*
X715880Y603969D01*
X700485Y588574D01*
X596420D01*
X575554Y609440D01*
Y657889D01*
X576750Y658946D01*
X577823Y659160D01*
X578392Y659540D01*
X579250Y659682D01*
X580108Y659540D01*
X580677Y659160D01*
X581750Y658946D01*
X582823Y659160D01*
X583392Y659540D01*
X584250Y659682D01*
X585108Y659540D01*
X585677Y659160D01*
X586750Y658946D01*
X587656Y659126D01*
X588067Y658985D01*
X588926Y658369D01*
Y656000D01*
X578750D01*
Y639500D01*
X600750D01*
Y656000D01*
X594574D01*
Y657234D01*
X595480Y657828D01*
Y669000D01*
Y679862D01*
X595271Y679820D01*
X594018Y678982D01*
X592933Y678767D01*
X592823Y678840D01*
X591750Y679054D01*
X590844Y678874D01*
X590433Y679015D01*
X589574Y679631D01*
Y715080D01*
X592579Y718085D01*
X593753Y717599D01*
Y713603D01*
X593753Y713603D01*
X593968Y712522D01*
X594580Y711606D01*
X598926Y707260D01*
Y680766D01*
X598020Y680173D01*
Y669000D01*
Y658138D01*
X598229Y658180D01*
X599482Y659018D01*
X600567Y659233D01*
X600677Y659160D01*
X601750Y658946D01*
X602656Y659126D01*
X603067Y658985D01*
X603926Y658369D01*
Y620500D01*
X603926Y620500D01*
X604141Y619419D01*
X604510Y618867D01*
X604188Y617250D01*
X604631Y615026D01*
X605891Y613140D01*
X607776Y611881D01*
X610000Y611438D01*
X612224Y611881D01*
X613204Y612536D01*
X818860D01*
X818860Y612536D01*
X819941Y612751D01*
X820857Y613363D01*
X879670Y672176D01*
X899335D01*
X899336Y672162D01*
X901664D01*
X901665Y672176D01*
X929067D01*
X929417Y671750D01*
X929747Y670092D01*
X930267Y669313D01*
X930095Y667670D01*
X929936Y667564D01*
X928767Y665814D01*
X928609Y665020D01*
X948391D01*
X948233Y665814D01*
X947064Y667564D01*
X946905Y667670D01*
X946733Y669313D01*
X947253Y670092D01*
X947583Y671750D01*
X947253Y673408D01*
X946733Y674187D01*
X946905Y675830D01*
X947064Y675936D01*
X948233Y677686D01*
X948391Y678480D01*
X928277D01*
X927738Y677824D01*
X881264D01*
X880778Y678998D01*
X894706Y692926D01*
X930526D01*
X930686Y692686D01*
X931136Y692385D01*
Y691115D01*
X930686Y690814D01*
X929747Y689408D01*
X929417Y687750D01*
X929747Y686092D01*
X930267Y685312D01*
X930095Y683670D01*
X929936Y683564D01*
X928767Y681814D01*
X928609Y681020D01*
X948391D01*
X948233Y681814D01*
X947064Y683564D01*
X946905Y683670D01*
X946733Y685312D01*
X947253Y686092D01*
X947583Y687750D01*
X947253Y689408D01*
X946314Y690814D01*
X945864Y691115D01*
Y692385D01*
X946314Y692686D01*
X947253Y694092D01*
X947583Y695750D01*
X947253Y697408D01*
X946314Y698814D01*
X946304Y698821D01*
X946208Y700243D01*
X946910Y700926D01*
X952500D01*
Y697750D01*
X965500D01*
Y700926D01*
X970532D01*
X971391Y699641D01*
X973276Y698381D01*
X975500Y697938D01*
X977724Y698381D01*
X979609Y699641D01*
X980869Y701526D01*
X981312Y703750D01*
X980869Y705974D01*
X979609Y707859D01*
X977724Y709119D01*
X975500Y709562D01*
X973276Y709119D01*
X971391Y707859D01*
X970532Y706574D01*
X965500D01*
Y709750D01*
X952500D01*
Y706574D01*
X946474D01*
X946314Y706814D01*
X945864Y707115D01*
Y708385D01*
X946314Y708686D01*
X947253Y710092D01*
X947583Y711750D01*
X947253Y713408D01*
X946314Y714814D01*
X945864Y715115D01*
Y716385D01*
X946314Y716686D01*
X947253Y718092D01*
X947583Y719750D01*
X947253Y721408D01*
X946733Y722187D01*
X946905Y723830D01*
X947064Y723936D01*
X948233Y725686D01*
X948391Y726480D01*
X938500D01*
Y729020D01*
X948391D01*
X948233Y729814D01*
X947064Y731564D01*
X946905Y731670D01*
X946733Y733313D01*
X947253Y734092D01*
X947583Y735750D01*
X947253Y737408D01*
X946314Y738814D01*
X945864Y739115D01*
Y740385D01*
X946314Y740686D01*
X947253Y742092D01*
X947583Y743750D01*
X947253Y745408D01*
X946314Y746814D01*
X946304Y746821D01*
X946208Y748243D01*
X946910Y748926D01*
X952500D01*
Y745750D01*
X965500D01*
Y747926D01*
X968282D01*
X969140Y746640D01*
X971026Y745381D01*
X973250Y744938D01*
X975474Y745381D01*
X977359Y746640D01*
X978619Y748526D01*
X979062Y750750D01*
X978619Y752974D01*
X977359Y754859D01*
X975474Y756119D01*
X973250Y756562D01*
X971026Y756119D01*
X969140Y754859D01*
X968282Y753574D01*
X965500D01*
Y757750D01*
X952500D01*
Y754574D01*
X946474D01*
X946314Y754814D01*
X945864Y755115D01*
Y756385D01*
X946314Y756686D01*
X947253Y758092D01*
X947583Y759750D01*
X947253Y761408D01*
X946733Y762187D01*
X946905Y763830D01*
X947064Y763936D01*
X948233Y765686D01*
X948391Y766480D01*
X928609D01*
X928767Y765686D01*
X929936Y763936D01*
X930095Y763830D01*
X930267Y762187D01*
X929747Y761408D01*
X929417Y759750D01*
X929747Y758092D01*
X930686Y756686D01*
X931136Y756385D01*
Y755115D01*
X930686Y754814D01*
X929747Y753408D01*
X929417Y751750D01*
X929747Y750092D01*
X930686Y748686D01*
X930696Y748679D01*
X930798Y747256D01*
X930110Y746575D01*
X930110Y746574D01*
X929029Y746359D01*
X928113Y745747D01*
X928113Y745747D01*
X812670Y630304D01*
X649290D01*
Y633480D01*
X641750D01*
Y634750D01*
X640480D01*
Y641790D01*
X634214D01*
Y644184D01*
X635250Y644750D01*
X648250D01*
Y645624D01*
X649520Y646303D01*
X650526Y645631D01*
X652750Y645188D01*
X654974Y645631D01*
X656860Y646890D01*
X658119Y648776D01*
X658562Y651000D01*
X658119Y653224D01*
X656860Y655109D01*
X654974Y656369D01*
X652750Y656812D01*
X650526Y656369D01*
X649520Y655697D01*
X648250Y656376D01*
Y656750D01*
X644574D01*
Y658369D01*
X645433Y658985D01*
X645844Y659126D01*
X646750Y658946D01*
X647823Y659160D01*
X648392Y659540D01*
X649250Y659682D01*
X650108Y659540D01*
X650677Y659160D01*
X651750Y658946D01*
X652823Y659160D01*
X653392Y659540D01*
X654250Y659682D01*
X655108Y659540D01*
X655677Y659160D01*
X656750Y658946D01*
X657823Y659160D01*
X658733Y659767D01*
X659767D01*
X660677Y659160D01*
X661750Y658946D01*
X662823Y659160D01*
X663392Y659540D01*
X664250Y659682D01*
X665108Y659540D01*
X665677Y659160D01*
X666750Y658946D01*
X667823Y659160D01*
X668392Y659540D01*
X669250Y659682D01*
X670108Y659540D01*
X670677Y659160D01*
X671750Y658946D01*
X672823Y659160D01*
X673392Y659540D01*
X674250Y659682D01*
X675108Y659540D01*
X675677Y659160D01*
X676750Y658946D01*
X677696Y658170D01*
Y646730D01*
X677696Y646730D01*
X677911Y645649D01*
X678523Y644733D01*
X688023Y635233D01*
X688939Y634621D01*
X690020Y634406D01*
X811536D01*
X811536Y634406D01*
X812617Y634621D01*
X813533Y635233D01*
X838367Y660066D01*
X838367Y660067D01*
X838979Y660983D01*
X839194Y662064D01*
Y666405D01*
X839194Y666405D01*
X839194Y666405D01*
Y686700D01*
X887247Y734753D01*
X887247Y734753D01*
X887859Y735669D01*
X888074Y736750D01*
X888074Y736750D01*
Y744782D01*
X889360Y745640D01*
X890619Y747526D01*
X891062Y749750D01*
X890619Y751974D01*
X889360Y753859D01*
X888138Y754676D01*
X887560Y755418D01*
X887814Y756303D01*
X888638Y757536D01*
X889080Y759760D01*
X888638Y761984D01*
X887378Y763870D01*
X885493Y765129D01*
X883269Y765572D01*
X881045Y765129D01*
X879159Y763870D01*
X877899Y761984D01*
X877457Y759760D01*
X877759Y758244D01*
X875683Y756169D01*
X875071Y755252D01*
X874856Y754172D01*
X874856Y754171D01*
Y736850D01*
X836580Y698574D01*
X834312D01*
X833926Y699844D01*
X834064Y699936D01*
X835233Y701686D01*
X835391Y702480D01*
X825500D01*
Y705020D01*
X835391D01*
X835233Y705814D01*
X834064Y707564D01*
X833905Y707670D01*
X833733Y709313D01*
X834253Y710092D01*
X834583Y711750D01*
X834253Y713408D01*
X833314Y714814D01*
X832864Y715115D01*
Y716385D01*
X833314Y716686D01*
X834253Y718092D01*
X834505Y719356D01*
X842747Y727598D01*
X842747Y727598D01*
X843359Y728514D01*
X843574Y729595D01*
Y794580D01*
X895200Y846206D01*
X916710D01*
X918297Y845145D01*
X920520Y844703D01*
X922745Y845145D01*
X924630Y846405D01*
X925890Y848291D01*
X926332Y850515D01*
X925890Y852739D01*
X924630Y854624D01*
X922745Y855884D01*
X920520Y856326D01*
X918763Y855977D01*
X918196Y855988D01*
X917400Y856812D01*
X917119Y858224D01*
X915860Y860109D01*
X913974Y861369D01*
X911750Y861812D01*
X909526Y861369D01*
X907641Y860109D01*
X906949Y859074D01*
X893544D01*
X893544Y859074D01*
X892464Y858859D01*
X891547Y858247D01*
X891547Y858247D01*
X862806Y829505D01*
X861428Y829923D01*
X861119Y831474D01*
X859859Y833359D01*
X857974Y834619D01*
X855750Y835062D01*
X853526Y834619D01*
X851640Y833359D01*
X850381Y831474D01*
X849938Y829250D01*
X850240Y827734D01*
X841080Y818574D01*
X833474D01*
X833314Y818814D01*
X832864Y819115D01*
Y820385D01*
X833314Y820686D01*
X834253Y822092D01*
X834505Y823356D01*
X851780Y840631D01*
X852750Y840438D01*
X854974Y840881D01*
X856859Y842141D01*
X858119Y844026D01*
X858562Y846250D01*
X858119Y848474D01*
X856859Y850359D01*
X854974Y851619D01*
X852750Y852062D01*
X850526Y851619D01*
X848641Y850359D01*
X847381Y848474D01*
X846938Y846250D01*
X847348Y844188D01*
X835718Y832557D01*
X834340Y832975D01*
X834253Y833408D01*
X833314Y834814D01*
X832864Y835115D01*
Y836385D01*
X833314Y836686D01*
X834253Y838092D01*
X834583Y839750D01*
X834253Y841408D01*
X833314Y842814D01*
X833304Y842821D01*
X833207Y844243D01*
X833910Y844926D01*
X835000D01*
X835000Y844926D01*
X836081Y845141D01*
X836997Y845753D01*
X843007Y851763D01*
X843619Y852679D01*
X843834Y853760D01*
Y876217D01*
X843619Y877298D01*
X843007Y878214D01*
X842977Y878234D01*
X834759Y886452D01*
X835245Y887626D01*
X899630D01*
X925503Y861753D01*
X925503Y861753D01*
X926419Y861141D01*
X927500Y860926D01*
X930526D01*
X930686Y860686D01*
X931136Y860385D01*
Y859115D01*
X930686Y858814D01*
X929747Y857408D01*
X929417Y855750D01*
X929747Y854092D01*
X930686Y852686D01*
X931136Y852385D01*
Y851115D01*
X930686Y850814D01*
X929747Y849408D01*
X929417Y847750D01*
X929747Y846092D01*
X930686Y844686D01*
X931136Y844385D01*
Y843115D01*
X930686Y842814D01*
X929747Y841408D01*
X929417Y839750D01*
X929747Y838092D01*
X930686Y836686D01*
X930696Y836679D01*
X930792Y835257D01*
X930090Y834574D01*
X911688D01*
X910607Y834359D01*
X909691Y833747D01*
X909691Y833747D01*
X867768Y791824D01*
X859218D01*
X858359Y793110D01*
X856474Y794369D01*
X854250Y794812D01*
X852026Y794369D01*
X850141Y793110D01*
X848881Y791224D01*
X848438Y789000D01*
X848881Y786776D01*
X850141Y784891D01*
X852026Y783631D01*
X854250Y783188D01*
X856474Y783631D01*
X858359Y784891D01*
X859218Y786176D01*
X867022D01*
X867508Y785002D01*
X855400Y772894D01*
X854059D01*
X852974Y773619D01*
X850750Y774062D01*
X848526Y773619D01*
X846640Y772359D01*
X845381Y770474D01*
X844938Y768250D01*
X845381Y766026D01*
X846640Y764140D01*
X848526Y762881D01*
X850750Y762438D01*
X852974Y762881D01*
X854859Y764140D01*
X856119Y766026D01*
X856139Y766123D01*
X856570Y767246D01*
X857651Y767461D01*
X858567Y768073D01*
X865252Y774758D01*
X866426Y774272D01*
Y767468D01*
X865141Y766609D01*
X863881Y764724D01*
X863438Y762500D01*
X863881Y760276D01*
X865141Y758391D01*
X867026Y757131D01*
X869250Y756688D01*
X871474Y757131D01*
X873360Y758391D01*
X874619Y760276D01*
X875062Y762500D01*
X874619Y764724D01*
X873360Y766609D01*
X872205Y767381D01*
X872249Y768448D01*
X873436Y768821D01*
X873891Y768140D01*
X875776Y766881D01*
X878000Y766438D01*
X880224Y766881D01*
X882110Y768140D01*
X882968Y769426D01*
X887330D01*
X893875Y762880D01*
Y755375D01*
X893875Y755375D01*
X894090Y754294D01*
X894703Y753378D01*
X899137Y748943D01*
X900053Y748331D01*
X901134Y748116D01*
X907405D01*
X907405Y748116D01*
X908486Y748331D01*
X909402Y748943D01*
X913837Y753378D01*
X914449Y754294D01*
X914664Y755375D01*
Y790063D01*
X915934Y790448D01*
X916640Y789390D01*
X918526Y788131D01*
X920750Y787688D01*
X922974Y788131D01*
X924164Y788926D01*
X930526D01*
X930686Y788686D01*
X931136Y788385D01*
Y787115D01*
X930686Y786814D01*
X929747Y785408D01*
X929417Y783750D01*
X929747Y782092D01*
X930686Y780686D01*
X931136Y780385D01*
Y779115D01*
X930686Y778814D01*
X929747Y777408D01*
X929417Y775750D01*
X929747Y774092D01*
X930267Y773313D01*
X930095Y771670D01*
X929936Y771564D01*
X928767Y769814D01*
X928609Y769020D01*
X948391D01*
X948233Y769814D01*
X947064Y771564D01*
X946905Y771670D01*
X946733Y773313D01*
X947253Y774092D01*
X947583Y775750D01*
X947253Y777408D01*
X946314Y778814D01*
X945864Y779115D01*
Y780385D01*
X946314Y780686D01*
X947253Y782092D01*
X947505Y783356D01*
X965287Y801138D01*
X965287Y801138D01*
X965899Y802054D01*
X966114Y803135D01*
X966114Y803135D01*
Y827940D01*
X967384Y828561D01*
X968776Y827631D01*
X971000Y827188D01*
X973224Y827631D01*
X975109Y828891D01*
X976369Y830776D01*
X976812Y833000D01*
X976369Y835224D01*
X975109Y837110D01*
X973224Y838369D01*
X971000Y838812D01*
X968776Y838369D01*
X967384Y837439D01*
X966114Y838060D01*
Y892396D01*
X966114Y892396D01*
X965899Y893477D01*
X965287Y894393D01*
X965287Y894393D01*
X945523Y914157D01*
X944607Y914769D01*
X943526Y914984D01*
X943526Y914984D01*
X936213D01*
X936088Y916254D01*
X936724Y916381D01*
X938609Y917641D01*
X939869Y919526D01*
X940312Y921750D01*
X940010Y923266D01*
X942091Y925347D01*
X942091Y925347D01*
X942704Y926264D01*
X942919Y927344D01*
X942919Y927344D01*
Y933553D01*
X944189Y933806D01*
X944538Y932961D01*
X945981Y931081D01*
X947861Y929639D01*
X950051Y928732D01*
X952400Y928422D01*
X954750Y928732D01*
X956939Y929639D01*
X958819Y931081D01*
X960262Y932961D01*
X961168Y935151D01*
X961478Y937500D01*
X961168Y939849D01*
X960262Y942039D01*
X958819Y943919D01*
X956939Y945361D01*
X954750Y946268D01*
X952400Y946578D01*
X951700Y946485D01*
X951106Y947688D01*
X964667Y961249D01*
X964667Y961249D01*
X965279Y962165D01*
X965494Y963246D01*
Y971754D01*
X965279Y972835D01*
X964667Y973751D01*
X964667Y973751D01*
X959604Y978814D01*
X960130Y980084D01*
X1160000Y980124D01*
X1166277Y979630D01*
D02*
G37*
G36*
X918000Y943387D02*
Y928500D01*
X932708D01*
X932833Y927230D01*
X932276Y927119D01*
X930390Y925860D01*
X929131Y923974D01*
X928688Y921750D01*
X929131Y919526D01*
X930390Y917641D01*
X932276Y916381D01*
X932912Y916254D01*
X932787Y914984D01*
X820802D01*
X820082Y916254D01*
X820196Y916444D01*
X888228D01*
X888228Y916444D01*
X889309Y916659D01*
X890225Y917271D01*
X916827Y943873D01*
X918000Y943387D01*
D02*
G37*
G36*
X945795Y973676D02*
X944538Y972039D01*
X943632Y969849D01*
X943322Y967500D01*
X943632Y965151D01*
X944122Y963966D01*
X935230Y955074D01*
X921210D01*
X921210Y955074D01*
X920129Y954859D01*
X919213Y954247D01*
X919213Y954247D01*
X887058Y922092D01*
X819346D01*
X818757Y923012D01*
X819344Y924146D01*
X885720D01*
X885720Y924146D01*
X886801Y924361D01*
X887717Y924973D01*
X921244Y958500D01*
X936000D01*
Y974946D01*
X945413D01*
X945795Y973676D01*
D02*
G37*
%LPC*%
G36*
X899230Y662980D02*
X893869D01*
X893933Y662490D01*
X894613Y660851D01*
X895693Y659443D01*
X897101Y658363D01*
X898740Y657683D01*
X899230Y657619D01*
Y662980D01*
D02*
G37*
G36*
X907131D02*
X901770D01*
Y657619D01*
X902260Y657683D01*
X903899Y658363D01*
X905307Y659443D01*
X906387Y660851D01*
X907066Y662490D01*
X907131Y662980D01*
D02*
G37*
G36*
X800290Y660230D02*
X794520D01*
Y653960D01*
X800290D01*
Y660230D01*
D02*
G37*
G36*
X791980D02*
X786210D01*
Y653960D01*
X791980D01*
Y660230D01*
D02*
G37*
G36*
X899230Y670881D02*
X898740Y670816D01*
X897101Y670137D01*
X895693Y669057D01*
X894613Y667649D01*
X893933Y666010D01*
X893869Y665520D01*
X899230D01*
Y670881D01*
D02*
G37*
G36*
X791980Y669040D02*
X786210D01*
Y662770D01*
X791980D01*
Y669040D01*
D02*
G37*
G36*
X514000Y680428D02*
X511651Y680118D01*
X509461Y679211D01*
X507581Y677769D01*
X506138Y675889D01*
X505232Y673699D01*
X504922Y671350D01*
X505232Y669000D01*
X506138Y666811D01*
X507581Y664931D01*
X509461Y663488D01*
X511651Y662582D01*
X514000Y662272D01*
X516349Y662582D01*
X518539Y663488D01*
X520419Y664931D01*
X521861Y666811D01*
X522768Y669000D01*
X523078Y671350D01*
X522768Y673699D01*
X521861Y675889D01*
X520419Y677769D01*
X518539Y679211D01*
X516349Y680118D01*
X514000Y680428D01*
D02*
G37*
G36*
X800290Y669040D02*
X794520D01*
Y662770D01*
X800290D01*
Y669040D01*
D02*
G37*
G36*
X937230Y662480D02*
X928609D01*
X928767Y661686D01*
X929936Y659936D01*
X931686Y658767D01*
X933750Y658356D01*
X937230D01*
Y662480D01*
D02*
G37*
G36*
X976530Y966230D02*
X967841D01*
X968018Y964879D01*
X969030Y962437D01*
X970639Y960339D01*
X972737Y958730D01*
X975179Y957718D01*
X976530Y957541D01*
Y966230D01*
D02*
G37*
G36*
X512730Y644680D02*
X504041D01*
X504218Y643329D01*
X505230Y640887D01*
X506839Y638789D01*
X508937Y637180D01*
X511379Y636168D01*
X512730Y635991D01*
Y644680D01*
D02*
G37*
G36*
X523959D02*
X515270D01*
Y635991D01*
X516621Y636168D01*
X519063Y637180D01*
X521161Y638789D01*
X522770Y640887D01*
X523782Y643329D01*
X523959Y644680D01*
D02*
G37*
G36*
X649290Y641790D02*
X643020D01*
Y636020D01*
X649290D01*
Y641790D01*
D02*
G37*
G36*
X1051381Y639230D02*
X1046020D01*
Y633869D01*
X1046509Y633933D01*
X1048149Y634613D01*
X1049557Y635693D01*
X1050637Y637101D01*
X1051317Y638741D01*
X1051381Y639230D01*
D02*
G37*
G36*
X1062481Y648289D02*
X1052711D01*
Y641398D01*
X1052662Y641394D01*
Y639606D01*
X1052711Y639602D01*
Y633709D01*
X1062481D01*
Y640999D01*
Y648289D01*
D02*
G37*
G36*
X1074791Y639729D02*
X1065021D01*
Y633709D01*
X1074791D01*
Y639729D01*
D02*
G37*
G36*
X1043480Y639230D02*
X1038119D01*
X1038184Y638741D01*
X1038863Y637101D01*
X1039943Y635693D01*
X1041351Y634613D01*
X1042990Y633933D01*
X1043480Y633869D01*
Y639230D01*
D02*
G37*
G36*
X1090480Y644381D02*
X1089990Y644316D01*
X1088351Y643637D01*
X1086943Y642557D01*
X1085863Y641149D01*
X1085183Y639510D01*
X1085119Y639020D01*
X1090480D01*
Y644381D01*
D02*
G37*
G36*
X987759Y966230D02*
X979070D01*
Y957541D01*
X980421Y957718D01*
X982863Y958730D01*
X984961Y960339D01*
X986570Y962437D01*
X987582Y964879D01*
X987759Y966230D01*
D02*
G37*
G36*
X512730Y655909D02*
X511379Y655732D01*
X508937Y654720D01*
X506839Y653111D01*
X505230Y651013D01*
X504218Y648571D01*
X504041Y647220D01*
X512730D01*
Y655909D01*
D02*
G37*
G36*
X515270D02*
Y647220D01*
X523959D01*
X523782Y648571D01*
X522770Y651013D01*
X521161Y653111D01*
X519063Y654720D01*
X516621Y655732D01*
X515270Y655909D01*
D02*
G37*
G36*
X778131Y651480D02*
X772770D01*
Y646119D01*
X773260Y646183D01*
X774899Y646863D01*
X776307Y647943D01*
X777387Y649351D01*
X778066Y650991D01*
X778131Y651480D01*
D02*
G37*
G36*
X1093020Y644381D02*
Y639020D01*
X1098381D01*
X1098316Y639510D01*
X1097637Y641149D01*
X1096557Y642557D01*
X1095149Y643637D01*
X1093510Y644316D01*
X1093020Y644381D01*
D02*
G37*
G36*
X1043480Y647131D02*
X1042990Y647066D01*
X1041351Y646387D01*
X1039943Y645307D01*
X1038863Y643899D01*
X1038184Y642260D01*
X1038119Y641770D01*
X1043480D01*
Y647131D01*
D02*
G37*
G36*
X1046020D02*
Y641770D01*
X1051381D01*
X1051317Y642260D01*
X1050637Y643899D01*
X1049557Y645307D01*
X1048149Y646387D01*
X1046509Y647066D01*
X1046020Y647131D01*
D02*
G37*
G36*
X813290Y694480D02*
X807020D01*
Y688710D01*
X813290D01*
Y694480D01*
D02*
G37*
G36*
X768730Y692631D02*
X768241Y692567D01*
X766601Y691887D01*
X765193Y690807D01*
X764760Y690243D01*
X763490D01*
X763057Y690807D01*
X761649Y691887D01*
X760010Y692567D01*
X759520Y692631D01*
Y686000D01*
Y679369D01*
X760010Y679434D01*
X761649Y680113D01*
X763057Y681193D01*
X763490Y681757D01*
X764760D01*
X765193Y681193D01*
X766601Y680113D01*
X768241Y679434D01*
X768730Y679369D01*
Y686000D01*
Y692631D01*
D02*
G37*
G36*
X1107981Y707479D02*
X1097711D01*
Y700459D01*
X1098760D01*
X1099191Y699189D01*
X1098693Y698807D01*
X1097613Y697399D01*
X1096934Y695760D01*
X1096869Y695270D01*
X1110131D01*
X1110067Y695760D01*
X1109387Y697399D01*
X1108307Y698807D01*
X1107809Y699189D01*
X1107981Y699696D01*
Y707479D01*
D02*
G37*
G36*
X1127131Y692980D02*
X1121770D01*
Y687619D01*
X1122260Y687683D01*
X1123899Y688363D01*
X1125307Y689443D01*
X1126387Y690851D01*
X1127066Y692490D01*
X1127131Y692980D01*
D02*
G37*
G36*
X523000Y705750D02*
X505000D01*
Y687750D01*
X523000D01*
Y705750D01*
D02*
G37*
G36*
X804480Y694480D02*
X798210D01*
Y688710D01*
X804480D01*
Y694480D01*
D02*
G37*
G36*
X1120791Y707479D02*
X1110521D01*
Y700459D01*
X1115434D01*
X1115865Y699189D01*
X1115693Y699057D01*
X1114613Y697649D01*
X1113933Y696010D01*
X1113869Y695520D01*
X1127131D01*
X1127066Y696010D01*
X1126387Y697649D01*
X1125307Y699057D01*
X1123899Y700137D01*
X1122260Y700816D01*
X1120791Y701010D01*
Y707479D01*
D02*
G37*
G36*
Y717039D02*
X1110521D01*
Y710019D01*
X1120791D01*
Y717039D01*
D02*
G37*
G36*
X957730Y718480D02*
X951460D01*
Y712710D01*
X957730D01*
Y718480D01*
D02*
G37*
G36*
X966540D02*
X960270D01*
Y712710D01*
X966540D01*
Y718480D01*
D02*
G37*
G36*
X979070Y947459D02*
Y938770D01*
X987759D01*
X987582Y940121D01*
X986570Y942563D01*
X984961Y944661D01*
X982863Y946270D01*
X980421Y947282D01*
X979070Y947459D01*
D02*
G37*
G36*
X976530D02*
X975179Y947282D01*
X972737Y946270D01*
X970639Y944661D01*
X969030Y942563D01*
X968018Y940121D01*
X967841Y938770D01*
X976530D01*
Y947459D01*
D02*
G37*
G36*
X1107981Y717039D02*
X1097711D01*
Y710019D01*
X1107981D01*
Y717039D01*
D02*
G37*
G36*
X1119230Y692980D02*
X1113869D01*
X1113933Y692490D01*
X1114613Y690851D01*
X1115693Y689443D01*
X1117101Y688363D01*
X1118740Y687683D01*
X1119230Y687619D01*
Y692980D01*
D02*
G37*
G36*
X746040Y676540D02*
X740270D01*
Y670270D01*
X746040D01*
Y676540D01*
D02*
G37*
G36*
X1146001Y686999D02*
X1129501D01*
Y678823D01*
X1106251D01*
Y682999D01*
X1097791D01*
Y684039D01*
X1093271D01*
Y675999D01*
Y667959D01*
X1097791D01*
Y668999D01*
X1106251D01*
Y673175D01*
X1129501D01*
Y664999D01*
X1134927D01*
Y661999D01*
X1130001D01*
Y649499D01*
X1150001D01*
Y652926D01*
X1153750D01*
Y649750D01*
X1163750D01*
Y661750D01*
X1153750D01*
Y658574D01*
X1150001D01*
Y661999D01*
X1140575D01*
Y664999D01*
X1146001D01*
Y686999D01*
D02*
G37*
G36*
X756980Y684730D02*
X751619D01*
X751684Y684240D01*
X752363Y682601D01*
X753443Y681193D01*
X754851Y680113D01*
X756490Y679434D01*
X756980Y679369D01*
Y684730D01*
D02*
G37*
G36*
X901770Y670881D02*
Y665520D01*
X907131D01*
X907066Y666010D01*
X906387Y667649D01*
X905307Y669057D01*
X903899Y670137D01*
X902260Y670816D01*
X901770Y670881D01*
D02*
G37*
G36*
X865659Y966230D02*
X856970D01*
Y957541D01*
X858321Y957718D01*
X860763Y958730D01*
X862861Y960339D01*
X864470Y962437D01*
X865482Y964879D01*
X865659Y966230D01*
D02*
G37*
G36*
X737730Y676540D02*
X731960D01*
Y670270D01*
X737730D01*
Y676540D01*
D02*
G37*
G36*
X776631Y684730D02*
X771270D01*
Y679369D01*
X771759Y679434D01*
X773399Y680113D01*
X774807Y681193D01*
X775887Y682601D01*
X776566Y684240D01*
X776631Y684730D01*
D02*
G37*
G36*
X771270Y692631D02*
Y687270D01*
X776631D01*
X776566Y687759D01*
X775887Y689399D01*
X774807Y690807D01*
X773399Y691887D01*
X771759Y692567D01*
X771270Y692631D01*
D02*
G37*
G36*
X1102230Y692730D02*
X1096869D01*
X1096934Y692241D01*
X1097613Y690601D01*
X1098693Y689193D01*
X1100101Y688113D01*
X1101740Y687433D01*
X1102230Y687369D01*
Y692730D01*
D02*
G37*
G36*
X1110131D02*
X1104770D01*
Y687369D01*
X1105259Y687433D01*
X1106899Y688113D01*
X1108307Y689193D01*
X1109387Y690601D01*
X1110067Y692241D01*
X1110131Y692730D01*
D02*
G37*
G36*
X1069170Y947459D02*
Y938770D01*
X1077859D01*
X1077682Y940121D01*
X1076670Y942563D01*
X1075061Y944661D01*
X1072963Y946270D01*
X1070521Y947282D01*
X1069170Y947459D01*
D02*
G37*
G36*
X1066630D02*
X1065279Y947282D01*
X1062837Y946270D01*
X1060739Y944661D01*
X1059130Y942563D01*
X1058118Y940121D01*
X1057941Y938770D01*
X1066630D01*
Y947459D01*
D02*
G37*
G36*
X756980Y692631D02*
X756490Y692567D01*
X754851Y691887D01*
X753443Y690807D01*
X752363Y689399D01*
X751684Y687759D01*
X751619Y687270D01*
X756980D01*
Y692631D01*
D02*
G37*
G36*
X1151041Y636039D02*
X1141271D01*
Y630019D01*
X1151041D01*
Y636039D01*
D02*
G37*
G36*
X664470Y573959D02*
Y565270D01*
X673159D01*
X672982Y566621D01*
X671970Y569063D01*
X670361Y571161D01*
X668263Y572770D01*
X665821Y573782D01*
X664470Y573959D01*
D02*
G37*
G36*
X683480Y573131D02*
X682990Y573066D01*
X681351Y572387D01*
X679943Y571307D01*
X678863Y569899D01*
X678184Y568260D01*
X678119Y567770D01*
X683480D01*
Y573131D01*
D02*
G37*
G36*
X686020D02*
Y567770D01*
X691381D01*
X691317Y568260D01*
X690637Y569899D01*
X689557Y571307D01*
X688149Y572387D01*
X686509Y573066D01*
X686020Y573131D01*
D02*
G37*
G36*
X699520Y567881D02*
Y562520D01*
X704881D01*
X704817Y563009D01*
X704137Y564649D01*
X703057Y566057D01*
X701649Y567137D01*
X700010Y567817D01*
X699520Y567881D01*
D02*
G37*
G36*
X696980D02*
X696490Y567817D01*
X694851Y567137D01*
X693443Y566057D01*
X692632Y565000D01*
X692075Y565230D01*
X686020D01*
Y559869D01*
X686509Y559934D01*
X688149Y560613D01*
X689557Y561693D01*
X690368Y562750D01*
X690925Y562520D01*
X696980D01*
Y567881D01*
D02*
G37*
G36*
X661930Y573959D02*
X660579Y573782D01*
X658137Y572770D01*
X656039Y571161D01*
X654430Y569063D01*
X653418Y566621D01*
X653241Y565270D01*
X661930D01*
Y573959D01*
D02*
G37*
G36*
X540000Y607585D02*
X536569Y607247D01*
X533271Y606246D01*
X530230Y604621D01*
X527566Y602434D01*
X525379Y599770D01*
X523754Y596729D01*
X522753Y593431D01*
X522415Y590000D01*
X522753Y586569D01*
X523754Y583271D01*
X525379Y580230D01*
X527566Y577566D01*
X530230Y575379D01*
X533271Y573754D01*
X536569Y572753D01*
X540000Y572415D01*
X543431Y572753D01*
X546729Y573754D01*
X549770Y575379D01*
X552434Y577566D01*
X554621Y580230D01*
X556246Y583271D01*
X557247Y586569D01*
X557585Y590000D01*
X557247Y593431D01*
X556246Y596729D01*
X554621Y599770D01*
X552434Y602434D01*
X549770Y604621D01*
X546729Y606246D01*
X543431Y607247D01*
X540000Y607585D01*
D02*
G37*
G36*
X945500Y604750D02*
X933000D01*
Y597250D01*
X928250D01*
Y582750D01*
X947961D01*
Y576709D01*
X957731D01*
Y583999D01*
Y591289D01*
X949250D01*
Y597250D01*
X945500D01*
Y604750D01*
D02*
G37*
G36*
X970041Y582729D02*
X960271D01*
Y576709D01*
X970041D01*
Y582729D01*
D02*
G37*
G36*
X1002000Y589562D02*
X999776Y589119D01*
X997890Y587859D01*
X996631Y585974D01*
X996188Y583750D01*
X996631Y581526D01*
X997890Y579641D01*
X999776Y578381D01*
X1002000Y577938D01*
X1004224Y578381D01*
X1006109Y579641D01*
X1007369Y581526D01*
X1007812Y583750D01*
X1007369Y585974D01*
X1006109Y587859D01*
X1004224Y589119D01*
X1002000Y589562D01*
D02*
G37*
G36*
X1160000Y607585D02*
X1156569Y607247D01*
X1153271Y606246D01*
X1150230Y604621D01*
X1147566Y602434D01*
X1145379Y599770D01*
X1143754Y596729D01*
X1142753Y593431D01*
X1142415Y590000D01*
X1142753Y586569D01*
X1143754Y583271D01*
X1145379Y580230D01*
X1147566Y577566D01*
X1150230Y575379D01*
X1153271Y573754D01*
X1156569Y572753D01*
X1160000Y572415D01*
X1163431Y572753D01*
X1166729Y573754D01*
X1169770Y575379D01*
X1172434Y577566D01*
X1174621Y580230D01*
X1176246Y583271D01*
X1177247Y586569D01*
X1177585Y590000D01*
X1177247Y593431D01*
X1176246Y596729D01*
X1174621Y599770D01*
X1172434Y602434D01*
X1169770Y604621D01*
X1166729Y606246D01*
X1163431Y607247D01*
X1160000Y607585D01*
D02*
G37*
G36*
X979070Y977459D02*
Y968770D01*
X987759D01*
X987582Y970121D01*
X986570Y972563D01*
X984961Y974661D01*
X982863Y976270D01*
X980421Y977282D01*
X979070Y977459D01*
D02*
G37*
G36*
X976530D02*
X975179Y977282D01*
X972737Y976270D01*
X970639Y974661D01*
X969030Y972563D01*
X968018Y970121D01*
X967841Y968770D01*
X976530D01*
Y977459D01*
D02*
G37*
G36*
X683480Y565230D02*
X678119D01*
X678184Y564740D01*
X678863Y563101D01*
X679943Y561693D01*
X681351Y560613D01*
X682990Y559934D01*
X683480Y559869D01*
Y565230D01*
D02*
G37*
G36*
X673159Y562730D02*
X664470D01*
Y554041D01*
X665821Y554218D01*
X668263Y555230D01*
X670361Y556839D01*
X671970Y558937D01*
X672982Y561379D01*
X673159Y562730D01*
D02*
G37*
G36*
X696980Y559980D02*
X691619D01*
X691684Y559491D01*
X692363Y557851D01*
X693443Y556443D01*
X694851Y555363D01*
X696490Y554683D01*
X696980Y554619D01*
Y559980D01*
D02*
G37*
G36*
X704881D02*
X699520D01*
Y554619D01*
X700010Y554683D01*
X701649Y555363D01*
X703057Y556443D01*
X704137Y557851D01*
X704817Y559491D01*
X704881Y559980D01*
D02*
G37*
G36*
X937480Y559730D02*
X927210D01*
Y552710D01*
X937480D01*
Y559730D01*
D02*
G37*
G36*
X950290D02*
X940020D01*
Y552710D01*
X950290D01*
Y559730D01*
D02*
G37*
G36*
X661930Y562730D02*
X653241D01*
X653418Y561379D01*
X654430Y558937D01*
X656039Y556839D01*
X658137Y555230D01*
X660579Y554218D01*
X661930Y554041D01*
Y562730D01*
D02*
G37*
G36*
X612400Y573078D02*
X610051Y572768D01*
X607861Y571861D01*
X605981Y570419D01*
X604538Y568539D01*
X603632Y566349D01*
X603322Y564000D01*
X603632Y561651D01*
X604538Y559461D01*
X605981Y557581D01*
X607861Y556138D01*
X610051Y555232D01*
X612400Y554922D01*
X614749Y555232D01*
X616939Y556138D01*
X618819Y557581D01*
X620261Y559461D01*
X621168Y561651D01*
X621478Y564000D01*
X621168Y566349D01*
X620261Y568539D01*
X618819Y570419D01*
X616939Y571861D01*
X614749Y572768D01*
X612400Y573078D01*
D02*
G37*
G36*
X1029310Y564091D02*
Y558730D01*
X1034671D01*
X1034606Y559220D01*
X1033927Y560859D01*
X1032847Y562267D01*
X1031439Y563347D01*
X1029799Y564026D01*
X1029310Y564091D01*
D02*
G37*
G36*
X1053750Y564361D02*
X1053260Y564296D01*
X1051621Y563617D01*
X1050213Y562537D01*
X1049133Y561129D01*
X1048454Y559490D01*
X1048389Y559000D01*
X1053750D01*
Y564361D01*
D02*
G37*
G36*
X1056290D02*
Y559000D01*
X1061651D01*
X1061587Y559490D01*
X1060907Y561129D01*
X1059827Y562537D01*
X1058419Y563617D01*
X1056779Y564296D01*
X1056290Y564361D01*
D02*
G37*
G36*
X637800Y573078D02*
X635451Y572768D01*
X633261Y571861D01*
X631381Y570419D01*
X629939Y568539D01*
X629032Y566349D01*
X628722Y564000D01*
X629032Y561651D01*
X629939Y559461D01*
X631381Y557581D01*
X633261Y556138D01*
X635451Y555232D01*
X637800Y554922D01*
X640150Y555232D01*
X642339Y556138D01*
X644219Y557581D01*
X645661Y559461D01*
X646568Y561651D01*
X646878Y564000D01*
X646568Y566349D01*
X645661Y568539D01*
X644219Y570419D01*
X642339Y571861D01*
X640150Y572768D01*
X637800Y573078D01*
D02*
G37*
G36*
X595250Y573000D02*
X577250D01*
Y555000D01*
X595250D01*
Y573000D01*
D02*
G37*
G36*
X1026770Y564091D02*
X1026281Y564026D01*
X1024641Y563347D01*
X1023233Y562267D01*
X1022153Y560859D01*
X1021473Y559220D01*
X1021409Y558730D01*
X1026770D01*
Y564091D01*
D02*
G37*
G36*
X971770Y604881D02*
Y599520D01*
X977131D01*
X977066Y600009D01*
X976387Y601649D01*
X975307Y603057D01*
X973899Y604137D01*
X972260Y604817D01*
X971770Y604881D01*
D02*
G37*
G36*
X618730Y606631D02*
X618241Y606567D01*
X616601Y605887D01*
X615193Y604807D01*
X614113Y603399D01*
X613433Y601759D01*
X613369Y601270D01*
X618730D01*
Y606631D01*
D02*
G37*
G36*
X621270D02*
Y601270D01*
X626631D01*
X626567Y601759D01*
X625887Y603399D01*
X624807Y604807D01*
X623399Y605887D01*
X621759Y606567D01*
X621270Y606631D01*
D02*
G37*
G36*
X666631Y598730D02*
X661270D01*
Y593369D01*
X661759Y593433D01*
X663399Y594113D01*
X664807Y595193D01*
X665887Y596601D01*
X666566Y598241D01*
X666631Y598730D01*
D02*
G37*
G36*
X1032250Y663312D02*
X1030026Y662869D01*
X1028140Y661609D01*
X1026881Y659724D01*
X1026438Y657500D01*
X1026881Y655276D01*
X1028140Y653391D01*
X1030026Y652131D01*
X1032250Y651688D01*
X1034474Y652131D01*
X1036359Y653391D01*
X1037619Y655276D01*
X1038051Y657445D01*
X1066170D01*
X1066849Y656175D01*
X1066381Y655474D01*
X1065938Y653250D01*
X1066381Y651026D01*
X1067361Y649559D01*
X1066803Y648289D01*
X1065021D01*
Y642269D01*
X1074791D01*
Y648089D01*
X1075522Y648647D01*
X1075730Y648748D01*
X1076852Y648127D01*
Y631574D01*
X1010200D01*
X1009052Y631098D01*
X1008576Y629950D01*
Y595250D01*
X1009052Y594102D01*
X1010200Y593626D01*
X1025805D01*
X1026031Y592402D01*
X1024391Y591722D01*
X1022983Y590642D01*
X1021903Y589234D01*
X1021224Y587594D01*
X1021159Y587105D01*
X1034421D01*
X1034357Y587594D01*
X1033677Y589234D01*
X1032597Y590642D01*
X1031189Y591722D01*
X1029549Y592402D01*
X1029774Y593626D01*
X1052997D01*
X1053250Y592356D01*
X1052371Y591992D01*
X1050963Y590912D01*
X1049883Y589504D01*
X1049203Y587864D01*
X1049139Y587375D01*
X1062401D01*
X1062337Y587864D01*
X1061657Y589504D01*
X1060577Y590912D01*
X1059169Y591992D01*
X1058290Y592356D01*
X1058543Y593626D01*
X1092000D01*
X1093148Y594102D01*
X1093624Y595250D01*
Y629950D01*
X1093615Y630043D01*
X1094344Y631529D01*
X1095149Y631863D01*
X1096557Y632943D01*
X1097637Y634351D01*
X1098316Y635990D01*
X1098381Y636480D01*
X1085119D01*
X1085183Y635990D01*
X1085863Y634351D01*
X1086943Y632943D01*
X1087073Y632844D01*
X1086641Y631574D01*
X1082501D01*
Y644999D01*
X1087251D01*
Y657445D01*
X1092061D01*
X1096751Y652755D01*
Y644999D01*
X1104507D01*
X1111927Y637579D01*
Y619249D01*
X1106501D01*
Y597249D01*
X1123001D01*
Y619249D01*
X1117575D01*
Y638749D01*
X1117360Y639830D01*
X1116748Y640746D01*
X1106251Y651243D01*
Y658999D01*
X1098495D01*
X1095228Y662266D01*
X1094312Y662878D01*
X1093231Y663093D01*
X1093231Y663093D01*
X1035019D01*
X1034183Y662927D01*
X1032250Y663312D01*
D02*
G37*
G36*
X737480Y963480D02*
X732119D01*
X732184Y962990D01*
X732863Y961351D01*
X733943Y959943D01*
X735351Y958863D01*
X736991Y958184D01*
X737480Y958119D01*
Y963480D01*
D02*
G37*
G36*
X638730Y606631D02*
X638241Y606567D01*
X636601Y605887D01*
X635193Y604807D01*
X634113Y603399D01*
X633433Y601759D01*
X633369Y601270D01*
X638730D01*
Y606631D01*
D02*
G37*
G36*
X1138731Y627479D02*
X1128961D01*
Y621459D01*
X1138731D01*
Y627479D01*
D02*
G37*
G36*
X1151041D02*
X1141271D01*
Y621459D01*
X1151041D01*
Y627479D01*
D02*
G37*
G36*
X1138731Y636039D02*
X1128961D01*
Y630019D01*
X1138731D01*
Y636039D01*
D02*
G37*
G36*
X641270Y606631D02*
Y601270D01*
X646631D01*
X646566Y601759D01*
X645887Y603399D01*
X644807Y604807D01*
X643399Y605887D01*
X641759Y606567D01*
X641270Y606631D01*
D02*
G37*
G36*
X658730D02*
X658241Y606567D01*
X656601Y605887D01*
X655193Y604807D01*
X654113Y603399D01*
X653434Y601759D01*
X653369Y601270D01*
X658730D01*
Y606631D01*
D02*
G37*
G36*
X661270D02*
Y601270D01*
X666631D01*
X666566Y601759D01*
X665887Y603399D01*
X664807Y604807D01*
X663399Y605887D01*
X661759Y606567D01*
X661270Y606631D01*
D02*
G37*
G36*
X658730Y598730D02*
X653369D01*
X653434Y598241D01*
X654113Y596601D01*
X655193Y595193D01*
X656601Y594113D01*
X658241Y593433D01*
X658730Y593369D01*
Y598730D01*
D02*
G37*
G36*
X1062401Y584835D02*
X1057040D01*
Y579474D01*
X1057530Y579538D01*
X1059169Y580218D01*
X1060577Y581298D01*
X1061657Y582706D01*
X1062337Y584346D01*
X1062401Y584835D01*
D02*
G37*
G36*
X740020Y971381D02*
Y966020D01*
X745381D01*
X745316Y966509D01*
X744637Y968149D01*
X743557Y969557D01*
X742149Y970637D01*
X740509Y971317D01*
X740020Y971381D01*
D02*
G37*
G36*
X737480D02*
X736991Y971317D01*
X735351Y970637D01*
X733943Y969557D01*
X732863Y968149D01*
X732184Y966509D01*
X732119Y966020D01*
X737480D01*
Y971381D01*
D02*
G37*
G36*
X1026520Y584565D02*
X1021159D01*
X1021224Y584076D01*
X1021903Y582436D01*
X1022983Y581028D01*
X1024391Y579948D01*
X1026031Y579268D01*
X1026520Y579204D01*
Y584565D01*
D02*
G37*
G36*
X1034421D02*
X1029060D01*
Y579204D01*
X1029549Y579268D01*
X1031189Y579948D01*
X1032597Y581028D01*
X1033677Y582436D01*
X1034357Y584076D01*
X1034421Y584565D01*
D02*
G37*
G36*
X1054500Y584835D02*
X1049139D01*
X1049203Y584346D01*
X1049883Y582706D01*
X1050963Y581298D01*
X1052371Y580218D01*
X1054010Y579538D01*
X1054500Y579474D01*
Y584835D01*
D02*
G37*
G36*
X977131Y596980D02*
X963869D01*
X963933Y596491D01*
X964613Y594851D01*
X965693Y593443D01*
X966845Y592559D01*
X966611Y591465D01*
X966515Y591289D01*
X960271D01*
Y585269D01*
X970041D01*
Y590231D01*
X970475Y591384D01*
X971205Y591545D01*
X972260Y591684D01*
X973899Y592363D01*
X975307Y593443D01*
X976387Y594851D01*
X977066Y596491D01*
X977131Y596980D01*
D02*
G37*
G36*
X626631Y598730D02*
X621270D01*
Y593369D01*
X621759Y593433D01*
X623399Y594113D01*
X624807Y595193D01*
X625887Y596601D01*
X626567Y598241D01*
X626631Y598730D01*
D02*
G37*
G36*
X638730D02*
X633369D01*
X633433Y598241D01*
X634113Y596601D01*
X635193Y595193D01*
X636601Y594113D01*
X638241Y593433D01*
X638730Y593369D01*
Y598730D01*
D02*
G37*
G36*
X646631D02*
X641270D01*
Y593369D01*
X641759Y593433D01*
X643399Y594113D01*
X644807Y595193D01*
X645887Y596601D01*
X646566Y598241D01*
X646631Y598730D01*
D02*
G37*
G36*
X600750Y625000D02*
X578750D01*
Y608500D01*
X593256D01*
X599426Y602330D01*
Y600968D01*
X598140Y600109D01*
X596881Y598224D01*
X596438Y596000D01*
X596881Y593776D01*
X598140Y591890D01*
X600026Y590631D01*
X602250Y590188D01*
X604474Y590631D01*
X606359Y591890D01*
X607619Y593776D01*
X608062Y596000D01*
X607619Y598224D01*
X606359Y600109D01*
X605074Y600968D01*
Y603500D01*
X605074Y603500D01*
X604859Y604581D01*
X604247Y605497D01*
X600750Y608994D01*
Y625000D01*
D02*
G37*
G36*
X745381Y963480D02*
X740020D01*
Y958119D01*
X740509Y958184D01*
X742149Y958863D01*
X743557Y959943D01*
X744637Y961351D01*
X745316Y962990D01*
X745381Y963480D01*
D02*
G37*
G36*
X618730Y598730D02*
X613369D01*
X613433Y598241D01*
X614113Y596601D01*
X615193Y595193D01*
X616601Y594113D01*
X618241Y593433D01*
X618730Y593369D01*
Y598730D01*
D02*
G37*
G36*
X1067230Y849131D02*
X1066740Y849066D01*
X1065101Y848387D01*
X1063693Y847307D01*
X1062613Y845899D01*
X1061934Y844259D01*
X1061869Y843770D01*
X1067230D01*
Y849131D01*
D02*
G37*
G36*
X1069770D02*
Y843770D01*
X1075131D01*
X1075067Y844259D01*
X1074387Y845899D01*
X1073307Y847307D01*
X1071899Y848387D01*
X1070259Y849066D01*
X1069770Y849131D01*
D02*
G37*
G36*
X540000Y957585D02*
X536569Y957247D01*
X533271Y956246D01*
X530230Y954621D01*
X527566Y952434D01*
X525379Y949770D01*
X523754Y946729D01*
X522753Y943431D01*
X522415Y940000D01*
X522753Y936569D01*
X523754Y933271D01*
X525379Y930230D01*
X527566Y927566D01*
X530230Y925379D01*
X533271Y923754D01*
X536569Y922753D01*
X540000Y922415D01*
X543431Y922753D01*
X546729Y923754D01*
X549770Y925379D01*
X552434Y927566D01*
X554621Y930230D01*
X556246Y933271D01*
X557247Y936569D01*
X557585Y940000D01*
X557247Y943431D01*
X556246Y946729D01*
X554621Y949770D01*
X552434Y952434D01*
X549770Y954621D01*
X546729Y956246D01*
X543431Y957247D01*
X540000Y957585D01*
D02*
G37*
G36*
X1075131Y841230D02*
X1069770D01*
Y835869D01*
X1070259Y835934D01*
X1071899Y836613D01*
X1073307Y837693D01*
X1074387Y839101D01*
X1075067Y840741D01*
X1075131Y841230D01*
D02*
G37*
G36*
X1041750Y848861D02*
X1041261Y848796D01*
X1039621Y848117D01*
X1038213Y847037D01*
X1037133Y845629D01*
X1036453Y843989D01*
X1036389Y843500D01*
X1041750D01*
Y848861D01*
D02*
G37*
G36*
X1044290D02*
Y843500D01*
X1049651D01*
X1049586Y843989D01*
X1048907Y845629D01*
X1047827Y847037D01*
X1046419Y848117D01*
X1044779Y848796D01*
X1044290Y848861D01*
D02*
G37*
G36*
X749040Y928230D02*
X741020D01*
Y917460D01*
X749040D01*
Y928230D01*
D02*
G37*
G36*
X1049651Y869335D02*
X1044290D01*
Y863974D01*
X1044779Y864038D01*
X1046419Y864718D01*
X1047827Y865798D01*
X1048907Y867206D01*
X1049586Y868846D01*
X1049651Y869335D01*
D02*
G37*
G36*
X1006460Y869375D02*
X1001099D01*
X1001163Y868885D01*
X1001843Y867246D01*
X1002923Y865838D01*
X1004331Y864758D01*
X1005971Y864079D01*
X1006460Y864014D01*
Y869375D01*
D02*
G37*
G36*
X1014361D02*
X1009000D01*
Y864014D01*
X1009490Y864079D01*
X1011129Y864758D01*
X1012537Y865838D01*
X1013617Y867246D01*
X1014296Y868885D01*
X1014361Y869375D01*
D02*
G37*
G36*
X981730Y869105D02*
X976369D01*
X976433Y868615D01*
X977113Y866976D01*
X978193Y865568D01*
X979601Y864488D01*
X981240Y863809D01*
X981730Y863744D01*
Y869105D01*
D02*
G37*
G36*
X989631D02*
X984270D01*
Y863744D01*
X984759Y863809D01*
X986399Y864488D01*
X987807Y865568D01*
X988887Y866976D01*
X989566Y868615D01*
X989631Y869105D01*
D02*
G37*
G36*
X1041750Y869335D02*
X1036389D01*
X1036453Y868846D01*
X1037133Y867206D01*
X1038213Y865798D01*
X1039621Y864718D01*
X1041261Y864038D01*
X1041750Y863974D01*
Y869335D01*
D02*
G37*
G36*
X1067230Y841230D02*
X1061869D01*
X1061934Y840741D01*
X1062613Y839101D01*
X1063693Y837693D01*
X1065101Y836613D01*
X1066740Y835934D01*
X1067230Y835869D01*
Y841230D01*
D02*
G37*
G36*
X1069480Y812855D02*
X1064119D01*
X1064184Y812365D01*
X1064863Y810726D01*
X1065943Y809318D01*
X1067351Y808238D01*
X1068990Y807559D01*
X1069480Y807494D01*
Y812855D01*
D02*
G37*
G36*
X1077381D02*
X1072020D01*
Y807494D01*
X1072510Y807559D01*
X1074149Y808238D01*
X1075557Y809318D01*
X1076637Y810726D01*
X1077317Y812365D01*
X1077381Y812855D01*
D02*
G37*
G36*
X1160000Y957585D02*
X1156569Y957247D01*
X1153271Y956246D01*
X1150230Y954621D01*
X1147566Y952434D01*
X1145379Y949770D01*
X1143754Y946729D01*
X1142753Y943431D01*
X1142415Y940000D01*
X1142753Y936569D01*
X1143754Y933271D01*
X1145379Y930230D01*
X1147566Y927566D01*
X1150230Y925379D01*
X1153271Y923754D01*
X1156569Y922753D01*
X1160000Y922415D01*
X1163431Y922753D01*
X1166729Y923754D01*
X1169770Y925379D01*
X1172434Y927566D01*
X1174621Y930230D01*
X1176246Y933271D01*
X1177247Y936569D01*
X1177585Y940000D01*
X1177247Y943431D01*
X1176246Y946729D01*
X1174621Y949770D01*
X1172434Y952434D01*
X1169770Y954621D01*
X1166729Y956246D01*
X1163431Y957247D01*
X1160000Y957585D01*
D02*
G37*
G36*
X520355Y814615D02*
X518250D01*
X515988Y814317D01*
X513880Y813444D01*
X512070Y812055D01*
X510681Y810245D01*
X509808Y808137D01*
X509677Y807145D01*
X520355D01*
Y814615D01*
D02*
G37*
G36*
X1041500Y812585D02*
X1036139D01*
X1036204Y812095D01*
X1036883Y810456D01*
X1037963Y809048D01*
X1039371Y807968D01*
X1041011Y807289D01*
X1041500Y807224D01*
Y812585D01*
D02*
G37*
G36*
X1049401D02*
X1044040D01*
Y807224D01*
X1044529Y807289D01*
X1046169Y807968D01*
X1047577Y809048D01*
X1048657Y810456D01*
X1049336Y812095D01*
X1049401Y812585D01*
D02*
G37*
G36*
X1041500Y820486D02*
X1041011Y820422D01*
X1039371Y819742D01*
X1037963Y818662D01*
X1036883Y817254D01*
X1036204Y815614D01*
X1036139Y815125D01*
X1041500D01*
Y820486D01*
D02*
G37*
G36*
X986500Y833812D02*
X984276Y833369D01*
X982391Y832110D01*
X981131Y830224D01*
X980688Y828000D01*
X981131Y825776D01*
X982391Y823891D01*
X984276Y822631D01*
X986500Y822188D01*
X988724Y822631D01*
X990609Y823891D01*
X991869Y825776D01*
X992312Y828000D01*
X991869Y830224D01*
X990609Y832110D01*
X988724Y833369D01*
X986500Y833812D01*
D02*
G37*
G36*
X1041750Y840960D02*
X1036389D01*
X1036453Y840471D01*
X1037133Y838831D01*
X1038213Y837423D01*
X1039621Y836343D01*
X1041261Y835664D01*
X1041750Y835599D01*
Y840960D01*
D02*
G37*
G36*
X1049651D02*
X1044290D01*
Y835599D01*
X1044779Y835664D01*
X1046419Y836343D01*
X1047827Y837423D01*
X1048907Y838831D01*
X1049586Y840471D01*
X1049651Y840960D01*
D02*
G37*
G36*
X1044040Y820486D02*
Y815125D01*
X1049401D01*
X1049336Y815614D01*
X1048657Y817254D01*
X1047577Y818662D01*
X1046169Y819742D01*
X1044529Y820422D01*
X1044040Y820486D01*
D02*
G37*
G36*
X1069480Y820756D02*
X1068990Y820692D01*
X1067351Y820012D01*
X1065943Y818932D01*
X1064863Y817524D01*
X1064184Y815884D01*
X1064119Y815395D01*
X1069480D01*
Y820756D01*
D02*
G37*
G36*
X1072020D02*
Y815395D01*
X1077381D01*
X1077317Y815884D01*
X1076637Y817524D01*
X1075557Y818932D01*
X1074149Y820012D01*
X1072510Y820692D01*
X1072020Y820756D01*
D02*
G37*
G36*
X1066480Y869605D02*
X1061119D01*
X1061183Y869116D01*
X1061863Y867476D01*
X1062943Y866068D01*
X1064351Y864988D01*
X1065991Y864308D01*
X1066480Y864244D01*
Y869605D01*
D02*
G37*
G36*
X1014111Y897750D02*
X1008750D01*
Y892389D01*
X1009239Y892454D01*
X1010879Y893133D01*
X1012287Y894213D01*
X1013367Y895621D01*
X1014046Y897261D01*
X1014111Y897750D01*
D02*
G37*
G36*
X1066230Y897980D02*
X1060869D01*
X1060933Y897490D01*
X1061613Y895851D01*
X1062693Y894443D01*
X1064101Y893363D01*
X1065741Y892683D01*
X1066230Y892619D01*
Y897980D01*
D02*
G37*
G36*
X1074131D02*
X1068770D01*
Y892619D01*
X1069259Y892683D01*
X1070899Y893363D01*
X1072307Y894443D01*
X1073387Y895851D01*
X1074066Y897490D01*
X1074131Y897980D01*
D02*
G37*
G36*
X1041250Y897710D02*
X1035889D01*
X1035954Y897221D01*
X1036633Y895581D01*
X1037713Y894173D01*
X1039121Y893093D01*
X1040760Y892413D01*
X1041250Y892349D01*
Y897710D01*
D02*
G37*
G36*
X1049151D02*
X1043790D01*
Y892349D01*
X1044279Y892413D01*
X1045919Y893093D01*
X1047327Y894173D01*
X1048407Y895581D01*
X1049087Y897221D01*
X1049151Y897710D01*
D02*
G37*
G36*
X1006210Y897750D02*
X1000849D01*
X1000913Y897261D01*
X1001593Y895621D01*
X1002673Y894213D01*
X1004081Y893133D01*
X1005721Y892454D01*
X1006210Y892389D01*
Y897750D01*
D02*
G37*
G36*
X981230Y905381D02*
X980741Y905316D01*
X979101Y904637D01*
X977693Y903557D01*
X976613Y902149D01*
X975934Y900509D01*
X975869Y900020D01*
X981230D01*
Y905381D01*
D02*
G37*
G36*
X1006210Y905651D02*
X1005721Y905586D01*
X1004081Y904907D01*
X1002673Y903827D01*
X1001593Y902419D01*
X1000913Y900779D01*
X1000849Y900290D01*
X1006210D01*
Y905651D01*
D02*
G37*
G36*
X1008750D02*
Y900290D01*
X1014111D01*
X1014046Y900779D01*
X1013367Y902419D01*
X1012287Y903827D01*
X1010879Y904907D01*
X1009239Y905586D01*
X1008750Y905651D01*
D02*
G37*
G36*
X1066230Y905881D02*
X1065741Y905816D01*
X1064101Y905137D01*
X1062693Y904057D01*
X1061613Y902649D01*
X1060933Y901010D01*
X1060869Y900520D01*
X1066230D01*
Y905881D01*
D02*
G37*
G36*
X983770Y905381D02*
Y900020D01*
X989131D01*
X989066Y900509D01*
X988387Y902149D01*
X987307Y903557D01*
X985899Y904637D01*
X984259Y905316D01*
X983770Y905381D01*
D02*
G37*
G36*
X1041250Y905611D02*
X1040760Y905546D01*
X1039121Y904867D01*
X1037713Y903787D01*
X1036633Y902379D01*
X1035954Y900740D01*
X1035889Y900250D01*
X1041250D01*
Y905611D01*
D02*
G37*
G36*
X1043790D02*
Y900250D01*
X1049151D01*
X1049087Y900740D01*
X1048407Y902379D01*
X1047327Y903787D01*
X1045919Y904867D01*
X1044279Y905546D01*
X1043790Y905611D01*
D02*
G37*
G36*
X989131Y897480D02*
X983770D01*
Y892119D01*
X984259Y892184D01*
X985899Y892863D01*
X987307Y893943D01*
X988387Y895351D01*
X989066Y896991D01*
X989131Y897480D01*
D02*
G37*
G36*
X984270Y877006D02*
Y871645D01*
X989631D01*
X989566Y872134D01*
X988887Y873774D01*
X987807Y875182D01*
X986399Y876262D01*
X984759Y876942D01*
X984270Y877006D01*
D02*
G37*
G36*
X1041750Y877236D02*
X1041261Y877171D01*
X1039621Y876492D01*
X1038213Y875412D01*
X1037133Y874004D01*
X1036453Y872365D01*
X1036389Y871875D01*
X1041750D01*
Y877236D01*
D02*
G37*
G36*
X1044290D02*
Y871875D01*
X1049651D01*
X1049586Y872365D01*
X1048907Y874004D01*
X1047827Y875412D01*
X1046419Y876492D01*
X1044779Y877171D01*
X1044290Y877236D01*
D02*
G37*
G36*
X1074381Y869605D02*
X1069020D01*
Y864244D01*
X1069510Y864308D01*
X1071149Y864988D01*
X1072557Y866068D01*
X1073637Y867476D01*
X1074316Y869116D01*
X1074381Y869605D01*
D02*
G37*
G36*
X791980Y872730D02*
X786210D01*
Y866460D01*
X791980D01*
Y872730D01*
D02*
G37*
G36*
X981730Y877006D02*
X981240Y876942D01*
X979601Y876262D01*
X978193Y875182D01*
X977113Y873774D01*
X976433Y872134D01*
X976369Y871645D01*
X981730D01*
Y877006D01*
D02*
G37*
G36*
X1006460Y877276D02*
X1005971Y877212D01*
X1004331Y876532D01*
X1002923Y875452D01*
X1001843Y874044D01*
X1001163Y872404D01*
X1001099Y871915D01*
X1006460D01*
Y877276D01*
D02*
G37*
G36*
X939752Y886647D02*
X939262Y886583D01*
X937622Y885903D01*
X936215Y884823D01*
X935134Y883415D01*
X934455Y881776D01*
X934391Y881286D01*
X939752D01*
Y886647D01*
D02*
G37*
G36*
X1068770Y905881D02*
Y900520D01*
X1074131D01*
X1074066Y901010D01*
X1073387Y902649D01*
X1072307Y904057D01*
X1070899Y905137D01*
X1069259Y905816D01*
X1068770Y905881D01*
D02*
G37*
G36*
X981230Y897480D02*
X975869D01*
X975934Y896991D01*
X976613Y895351D01*
X977693Y893943D01*
X979101Y892863D01*
X980741Y892184D01*
X981230Y892119D01*
Y897480D01*
D02*
G37*
G36*
X1009000Y877276D02*
Y871915D01*
X1014361D01*
X1014296Y872404D01*
X1013617Y874044D01*
X1012537Y875452D01*
X1011129Y876532D01*
X1009490Y877212D01*
X1009000Y877276D01*
D02*
G37*
G36*
X1066480Y877506D02*
X1065991Y877441D01*
X1064351Y876762D01*
X1062943Y875682D01*
X1061863Y874274D01*
X1061183Y872635D01*
X1061119Y872145D01*
X1066480D01*
Y877506D01*
D02*
G37*
G36*
X1069020D02*
Y872145D01*
X1074381D01*
X1074316Y872635D01*
X1073637Y874274D01*
X1072557Y875682D01*
X1071149Y876762D01*
X1069510Y877441D01*
X1069020Y877506D01*
D02*
G37*
G36*
X803930Y947459D02*
X802579Y947282D01*
X800137Y946270D01*
X798039Y944661D01*
X796430Y942563D01*
X795418Y940121D01*
X795241Y938770D01*
X803930D01*
Y947459D01*
D02*
G37*
G36*
X809790Y763790D02*
X803520D01*
Y758020D01*
X809790D01*
Y763790D01*
D02*
G37*
G36*
X957730Y766480D02*
X951460D01*
Y760710D01*
X957730D01*
Y766480D01*
D02*
G37*
G36*
X554145Y750572D02*
Y744020D01*
X561565D01*
X561465Y744784D01*
X560680Y746679D01*
X559431Y748306D01*
X557804Y749555D01*
X555909Y750340D01*
X554145Y750572D01*
D02*
G37*
G36*
X809790Y755480D02*
X794710D01*
Y749710D01*
Y745020D01*
X809790D01*
Y749710D01*
Y755480D01*
D02*
G37*
G36*
X806470Y947459D02*
Y938770D01*
X815159D01*
X814982Y940121D01*
X813970Y942563D01*
X812361Y944661D01*
X810263Y946270D01*
X807821Y947282D01*
X806470Y947459D01*
D02*
G37*
G36*
X749040Y941540D02*
X741020D01*
Y930770D01*
X749040D01*
Y941540D01*
D02*
G37*
G36*
X1041750Y784210D02*
X1036389D01*
X1036453Y783720D01*
X1037133Y782081D01*
X1038213Y780673D01*
X1039621Y779593D01*
X1041261Y778913D01*
X1041750Y778849D01*
Y784210D01*
D02*
G37*
G36*
X1049651D02*
X1044290D01*
Y778849D01*
X1044779Y778913D01*
X1046419Y779593D01*
X1047827Y780673D01*
X1048907Y782081D01*
X1049586Y783720D01*
X1049651Y784210D01*
D02*
G37*
G36*
X1146355Y785480D02*
X1138935D01*
X1139035Y784716D01*
X1139820Y782821D01*
X1141069Y781194D01*
X1142696Y779946D01*
X1144591Y779161D01*
X1146355Y778928D01*
Y785480D01*
D02*
G37*
G36*
X957730Y774790D02*
X951460D01*
Y769020D01*
X957730D01*
Y774790D01*
D02*
G37*
G36*
X966540D02*
X960270D01*
Y769020D01*
X966540D01*
Y774790D01*
D02*
G37*
G36*
X1051500Y946500D02*
X1033500D01*
Y928500D01*
X1051500D01*
Y946500D01*
D02*
G37*
G36*
X1148895Y750072D02*
Y743520D01*
X1156315D01*
X1156215Y744284D01*
X1155430Y746179D01*
X1154181Y747806D01*
X1152554Y749054D01*
X1150659Y749839D01*
X1148895Y750072D01*
D02*
G37*
G36*
X957730Y726790D02*
X951460D01*
Y721020D01*
X957730D01*
Y726790D01*
D02*
G37*
G36*
X966540D02*
X960270D01*
Y721020D01*
X966540D01*
Y726790D01*
D02*
G37*
G36*
X1177605Y732365D02*
X1175500D01*
X1173238Y732067D01*
X1171130Y731194D01*
X1169320Y729805D01*
X1167931Y727995D01*
X1167058Y725887D01*
X1166927Y724895D01*
X1177605D01*
Y732365D01*
D02*
G37*
G36*
Y722355D02*
X1166927D01*
X1167058Y721363D01*
X1167931Y719255D01*
X1169320Y717445D01*
X1171130Y716056D01*
X1173238Y715183D01*
X1175500Y714885D01*
X1177605D01*
Y722355D01*
D02*
G37*
G36*
X1190823D02*
X1180145D01*
Y714885D01*
X1182250D01*
X1184512Y715183D01*
X1186620Y716056D01*
X1188430Y717445D01*
X1189819Y719255D01*
X1190692Y721363D01*
X1190823Y722355D01*
D02*
G37*
G36*
X520355Y722855D02*
X509677D01*
X509808Y721863D01*
X510681Y719755D01*
X512070Y717945D01*
X513880Y716556D01*
X515988Y715683D01*
X518250Y715385D01*
X520355D01*
Y722855D01*
D02*
G37*
G36*
X1182250Y732365D02*
X1180145D01*
Y724895D01*
X1190823D01*
X1190692Y725887D01*
X1189819Y727995D01*
X1188430Y729805D01*
X1186620Y731194D01*
X1184512Y732067D01*
X1182250Y732365D01*
D02*
G37*
G36*
X1146355Y740980D02*
X1138935D01*
X1139035Y740216D01*
X1139820Y738321D01*
X1141069Y736694D01*
X1142696Y735445D01*
X1144591Y734660D01*
X1146355Y734428D01*
Y740980D01*
D02*
G37*
G36*
X1156315D02*
X1148895D01*
Y734428D01*
X1150659Y734660D01*
X1152554Y735445D01*
X1154181Y736694D01*
X1155430Y738321D01*
X1156215Y740216D01*
X1156315Y740980D01*
D02*
G37*
G36*
X1146355Y750072D02*
X1144591Y749839D01*
X1142696Y749054D01*
X1141069Y747806D01*
X1139820Y746179D01*
X1139035Y744284D01*
X1138935Y743520D01*
X1146355D01*
Y750072D01*
D02*
G37*
G36*
X520355Y732865D02*
X518250D01*
X515988Y732567D01*
X513880Y731694D01*
X512070Y730305D01*
X510681Y728495D01*
X509808Y726387D01*
X509677Y725395D01*
X520355D01*
Y732865D01*
D02*
G37*
G36*
X646980Y732980D02*
X641619D01*
X641684Y732490D01*
X642363Y730851D01*
X643443Y729443D01*
X644851Y728363D01*
X646490Y727683D01*
X646980Y727619D01*
Y732980D01*
D02*
G37*
G36*
X654881D02*
X649520D01*
Y727619D01*
X650010Y727683D01*
X651649Y728363D01*
X653057Y729443D01*
X654137Y730851D01*
X654817Y732490D01*
X654881Y732980D01*
D02*
G37*
G36*
X1156315Y785480D02*
X1148895D01*
Y778928D01*
X1150659Y779161D01*
X1152554Y779946D01*
X1154181Y781194D01*
X1155430Y782821D01*
X1156215Y784716D01*
X1156315Y785480D01*
D02*
G37*
G36*
X635230Y799131D02*
X634740Y799066D01*
X633101Y798387D01*
X631693Y797307D01*
X630613Y795899D01*
X629934Y794259D01*
X629869Y793770D01*
X635230D01*
Y799131D01*
D02*
G37*
G36*
X637770D02*
Y793770D01*
X643131D01*
X643066Y794259D01*
X642387Y795899D01*
X641307Y797307D01*
X639899Y798387D01*
X638260Y799066D01*
X637770Y799131D01*
D02*
G37*
G36*
X1066630Y936230D02*
X1057941D01*
X1058118Y934879D01*
X1059130Y932437D01*
X1060739Y930339D01*
X1062837Y928730D01*
X1065279Y927718D01*
X1066630Y927541D01*
Y936230D01*
D02*
G37*
G36*
X1077859D02*
X1069170D01*
Y927541D01*
X1070521Y927718D01*
X1072963Y928730D01*
X1075061Y930339D01*
X1076670Y932437D01*
X1077682Y934879D01*
X1077859Y936230D01*
D02*
G37*
G36*
X607250Y798861D02*
X606760Y798796D01*
X605121Y798117D01*
X603713Y797037D01*
X602633Y795629D01*
X601954Y793989D01*
X601889Y793500D01*
X607250D01*
Y798861D01*
D02*
G37*
G36*
X609790D02*
Y793500D01*
X615151D01*
X615087Y793989D01*
X614407Y795629D01*
X613327Y797037D01*
X611919Y798117D01*
X610280Y798796D01*
X609790Y798861D01*
D02*
G37*
G36*
X987759Y936230D02*
X979070D01*
Y927541D01*
X980421Y927718D01*
X982863Y928730D01*
X984961Y930339D01*
X986570Y932437D01*
X987582Y934879D01*
X987759Y936230D01*
D02*
G37*
G36*
X976530D02*
X967841D01*
X968018Y934879D01*
X969030Y932437D01*
X970639Y930339D01*
X972737Y928730D01*
X975179Y927718D01*
X976530Y927541D01*
Y936230D01*
D02*
G37*
G36*
X1177605Y814115D02*
X1175500D01*
X1173238Y813817D01*
X1171130Y812944D01*
X1169320Y811555D01*
X1167931Y809745D01*
X1167058Y807637D01*
X1166927Y806645D01*
X1177605D01*
Y814115D01*
D02*
G37*
G36*
X1182250D02*
X1180145D01*
Y806645D01*
X1190823D01*
X1190692Y807637D01*
X1189819Y809745D01*
X1188430Y811555D01*
X1186620Y812944D01*
X1184512Y813817D01*
X1182250Y814115D01*
D02*
G37*
G36*
X1177605Y804105D02*
X1166927D01*
X1167058Y803113D01*
X1167931Y801005D01*
X1169320Y799195D01*
X1171130Y797806D01*
X1173238Y796933D01*
X1175500Y796635D01*
X1177605D01*
Y804105D01*
D02*
G37*
G36*
X1190823D02*
X1180145D01*
Y796635D01*
X1182250D01*
X1184512Y796933D01*
X1186620Y797806D01*
X1188430Y799195D01*
X1189819Y801005D01*
X1190692Y803113D01*
X1190823Y804105D01*
D02*
G37*
G36*
X520355Y804605D02*
X509677D01*
X509808Y803613D01*
X510681Y801505D01*
X512070Y799695D01*
X513880Y798306D01*
X515988Y797433D01*
X518250Y797135D01*
X520355D01*
Y804605D01*
D02*
G37*
G36*
X551605Y795072D02*
X549841Y794839D01*
X547946Y794054D01*
X546319Y792806D01*
X545070Y791179D01*
X544286Y789284D01*
X544185Y788520D01*
X551605D01*
Y795072D01*
D02*
G37*
G36*
X607250Y790960D02*
X601889D01*
X601954Y790471D01*
X602633Y788831D01*
X603713Y787423D01*
X605121Y786343D01*
X606760Y785664D01*
X607250Y785599D01*
Y790960D01*
D02*
G37*
G36*
X615151D02*
X609790D01*
Y785599D01*
X610280Y785664D01*
X611919Y786343D01*
X613327Y787423D01*
X614407Y788831D01*
X615087Y790471D01*
X615151Y790960D01*
D02*
G37*
G36*
X635230Y791230D02*
X629869D01*
X629934Y790741D01*
X630613Y789101D01*
X631693Y787693D01*
X633101Y786613D01*
X634740Y785934D01*
X635230Y785869D01*
Y791230D01*
D02*
G37*
G36*
X1068730Y784480D02*
X1063369D01*
X1063434Y783990D01*
X1064113Y782351D01*
X1065193Y780943D01*
X1066601Y779863D01*
X1068241Y779184D01*
X1068730Y779119D01*
Y784480D01*
D02*
G37*
G36*
X1076631D02*
X1071270D01*
Y779119D01*
X1071759Y779184D01*
X1073399Y779863D01*
X1074807Y780943D01*
X1075887Y782351D01*
X1076566Y783990D01*
X1076631Y784480D01*
D02*
G37*
G36*
X551605Y785980D02*
X544185D01*
X544286Y785216D01*
X545070Y783321D01*
X546319Y781694D01*
X547946Y780445D01*
X549841Y779660D01*
X551605Y779428D01*
Y785980D01*
D02*
G37*
G36*
X643131Y791230D02*
X637770D01*
Y785869D01*
X638260Y785934D01*
X639899Y786613D01*
X641307Y787693D01*
X642387Y789101D01*
X643066Y790741D01*
X643131Y791230D01*
D02*
G37*
G36*
X1071270Y792381D02*
Y787020D01*
X1076631D01*
X1076566Y787510D01*
X1075887Y789149D01*
X1074807Y790557D01*
X1073399Y791637D01*
X1071759Y792317D01*
X1071270Y792381D01*
D02*
G37*
G36*
X1146355Y794572D02*
X1144591Y794340D01*
X1142696Y793555D01*
X1141069Y792306D01*
X1139820Y790679D01*
X1139035Y788784D01*
X1138935Y788020D01*
X1146355D01*
Y794572D01*
D02*
G37*
G36*
X1148895D02*
Y788020D01*
X1156315D01*
X1156215Y788784D01*
X1155430Y790679D01*
X1154181Y792306D01*
X1152554Y793555D01*
X1150659Y794340D01*
X1148895Y794572D01*
D02*
G37*
G36*
X1041750Y792111D02*
X1041261Y792047D01*
X1039621Y791367D01*
X1038213Y790287D01*
X1037133Y788879D01*
X1036453Y787240D01*
X1036389Y786750D01*
X1041750D01*
Y792111D01*
D02*
G37*
G36*
X1044290D02*
Y786750D01*
X1049651D01*
X1049586Y787240D01*
X1048907Y788879D01*
X1047827Y790287D01*
X1046419Y791367D01*
X1044779Y792047D01*
X1044290Y792111D01*
D02*
G37*
G36*
X1068730Y792381D02*
X1068241Y792317D01*
X1066601Y791637D01*
X1065193Y790557D01*
X1064113Y789149D01*
X1063434Y787510D01*
X1063369Y787020D01*
X1068730D01*
Y792381D01*
D02*
G37*
%LPD*%
D10*
X1055750Y726750D02*
D03*
D12*
X1082501Y675999D02*
D03*
X1092001D02*
D03*
X1101501D02*
D03*
Y651999D02*
D03*
X1082501D02*
D03*
D13*
X681500Y944000D02*
D03*
Y917000D02*
D03*
X1140001Y628749D02*
D03*
Y655749D02*
D03*
X1063751Y612999D02*
D03*
Y640999D02*
D03*
X959001Y583999D02*
D03*
Y610999D02*
D03*
D16*
X802250Y727750D02*
D03*
Y743750D02*
D03*
X805750Y679750D02*
D03*
Y695750D02*
D03*
X802250Y772750D02*
D03*
Y756750D02*
D03*
X959000Y703750D02*
D03*
Y719750D02*
D03*
X959000Y751750D02*
D03*
Y767750D02*
D03*
X641750Y650750D02*
D03*
Y634750D02*
D03*
D18*
X895250Y629500D02*
D03*
X925250D02*
D03*
D23*
X809250Y661500D02*
D03*
X793250D02*
D03*
X809250Y874000D02*
D03*
X793250D02*
D03*
X723000Y669000D02*
D03*
X739000D02*
D03*
D25*
X661250Y946500D02*
D03*
Y915500D02*
D03*
X635000Y946250D02*
D03*
Y915250D02*
D03*
X589750Y616750D02*
D03*
Y647750D02*
D03*
D26*
X1109251Y738749D02*
D03*
Y708749D02*
D03*
X938750Y561000D02*
D03*
Y590000D02*
D03*
D29*
X765000Y805500D02*
D03*
X796000D02*
D03*
X731750Y649500D02*
D03*
X700750D02*
D03*
X1083751Y608249D02*
D03*
X1114751D02*
D03*
X995750Y629500D02*
D03*
X964750D02*
D03*
X1168751Y675999D02*
D03*
X1137751D02*
D03*
X770750Y929500D02*
D03*
X739750D02*
D03*
D30*
X1029500Y621450D02*
D03*
Y676050D02*
D03*
D31*
X1082500Y726600D02*
D03*
Y693900D02*
D03*
D35*
X1055750Y726750D02*
X1055900Y726600D01*
X1082500D01*
X887386Y586471D02*
X900759Y573098D01*
X876398Y586471D02*
X887386D01*
X901720Y569673D02*
Y570860D01*
X901489Y571091D02*
X901720Y570860D01*
X901489Y571091D02*
Y571666D01*
X901325Y571830D02*
X901489Y571666D01*
X901325Y571830D02*
Y572064D01*
X900960Y572429D02*
X901325Y572064D01*
X900960Y572429D02*
Y572789D01*
X900759Y572990D02*
X900960Y572789D01*
X900759Y572990D02*
Y573098D01*
X832448Y583750D02*
X832456Y583742D01*
X834121Y587790D02*
X834129Y587782D01*
X814560Y583740D02*
X814570Y583750D01*
X805430D02*
X805440Y583740D01*
X812887Y587780D02*
X812897Y587790D01*
X807103D02*
X807113Y587780D01*
X834129Y587782D02*
X871995D01*
X874724Y590511D01*
X812897Y587790D02*
X834121D01*
X801409D02*
X807103D01*
X807113Y587780D02*
X812887D01*
X832456Y583742D02*
X873669D01*
X876398Y586471D01*
X889239Y590511D02*
X907000Y572750D01*
X874724Y590511D02*
X889239D01*
X898750Y592750D02*
Y596750D01*
X908750Y582750D02*
X915720Y575780D01*
X803083Y583750D02*
X805430D01*
X814570D02*
X832448D01*
X805440Y583740D02*
X814560D01*
X785256Y679500D02*
X789250D01*
X756256Y650500D02*
X785256Y679500D01*
X743750Y650500D02*
X756256D01*
X886923Y639960D02*
X942423D01*
X879790Y632827D02*
X886923Y639960D01*
X879790Y621710D02*
Y632827D01*
X885250Y644000D02*
X940750D01*
X875750Y634500D02*
X885250Y644000D01*
X875750Y619750D02*
Y634500D01*
X680520Y646730D02*
Y659835D01*
Y646730D02*
X690020Y637230D01*
X811536D01*
X680520Y659835D02*
X681750Y661065D01*
X691750Y660667D02*
Y669000D01*
X696750Y652750D02*
X700000Y649500D01*
X696750Y652750D02*
Y669000D01*
X681750Y661065D02*
Y669000D01*
X751240Y743260D02*
X778263D01*
X731080Y723080D02*
X751250Y743250D01*
X995750Y595592D02*
Y629500D01*
X970407Y570250D02*
X995750Y595592D01*
X928106Y570250D02*
X970407D01*
X836370Y662064D02*
Y666405D01*
X811536Y637230D02*
X836370Y662064D01*
X636750Y660216D02*
Y669000D01*
X933944Y671750D02*
X938500D01*
X930694Y675000D02*
X933944Y671750D01*
X878500Y675000D02*
X930694D01*
X818860Y615360D02*
X878500Y675000D01*
X998650Y764954D02*
X1002910Y760694D01*
X998650Y764954D02*
Y773900D01*
X994610Y763280D02*
Y780323D01*
Y763280D02*
X998870Y759020D01*
X990570Y761607D02*
X994830Y757347D01*
X990570Y761607D02*
Y784164D01*
X986530Y759933D02*
Y799768D01*
Y759933D02*
X990790Y755673D01*
X976500Y764250D02*
X986750Y754000D01*
X973250Y764250D02*
X976500D01*
X610000Y617250D02*
X611890Y615360D01*
X606750Y620500D02*
X610000Y617250D01*
X606750Y620500D02*
Y669000D01*
X611890Y615360D02*
X818860D01*
X620993Y619400D02*
X817187D01*
X615530Y624863D02*
X620993Y619400D01*
X615530Y624863D02*
Y630637D01*
X608640Y617250D02*
X610000D01*
X830807Y886410D02*
X840990Y876227D01*
X774121Y886410D02*
X830807D01*
X900800Y890450D02*
X927500Y863750D01*
X772447Y890450D02*
X900800D01*
X941510Y894490D02*
X949370Y886630D01*
X944032Y898530D02*
X954010Y888552D01*
X769100Y898530D02*
X944032D01*
X946554Y902570D02*
X958650Y890474D01*
X767427Y902570D02*
X946554D01*
X722470Y806613D02*
Y829046D01*
X715500Y823500D02*
Y827789D01*
X686750Y869784D02*
X691636Y874670D01*
X681750Y871346D02*
X689114Y878710D01*
X676750Y872907D02*
X686592Y882750D01*
X691636Y874670D02*
X756667D01*
X689114Y878710D02*
X754994D01*
X686592Y882750D02*
X753320D01*
X684071Y886790D02*
X751647D01*
X753320Y882750D02*
X769100Y898530D01*
X770774Y894490D02*
X941510D01*
X754994Y878710D02*
X770774Y894490D01*
X756667Y874670D02*
X772447Y890450D01*
X715500Y827789D02*
X774121Y886410D01*
X775794Y882370D02*
X828285D01*
X722470Y829046D02*
X775794Y882370D01*
X828285D02*
X836370Y874285D01*
X751647Y886790D02*
X767427Y902570D01*
X740250Y780750D02*
X765000Y805500D01*
X730250Y780750D02*
X740250D01*
X750037Y822250D02*
X785077Y857290D01*
X740750Y822250D02*
X750037D01*
X760513Y821263D02*
X772763D01*
X731750Y792500D02*
X760513Y821263D01*
X672750Y792500D02*
X731750D01*
X715500Y823500D02*
Y838466D01*
Y809500D02*
Y823500D01*
X730040Y796540D02*
X786750Y853250D01*
X706710Y796540D02*
X730040D01*
X718387Y802530D02*
X722470Y806613D01*
X712613Y802530D02*
X718387D01*
X705893Y809250D02*
X712613Y802530D01*
X704750Y809250D02*
X705893D01*
X817500Y871750D02*
X825500D01*
X815250Y874000D02*
X817500Y871750D01*
X809250Y874000D02*
X815250D01*
X772446Y739220D02*
X775876Y735789D01*
X757613Y739220D02*
X772446D01*
X778263Y743260D02*
X778764Y742759D01*
X753857Y715000D02*
X770513Y731656D01*
X785734Y739872D02*
Y756234D01*
X802250Y772750D01*
X775876Y735789D02*
X781651D01*
X744893Y726500D02*
X757613Y739220D01*
X770513Y731259D02*
Y731656D01*
X781651Y735789D02*
X785734Y739872D01*
X747290Y719040D02*
X760500Y732250D01*
X727761Y731759D02*
X728002Y732000D01*
X685250Y741500D02*
X704250Y760500D01*
X602143Y741500D02*
X685250D01*
X572730Y712087D02*
X602143Y741500D01*
X710153Y698670D02*
X766097D01*
X711827Y702710D02*
X764423D01*
X702323Y706500D02*
X710153Y698670D01*
X679296Y706500D02*
X702323D01*
X703795Y710741D02*
X711827Y702710D01*
X670037Y710741D02*
X703795D01*
X713500Y706750D02*
X762750D01*
X705469Y714781D02*
X713500Y706750D01*
X653174Y714781D02*
X705469D01*
X766097Y698670D02*
X771927Y704500D01*
X764423Y702710D02*
X770333Y708620D01*
X762750Y706750D02*
X791880Y735880D01*
X721170Y723080D02*
X731080D01*
X719500Y724750D02*
X721170Y723080D01*
X719497Y719040D02*
X747290D01*
X715260Y723277D02*
X719497Y719040D01*
X717823Y715000D02*
X753857D01*
X711220Y721603D02*
X717823Y715000D01*
X719500Y724750D02*
Y766534D01*
X667500Y776500D02*
X709534D01*
X706187Y768420D02*
X711220Y763387D01*
X670847Y768420D02*
X706187D01*
X707860Y772460D02*
X715260Y765061D01*
X669173Y772460D02*
X707860D01*
X709534Y776500D02*
X719500Y766534D01*
X715260Y723277D02*
Y765061D01*
X711220Y721603D02*
Y763387D01*
X728002Y732000D02*
X730023D01*
X730261Y731761D01*
X744750Y726500D02*
X744893D01*
X789500Y799000D02*
X796000Y805500D01*
X789500Y784250D02*
Y799000D01*
X904270Y804020D02*
X910750Y810500D01*
X904270Y758510D02*
Y804020D01*
X896700Y755375D02*
Y764050D01*
X888500Y772250D02*
X896700Y764050D01*
X878000Y772250D02*
X888500D01*
X877680Y735680D02*
Y754172D01*
X883269Y759760D01*
X771927Y704500D02*
X811266D01*
X770333Y708620D02*
X770372D01*
X791880Y735880D02*
X812146D01*
X781502Y719750D02*
X825500D01*
X770372Y708620D02*
X781502Y719750D01*
X793000Y726750D02*
X801250D01*
X802250Y727750D01*
X615530Y630637D02*
X616750Y631857D01*
X933095Y807750D02*
X938500D01*
X930345Y810500D02*
X933095Y807750D01*
X943526Y912160D02*
X963290Y892396D01*
X787194Y912160D02*
X943526D01*
X782550Y916804D02*
X787194Y912160D01*
X630893Y896000D02*
X642500D01*
X625930Y879114D02*
Y891037D01*
X630893Y896000D01*
X633000Y882750D02*
Y888250D01*
Y882750D02*
X636750Y879000D01*
X625930Y879114D02*
X631750Y873294D01*
X636750Y861000D02*
Y879000D01*
X601750Y841750D02*
X607250Y836250D01*
X811266Y704500D02*
X819250Y696516D01*
X596750Y748710D02*
X651137D01*
X584964Y752750D02*
X649464D01*
X651137Y748710D02*
X670847Y768420D01*
X649464Y752750D02*
X669173Y772460D01*
X647790Y756790D02*
X667500Y776500D01*
X583290Y756790D02*
X647790D01*
X565000Y642500D02*
Y716960D01*
X596750Y748710D01*
X557220Y725007D02*
X584964Y752750D01*
X557220Y632530D02*
Y725007D01*
Y632530D02*
X558500Y631250D01*
X550250Y723750D02*
X583290Y756790D01*
X550250Y642500D02*
Y723750D01*
X647938Y709545D02*
X653174Y714781D01*
X658938Y699643D02*
X670037Y710741D01*
X674189Y701393D02*
X679296Y706500D01*
X674189Y690732D02*
Y701393D01*
X694000Y809250D02*
X706710Y796540D01*
X643981Y763731D02*
X672750Y792500D01*
X566033Y763731D02*
X643981D01*
X566003Y763760D02*
X566033Y763731D01*
X572730Y608270D02*
X595250Y585750D01*
X572730Y608270D02*
Y712087D01*
X837016Y594752D02*
Y605266D01*
X717877Y601972D02*
X761921D01*
X595250Y585750D02*
X701655D01*
X647938Y691248D02*
Y709545D01*
X730261Y731761D02*
Y742011D01*
X730375Y742125D02*
X765530Y777280D01*
X795607Y780500D02*
X812026D01*
X792387Y777280D02*
X795607Y780500D01*
X765530Y777280D02*
X792387D01*
X840036Y952750D02*
X844017Y948770D01*
X819650Y952750D02*
X840036D01*
X804900Y967500D02*
X819650Y952750D01*
X755750Y917250D02*
X764000Y909000D01*
X755750Y917250D02*
Y943750D01*
X779500Y967500D01*
X940094Y940670D02*
X962670Y963246D01*
X830300Y967500D02*
X841176D01*
X851446Y977770D01*
X956654D01*
X962670Y971754D01*
Y963246D02*
Y971754D01*
X888228Y919268D02*
X921210Y952250D01*
X814015Y919268D02*
X888228D01*
X804750Y831750D02*
X825500D01*
X701750Y852216D02*
Y861000D01*
Y852216D02*
X715500Y838466D01*
X936400Y952250D02*
X952150Y968000D01*
X921210Y952250D02*
X936400D01*
X885720Y926970D02*
X926750Y968000D01*
X985774Y800012D02*
X986286D01*
X986530Y799768D01*
X998950Y773900D02*
X1001561Y776511D01*
X998650Y773900D02*
X998950D01*
X1001561Y776511D02*
X1003775D01*
X1009287Y795000D02*
X1010275Y794012D01*
X994610Y780323D02*
X1009287Y795000D01*
X959000Y703750D02*
X975500D01*
X680750Y944750D02*
Y956000D01*
Y944750D02*
X681500Y944000D01*
X661250Y959250D02*
X661500Y959500D01*
X661250Y946500D02*
Y959250D01*
X701655Y585750D02*
X717877Y601972D01*
X629937Y678748D02*
X631750Y676935D01*
X629937Y678748D02*
Y712188D01*
X631750Y669000D02*
Y676935D01*
X636993Y681756D02*
X637257D01*
X636750Y682000D02*
X636993Y681756D01*
X629937Y712188D02*
X632757Y715008D01*
X629937Y714938D02*
X630125Y714750D01*
X630383Y715008D01*
X654298Y706048D02*
X655508Y707258D01*
X658938Y693372D02*
Y699643D01*
X666508Y696507D02*
X666750Y696265D01*
X681759Y698257D02*
X692276D01*
X603547Y716453D02*
Y716490D01*
X601750Y669000D02*
Y708430D01*
X596577Y713603D02*
X601750Y708430D01*
X603547Y716453D02*
X611750Y708250D01*
X596577Y713603D02*
Y719377D01*
X605001Y723460D02*
X611800Y730259D01*
X600660Y723460D02*
X605001D01*
X596577Y719377D02*
X600660Y723460D01*
X611800Y730259D02*
X612256D01*
X589750Y647500D02*
X591500Y645750D01*
X589750Y647500D02*
Y647750D01*
X591750Y649750D01*
Y669000D01*
X938750Y590000D02*
X939250Y590500D01*
Y600750D01*
X956250Y613750D02*
X959001Y610999D01*
X939250Y613750D02*
X956250D01*
X820750Y594750D02*
X878080Y652080D01*
X602250Y596000D02*
Y603500D01*
X591250Y614500D02*
X602250Y603500D01*
X963290Y803135D02*
Y892396D01*
X1130750Y734750D02*
Y826750D01*
X1129750Y733750D02*
X1130750Y734750D01*
X1102000Y855500D02*
X1130750Y826750D01*
X1113251Y738749D02*
X1168751Y683249D01*
X1109251Y738749D02*
X1113251D01*
X1094649D02*
X1109251D01*
X1082500Y726600D02*
X1094649Y738749D01*
X958650Y854495D02*
Y890474D01*
X954010Y857855D02*
Y888552D01*
X949370Y861215D02*
Y886630D01*
X643298Y689326D02*
X646750Y685874D01*
Y669000D02*
Y685874D01*
X686750Y680997D02*
X692509Y686757D01*
X654298Y691450D02*
Y706048D01*
Y691450D02*
X656750Y688998D01*
Y669000D02*
Y688998D01*
X676750Y682500D02*
X682000Y687750D01*
X692276Y698257D02*
X700079Y690454D01*
X671750Y688293D02*
X674189Y690732D01*
X671750Y669000D02*
Y688293D01*
X676750Y669000D02*
Y682500D01*
X686750Y669000D02*
Y680997D01*
X611750Y669000D02*
Y708250D01*
X586750Y716250D02*
X601750Y731250D01*
X650070Y885820D02*
Y900180D01*
X647000Y882750D02*
X650070Y885820D01*
X641750Y861000D02*
Y877500D01*
X647000Y882750D01*
X635000Y915250D02*
X650070Y900180D01*
X770750Y936750D02*
X785250D01*
X770750Y929500D02*
Y936750D01*
X666750Y893294D02*
X675206Y901750D01*
X666750Y861000D02*
Y893294D01*
X635000Y909750D02*
Y915250D01*
X825250Y800000D02*
X825500Y799750D01*
X811500Y800000D02*
X825250D01*
X798250Y807750D02*
X825500D01*
X796000Y805500D02*
X798250Y807750D01*
X772763Y821263D02*
X792000Y840500D01*
X805250Y788750D02*
X808250Y791750D01*
X825500D01*
X815276Y783750D02*
X825500D01*
X885250Y736750D02*
Y749750D01*
X836370Y687870D02*
X885250Y736750D01*
X836370Y666405D02*
Y687870D01*
X696750Y669000D02*
Y679814D01*
X700079Y683143D01*
Y690454D01*
X666750Y669000D02*
Y696265D01*
X651960Y669210D02*
Y687226D01*
X658938Y693372D02*
X661688Y690621D01*
Y669062D02*
Y690621D01*
X641750Y650750D02*
Y669000D01*
X631390Y654856D02*
X636750Y660216D01*
X819250Y695750D02*
X825500D01*
Y671750D02*
X831025D01*
X836370Y666405D01*
X850750Y768250D02*
X852570Y770070D01*
X836370Y749215D02*
Y799076D01*
X830905Y743750D02*
X836370Y749215D01*
X825500Y743750D02*
X830905D01*
X825500Y719750D02*
X830905D01*
X651750Y669000D02*
X651960Y669210D01*
X661688Y669062D02*
X661750Y669000D01*
X691750Y811500D02*
X694000Y809250D01*
X683000D02*
Y810500D01*
X686750Y814250D01*
X661750Y861000D02*
Y899000D01*
X656750Y861000D02*
Y911500D01*
X675206Y901750D02*
X675750D01*
X661750Y899000D02*
X664500Y901750D01*
X656750Y911500D02*
X660500Y915250D01*
X659500D02*
X660500D01*
X614820Y824570D02*
Y839386D01*
X614750Y824500D02*
X614820Y824570D01*
X621750Y852141D02*
Y861000D01*
X606750Y847456D02*
X614820Y839386D01*
X616750Y850580D02*
Y861000D01*
X606750Y847456D02*
Y861000D01*
X611750Y849017D02*
Y861000D01*
X601750Y841750D02*
Y861000D01*
X679750Y915250D02*
X681500Y917000D01*
X635000Y946250D02*
X659500D01*
X591250Y614500D02*
X591500Y614750D01*
X809250Y661500D02*
X811500Y663750D01*
X825500D01*
X805750Y679750D02*
X825500D01*
X802250Y727750D02*
X825500D01*
X805750Y772750D02*
X810750Y767750D01*
X825500D01*
X938500Y703750D02*
X959000D01*
X938500Y751750D02*
X959000D01*
X1045920Y690020D02*
X1082500Y726600D01*
X1168751Y675999D02*
X1172750Y672000D01*
X1101501Y651999D02*
X1114751Y638749D01*
Y608249D02*
Y638749D01*
X1168751Y675999D02*
Y683249D01*
X1172750Y655750D02*
Y672000D01*
X1101501Y675999D02*
X1137751D01*
Y657999D02*
Y675999D01*
Y657999D02*
X1140001Y655749D01*
X1140002Y655750D02*
X1158750D01*
X1085500Y855500D02*
X1102000D01*
X653000Y812500D02*
X653757Y811742D01*
X660250Y791500D02*
X661328Y792578D01*
Y808783D01*
X631750Y861000D02*
X631772Y861022D01*
Y871323D01*
X586750Y669000D02*
Y716250D01*
X616730Y654270D02*
X616750Y654250D01*
X825500Y855750D02*
X830905D01*
X821000Y823750D02*
X825500D01*
X693010Y931240D02*
X703500Y920750D01*
X822250Y815750D02*
X825500D01*
X642000Y651000D02*
X652750D01*
X641750Y650750D02*
X642000Y651000D01*
X825500Y847750D02*
X835000D01*
X841010Y853760D01*
Y876217D01*
X830905Y855750D02*
X836370Y861215D01*
Y874285D01*
X686750Y861000D02*
Y869784D01*
X690766Y925750D02*
X695250Y921266D01*
Y899156D02*
Y921266D01*
X938500Y855750D02*
X943905D01*
X949370Y861215D01*
X938500Y847750D02*
X943905D01*
X954010Y857855D01*
X938500Y839750D02*
X943905D01*
X958650Y854495D01*
X671750Y861000D02*
Y874469D01*
X676750Y861000D02*
Y872907D01*
X681750Y861000D02*
Y871346D01*
X927500Y863750D02*
X938500D01*
X671750Y874469D02*
X684071Y886790D01*
X812146Y735880D02*
X820016Y743750D01*
X825500D01*
X613750Y882784D02*
X626370Y870164D01*
Y869860D02*
Y870164D01*
Y869860D02*
X626674D01*
X626750Y869784D01*
Y861000D02*
Y869784D01*
X661328Y808783D02*
X676750Y824206D01*
X653000Y812500D02*
X671750Y831250D01*
X653757Y809513D02*
Y811742D01*
X691750Y811500D02*
Y861000D01*
X704750Y809250D02*
Y838250D01*
X671750Y831250D02*
Y861000D01*
X676750Y824206D02*
Y861000D01*
X696750Y846250D02*
X704750Y838250D01*
X696750Y846250D02*
Y861000D01*
X686750Y814250D02*
Y861000D01*
X681750Y819956D02*
Y861000D01*
X646750Y851500D02*
Y861000D01*
X631750D02*
Y873294D01*
X842250Y815750D02*
X855750Y829250D01*
X825500Y815750D02*
X842250D01*
X825500Y823750D02*
X830905D01*
X852750Y845595D01*
Y846250D01*
X824750Y840500D02*
X825500Y839750D01*
X792000Y840500D02*
X824750D01*
X852570Y770070D02*
X856570D01*
X869250Y762500D02*
Y776000D01*
X911688Y831750D02*
X938500D01*
X910250Y823750D02*
X938500D01*
X856570Y770070D02*
X910250Y823750D01*
X938500Y783750D02*
X943905D01*
X963290Y803135D01*
X901134Y750940D02*
X907405D01*
X896700Y755375D02*
X901134Y750940D01*
X869250Y776000D02*
X909000Y815750D01*
X938500D01*
X910750Y810500D02*
X930345D01*
X922500Y791750D02*
X938500D01*
X920750Y793500D02*
X922500Y791750D01*
X916000Y801250D02*
X937000D01*
X938500Y799750D01*
X907405Y750940D02*
X911840Y755375D01*
Y797090D01*
X916000Y801250D01*
X596757Y835007D02*
X604250Y827514D01*
X596750Y835000D02*
Y861000D01*
X604250Y825750D02*
Y827514D01*
X584004Y831264D02*
Y834004D01*
X586750Y836750D01*
Y861000D01*
X660500Y915250D02*
X679750D01*
X660500D02*
Y917500D01*
X695250Y899156D02*
X696889Y897517D01*
X671772Y809978D02*
X681750Y819956D01*
X621750Y628500D02*
X622500Y627750D01*
X626750Y653544D02*
Y669000D01*
X621750Y648544D02*
X626750Y653544D01*
X621750Y628500D02*
Y648544D01*
X631390Y631693D02*
Y654856D01*
X647938Y691248D02*
X651960Y687226D01*
X631390Y631693D02*
X635603Y627480D01*
X622500Y627750D02*
X626810Y623440D01*
X812026Y780500D02*
X815276Y783750D01*
X1020525Y814119D02*
Y817263D01*
X626810Y623440D02*
X815513D01*
X635603Y627480D02*
X813840D01*
X930110Y743750D01*
X938500D01*
X815513Y623440D02*
X911823Y719750D01*
X938500D01*
X817187Y619400D02*
X893537Y695750D01*
X938500D01*
X990570Y784164D02*
X1020525Y814119D01*
X646750Y851500D02*
X652250Y846000D01*
X657000D01*
X825500Y695750D02*
X837750D01*
X877680Y735680D01*
X631000Y942250D02*
X635000Y946250D01*
X612250Y942250D02*
X631000D01*
X894030Y849030D02*
X919036D01*
X920520Y850515D01*
X836370Y799076D02*
X893544Y856250D01*
X1093231Y660269D02*
X1101501Y651999D01*
X1032250Y657500D02*
X1035019Y660269D01*
X1093231D01*
X1071750Y653250D02*
X1081250D01*
X1082501Y651999D01*
X1079677Y628000D02*
Y649175D01*
X1082501Y651999D01*
X918750Y607250D02*
Y623000D01*
X925250Y629500D01*
X899250Y625500D02*
X910750D01*
X895250Y629500D02*
X899250Y625500D01*
X959000Y751750D02*
X960000Y750750D01*
X973250D01*
X837016Y605266D02*
X879790Y648040D01*
X901720Y569673D02*
X905863Y565530D01*
X875750Y619750D02*
X898750Y596750D01*
X810000Y594750D02*
X820750D01*
X879790Y621710D02*
X908750Y592750D01*
X907001Y572751D02*
X907252Y572500D01*
X915720Y569613D02*
Y575780D01*
X911637Y565530D02*
X915720Y569613D01*
X905863Y565530D02*
X911637D01*
X907252Y572500D02*
X908750D01*
X789250Y679500D02*
X805500D01*
X805750Y679750D01*
X811500Y649500D02*
Y659250D01*
X809250Y661500D02*
X811500Y659250D01*
X830905Y719750D02*
X840750Y729595D01*
Y795750D01*
X894030Y849030D01*
X854250Y789000D02*
X868938D01*
X911688Y831750D01*
X878080Y652080D02*
X943580D01*
X879790Y648040D02*
X945253D01*
X940750Y644000D02*
X946927D01*
X942423Y639960D02*
X948600D01*
X943022Y622004D02*
Y628668D01*
X1002910Y690191D02*
Y760694D01*
X998870Y691864D02*
Y759020D01*
X994830Y693538D02*
Y757347D01*
X990790Y695211D02*
Y755673D01*
X995750Y629500D02*
Y675683D01*
X1006830Y686763D01*
X943022Y628668D02*
X1002790Y688436D01*
Y690071D01*
X1002910Y690191D01*
X948600Y639960D02*
X998750Y690110D01*
Y691744D01*
X998870Y691864D01*
X946927Y644000D02*
X994710Y691783D01*
Y693418D01*
X994830Y693538D01*
X945253Y648040D02*
X990670Y693457D01*
Y695091D01*
X990790Y695211D01*
X943580Y652080D02*
X986630Y695130D01*
Y696764D01*
X986750Y696884D01*
Y754000D01*
X794901Y581282D02*
X801409Y587790D01*
X796575Y577242D02*
X803083Y583750D01*
X761921Y601972D02*
X782611Y581282D01*
X794901D01*
X738512Y595002D02*
X756272Y577242D01*
X796575D01*
X760000Y559000D02*
X916856D01*
X928106Y570250D01*
X643250Y810500D02*
Y830641D01*
X621750Y852141D02*
X643250Y830641D01*
X624249Y816999D02*
Y836518D01*
X611750Y849017D02*
X624249Y836518D01*
X632750Y810500D02*
Y834579D01*
X616750Y850580D02*
X632750Y834579D01*
X591750Y828000D02*
X593750Y826000D01*
X591750Y828000D02*
Y861000D01*
X613750Y882784D02*
Y915016D01*
X624484Y925750D01*
X690766D01*
X581750Y861000D02*
Y888750D01*
X624240Y931240D01*
X693010D01*
X576750Y861000D02*
Y890000D01*
X622630Y935880D01*
X694932D01*
X703500Y902250D02*
Y920750D01*
Y902250D02*
X706000Y899750D01*
X711750Y911200D02*
Y919062D01*
X694932Y935880D02*
X711750Y919062D01*
X803086Y924300D02*
X805756Y926970D01*
X885720D01*
X792540Y857290D02*
X809250Y874000D01*
X785077Y857290D02*
X792540D01*
X820095Y863750D02*
X825500D01*
X786750Y853250D02*
X809595D01*
X820095Y863750D01*
X687750Y649500D02*
X691230Y652980D01*
Y660147D01*
X691750Y660667D01*
X701750Y669000D02*
Y677228D01*
X710270Y685747D01*
X934500Y921750D02*
X940094Y927344D01*
Y940670D01*
X1006830Y686763D02*
Y688397D01*
X1008453Y690020D01*
X1045920D01*
X621750Y669000D02*
Y714508D01*
X643298Y689326D02*
Y715508D01*
X616730Y654270D02*
Y669000D01*
X616750Y631857D02*
Y634254D01*
Y654250D01*
X636750Y669000D02*
Y681756D01*
Y682000D01*
X893544Y856250D02*
X911750D01*
X819250Y695750D02*
Y696516D01*
D36*
X894650Y568073D02*
Y568646D01*
X894046Y569250D02*
X894650Y568646D01*
X728500Y649500D02*
X731000D01*
X732000Y650500D01*
X743750D01*
X536900Y633100D02*
Y901900D01*
Y633100D02*
X537000Y633000D01*
X540500Y754296D02*
X561675Y775471D01*
X540500Y635098D02*
Y754296D01*
Y635098D02*
X594098Y581500D01*
X537000Y633000D02*
X584125Y585875D01*
X592100Y577900D02*
X699256D01*
X584125Y585875D02*
X592100Y577900D01*
X594098Y581500D02*
X700747D01*
X730261Y742011D02*
X730375Y742125D01*
X729500Y907779D02*
X732261Y905017D01*
X733483Y894250D02*
X735250D01*
X725500Y902233D02*
X733483Y894250D01*
X725500Y902233D02*
Y939750D01*
X729500Y907779D02*
Y941000D01*
X561675Y775471D02*
Y918925D01*
X711750Y669000D02*
X722750D01*
Y681500D01*
X728500Y649500D02*
Y663250D01*
X722750Y669000D02*
X728500Y663250D01*
X959001Y610999D02*
Y612751D01*
X964750Y618500D01*
Y629500D01*
X798157Y573422D02*
X798185Y573450D01*
X799648Y569822D02*
X799676Y569850D01*
X801139Y566222D02*
X801168Y566250D01*
X700747Y581500D02*
X712425Y569822D01*
X722000Y595000D02*
X743578Y573422D01*
X699256Y577900D02*
X710934Y566222D01*
X743578Y573422D02*
X798157D01*
X712425Y569822D02*
X799648D01*
X710934Y566222D02*
X801139D01*
X801168Y566250D02*
X877009D01*
X798185Y573450D02*
X875217D01*
X881269Y579501D01*
X877009Y566250D02*
X880439Y562820D01*
X887616D01*
X894046Y569250D01*
X884470Y569850D02*
X884750Y569570D01*
X799676Y569850D02*
X884470D01*
X561675Y918925D02*
X612500Y969750D01*
X695500D01*
X725500Y939750D01*
X608350Y973350D02*
X697150D01*
X536900Y901900D02*
X608350Y973350D01*
X697150D02*
X729500Y941000D01*
D40*
X977800Y937500D02*
D03*
X952400D02*
D03*
X514000Y671350D02*
D03*
Y645950D02*
D03*
X663200Y564000D02*
D03*
X637800D02*
D03*
X612400D02*
D03*
X855700Y967500D02*
D03*
X830300D02*
D03*
X804900D02*
D03*
X805200Y937500D02*
D03*
X830600D02*
D03*
X952400Y967500D02*
D03*
X977800D02*
D03*
X1067900Y937500D02*
D03*
D41*
X927000D02*
D03*
X586250Y564000D02*
D03*
X779500Y967500D02*
D03*
X856000Y937500D02*
D03*
X927000Y967500D02*
D03*
X1042500Y937500D02*
D03*
D42*
X552875Y742750D02*
D03*
Y787250D02*
D03*
X1147625Y786750D02*
D03*
Y742250D02*
D03*
D43*
X521625Y724125D02*
D03*
Y805875D02*
D03*
X1178875Y805375D02*
D03*
Y723625D02*
D03*
D44*
X1160000Y590000D02*
D03*
Y940000D02*
D03*
X540000D02*
D03*
Y590000D02*
D03*
D45*
X514000Y696750D02*
D03*
D46*
X894650Y568073D02*
D03*
X898750Y592750D02*
D03*
X908750Y582750D02*
D03*
X800015Y595002D02*
D03*
X771500Y652750D02*
D03*
X687750Y649500D02*
D03*
X970500Y598250D02*
D03*
X1027790Y585835D02*
D03*
X1055770Y586105D02*
D03*
X1028040Y557460D02*
D03*
X1055020Y557730D02*
D03*
X608520Y792230D02*
D03*
X636500Y792500D02*
D03*
X684750Y566500D02*
D03*
X698250Y561250D02*
D03*
X982500Y898750D02*
D03*
X1007480Y899020D02*
D03*
X983000Y870375D02*
D03*
X1007730Y870645D02*
D03*
X1070000Y785750D02*
D03*
X1043020Y785480D02*
D03*
X1070750Y814125D02*
D03*
X1042770Y813855D02*
D03*
X1068500Y842500D02*
D03*
X1043020Y842230D02*
D03*
X1067750Y870875D02*
D03*
X1043020Y870605D02*
D03*
X1067500Y899250D02*
D03*
X1042520Y898980D02*
D03*
X900500Y664250D02*
D03*
X660000Y600000D02*
D03*
X640000D02*
D03*
X620000D02*
D03*
X610000Y617250D02*
D03*
X738750Y964750D02*
D03*
X730250Y780750D02*
D03*
X740750Y822250D02*
D03*
X730619Y821980D02*
D03*
X770513Y731259D02*
D03*
X778764Y742759D02*
D03*
X760500Y732250D02*
D03*
X727761Y731759D02*
D03*
X648250Y734250D02*
D03*
X744750Y726500D02*
D03*
X883269Y759760D02*
D03*
X793000Y726750D02*
D03*
X758250Y686000D02*
D03*
X770000D02*
D03*
X633000Y888250D02*
D03*
X607250Y836250D02*
D03*
X565000Y642500D02*
D03*
X558500Y631250D02*
D03*
X550250Y642500D02*
D03*
X779000Y594750D02*
D03*
X792014Y588252D02*
D03*
X837016Y594752D02*
D03*
X738512Y595002D02*
D03*
X566003Y763760D02*
D03*
X934500Y921750D02*
D03*
X941021Y880016D02*
D03*
X844017Y948770D02*
D03*
X803086Y924300D02*
D03*
X764000Y909000D02*
D03*
X804765Y829014D02*
D03*
X814015Y919268D02*
D03*
X782550Y916804D02*
D03*
X985774Y800012D02*
D03*
X986500Y828000D02*
D03*
X1003775Y776511D02*
D03*
X1010275Y794012D02*
D03*
X975500Y703750D02*
D03*
X680750Y956000D02*
D03*
X661500Y959500D02*
D03*
X637257Y681756D02*
D03*
X643757Y715508D02*
D03*
X632757Y715008D02*
D03*
X655508Y707258D02*
D03*
X666508Y696507D02*
D03*
X681759Y698257D02*
D03*
X603547Y716490D02*
D03*
X622006Y714508D02*
D03*
X602250Y596000D02*
D03*
X704250Y760500D02*
D03*
X971000Y833000D02*
D03*
X1129750Y733750D02*
D03*
X692509Y686757D02*
D03*
X710760Y685257D02*
D03*
X682000Y687750D02*
D03*
X601750Y731250D02*
D03*
X612256Y730259D02*
D03*
X785250Y936750D02*
D03*
X647000Y882750D02*
D03*
X811500Y800000D02*
D03*
X772763Y821263D02*
D03*
X805250Y788750D02*
D03*
X789500Y784250D02*
D03*
X885250Y749750D02*
D03*
X904270Y758510D02*
D03*
X850750Y768250D02*
D03*
X869250Y762500D02*
D03*
X683000Y809250D02*
D03*
X715500Y809500D02*
D03*
X694000Y809250D02*
D03*
X675750Y901750D02*
D03*
X711750Y911200D02*
D03*
X664500Y901750D02*
D03*
X632750Y810500D02*
D03*
X614750Y824500D02*
D03*
X624249Y816999D02*
D03*
X706000Y899750D02*
D03*
X722750Y681500D02*
D03*
X1002000Y583750D02*
D03*
X1085500Y855500D02*
D03*
X1091750Y637750D02*
D03*
X1103500Y694000D02*
D03*
X1044750Y640500D02*
D03*
X1120500Y694250D02*
D03*
X660250Y791500D02*
D03*
X652750Y651000D02*
D03*
X695259Y897517D02*
D03*
X672500Y809250D02*
D03*
X653757Y809513D02*
D03*
X704750Y809250D02*
D03*
X855750Y829250D02*
D03*
X852750Y846250D02*
D03*
X643250Y810500D02*
D03*
X878000Y772250D02*
D03*
X920750Y793500D02*
D03*
X642500Y896000D02*
D03*
X604250Y825750D02*
D03*
X593750Y826000D02*
D03*
X584004Y831264D02*
D03*
X735250Y894250D02*
D03*
X732261Y905017D02*
D03*
X622500Y627750D02*
D03*
X614756Y634254D02*
D03*
X746250Y650500D02*
D03*
X1020525Y817263D02*
D03*
X657000Y846000D02*
D03*
X612250Y942250D02*
D03*
X722000Y595000D02*
D03*
X911750Y856000D02*
D03*
X920520Y850515D02*
D03*
X1032250Y657500D02*
D03*
X1030750Y602500D02*
D03*
X1041250D02*
D03*
X1052000D02*
D03*
X1062750Y602250D02*
D03*
X1071750Y653250D02*
D03*
X943022Y622004D02*
D03*
X910750Y625500D02*
D03*
X973250Y764250D02*
D03*
Y750750D02*
D03*
X810000Y594750D02*
D03*
X908750Y592750D02*
D03*
Y572500D02*
D03*
X881269Y579501D02*
D03*
X789250Y679500D02*
D03*
X811500Y649500D02*
D03*
X854250Y789000D02*
D03*
X760000Y559250D02*
D03*
X884750Y569570D02*
D03*
D59*
X1172750Y655750D02*
D03*
X1158750D02*
D03*
D60*
X918750Y607250D02*
D03*
X939250Y600750D02*
D03*
Y613750D02*
D03*
D61*
X938500Y871750D02*
D03*
Y863750D02*
D03*
Y855750D02*
D03*
Y847750D02*
D03*
Y839750D02*
D03*
Y831750D02*
D03*
Y823750D02*
D03*
Y815750D02*
D03*
Y807750D02*
D03*
Y799750D02*
D03*
Y791750D02*
D03*
Y783750D02*
D03*
Y775750D02*
D03*
Y767750D02*
D03*
Y759750D02*
D03*
Y751750D02*
D03*
Y743750D02*
D03*
Y735750D02*
D03*
Y727750D02*
D03*
Y719750D02*
D03*
Y711750D02*
D03*
Y703750D02*
D03*
Y695750D02*
D03*
Y687750D02*
D03*
Y679750D02*
D03*
Y671750D02*
D03*
Y663750D02*
D03*
X825500Y871750D02*
D03*
Y863750D02*
D03*
Y855750D02*
D03*
Y847750D02*
D03*
Y839750D02*
D03*
Y831750D02*
D03*
Y823750D02*
D03*
Y815750D02*
D03*
Y807750D02*
D03*
Y799750D02*
D03*
Y791750D02*
D03*
Y783750D02*
D03*
Y775750D02*
D03*
Y767750D02*
D03*
Y759750D02*
D03*
Y751750D02*
D03*
Y743750D02*
D03*
Y735750D02*
D03*
Y727750D02*
D03*
Y719750D02*
D03*
Y711750D02*
D03*
Y703750D02*
D03*
Y695750D02*
D03*
Y687750D02*
D03*
Y679750D02*
D03*
Y671750D02*
D03*
Y663750D02*
D03*
D62*
X576750Y861000D02*
D03*
X581750D02*
D03*
X586750D02*
D03*
X591750D02*
D03*
X596750D02*
D03*
X601750D02*
D03*
X606750D02*
D03*
X611750D02*
D03*
X616750D02*
D03*
X621750D02*
D03*
X626750D02*
D03*
X631750D02*
D03*
X636750D02*
D03*
X641750D02*
D03*
X646750D02*
D03*
X651750D02*
D03*
X656750D02*
D03*
X661750D02*
D03*
X666750D02*
D03*
X671750D02*
D03*
X676750D02*
D03*
X681750D02*
D03*
X686750D02*
D03*
X691750D02*
D03*
X696750D02*
D03*
X701750D02*
D03*
X706750D02*
D03*
X711750D02*
D03*
X576750Y669000D02*
D03*
X581750D02*
D03*
X586750D02*
D03*
X591750D02*
D03*
X596750D02*
D03*
X601750D02*
D03*
X606750D02*
D03*
X611750D02*
D03*
X616750D02*
D03*
X621750D02*
D03*
X626750D02*
D03*
X631750D02*
D03*
X636750D02*
D03*
X641750D02*
D03*
X646750D02*
D03*
X651750D02*
D03*
X656750D02*
D03*
X661750D02*
D03*
X666750D02*
D03*
X671750D02*
D03*
X676750D02*
D03*
X681750D02*
D03*
X686750D02*
D03*
X691750D02*
D03*
X696750D02*
D03*
X701750D02*
D03*
X706750D02*
D03*
X711750D02*
D03*
D63*
X1051100Y612600D02*
D03*
M02*
