G04 Layer_Physical_Order=1*
G04 Layer_Color=255*
%FSLAX44Y44*%
%MOMM*%
G71*
G01*
G75*
%ADD10C,1.2700*%
%ADD11R,1.1000X1.1000*%
%ADD12R,0.6500X1.1000*%
%ADD13R,1.7000X0.9500*%
%ADD14R,0.3048X1.4986*%
%ADD15R,1.8034X2.2098*%
%ADD16R,1.0000X0.9000*%
%ADD17R,0.7000X0.8500*%
%ADD18R,1.4000X1.5000*%
%ADD19R,0.9500X1.7000*%
%ADD20R,2.0000X5.5000*%
%ADD21R,1.3500X0.4000*%
%ADD22R,1.9000X1.8000*%
%ADD23R,0.9000X1.0000*%
%ADD24R,1.1500X1.8000*%
%ADD25R,1.9000X1.3500*%
%ADD26R,1.8000X1.1500*%
%ADD27R,1.5000X1.4000*%
%ADD28R,0.6500X0.9000*%
%ADD29R,1.3500X1.9000*%
%ADD30R,3.5600X1.4000*%
%ADD31R,1.2200X0.9100*%
%ADD32R,1.3000X1.5500*%
%ADD33O,1.5500X0.2500*%
%ADD34O,0.2500X1.5500*%
%ADD35C,0.2540*%
%ADD36C,0.2100*%
%ADD37C,0.5600*%
%ADD38C,0.2010*%
%ADD39R,1.9000X1.4880*%
%ADD40C,1.5000*%
%ADD41R,1.5000X1.5000*%
%ADD42O,1.2500X1.0500*%
%ADD43O,1.9000X1.2250*%
%ADD44C,3.2000*%
%ADD45R,1.5000X1.5000*%
%ADD46C,0.8400*%
G36*
X1160266Y903740D02*
X1159818Y902392D01*
X1158601Y901887D01*
X1157193Y900807D01*
X1156112Y899399D01*
X1155433Y897759D01*
X1155369Y897270D01*
X1162000D01*
Y896000D01*
X1163270D01*
Y889369D01*
X1163759Y889433D01*
X1165399Y890112D01*
X1166807Y891193D01*
X1167887Y892601D01*
X1168391Y893818D01*
X1169740Y894266D01*
X1178426Y885580D01*
Y847228D01*
X1177252Y846742D01*
X1173747Y850247D01*
X1172831Y850859D01*
X1171750Y851074D01*
X1171750Y851074D01*
X1140170D01*
X1133747Y857497D01*
X1132831Y858109D01*
X1131750Y858324D01*
X1131750Y858324D01*
X1122750D01*
Y861500D01*
X1111324D01*
Y873000D01*
X1115000D01*
Y893000D01*
X1103352D01*
X1102567Y894270D01*
X1102806Y894750D01*
X1114500D01*
Y914926D01*
X1128960D01*
Y906520D01*
X1145540D01*
Y914926D01*
X1149080D01*
X1160266Y903740D01*
D02*
G37*
G36*
X729212Y674362D02*
X729663Y674060D01*
X729278Y672790D01*
X726770D01*
Y665750D01*
X725500D01*
Y664480D01*
X717960D01*
Y660790D01*
X710270D01*
Y653500D01*
X707730D01*
Y660790D01*
X699547D01*
X698374Y660973D01*
Y666500D01*
Y673798D01*
X699108Y674102D01*
X699584Y675250D01*
X703480D01*
X703942Y673980D01*
X703113Y672899D01*
X702433Y671260D01*
X702369Y670770D01*
X715631D01*
X715566Y671260D01*
X714887Y672899D01*
X714058Y673980D01*
X714520Y675250D01*
X719000D01*
X719000Y675750D01*
X727823D01*
X729212Y674362D01*
D02*
G37*
G36*
X1070500Y699000D02*
X1070500Y671250D01*
X1034250D01*
X1034250Y699000D01*
X1070500Y699000D01*
D02*
G37*
G36*
X774314Y910886D02*
X774900Y910531D01*
Y882481D01*
X773630Y881802D01*
X773573Y881840D01*
X772500Y882054D01*
X771427Y881840D01*
X770517Y881233D01*
X769142Y881460D01*
X769000Y881555D01*
Y893500D01*
X756000D01*
Y892959D01*
X754730Y892280D01*
X753474Y893119D01*
X751250Y893562D01*
X749026Y893119D01*
X747141Y891860D01*
X745881Y889974D01*
X745568Y888404D01*
X744196Y887981D01*
X740432Y891745D01*
X740619Y892026D01*
X741062Y894250D01*
X740619Y896474D01*
X739360Y898360D01*
X737474Y899619D01*
X736899Y899734D01*
X736673Y900237D01*
X736504Y901107D01*
X737379Y902417D01*
X739025D01*
X739227Y902377D01*
X739227Y902377D01*
X739228Y902377D01*
X739432Y902418D01*
X745308D01*
X746303Y902616D01*
X747146Y903179D01*
X751904Y907937D01*
X751921Y907941D01*
X752837Y908553D01*
X753690Y909406D01*
X754960Y908880D01*
Y904770D01*
X770040D01*
Y909339D01*
X770760Y909434D01*
X772399Y910113D01*
X773630Y911057D01*
X774314Y910886D01*
D02*
G37*
G36*
X685332Y892924D02*
X685692Y892384D01*
X690127Y887950D01*
X691043Y887338D01*
X692124Y887123D01*
X695133D01*
X717426Y864830D01*
Y861250D01*
X717426Y861250D01*
X717641Y860169D01*
X718253Y859253D01*
X733412Y844094D01*
X732886Y842824D01*
X729296D01*
X724123Y847997D01*
X723207Y848609D01*
X722126Y848824D01*
X722126Y848824D01*
X661968D01*
X661109Y850109D01*
X659224Y851369D01*
X657000Y851812D01*
X654776Y851369D01*
X652890Y850109D01*
X651631Y848224D01*
X651188Y846000D01*
X651631Y843776D01*
X652890Y841890D01*
X654776Y840631D01*
X657000Y840188D01*
X659224Y840631D01*
X661109Y841890D01*
X661968Y843176D01*
X720956D01*
X726129Y838003D01*
X726852Y837520D01*
X726795Y836686D01*
X726641Y836250D01*
X712500D01*
Y826185D01*
X711290Y826040D01*
X711230Y826040D01*
X709391D01*
X708998Y826816D01*
X708897Y827310D01*
X709887Y828601D01*
X710566Y830240D01*
X710631Y830730D01*
X697369D01*
X697433Y830240D01*
X698113Y828601D01*
X699103Y827310D01*
X699002Y826816D01*
X698609Y826040D01*
X696210D01*
Y820270D01*
X711290D01*
Y823605D01*
X712500Y823750D01*
X712560Y823750D01*
X732500D01*
Y827176D01*
X734869D01*
X735485Y826317D01*
X735626Y825906D01*
X735446Y825000D01*
X735660Y823927D01*
X736267Y823017D01*
Y821983D01*
X735660Y821073D01*
X735446Y820000D01*
X735660Y818927D01*
X736040Y818358D01*
X736182Y817500D01*
X736040Y816642D01*
X735660Y816073D01*
X735446Y815000D01*
X735660Y813927D01*
X736040Y813358D01*
X736182Y812500D01*
X736040Y811642D01*
X735660Y811073D01*
X735446Y810000D01*
X735660Y808927D01*
X736267Y808017D01*
Y806983D01*
X735660Y806073D01*
X735446Y805000D01*
X735660Y803927D01*
X736040Y803358D01*
X736182Y802500D01*
X736040Y801642D01*
X735660Y801073D01*
X735446Y800000D01*
X735660Y798927D01*
X736267Y798017D01*
Y796983D01*
X735660Y796073D01*
X735446Y795000D01*
X735660Y793927D01*
X736040Y793358D01*
X736182Y792500D01*
X736040Y791642D01*
X735660Y791073D01*
X735446Y790000D01*
X735660Y788927D01*
X736040Y788358D01*
X736182Y787500D01*
X736040Y786642D01*
X735660Y786073D01*
X735446Y785000D01*
X735626Y784094D01*
X735485Y783683D01*
X734869Y782824D01*
X732040D01*
Y784230D01*
X724500D01*
Y785500D01*
X723230D01*
Y792540D01*
X716960D01*
Y786096D01*
X715690Y785570D01*
X706833Y794427D01*
X705917Y795039D01*
X704836Y795254D01*
X704836Y795254D01*
X693962D01*
X693283Y796524D01*
X694119Y797776D01*
X694562Y800000D01*
X694706Y800176D01*
X697250D01*
Y797000D01*
X710250D01*
Y801246D01*
X712500D01*
Y796750D01*
X732500D01*
Y809250D01*
X712500D01*
Y806894D01*
X710250D01*
Y809000D01*
X697250D01*
Y805824D01*
X691750D01*
X690669Y805609D01*
X690462Y805471D01*
X688750Y805812D01*
X686526Y805369D01*
X685086Y804407D01*
X684139Y804414D01*
X683554Y804769D01*
X683177Y805333D01*
X683177Y805333D01*
X647324Y841186D01*
Y852314D01*
X648166Y853156D01*
X676730D01*
X676730Y853156D01*
X677811Y853371D01*
X678727Y853983D01*
X686327Y861582D01*
X687500Y861096D01*
Y857250D01*
X703500D01*
Y875750D01*
X687500D01*
Y869324D01*
X687250D01*
X686169Y869109D01*
X685253Y868497D01*
X675560Y858804D01*
X659540D01*
Y865230D01*
X641460D01*
Y862178D01*
X640287Y861692D01*
X638364Y863614D01*
Y890381D01*
X639634Y891059D01*
X640276Y890631D01*
X642500Y890188D01*
X644724Y890631D01*
X646609Y891890D01*
X647468Y893176D01*
X685080D01*
X685332Y892924D01*
D02*
G37*
G36*
X1181875Y664000D02*
X1100873D01*
X1097375Y667498D01*
Y684250D01*
X1181625D01*
X1181774Y684399D01*
X1181875Y664000D01*
D02*
G37*
G36*
X835816Y648440D02*
X837000Y647256D01*
Y636250D01*
X840176D01*
Y634218D01*
X838891Y633359D01*
X837631Y631474D01*
X837188Y629250D01*
X837631Y627026D01*
X838779Y625308D01*
X838885Y624842D01*
X838874Y624266D01*
X838740Y623713D01*
X833136Y618108D01*
X832572Y617265D01*
X832510Y616953D01*
X824052D01*
Y617993D01*
X821258D01*
Y607960D01*
X818718D01*
Y617993D01*
X816178D01*
Y607960D01*
X813638D01*
Y617993D01*
X811557D01*
X811031Y619263D01*
X820438Y628670D01*
X821002Y629514D01*
X821200Y630509D01*
Y635210D01*
X825730D01*
Y642750D01*
X827000D01*
Y644020D01*
X834040D01*
Y648296D01*
X834184Y648440D01*
X834715Y648566D01*
X835285D01*
X835816Y648440D01*
D02*
G37*
G36*
X1069941Y824174D02*
X1070694Y823194D01*
X1072102Y822113D01*
X1073034Y821727D01*
X1073434Y820760D01*
X1073370Y820271D01*
X1080001D01*
Y819001D01*
X1081271D01*
Y812370D01*
X1081690Y812425D01*
X1082026Y812412D01*
X1082960Y811788D01*
Y806960D01*
X1093230D01*
Y815250D01*
X1094500D01*
Y816520D01*
X1106040D01*
Y822750D01*
X1107710D01*
Y816770D01*
X1131790D01*
Y822750D01*
X1134000D01*
Y804000D01*
X1062839D01*
X1062426Y804928D01*
X1062366Y805270D01*
X1063388Y806602D01*
X1064067Y808241D01*
X1064132Y808731D01*
X1057501D01*
Y811271D01*
X1064132D01*
X1064067Y811760D01*
X1064468Y812727D01*
X1065400Y813113D01*
X1066808Y814194D01*
X1067888Y815602D01*
X1068567Y817241D01*
X1068632Y817731D01*
X1062001D01*
Y820271D01*
X1068632D01*
X1068567Y820760D01*
X1067888Y822400D01*
X1067580Y822801D01*
X1068011Y824124D01*
X1068790Y824460D01*
X1069941Y824174D01*
D02*
G37*
G36*
X919676Y921913D02*
Y919901D01*
X918406Y919375D01*
X878574Y959207D01*
X877657Y959819D01*
X876577Y960034D01*
X876577Y960034D01*
X864227D01*
X863601Y961304D01*
X864470Y962437D01*
X865482Y964879D01*
X865659Y966230D01*
X855700D01*
Y968770D01*
X865659D01*
X865482Y970121D01*
X864470Y972563D01*
X863440Y973906D01*
X864066Y975176D01*
X866413D01*
X919676Y921913D01*
D02*
G37*
G36*
X1046205Y799412D02*
X1047049Y798848D01*
X1048044Y798650D01*
X1101923D01*
X1105763Y794810D01*
X1105237Y793540D01*
X1105183Y793540D01*
X1105183Y793540D01*
X1105103Y793540D01*
X1095770D01*
Y786520D01*
X1106040D01*
X1106040Y792603D01*
Y792683D01*
D01*
X1106040Y792737D01*
X1106202Y792804D01*
X1107310Y793263D01*
X1108750Y791823D01*
Y776250D01*
X1130699D01*
X1130750Y776250D01*
X1131897Y775952D01*
X1132131Y774776D01*
X1133391Y772890D01*
X1135276Y771631D01*
X1136415Y771404D01*
X1136290Y770134D01*
X1131885D01*
X1131206Y769999D01*
X1121501D01*
X1121400Y770100D01*
X1119978Y771050D01*
X1118300Y771384D01*
X1117000D01*
Y774000D01*
X1103000D01*
Y760000D01*
X1103000D01*
Y759750D01*
X1103000D01*
Y745750D01*
X1117000D01*
Y748366D01*
X1118300D01*
X1119978Y748699D01*
X1121400Y749650D01*
X1121501Y749751D01*
X1124863D01*
X1125387Y748481D01*
X1124381Y746974D01*
X1123938Y744750D01*
X1124293Y742969D01*
X1121373Y740050D01*
X1062306D01*
X1061311Y739852D01*
X1060467Y739288D01*
X1003779Y682600D01*
X964981D01*
X964302Y683870D01*
X964340Y683927D01*
X964554Y685000D01*
X964340Y686073D01*
X964275Y686171D01*
X964954Y687441D01*
X968540D01*
X968905Y686895D01*
X970328Y685944D01*
X972005Y685611D01*
X994495D01*
X996172Y685944D01*
X997595Y686895D01*
X999850Y689150D01*
X999850Y689150D01*
X1056266Y745566D01*
X1089200D01*
X1090126Y745750D01*
X1099000D01*
Y759750D01*
X1099000Y759750D01*
Y760000D01*
X1099000D01*
X1099000Y761020D01*
Y774000D01*
X1085000D01*
Y768584D01*
X1057811D01*
X1056133Y768251D01*
X1054710Y767300D01*
X1048001Y760591D01*
X1046660Y761046D01*
X1046566Y761759D01*
X1045887Y763399D01*
X1044807Y764807D01*
X1043399Y765887D01*
X1041759Y766566D01*
X1041270Y766631D01*
Y760000D01*
X1040000D01*
Y758730D01*
X1033369D01*
X1033433Y758240D01*
X1034112Y756601D01*
X1035193Y755193D01*
X1036601Y754112D01*
X1038240Y753433D01*
X1038954Y753339D01*
X1039409Y751999D01*
X1019173Y731763D01*
X1018000Y732249D01*
Y742250D01*
X997000D01*
Y739060D01*
X995823Y738565D01*
X995065Y739258D01*
X995312Y740500D01*
X994869Y742724D01*
X993609Y744610D01*
X991724Y745869D01*
X989500Y746312D01*
X987276Y745869D01*
X985770Y744863D01*
X984574Y745358D01*
X984500Y745426D01*
Y746500D01*
X971500D01*
Y737994D01*
X971330Y737824D01*
X965131D01*
X964515Y738683D01*
X964374Y739094D01*
X964554Y740000D01*
X964340Y741073D01*
X963960Y741642D01*
X963818Y742500D01*
X963960Y743358D01*
X964340Y743927D01*
X964554Y745000D01*
X964340Y746073D01*
X963733Y746983D01*
Y748017D01*
X964340Y748927D01*
X964554Y750000D01*
X964340Y751073D01*
X963960Y751642D01*
X963818Y752500D01*
X963960Y753358D01*
X964340Y753927D01*
X964554Y755000D01*
X964340Y756073D01*
X963733Y756983D01*
Y758017D01*
X964340Y758927D01*
X964554Y760000D01*
X964340Y761073D01*
X963960Y761642D01*
X963818Y762500D01*
X963960Y763358D01*
X964340Y763927D01*
X964430Y764380D01*
X965786Y764820D01*
X967707Y762899D01*
X967881Y762026D01*
X969140Y760141D01*
X971026Y758881D01*
X973250Y758438D01*
X975474Y758881D01*
X977359Y760141D01*
X978619Y762026D01*
X979062Y764250D01*
X978619Y766474D01*
X977676Y767886D01*
X978280Y769156D01*
X995813D01*
X995813Y769156D01*
X995960Y769035D01*
Y766270D01*
X1019040D01*
Y773290D01*
X1009889D01*
X1009198Y774560D01*
X1009586Y776511D01*
X1009144Y778735D01*
X1007884Y780620D01*
X1005999Y781880D01*
X1003775Y782323D01*
X1001551Y781880D01*
X999665Y780620D01*
X998405Y778735D01*
X998110Y777250D01*
X998060Y777190D01*
X996790Y777356D01*
Y779730D01*
X989750D01*
Y782270D01*
X996790D01*
Y783942D01*
X997125Y784218D01*
X1014792D01*
X1014792Y784218D01*
X1015873Y784433D01*
X1016789Y785045D01*
X1020234Y788490D01*
X1021750Y788188D01*
X1023974Y788631D01*
X1025860Y789891D01*
X1027119Y791776D01*
X1027562Y794000D01*
X1027119Y796224D01*
X1025860Y798110D01*
X1023974Y799369D01*
X1021750Y799812D01*
X1019526Y799369D01*
X1017641Y798110D01*
X1016737Y796757D01*
X1015292Y796763D01*
X1014384Y798121D01*
X1012499Y799381D01*
X1010275Y799824D01*
X1008051Y799381D01*
X1006165Y798121D01*
X1004906Y796236D01*
X1004786Y795634D01*
X991231D01*
X990552Y796904D01*
X991143Y797788D01*
X991585Y800012D01*
X991143Y802236D01*
X990705Y802892D01*
X991383Y804162D01*
X1041455D01*
X1046205Y799412D01*
D02*
G37*
G36*
X945985Y696317D02*
X946126Y695906D01*
X945946Y695000D01*
X946160Y693927D01*
X946767Y693017D01*
Y691983D01*
X946160Y691073D01*
X945946Y690000D01*
X946160Y688927D01*
X946339Y688658D01*
X946370Y688455D01*
X946064Y687126D01*
X946003Y687049D01*
X945689Y686838D01*
X942512Y683661D01*
X941948Y682818D01*
X941750Y681823D01*
Y678177D01*
X941803Y677910D01*
X940952Y676898D01*
X940780Y676818D01*
X940750Y676824D01*
X940750Y676824D01*
X935000D01*
X935000Y676824D01*
X933919Y676609D01*
X933003Y675997D01*
X930503Y673497D01*
X929891Y672581D01*
X929787Y672057D01*
X928675Y671400D01*
X928406Y671374D01*
X927500Y671554D01*
X926427Y671340D01*
X925517Y670733D01*
X924483D01*
X923573Y671340D01*
X923204Y671414D01*
X922786Y672792D01*
X923337Y673343D01*
X923337Y673343D01*
X923950Y674259D01*
X924165Y675340D01*
X924165Y675340D01*
Y686064D01*
X925434Y686449D01*
X925640Y686141D01*
X927526Y684881D01*
X929750Y684438D01*
X931974Y684881D01*
X933859Y686141D01*
X935119Y688026D01*
X935562Y690250D01*
X935260Y691766D01*
X940670Y697176D01*
X945369D01*
X945985Y696317D01*
D02*
G37*
G36*
X939396Y916705D02*
Y894113D01*
X938126Y893434D01*
X937474Y893869D01*
X935250Y894312D01*
X933026Y893869D01*
X932374Y893434D01*
X931104Y894113D01*
Y914360D01*
X932984Y916240D01*
X934500Y915938D01*
X936724Y916381D01*
X938126Y917317D01*
X939396Y916705D01*
D02*
G37*
G36*
X1113000Y659500D02*
Y614500D01*
X1066000D01*
X1065500Y615000D01*
Y639250D01*
X1088500D01*
X1093750Y646000D01*
Y659500D01*
X1106849Y659599D01*
X1113099D01*
X1113000Y659500D01*
D02*
G37*
G36*
X794676Y686580D02*
Y672131D01*
X793817Y671515D01*
X793406Y671374D01*
X792500Y671554D01*
X791427Y671340D01*
X790858Y670960D01*
X790000Y670818D01*
X789142Y670960D01*
X788573Y671340D01*
X787500Y671554D01*
X786357Y672622D01*
X786332Y672770D01*
X786557Y672943D01*
X787637Y674351D01*
X788316Y675991D01*
X788381Y676480D01*
X775119D01*
X775183Y675991D01*
X775863Y674351D01*
X776943Y672943D01*
X777155Y672780D01*
X776839Y671422D01*
X776427Y671340D01*
X775858Y670960D01*
X775000Y670818D01*
X774142Y670960D01*
X773573Y671340D01*
X772500Y671554D01*
X771427Y671340D01*
X771317Y671267D01*
X770232Y671482D01*
X768979Y672320D01*
X768770Y672362D01*
Y662250D01*
X766230D01*
Y672362D01*
X766087Y672333D01*
X766007Y672388D01*
X765457Y673499D01*
X765787Y673829D01*
X765787Y673829D01*
X766399Y674746D01*
X766614Y675827D01*
X766614Y675827D01*
Y685870D01*
X772420Y691676D01*
X789580D01*
X794676Y686580D01*
D02*
G37*
G36*
X558250Y652250D02*
X529250D01*
Y682923D01*
X532577Y686250D01*
X534460D01*
Y676770D01*
X549040D01*
Y686250D01*
X558250D01*
Y652250D01*
D02*
G37*
G36*
X710948Y691458D02*
X711512Y690614D01*
X712162Y689963D01*
X711676Y688790D01*
X710270D01*
Y681500D01*
X709000D01*
Y680230D01*
X697960D01*
Y675250D01*
X696750D01*
Y666500D01*
Y660973D01*
X696540Y659790D01*
X695480Y659790D01*
X686770D01*
Y652500D01*
Y645210D01*
X695480D01*
X696540Y645210D01*
X696750Y644027D01*
Y639500D01*
X674500D01*
X674500Y639500D01*
Y639500D01*
X673250Y639548D01*
Y642750D01*
X663250D01*
Y631250D01*
X670006D01*
X674500Y626756D01*
Y599500D01*
X669790D01*
Y607730D01*
X662500D01*
Y609000D01*
X661230D01*
Y620040D01*
X656750D01*
Y665750D01*
Y669250D01*
X660500D01*
Y692250D01*
X710790D01*
X710948Y691458D01*
D02*
G37*
G36*
X1118000Y845244D02*
Y837500D01*
X1114290D01*
Y838540D01*
X1109770D01*
Y831500D01*
X1107230D01*
Y838540D01*
X1104124D01*
Y840750D01*
X1103648Y841898D01*
X1102500Y842374D01*
X1068790D01*
X1067803Y841965D01*
X1067750Y842000D01*
Y842000D01*
X1045750D01*
Y825500D01*
X1050356D01*
X1050475Y825181D01*
X1050567Y824230D01*
X1048891Y823110D01*
X1047632Y821225D01*
X1047189Y819001D01*
X1047632Y816777D01*
X1048891Y814891D01*
X1050777Y813631D01*
X1051681Y813452D01*
X1052060Y812538D01*
X1052101Y812073D01*
X1051689Y810001D01*
X1052132Y807777D01*
X1053391Y805891D01*
X1054546Y805120D01*
X1054161Y803850D01*
X1049121D01*
X1044370Y808601D01*
X1043527Y809164D01*
X1042532Y809362D01*
X1027507D01*
X1027021Y810536D01*
X1030088Y813603D01*
X1030652Y814447D01*
X1030850Y815442D01*
Y822433D01*
X1032120Y822864D01*
X1032443Y822443D01*
X1033851Y821363D01*
X1035490Y820684D01*
X1035980Y820619D01*
Y827250D01*
Y833881D01*
X1035490Y833817D01*
X1033851Y833137D01*
X1032443Y832057D01*
X1032120Y831636D01*
X1030850Y832067D01*
Y839673D01*
X1036583Y845406D01*
X1117838D01*
X1118000Y845244D01*
D02*
G37*
G36*
X617250Y875750D02*
Y864000D01*
X617250Y840750D01*
X594500Y840750D01*
X576750Y840750D01*
Y864750D01*
X588250D01*
Y875250D01*
X593500Y875250D01*
X593500Y883250D01*
X609750Y883250D01*
X617250Y875750D01*
D02*
G37*
G36*
X617500Y907250D02*
X591250D01*
X591250Y877500D01*
X586100Y877500D01*
X586100Y866250D01*
X577040D01*
Y880460D01*
Y883000D01*
X571250D01*
Y934750D01*
X617500D01*
Y907250D01*
D02*
G37*
G36*
X557000Y853250D02*
X557000Y853250D01*
X557000Y853250D01*
Y841250D01*
X560256D01*
X572503Y829003D01*
X572503Y829003D01*
X573419Y828391D01*
X574500Y828176D01*
X579852D01*
X580750Y827278D01*
Y823000D01*
X579656Y822574D01*
X576436D01*
X568643Y830367D01*
X567727Y830979D01*
X566646Y831194D01*
X566646Y831194D01*
X540300D01*
X523574Y847920D01*
Y851876D01*
X533000D01*
Y841000D01*
X553000D01*
Y853256D01*
X554170Y854426D01*
X556772D01*
X557000Y853250D01*
D02*
G37*
G36*
X576750Y860250D02*
X552000Y860250D01*
X549500Y857750D01*
X545250Y853500D01*
X523574D01*
X523574Y864750D01*
X576750Y864750D01*
X576750Y860250D01*
D02*
G37*
G36*
X861427Y863660D02*
X862500Y863446D01*
X863573Y863660D01*
X864142Y864040D01*
X865000Y864182D01*
X865858Y864040D01*
X866427Y863660D01*
X867500Y863446D01*
X868573Y863660D01*
X869254Y864115D01*
X870311Y863818D01*
X870506Y862565D01*
X865265Y857324D01*
X839735D01*
X834927Y862132D01*
X835051Y863396D01*
X835232Y863518D01*
X836317Y863733D01*
X836427Y863660D01*
X837500Y863446D01*
X838573Y863660D01*
X839142Y864040D01*
X840000Y864182D01*
X840858Y864040D01*
X841427Y863660D01*
X842500Y863446D01*
X843573Y863660D01*
X844483Y864267D01*
X845517D01*
X846427Y863660D01*
X847500Y863446D01*
X848573Y863660D01*
X849142Y864040D01*
X850000Y864182D01*
X850858Y864040D01*
X851427Y863660D01*
X852500Y863446D01*
X853573Y863660D01*
X854142Y864040D01*
X855000Y864182D01*
X855858Y864040D01*
X856427Y863660D01*
X857500Y863446D01*
X858573Y863660D01*
X859483Y864267D01*
X860517D01*
X861427Y863660D01*
D02*
G37*
G36*
X624426Y880944D02*
Y848003D01*
X620047Y843624D01*
X618874Y844110D01*
X618873Y864000D01*
Y875750D01*
X618398Y876898D01*
X613416Y881880D01*
X613942Y883150D01*
X622219D01*
X624426Y880944D01*
D02*
G37*
G36*
X861427Y653160D02*
X862500Y652946D01*
X863573Y653160D01*
X864142Y653540D01*
X865000Y653682D01*
X865858Y653540D01*
X866427Y653160D01*
X867500Y652946D01*
X868573Y653160D01*
X869142Y653540D01*
X870000Y653682D01*
X870858Y653540D01*
X871427Y653160D01*
X872500Y652946D01*
X873573Y653160D01*
X874142Y653540D01*
X875000Y653682D01*
X875858Y653540D01*
X876427Y653160D01*
X877500Y652946D01*
X878041Y653054D01*
X879202Y652247D01*
X879266Y651260D01*
X878296Y650290D01*
X878270D01*
Y642750D01*
X877000D01*
Y641480D01*
X869960D01*
Y638332D01*
X869631Y637903D01*
X868952Y636264D01*
X868887Y635774D01*
X875518D01*
Y633234D01*
X868887D01*
X868952Y632745D01*
X869631Y631105D01*
X870384Y630124D01*
X869824Y628854D01*
X849136D01*
X848812Y629250D01*
X848369Y631474D01*
X847110Y633359D01*
X845824Y634218D01*
Y636250D01*
X849000D01*
Y649250D01*
X842994D01*
X840937Y651307D01*
X840995Y652116D01*
X842251Y652996D01*
X842500Y652946D01*
X843573Y653160D01*
X844142Y653540D01*
X845000Y653682D01*
X845858Y653540D01*
X846427Y653160D01*
X847500Y652946D01*
X848573Y653160D01*
X849142Y653540D01*
X850000Y653682D01*
X850858Y653540D01*
X851427Y653160D01*
X852500Y652946D01*
X853573Y653160D01*
X854142Y653540D01*
X855000Y653682D01*
X855858Y653540D01*
X856427Y653160D01*
X857500Y652946D01*
X858573Y653160D01*
X859483Y653767D01*
X860517D01*
X861427Y653160D01*
D02*
G37*
G36*
X807770Y632619D02*
X808260Y632683D01*
X809899Y633363D01*
X810339Y633700D01*
X811191Y633620D01*
X811782Y633207D01*
X811765Y632691D01*
X799676Y620603D01*
X792516D01*
X791521Y620405D01*
X790677Y619841D01*
X788178Y617342D01*
X787918Y616953D01*
X784174D01*
Y617993D01*
X781380D01*
Y607960D01*
X778840D01*
Y617993D01*
X776300D01*
Y607960D01*
X773760D01*
Y617993D01*
X770966D01*
Y616953D01*
X769188D01*
Y617993D01*
X766394D01*
Y607960D01*
Y597927D01*
X766426D01*
Y596468D01*
X765141Y595610D01*
X763881Y593724D01*
X763438Y591500D01*
X763881Y589276D01*
X765141Y587391D01*
X767026Y586131D01*
X769250Y585688D01*
X771474Y586131D01*
X773360Y587391D01*
X774619Y589276D01*
X774668Y589519D01*
X775841Y590005D01*
X776776Y589381D01*
X779000Y588938D01*
X781224Y589381D01*
X783110Y590640D01*
X784369Y592526D01*
X784812Y594750D01*
X784649Y595570D01*
X786933Y597855D01*
X787441Y598615D01*
X788215Y598671D01*
X788534Y598623D01*
X789285Y597494D01*
X789190Y597014D01*
X789190Y597014D01*
Y593220D01*
X787905Y592361D01*
X786645Y590476D01*
X786203Y588252D01*
X786645Y586028D01*
X787083Y585372D01*
X786404Y584102D01*
X755075D01*
X748100Y591077D01*
Y619423D01*
X752077Y623400D01*
X789137D01*
X790132Y623598D01*
X790975Y624162D01*
X799688Y632874D01*
X800252Y633718D01*
X800334Y634128D01*
X801692Y634445D01*
X801693Y634443D01*
X803101Y633363D01*
X804741Y632683D01*
X805230Y632619D01*
Y639250D01*
X807770D01*
Y632619D01*
D02*
G37*
G36*
X770500Y960034D02*
X638460D01*
X637379Y959819D01*
X636463Y959207D01*
X629503Y952247D01*
X628891Y951331D01*
X628676Y950250D01*
X628676Y950250D01*
Y900611D01*
X628666Y900561D01*
Y891440D01*
X628676Y891389D01*
Y885843D01*
X627406Y885317D01*
X625134Y887589D01*
X624291Y888152D01*
X623296Y888350D01*
X617500D01*
Y899256D01*
X622497Y904253D01*
X623109Y905169D01*
X623324Y906250D01*
Y953080D01*
X645420Y975176D01*
X770500D01*
Y960034D01*
D02*
G37*
G36*
X900543Y903963D02*
X900057Y902790D01*
X892460D01*
Y896520D01*
X899500D01*
Y893980D01*
X892460D01*
Y887710D01*
X892460Y887710D01*
X892460D01*
X892075Y886569D01*
X890503Y884997D01*
X889891Y884081D01*
X889676Y883000D01*
X889676Y883000D01*
Y882631D01*
X888817Y882015D01*
X888406Y881874D01*
X887500Y882054D01*
X886427Y881840D01*
X886317Y881767D01*
X885232Y881982D01*
X883979Y882820D01*
X883770Y882862D01*
Y872750D01*
Y862327D01*
X884676Y861734D01*
Y846749D01*
X884026Y846619D01*
X882141Y845359D01*
X880881Y843474D01*
X880438Y841250D01*
X880881Y839026D01*
X882141Y837141D01*
X884026Y835881D01*
X886250Y835438D01*
X888474Y835881D01*
X890359Y837141D01*
X890615Y837523D01*
X891885D01*
X892141Y837141D01*
X894026Y835881D01*
X896250Y835438D01*
X898474Y835881D01*
X900359Y837141D01*
X901619Y839026D01*
X902062Y841250D01*
X901619Y843474D01*
X900359Y845359D01*
X900324Y845383D01*
Y862869D01*
X901183Y863485D01*
X901594Y863626D01*
X902500Y863446D01*
X903406Y863626D01*
X903817Y863485D01*
X904676Y862869D01*
Y860250D01*
X904676Y860250D01*
X904891Y859169D01*
X905503Y858253D01*
X906240Y857516D01*
X905938Y856000D01*
X906381Y853776D01*
X907641Y851890D01*
X909526Y850631D01*
X911750Y850188D01*
X913508Y850538D01*
X914074Y850527D01*
X914871Y849702D01*
X915151Y848291D01*
X916411Y846405D01*
X918297Y845145D01*
X920520Y844703D01*
X922745Y845145D01*
X923406Y845587D01*
X924676Y844908D01*
Y842170D01*
X909830Y827324D01*
X905218D01*
X904360Y828609D01*
X902474Y829869D01*
X900250Y830312D01*
X898026Y829869D01*
X896141Y828609D01*
X894881Y826724D01*
X894438Y824500D01*
X894881Y822276D01*
X896141Y820390D01*
X898026Y819131D01*
X900250Y818688D01*
X902474Y819131D01*
X904360Y820390D01*
X905218Y821676D01*
X911000D01*
X911000Y821676D01*
X912081Y821891D01*
X912997Y822503D01*
X929497Y839003D01*
X929497Y839003D01*
X930109Y839919D01*
X930324Y841000D01*
X930324Y841000D01*
Y862869D01*
X931183Y863485D01*
X931594Y863626D01*
X932500Y863446D01*
X933573Y863660D01*
X934483Y864267D01*
X935517D01*
X936427Y863660D01*
X937500Y863446D01*
X938026Y863551D01*
X939296Y862731D01*
Y828066D01*
X939296Y828066D01*
X939511Y826985D01*
X940123Y826069D01*
X943189Y823003D01*
X944106Y822391D01*
X945186Y822176D01*
X945186Y822176D01*
X945369D01*
X945985Y821317D01*
X946126Y820906D01*
X945946Y820000D01*
X946160Y818927D01*
X946540Y818358D01*
X946682Y817500D01*
X946540Y816642D01*
X946160Y816073D01*
X945946Y815000D01*
X946160Y813927D01*
X946540Y813358D01*
X946682Y812500D01*
X946540Y811642D01*
X946160Y811073D01*
X945946Y810000D01*
X946160Y808927D01*
X946767Y808017D01*
Y806983D01*
X946160Y806073D01*
X946011Y805324D01*
X945030Y804903D01*
X944724Y804871D01*
X943399Y805887D01*
X941759Y806566D01*
X941270Y806631D01*
Y800000D01*
Y793369D01*
X941759Y793433D01*
X943399Y794112D01*
X944724Y795129D01*
X945030Y795097D01*
X946011Y794675D01*
X946160Y793927D01*
X946540Y793358D01*
X946682Y792500D01*
X946540Y791642D01*
X946160Y791073D01*
X945946Y790000D01*
X946160Y788927D01*
X946233Y788817D01*
X946018Y787732D01*
X945180Y786479D01*
X945138Y786270D01*
X955250D01*
Y783730D01*
X945031D01*
X944384Y782600D01*
X941650D01*
X928912Y795338D01*
X928068Y795902D01*
X927073Y796100D01*
X925868D01*
X924859Y797609D01*
X922974Y798869D01*
X920750Y799312D01*
X918526Y798869D01*
X916640Y797609D01*
X915381Y795724D01*
X914938Y793500D01*
X915381Y791276D01*
X916640Y789390D01*
X918526Y788131D01*
X920750Y787688D01*
X922974Y788131D01*
X924859Y789390D01*
X925200Y789900D01*
X926835Y790061D01*
X938735Y778161D01*
X939578Y777598D01*
X940573Y777400D01*
X945519D01*
X946198Y776130D01*
X946160Y776073D01*
X945946Y775000D01*
X946160Y773927D01*
X946767Y773017D01*
Y771983D01*
X946160Y771073D01*
X945946Y770000D01*
X946126Y769094D01*
X945985Y768683D01*
X945369Y767824D01*
X929250D01*
X928341Y768956D01*
X928360Y769140D01*
X929619Y771026D01*
X930062Y773250D01*
X929619Y775474D01*
X928360Y777359D01*
X926474Y778619D01*
X924250Y779062D01*
X922026Y778619D01*
X921302Y778136D01*
X920857Y778273D01*
X920023Y778808D01*
X919640Y780735D01*
X918380Y782621D01*
X916494Y783880D01*
X914270Y784323D01*
X912046Y783880D01*
X910161Y782621D01*
X908901Y780735D01*
X908459Y778511D01*
X908901Y776287D01*
X910161Y774402D01*
X911446Y773543D01*
Y771418D01*
X911446Y771418D01*
X911661Y770337D01*
X912273Y769421D01*
X912621Y769073D01*
X914440Y767254D01*
X914022Y765876D01*
X912546Y765582D01*
X910660Y764322D01*
X909715Y762907D01*
X908542Y762655D01*
X908194Y762743D01*
X906494Y763879D01*
X904270Y764322D01*
X902046Y763879D01*
X900160Y762620D01*
X898901Y760734D01*
X898594Y759196D01*
X897216Y758778D01*
X893747Y762247D01*
X892831Y762859D01*
X891750Y763074D01*
X890669Y762859D01*
X890258Y762585D01*
X888237D01*
X887378Y763870D01*
X885493Y765129D01*
X883269Y765572D01*
X881045Y765129D01*
X879159Y763870D01*
X877899Y761984D01*
X877457Y759760D01*
X877899Y757536D01*
X879159Y755651D01*
X880381Y754835D01*
X880959Y754092D01*
X880705Y753207D01*
X879881Y751974D01*
X879438Y749750D01*
X879881Y747526D01*
X881141Y745640D01*
X883026Y744381D01*
X885250Y743938D01*
X887474Y744381D01*
X889360Y745640D01*
X890218Y746926D01*
X893580D01*
X902503Y738003D01*
X902503Y738003D01*
X903419Y737391D01*
X903787Y737318D01*
X904055Y735969D01*
X903891Y735860D01*
X902631Y733974D01*
X902188Y731750D01*
X902631Y729526D01*
X903891Y727641D01*
X905776Y726381D01*
X908000Y725938D01*
X910224Y726381D01*
X911214Y727042D01*
X918829Y719427D01*
X918411Y718049D01*
X917546Y717877D01*
X915661Y716617D01*
X914401Y714732D01*
X913959Y712508D01*
X914401Y710284D01*
X915661Y708399D01*
X917546Y707139D01*
X919771Y706696D01*
X921577Y707056D01*
X922340Y706070D01*
X922359Y705940D01*
X921881Y705224D01*
X921438Y703000D01*
X921881Y700776D01*
X923140Y698891D01*
X925026Y697631D01*
X927250Y697188D01*
X929474Y697631D01*
X931359Y698891D01*
X932619Y700776D01*
X932898Y702176D01*
X935885D01*
X936412Y700906D01*
X931266Y695760D01*
X929750Y696062D01*
X927526Y695619D01*
X925640Y694360D01*
X924651Y692878D01*
X923398Y692734D01*
X923181Y692791D01*
X922630Y693616D01*
X920744Y694876D01*
X918520Y695318D01*
X916296Y694876D01*
X914411Y693616D01*
X913151Y691731D01*
X912709Y689507D01*
X913151Y687283D01*
X913824Y686275D01*
X913822Y686212D01*
X913182Y684951D01*
X911546Y684626D01*
X910634Y684016D01*
X909364Y684695D01*
Y687737D01*
X909149Y688817D01*
X908761Y689398D01*
X909081Y691007D01*
X908639Y693231D01*
X907379Y695116D01*
X905494Y696376D01*
X903270Y696818D01*
X901046Y696376D01*
X899160Y695116D01*
X898831Y694624D01*
X897330Y694664D01*
X884747Y707247D01*
X883831Y707859D01*
X882750Y708074D01*
X882750Y708074D01*
X878218D01*
X877359Y709360D01*
X875474Y710619D01*
X873250Y711062D01*
X871026Y710619D01*
X869140Y709360D01*
X867881Y707474D01*
X867438Y705250D01*
X867881Y703026D01*
X869140Y701141D01*
X870891Y699971D01*
X871054Y699273D01*
X871086Y698574D01*
X870390Y698109D01*
X869131Y696224D01*
X868688Y694000D01*
X869131Y691776D01*
X870390Y689891D01*
X871025Y689466D01*
X870794Y688126D01*
X869280Y687114D01*
X868683Y687303D01*
X868082Y687633D01*
X868025Y687686D01*
X867619Y689724D01*
X866359Y691609D01*
X864474Y692869D01*
X862250Y693312D01*
X860026Y692869D01*
X858140Y691609D01*
X856881Y689724D01*
X856637Y688497D01*
X855417Y688093D01*
X854555Y688801D01*
Y714082D01*
X855825Y714708D01*
X856601Y714112D01*
X858240Y713433D01*
X858730Y713369D01*
Y720000D01*
Y726631D01*
X858240Y726566D01*
X857848Y726404D01*
X857129Y727481D01*
X869747Y740099D01*
X869747Y740099D01*
X870359Y741015D01*
X870574Y742096D01*
Y756952D01*
X871474Y757131D01*
X873360Y758391D01*
X874619Y760276D01*
X875062Y762500D01*
X874619Y764724D01*
X873360Y766609D01*
X871474Y767869D01*
X869250Y768312D01*
X867026Y767869D01*
X865141Y766609D01*
X863881Y764724D01*
X863438Y762500D01*
X863881Y760276D01*
X864926Y758712D01*
Y743266D01*
X860765Y739105D01*
X859592Y739591D01*
Y751127D01*
X860359Y751640D01*
X861619Y753526D01*
X862062Y755750D01*
X861619Y757974D01*
X860359Y759859D01*
X858474Y761119D01*
X856250Y761562D01*
X854026Y761119D01*
X852141Y759859D01*
X850881Y757974D01*
X850438Y755750D01*
X850881Y753526D01*
X852141Y751640D01*
X853943Y750436D01*
Y738845D01*
X846448Y731350D01*
X845275Y731836D01*
Y759530D01*
X848608Y762864D01*
X850750Y762438D01*
X852974Y762881D01*
X854859Y764140D01*
X856119Y766026D01*
X856562Y768250D01*
X856119Y770474D01*
X854859Y772359D01*
X852974Y773619D01*
X850750Y774062D01*
X848526Y773619D01*
X846640Y772359D01*
X845381Y770474D01*
X844938Y768250D01*
X845116Y767360D01*
X841808Y764052D01*
X840635Y764538D01*
Y777390D01*
X848629Y785385D01*
X849893Y785261D01*
X850141Y784891D01*
X852026Y783631D01*
X854250Y783188D01*
X856474Y783631D01*
X858359Y784891D01*
X859619Y786776D01*
X860062Y789000D01*
X859619Y791224D01*
X859072Y792043D01*
X859808Y793227D01*
X860000Y793202D01*
X861759Y793433D01*
X863399Y794112D01*
X864807Y795193D01*
X865887Y796601D01*
X866566Y798240D01*
X866631Y798730D01*
X853369D01*
X853433Y798240D01*
X854112Y796601D01*
X854535Y796050D01*
X854433Y795605D01*
X853933Y794749D01*
X852026Y794369D01*
X850141Y793110D01*
X849282Y791824D01*
X848250D01*
X848250Y791824D01*
X847169Y791609D01*
X846253Y790997D01*
X846253Y790997D01*
X835813Y780557D01*
X835201Y779641D01*
X834986Y778560D01*
X834986Y778560D01*
Y754472D01*
X833716Y753793D01*
X832464Y754629D01*
X830240Y755071D01*
X828016Y754629D01*
X826131Y753369D01*
X825224Y752012D01*
X823761Y751916D01*
X823625Y752119D01*
X821740Y753379D01*
X819516Y753821D01*
X817594Y753439D01*
X816324Y754144D01*
Y796960D01*
X816869Y797776D01*
X817312Y800000D01*
X816869Y802224D01*
X815610Y804109D01*
X813724Y805369D01*
X811500Y805812D01*
X809276Y805369D01*
X807594Y804246D01*
X806324Y804626D01*
Y814330D01*
X824497Y832503D01*
X825109Y833419D01*
X825324Y834500D01*
X825324Y834500D01*
Y861950D01*
X826594Y862477D01*
X836568Y852503D01*
X836568Y852503D01*
X837484Y851891D01*
X838565Y851676D01*
X866435D01*
X866435Y851676D01*
X867516Y851891D01*
X868432Y852503D01*
X878729Y862800D01*
X879688Y863463D01*
X880613Y862952D01*
X881021Y862680D01*
X881230Y862638D01*
Y872750D01*
Y883200D01*
X880352Y883784D01*
Y887358D01*
X881744Y888750D01*
X889500D01*
Y901750D01*
X888697D01*
X888098Y902870D01*
X888369Y903276D01*
X888812Y905500D01*
X888369Y907724D01*
X887110Y909610D01*
X885224Y910869D01*
X883000Y911312D01*
X880776Y910869D01*
X878891Y909610D01*
X877631Y907724D01*
X877188Y905500D01*
X876026Y904833D01*
X875224Y905369D01*
X873000Y905812D01*
X870776Y905369D01*
X868891Y904109D01*
X868635Y903727D01*
X867365D01*
X867110Y904109D01*
X865224Y905369D01*
X863000Y905812D01*
X860776Y905369D01*
X858891Y904109D01*
X857631Y902224D01*
X857403Y901077D01*
X856002Y900544D01*
X854741Y901386D01*
X852517Y901829D01*
X850293Y901386D01*
X849641Y900951D01*
X848372Y901629D01*
Y904837D01*
X848517Y904956D01*
X850741Y905398D01*
X852626Y906658D01*
X853886Y908544D01*
X854329Y910768D01*
X853886Y912992D01*
X852626Y914877D01*
X851869Y915383D01*
Y916276D01*
X851991Y916829D01*
X853136Y918544D01*
X853455Y920146D01*
X884360D01*
X900543Y903963D01*
D02*
G37*
G36*
X1137003Y846253D02*
X1137003Y846253D01*
X1137919Y845641D01*
X1139000Y845426D01*
X1139000Y845426D01*
X1170580D01*
X1178426Y837580D01*
Y829420D01*
X1167106Y818100D01*
X1154500D01*
X1153505Y817902D01*
X1152662Y817338D01*
X1128073Y792750D01*
X1115177D01*
X1106724Y801203D01*
X1107210Y802376D01*
X1134000D01*
X1135148Y802852D01*
X1135624Y804000D01*
Y822750D01*
X1135148Y823898D01*
X1134000Y824374D01*
X1131790D01*
X1130642Y823898D01*
X1130581Y823750D01*
X1115727D01*
X1114781Y824819D01*
X1114983Y825500D01*
X1122750D01*
Y828676D01*
X1146750D01*
Y823500D01*
X1168750D01*
Y840000D01*
X1146750D01*
Y834324D01*
X1123649D01*
Y846414D01*
X1123649Y846414D01*
X1123434Y847495D01*
X1122901Y848292D01*
X1122750Y849500D01*
X1122750Y849500D01*
X1122750Y849500D01*
Y852676D01*
X1130580D01*
X1137003Y846253D01*
D02*
G37*
G36*
X1166277Y979630D02*
X1172399Y978160D01*
X1178216Y975751D01*
X1183584Y972461D01*
X1188372Y968372D01*
X1192461Y963584D01*
X1195751Y958216D01*
X1198160Y952399D01*
X1199630Y946277D01*
X1200114Y940123D01*
X1200000Y940000D01*
X1200000D01*
X1200124Y590000D01*
X1199630Y583723D01*
X1198160Y577601D01*
X1195751Y571784D01*
X1192461Y566416D01*
X1188372Y561628D01*
X1183584Y557539D01*
X1178216Y554249D01*
X1172399Y551840D01*
X1166277Y550370D01*
X1160123Y549886D01*
X1160000Y550000D01*
Y550000D01*
X540000Y549876D01*
X533723Y550370D01*
X527601Y551840D01*
X521784Y554249D01*
X516416Y557539D01*
X511628Y561628D01*
X507539Y566416D01*
X504249Y571784D01*
X501840Y577601D01*
X500370Y583723D01*
X499886Y589877D01*
X500000Y590000D01*
X500000D01*
X499876Y940000D01*
X500370Y946277D01*
X501840Y952399D01*
X504249Y958216D01*
X507539Y963584D01*
X511628Y968372D01*
X516416Y972461D01*
X521784Y975751D01*
X527601Y978160D01*
X533723Y979630D01*
X539877Y980114D01*
X540000Y980000D01*
Y980000D01*
X640480Y980020D01*
X641006Y978750D01*
X618503Y956247D01*
X617891Y955331D01*
X617676Y954250D01*
X617676Y954250D01*
Y936491D01*
X617500Y936374D01*
X571250D01*
X570102Y935898D01*
X569626Y934750D01*
Y883000D01*
X570102Y881852D01*
X571250Y881376D01*
X575416D01*
Y878290D01*
X572520D01*
Y871250D01*
X569980D01*
Y878290D01*
X565460D01*
Y877250D01*
X557000D01*
Y874074D01*
X532000D01*
Y879804D01*
X533270Y880585D01*
X534240Y880183D01*
X534730Y880119D01*
Y885480D01*
X529369D01*
X529434Y884990D01*
X530042Y883520D01*
X529554Y882250D01*
X510000D01*
Y865750D01*
X517926D01*
Y846750D01*
X517926Y846750D01*
X518141Y845669D01*
X518753Y844753D01*
X534793Y828713D01*
X534306Y827540D01*
X531960D01*
Y821520D01*
X554040D01*
Y825546D01*
X565476D01*
X573269Y817753D01*
X573269Y817753D01*
X574185Y817141D01*
X575266Y816926D01*
X575266Y816926D01*
X596417D01*
X596417Y816926D01*
X597498Y817141D01*
X598414Y817753D01*
X599537Y818875D01*
X600710Y818389D01*
Y813960D01*
X610480D01*
Y821250D01*
Y828540D01*
X607526D01*
X607040Y829713D01*
X608442Y831116D01*
X620071D01*
X620071Y831116D01*
X621152Y831331D01*
X622068Y831943D01*
X633497Y843372D01*
X633497Y843372D01*
X634109Y844288D01*
X634324Y845369D01*
X634324Y845369D01*
Y858006D01*
X635498Y858492D01*
X641676Y852314D01*
Y840016D01*
X641676Y840016D01*
X641891Y838935D01*
X642503Y838019D01*
X657098Y823423D01*
X656612Y822250D01*
X637500D01*
Y796074D01*
X621750D01*
Y799500D01*
X601750D01*
Y787000D01*
X621750D01*
Y790426D01*
X637500D01*
Y766260D01*
X636601Y765887D01*
X635193Y764807D01*
X634113Y763399D01*
X633433Y761759D01*
X633369Y761270D01*
X646631D01*
X646566Y761759D01*
X646061Y762980D01*
X646696Y764250D01*
X660500D01*
Y776096D01*
X661673Y776582D01*
X663753Y774503D01*
X663753Y774503D01*
X664669Y773891D01*
X665750Y773676D01*
X665750Y773676D01*
X692250D01*
Y770250D01*
X691710Y769204D01*
X688883Y766377D01*
X688271Y765461D01*
X688056Y764380D01*
X688056Y764380D01*
Y760177D01*
X687912Y760168D01*
Y759832D01*
X688056Y759822D01*
Y733612D01*
X686882Y733126D01*
X686270Y733738D01*
X685427Y734302D01*
X684432Y734500D01*
X557632D01*
X557380Y735770D01*
X557804Y735946D01*
X559431Y737194D01*
X560680Y738821D01*
X561465Y740716D01*
X561565Y741480D01*
X552875D01*
Y744020D01*
X561565D01*
X561465Y744784D01*
X560680Y746679D01*
X559431Y748306D01*
X558915Y748702D01*
Y750730D01*
X549625D01*
Y753270D01*
X558915D01*
Y756540D01*
X557875D01*
Y768000D01*
Y775176D01*
X561635D01*
Y757283D01*
X562111Y756135D01*
X563259Y755659D01*
X564900D01*
X566000Y754389D01*
Y738750D01*
X588000D01*
Y754006D01*
X592260Y758266D01*
X593608Y757818D01*
X594113Y756601D01*
X595193Y755193D01*
X596601Y754112D01*
X598241Y753433D01*
X598730Y753369D01*
Y760000D01*
Y766631D01*
X598241Y766566D01*
X597880Y766417D01*
X596824Y767123D01*
Y793000D01*
X598750D01*
Y810000D01*
X581774D01*
Y810100D01*
X581298Y811248D01*
X577648Y814898D01*
X576500Y815374D01*
X554040D01*
Y818980D01*
X544270D01*
Y812960D01*
X548126D01*
Y799500D01*
X548214Y799289D01*
X548186Y799062D01*
X548443Y798736D01*
X548602Y798352D01*
X548813Y798265D01*
X548954Y798085D01*
X551989Y796377D01*
X551910Y795494D01*
X551698Y795084D01*
X549841Y794839D01*
X547946Y794054D01*
X546319Y792806D01*
X545070Y791179D01*
X544286Y789284D01*
X544274Y789194D01*
X543004Y789277D01*
Y802500D01*
X542528Y803648D01*
X541380Y804124D01*
X534472D01*
X534050Y804605D01*
X509201D01*
X508778Y804123D01*
X508379D01*
X507231Y803647D01*
X506755Y802499D01*
Y727499D01*
X507231Y726351D01*
X508379Y725875D01*
X508778D01*
X509199Y725395D01*
X534050D01*
X534472Y725876D01*
X541380D01*
X541510Y725930D01*
X542229Y724854D01*
X523895Y706519D01*
X523000Y705750D01*
Y705750D01*
X523000Y705750D01*
X505000D01*
Y687750D01*
X523000D01*
Y698270D01*
X527677Y702947D01*
X528850Y702461D01*
Y689877D01*
X518288Y679315D01*
X516349Y680118D01*
X514000Y680428D01*
X511651Y680118D01*
X509461Y679211D01*
X507581Y677769D01*
X506138Y675889D01*
X505232Y673699D01*
X504922Y671350D01*
X505232Y669000D01*
X506138Y666811D01*
X507581Y664931D01*
X509461Y663488D01*
X511651Y662582D01*
X514000Y662272D01*
X516349Y662582D01*
X518539Y663488D01*
X520419Y664931D01*
X521861Y666811D01*
X522768Y669000D01*
X523078Y671350D01*
X522768Y673699D01*
X521965Y675638D01*
X526453Y680126D01*
X527626Y679640D01*
Y652250D01*
X528102Y651102D01*
X529250Y650626D01*
X558250D01*
X559398Y651102D01*
X559874Y652250D01*
Y686250D01*
X559398Y687398D01*
X558250Y687874D01*
X550540D01*
Y695480D01*
X541000D01*
Y696750D01*
X539730D01*
Y706790D01*
X538270D01*
X537784Y707963D01*
X555521Y725700D01*
X574393D01*
X574904Y724430D01*
X574113Y723399D01*
X573433Y721759D01*
X573369Y721270D01*
X586631D01*
X586566Y721759D01*
X585887Y723399D01*
X585096Y724430D01*
X585607Y725700D01*
X614393D01*
X614904Y724430D01*
X614113Y723399D01*
X613433Y721759D01*
X613369Y721270D01*
X626631D01*
X626566Y721759D01*
X625887Y723399D01*
X625096Y724430D01*
X625607Y725700D01*
X637500D01*
Y701074D01*
X618250D01*
Y704500D01*
X598250D01*
Y692000D01*
X618250D01*
Y695426D01*
X637500D01*
Y669250D01*
X655126D01*
Y665750D01*
Y620040D01*
X655602Y618892D01*
X656250Y618624D01*
Y599000D01*
X668373D01*
X668642Y598352D01*
X669790Y597876D01*
X672616D01*
X673658Y596606D01*
X673438Y595500D01*
X673881Y593276D01*
X675141Y591390D01*
X677026Y590131D01*
X679250Y589688D01*
X681474Y590131D01*
X683360Y591390D01*
X684619Y593276D01*
X685062Y595500D01*
X684619Y597724D01*
X684515Y597880D01*
X685114Y599000D01*
X695750D01*
Y615477D01*
X696827Y616175D01*
X697960Y615743D01*
Y615520D01*
X707730D01*
Y621540D01*
X699150D01*
Y628723D01*
X706427Y636000D01*
X719000D01*
Y640450D01*
X719745Y640598D01*
X720588Y641162D01*
X733287Y653860D01*
X733503Y653770D01*
X742000D01*
Y651230D01*
X734460D01*
Y645460D01*
X742724D01*
X743210Y644287D01*
X728753Y629830D01*
X728141Y628913D01*
X727926Y627833D01*
X727926Y627832D01*
Y616258D01*
X721213Y609546D01*
X720040Y610032D01*
Y612980D01*
X710270D01*
Y606960D01*
X716968D01*
X717454Y605787D01*
X698992Y587324D01*
X663420D01*
X654344Y596400D01*
Y613980D01*
X654344Y613980D01*
X654129Y615061D01*
X653517Y615977D01*
X653517Y615977D01*
X646574Y622920D01*
Y626500D01*
X650250D01*
Y639000D01*
X630250D01*
Y626500D01*
X640926D01*
Y621750D01*
X640926Y621750D01*
X641141Y620669D01*
X641753Y619753D01*
X648236Y613270D01*
X647710Y612000D01*
X630250D01*
Y607074D01*
X625500D01*
Y612750D01*
X607500D01*
Y595750D01*
X625500D01*
Y601426D01*
X630250D01*
Y599500D01*
X648696D01*
Y595230D01*
X648696Y595230D01*
X648911Y594149D01*
X649523Y593233D01*
X660253Y582503D01*
X661169Y581891D01*
X662250Y581676D01*
X662250Y581676D01*
X700161D01*
X700162Y581676D01*
X701242Y581891D01*
X702159Y582503D01*
X715076Y595420D01*
X716232Y594780D01*
X716631Y592776D01*
X717890Y590891D01*
X719776Y589631D01*
X722000Y589188D01*
X724224Y589631D01*
X726109Y590891D01*
X727369Y592776D01*
X727812Y595000D01*
X727369Y597224D01*
X726109Y599109D01*
X725964Y599207D01*
X725840Y600471D01*
X736787Y611418D01*
X736787Y611418D01*
X737399Y612334D01*
X737614Y613415D01*
X737614Y613415D01*
Y624989D01*
X753787Y641162D01*
X754960Y640676D01*
Y635210D01*
X760730D01*
Y642750D01*
X762000D01*
Y644020D01*
X769040D01*
Y648046D01*
X769184Y648190D01*
X769715Y648316D01*
X770285D01*
X770816Y648190D01*
X772000Y647006D01*
Y636250D01*
X782482D01*
X783391Y634891D01*
X785276Y633631D01*
X786050Y633477D01*
X786078Y633407D01*
X785959Y632200D01*
X749509D01*
X748514Y632002D01*
X747670Y631438D01*
X739662Y623430D01*
X739098Y622586D01*
X738900Y621591D01*
Y601133D01*
X738512Y600814D01*
X736288Y600371D01*
X734402Y599112D01*
X733142Y597226D01*
X732700Y595002D01*
X733142Y592778D01*
X734402Y590893D01*
X736288Y589633D01*
X738127Y589267D01*
X738002Y587997D01*
X725651D01*
Y562899D01*
X746685D01*
Y583479D01*
X747858Y583965D01*
X752160Y579663D01*
X753003Y579100D01*
X753998Y578902D01*
X810502D01*
X811497Y579100D01*
X812340Y579663D01*
X825686Y593009D01*
X826956Y592483D01*
Y582821D01*
X825891Y582109D01*
X824631Y580224D01*
X824188Y578000D01*
X824631Y575776D01*
X825891Y573890D01*
X827776Y572631D01*
X830000Y572188D01*
X832224Y572631D01*
X834109Y573890D01*
X835369Y575776D01*
X835812Y578000D01*
X835369Y580224D01*
X834109Y582109D01*
X832604Y583115D01*
Y589318D01*
X833874Y589996D01*
X834792Y589383D01*
X837016Y588941D01*
X837640Y589064D01*
X838538Y588166D01*
X838455Y587752D01*
X838897Y585528D01*
X840157Y583642D01*
X842043Y582383D01*
X844267Y581940D01*
X846491Y582383D01*
X848376Y583642D01*
X849636Y585528D01*
X850078Y587752D01*
X849636Y589976D01*
X848376Y591861D01*
X848297Y591914D01*
X848172Y593178D01*
X851957Y596963D01*
X851957Y596963D01*
X852569Y597879D01*
X852579Y597927D01*
X853770D01*
Y607960D01*
X856310D01*
Y597927D01*
X858850D01*
Y607960D01*
X861390D01*
Y597927D01*
X862122D01*
Y583848D01*
X861391Y583359D01*
X860131Y581474D01*
X859688Y579250D01*
X860131Y577026D01*
X860242Y576860D01*
X859623Y575593D01*
X859393Y575568D01*
X858391Y576640D01*
X858562Y577500D01*
X858119Y579724D01*
X856859Y581609D01*
X854974Y582869D01*
X852750Y583312D01*
X850526Y582869D01*
X848641Y581609D01*
X847381Y579724D01*
X846938Y577500D01*
X847381Y575276D01*
X848641Y573391D01*
X850526Y572131D01*
X852750Y571688D01*
X854266Y571990D01*
X855973Y570283D01*
X856889Y569671D01*
X857970Y569456D01*
X857970Y569456D01*
X868387D01*
X868387Y569456D01*
X869468Y569671D01*
X870384Y570283D01*
X874467Y574366D01*
X874467Y574366D01*
X875079Y575282D01*
X875223Y576004D01*
X876233Y576325D01*
X876544Y576313D01*
X877159Y575392D01*
X879045Y574132D01*
X879372Y574067D01*
X879957Y572656D01*
X879381Y571794D01*
X878938Y569570D01*
X879381Y567346D01*
X880640Y565461D01*
X882526Y564201D01*
X884750Y563758D01*
X886974Y564201D01*
X888859Y565461D01*
X889964Y564827D01*
X890540Y563964D01*
X892426Y562704D01*
X894650Y562261D01*
X896874Y562704D01*
X898760Y563964D01*
X900019Y565849D01*
X900462Y568073D01*
X900019Y570297D01*
X898760Y572183D01*
X897250Y573191D01*
Y574517D01*
X897350Y575020D01*
X897152Y576015D01*
X896589Y576858D01*
X896588Y576858D01*
X894369Y579078D01*
Y587295D01*
X895639Y587974D01*
X896526Y587381D01*
X898750Y586938D01*
X900974Y587381D01*
X902859Y588641D01*
X902888Y588683D01*
X904262Y588778D01*
X904778Y588262D01*
X904683Y586888D01*
X904641Y586860D01*
X903381Y584974D01*
X902938Y582750D01*
X903381Y580526D01*
X904641Y578641D01*
X905210Y578260D01*
Y576990D01*
X904641Y576609D01*
X903381Y574724D01*
X902938Y572500D01*
X903381Y570276D01*
X904641Y568391D01*
X906526Y567131D01*
X908750Y566688D01*
X910974Y567131D01*
X912859Y568391D01*
X914119Y570276D01*
X914562Y572500D01*
X914260Y574016D01*
X922061Y581817D01*
X922061Y581817D01*
X922673Y582733D01*
X922888Y583814D01*
Y598967D01*
X925906D01*
Y597927D01*
X928700D01*
Y607960D01*
X931240D01*
Y597927D01*
X934034D01*
Y598069D01*
X934932Y598967D01*
X952501Y598967D01*
X953397Y598269D01*
X953571Y597909D01*
X954112Y596601D01*
X955193Y595193D01*
X956601Y594113D01*
X958240Y593433D01*
X958730Y593369D01*
Y600000D01*
Y606631D01*
X958240Y606567D01*
X956601Y605887D01*
X955193Y604807D01*
X954330Y603683D01*
X953065Y604003D01*
X953060Y604006D01*
Y616953D01*
X947835D01*
X947351Y618223D01*
X948391Y619780D01*
X948833Y622004D01*
X948391Y624227D01*
X947955Y624879D01*
X948634Y626149D01*
X1024689D01*
X1031361Y619478D01*
X1030875Y618304D01*
X1020730D01*
X1019649Y618089D01*
X1019322Y617871D01*
X1018049Y618398D01*
X1016000Y618668D01*
X1013951Y618398D01*
X1012041Y617607D01*
X1010401Y616349D01*
X1009143Y614709D01*
X1008352Y612799D01*
X1008082Y610750D01*
X1008352Y608701D01*
X1009143Y606791D01*
X1010401Y605151D01*
X1012041Y603893D01*
X1013951Y603102D01*
X1016000Y602832D01*
X1018049Y603102D01*
X1019959Y603893D01*
X1021599Y605151D01*
X1022857Y606791D01*
X1023648Y608701D01*
X1023918Y610750D01*
X1023792Y611701D01*
X1024630Y612656D01*
X1065980D01*
X1065980Y612656D01*
X1067061Y612871D01*
X1067069Y612876D01*
X1088829D01*
X1089960Y612540D01*
X1089960Y611606D01*
Y605520D01*
X1101500D01*
Y604250D01*
X1102770D01*
Y595960D01*
X1113040D01*
Y596014D01*
X1113209Y596107D01*
X1114310Y596344D01*
X1115103Y595310D01*
X1115002Y594816D01*
X1114609Y594040D01*
X1108770D01*
Y585270D01*
X1117040D01*
Y592788D01*
X1117975Y593413D01*
X1118310Y593424D01*
X1118730Y593369D01*
Y600000D01*
Y606631D01*
X1118240Y606567D01*
X1116601Y605887D01*
X1115193Y604807D01*
X1114310Y603656D01*
X1113209Y603893D01*
X1113040Y603986D01*
Y611623D01*
X1113040Y612540D01*
X1113999Y613290D01*
X1114148Y613352D01*
X1114624Y614500D01*
Y659360D01*
X1114723Y659599D01*
X1114247Y660747D01*
X1114222Y660758D01*
X1113380Y661106D01*
X1113633Y662376D01*
X1181875D01*
X1181879Y662378D01*
X1181883Y662376D01*
X1183023Y662852D01*
X1183025Y662856D01*
X1183029Y662858D01*
X1183499Y664000D01*
X1183497Y664004D01*
X1183499Y664008D01*
X1183398Y684407D01*
X1183159Y684976D01*
X1182932Y685523D01*
X1182929Y685530D01*
X1182929D01*
X1182922Y685547D01*
X1182918Y685549D01*
X1182916Y685553D01*
X1181774Y686023D01*
X1181770Y686021D01*
X1181766Y686023D01*
X1181411Y685874D01*
X1148300D01*
X1147594Y686930D01*
X1147624Y687000D01*
Y725750D01*
X1147148Y726898D01*
X1146000Y727374D01*
X1132753D01*
X1132367Y728644D01*
X1133859Y729641D01*
X1135119Y731526D01*
X1135562Y733750D01*
X1135208Y735531D01*
X1138478Y738802D01*
X1139724Y738554D01*
X1139820Y738321D01*
X1141069Y736694D01*
X1142696Y735445D01*
X1144591Y734660D01*
X1146355Y734428D01*
Y742250D01*
X1148895D01*
Y734428D01*
X1150659Y734660D01*
X1152554Y735445D01*
X1154181Y736694D01*
X1155430Y738321D01*
X1156215Y740216D01*
X1156226Y740306D01*
X1157496Y740223D01*
Y727000D01*
X1157972Y725852D01*
X1159120Y725376D01*
X1166028D01*
X1166450Y724895D01*
X1191301D01*
X1191722Y725375D01*
X1192120D01*
X1193268Y725851D01*
X1193744Y726999D01*
Y801999D01*
X1193268Y803147D01*
X1192120Y803622D01*
X1191722D01*
X1191299Y804105D01*
X1166450D01*
X1166028Y803624D01*
X1159120D01*
X1157972Y803148D01*
X1157496Y802000D01*
Y788776D01*
X1156227Y788692D01*
X1156215Y788784D01*
X1155430Y790679D01*
X1154181Y792306D01*
X1152554Y793555D01*
X1150659Y794340D01*
X1148895Y794572D01*
Y786750D01*
X1147625D01*
Y785480D01*
X1138935D01*
X1139035Y784716D01*
X1139449Y783719D01*
X1138535Y782606D01*
X1137500Y782812D01*
X1135276Y782369D01*
X1133391Y781109D01*
X1132131Y779224D01*
X1132020Y778667D01*
X1130750Y778792D01*
Y788073D01*
X1155577Y812900D01*
X1167405D01*
X1167419Y812891D01*
X1168500Y812676D01*
X1168763Y812728D01*
X1169303Y811590D01*
X1169310Y811542D01*
X1167931Y809745D01*
X1167058Y807637D01*
X1166927Y806645D01*
X1177605D01*
Y814115D01*
X1175500D01*
X1173238Y813817D01*
X1172161Y813371D01*
X1171442Y814448D01*
X1183247Y826253D01*
X1183859Y827169D01*
X1184074Y828250D01*
X1184074Y828250D01*
Y838750D01*
Y886750D01*
X1184074Y886750D01*
X1183859Y887831D01*
X1183247Y888747D01*
X1152247Y919747D01*
X1151331Y920359D01*
X1150250Y920574D01*
X1150250Y920574D01*
X1065750D01*
Y926250D01*
X1047750D01*
Y922056D01*
X1046566Y921759D01*
X1045887Y923399D01*
X1044807Y924807D01*
X1043399Y925887D01*
X1041759Y926566D01*
X1041270Y926631D01*
Y920000D01*
Y913369D01*
X1041759Y913433D01*
X1043399Y914112D01*
X1044807Y915193D01*
X1045887Y916601D01*
X1046566Y918240D01*
X1047750Y917944D01*
Y909250D01*
X1065750D01*
Y914926D01*
X1100000D01*
Y901994D01*
X1097003Y898997D01*
X1096391Y898081D01*
X1096176Y897000D01*
X1096176Y897000D01*
Y861500D01*
X1094250D01*
Y858324D01*
X1090468D01*
X1089610Y859610D01*
X1087724Y860869D01*
X1085500Y861312D01*
X1083276Y860869D01*
X1081391Y859610D01*
X1080131Y857724D01*
X1079688Y855500D01*
X1080131Y853276D01*
X1080767Y852324D01*
X1080088Y851054D01*
X1035730D01*
X1034649Y850839D01*
X1033733Y850227D01*
X1033121Y849311D01*
X1033117Y849294D01*
X1028463Y844640D01*
X1027290Y845126D01*
Y852730D01*
X1021270D01*
Y842960D01*
X1025132D01*
X1025842Y841754D01*
X1025837Y841690D01*
X1025650Y840750D01*
Y821965D01*
X1024380Y821543D01*
X1022749Y822632D01*
X1020525Y823075D01*
X1018301Y822632D01*
X1016416Y821373D01*
X1015557Y820087D01*
X1012525D01*
X1012525Y820087D01*
X1011444Y819872D01*
X1010528Y819260D01*
X1010528Y819260D01*
X1009092Y817824D01*
X991972D01*
X991445Y819094D01*
X1001741Y829390D01*
X1002353Y830306D01*
X1002568Y831387D01*
X1002568Y831387D01*
Y890006D01*
X1002568Y890006D01*
X1002353Y891087D01*
X1001741Y892003D01*
X960414Y933330D01*
X961168Y935151D01*
X961478Y937500D01*
X961168Y939849D01*
X960262Y942039D01*
X958819Y943919D01*
X956939Y945361D01*
X954750Y946268D01*
X952400Y946578D01*
X950051Y946268D01*
X947861Y945361D01*
X945981Y943919D01*
X944538Y942039D01*
X943632Y939849D01*
X943322Y937500D01*
X943632Y935151D01*
X944538Y932961D01*
X945981Y931081D01*
X947861Y929639D01*
X950051Y928732D01*
X952400Y928422D01*
X954750Y928732D01*
X956358Y929398D01*
X996920Y888836D01*
Y864000D01*
X985750D01*
Y860016D01*
X985040Y859040D01*
X978770D01*
Y852000D01*
X976230D01*
Y859040D01*
X975193D01*
X974707Y860213D01*
X976494Y862000D01*
X984000D01*
Y874000D01*
X979574D01*
Y875532D01*
X980860Y876391D01*
X982119Y878276D01*
X982562Y880500D01*
X982119Y882724D01*
X980860Y884610D01*
X978974Y885869D01*
X976750Y886312D01*
X974526Y885869D01*
X972641Y884610D01*
X971381Y882724D01*
X970938Y880500D01*
X971381Y878276D01*
X972641Y876391D01*
X973926Y875532D01*
Y874000D01*
X971000D01*
Y864494D01*
X964330Y857824D01*
X955250D01*
X955147Y857804D01*
X948750D01*
X947677Y857590D01*
X946767Y856983D01*
X946214Y856155D01*
X946121Y856142D01*
X944944Y856859D01*
Y885110D01*
X945044Y885613D01*
Y926177D01*
X944829Y927257D01*
X944217Y928174D01*
X944217Y928174D01*
X938804Y933586D01*
X937888Y934199D01*
X936807Y934414D01*
X936000Y935285D01*
Y946500D01*
X918000D01*
Y933236D01*
X916827Y932750D01*
X870781Y978796D01*
X871307Y980066D01*
X1160000Y980124D01*
X1166277Y979630D01*
D02*
G37*
G36*
X756100Y868723D02*
Y864676D01*
X756298Y863681D01*
X756862Y862838D01*
X764038Y855662D01*
X764881Y855098D01*
X765876Y854900D01*
X783250D01*
X784245Y855098D01*
X785088Y855662D01*
X789338Y859911D01*
X789902Y860755D01*
X790100Y861750D01*
Y863019D01*
X791370Y863698D01*
X791427Y863660D01*
X792500Y863446D01*
X793573Y863660D01*
X794483Y864267D01*
X795517D01*
X796427Y863660D01*
X797500Y863446D01*
X798573Y863660D01*
X799142Y864040D01*
X800000Y864182D01*
X800858Y864040D01*
X801427Y863660D01*
X802500Y863446D01*
X803406Y863626D01*
X803817Y863485D01*
X804676Y862869D01*
Y862244D01*
X804676Y862244D01*
X804891Y861163D01*
X805503Y860247D01*
X808482Y857268D01*
X808482Y857268D01*
X809398Y856656D01*
X810479Y856441D01*
X810547D01*
X811406Y855156D01*
X813291Y853896D01*
X815515Y853453D01*
X817739Y853896D01*
X818406Y854341D01*
X819676Y853662D01*
Y835670D01*
X811586Y827580D01*
X810416Y828206D01*
X810576Y829014D01*
X810134Y831238D01*
X808874Y833123D01*
X806989Y834383D01*
X805946Y834590D01*
X805419Y835990D01*
X805887Y836601D01*
X806566Y838240D01*
X806631Y838730D01*
X793369D01*
X793433Y838240D01*
X794112Y836601D01*
X795193Y835193D01*
X796601Y834112D01*
X798240Y833433D01*
X799247Y833301D01*
X799874Y831953D01*
X799396Y831238D01*
X798953Y829014D01*
X799396Y826790D01*
X800655Y824904D01*
X802541Y823644D01*
X804765Y823202D01*
X805572Y823363D01*
X806198Y822192D01*
X801503Y817497D01*
X800891Y816581D01*
X800676Y815500D01*
X800676Y815500D01*
Y798126D01*
X799406Y797746D01*
X797724Y798869D01*
X795500Y799312D01*
X793276Y798869D01*
X791391Y797609D01*
X790131Y795724D01*
X789688Y793500D01*
X790131Y791276D01*
X790241Y791111D01*
X789536Y790054D01*
X789500Y790062D01*
X787276Y789619D01*
X786048Y788799D01*
X784643Y789353D01*
X784619Y789474D01*
X783359Y791359D01*
X781474Y792619D01*
X779250Y793062D01*
X777035Y792621D01*
X776013Y792824D01*
X764488D01*
X763962Y794094D01*
X768315Y798447D01*
X768891Y798391D01*
X770776Y797131D01*
X773000Y796688D01*
X775224Y797131D01*
X777109Y798391D01*
X778369Y800276D01*
X778623Y801553D01*
X779096Y802494D01*
X780003Y802475D01*
X780250Y802426D01*
X782804D01*
X783655Y801153D01*
X785540Y799893D01*
X787764Y799451D01*
X789988Y799893D01*
X791873Y801153D01*
X793133Y803038D01*
X793576Y805262D01*
X793133Y807486D01*
X791873Y809372D01*
X789988Y810632D01*
X788749Y810878D01*
X788017Y812069D01*
X788460Y814293D01*
X788017Y816517D01*
X786758Y818403D01*
X784872Y819662D01*
X782648Y820105D01*
X780424Y819662D01*
X779418Y818990D01*
X778275Y819754D01*
X778575Y821263D01*
X778133Y823487D01*
X776873Y825373D01*
X774987Y826633D01*
X772763Y827075D01*
X770539Y826633D01*
X768654Y825373D01*
X767795Y824088D01*
X767451D01*
X766370Y823873D01*
X765454Y823260D01*
X765454Y823260D01*
X755681Y813487D01*
X754917Y813543D01*
X754019Y814823D01*
X754054Y815000D01*
X753840Y816073D01*
X753460Y816642D01*
X753318Y817500D01*
X753460Y818358D01*
X753840Y818927D01*
X754054Y820000D01*
X753840Y821073D01*
X753233Y821983D01*
Y823017D01*
X753840Y823927D01*
X754054Y825000D01*
X753840Y826073D01*
X753460Y826642D01*
X753318Y827500D01*
X753460Y828358D01*
X753840Y828927D01*
X754054Y830000D01*
X753874Y830906D01*
X754015Y831317D01*
X754631Y832176D01*
X754814D01*
X754814Y832176D01*
X755895Y832391D01*
X756811Y833003D01*
X761247Y837439D01*
X761859Y838355D01*
X762074Y839436D01*
X762074Y839436D01*
Y853250D01*
X761859Y854331D01*
X761247Y855247D01*
X761247Y855247D01*
X744747Y871747D01*
X744859Y872891D01*
X746119Y874776D01*
X746473Y876554D01*
X747742Y877081D01*
X756100Y868723D01*
D02*
G37*
G36*
X1102500Y838540D02*
X1100270D01*
Y831500D01*
X1099000D01*
Y830230D01*
X1093210D01*
Y824460D01*
X1092365Y823540D01*
X1090986D01*
X1090475Y824810D01*
X1091067Y826241D01*
X1091132Y826731D01*
X1084501D01*
Y828001D01*
X1083231D01*
Y834632D01*
X1082741Y834567D01*
X1081102Y833888D01*
X1080001Y833043D01*
X1078900Y833888D01*
X1077260Y834567D01*
X1076771Y834632D01*
Y828001D01*
X1074231D01*
Y834632D01*
X1073741Y834567D01*
X1072102Y833888D01*
X1070694Y832808D01*
X1070060Y831982D01*
X1068790Y832413D01*
Y832480D01*
X1056750D01*
Y835020D01*
X1068790D01*
Y840750D01*
X1102500D01*
Y838540D01*
D02*
G37*
G36*
X1146000Y687000D02*
X1145000Y688000D01*
X1107500D01*
Y725750D01*
X1146000D01*
Y687000D01*
D02*
G37*
G36*
X781718Y953212D02*
X745279Y916774D01*
X744736Y917137D01*
X742512Y917579D01*
X740288Y917137D01*
X738402Y915877D01*
X737143Y913992D01*
X736700Y911768D01*
X737006Y910230D01*
X735863Y909466D01*
X734485Y910387D01*
X732261Y910829D01*
X730037Y910387D01*
X728973Y909676D01*
X727619Y909974D01*
X726359Y911860D01*
X724824Y912885D01*
Y916000D01*
X732000D01*
Y928500D01*
X712000D01*
Y917217D01*
X711750Y917012D01*
X709526Y916569D01*
X707641Y915310D01*
X706381Y913424D01*
X705938Y911200D01*
X706381Y908976D01*
X707641Y907091D01*
X708926Y906232D01*
Y904706D01*
X708926Y904706D01*
X709141Y903625D01*
X709753Y902709D01*
X730176Y882286D01*
Y862691D01*
X729002Y862205D01*
X727824Y863383D01*
Y867750D01*
X727824Y867750D01*
X727609Y868831D01*
X726997Y869747D01*
X726997Y869747D01*
X700765Y895979D01*
X701071Y897517D01*
X700629Y899741D01*
X699369Y901626D01*
X697484Y902886D01*
X695259Y903329D01*
X693036Y902886D01*
X691150Y901626D01*
X689890Y899741D01*
X689626Y898414D01*
X688248Y897996D01*
X688247Y897997D01*
X687331Y898609D01*
X686250Y898824D01*
X686250Y898824D01*
X647468D01*
X646609Y900109D01*
X644724Y901369D01*
X642500Y901812D01*
X640276Y901369D01*
X639634Y900940D01*
X638364Y901619D01*
Y904326D01*
X677214Y943176D01*
X687500D01*
Y936750D01*
X703500D01*
Y946426D01*
X712000D01*
Y943000D01*
X732000D01*
Y946426D01*
X734500D01*
Y943250D01*
X747500D01*
Y954386D01*
X781232D01*
X781718Y953212D01*
D02*
G37*
G36*
X678356Y802166D02*
Y796864D01*
X678356Y796864D01*
X678571Y795784D01*
X679183Y794867D01*
X683617Y790433D01*
X684534Y789821D01*
X685614Y789606D01*
X703666D01*
X709348Y783923D01*
X708862Y782750D01*
X692250D01*
Y779324D01*
X666920D01*
X660500Y785744D01*
Y818362D01*
X661673Y818848D01*
X678356Y802166D01*
D02*
G37*
G36*
X784107Y782147D02*
X784131Y782026D01*
X785390Y780141D01*
X786676Y779282D01*
Y728920D01*
X780580Y722824D01*
X777589D01*
X777103Y723998D01*
X779480Y726375D01*
X779480Y726375D01*
X780092Y727291D01*
X780307Y728372D01*
Y734146D01*
X780092Y735227D01*
X779685Y735836D01*
X779926Y736828D01*
X780188Y737231D01*
X780988Y737390D01*
X782873Y738650D01*
X784133Y740535D01*
X784575Y742759D01*
X784133Y744983D01*
X782873Y746869D01*
X780988Y748129D01*
X779853Y748354D01*
X761210Y766997D01*
X760294Y767609D01*
X759213Y767824D01*
X759213Y767824D01*
X754631D01*
X754015Y768683D01*
X753874Y769094D01*
X754054Y770000D01*
X753840Y771073D01*
X753233Y771983D01*
Y773017D01*
X753840Y773927D01*
X754054Y775000D01*
X753840Y776073D01*
X753767Y776183D01*
X753982Y777268D01*
X754820Y778521D01*
X754862Y778730D01*
X744750D01*
Y781270D01*
X755173D01*
X755766Y782176D01*
X763618D01*
X763894Y780787D01*
X765154Y778902D01*
X767039Y777642D01*
X769263Y777200D01*
X771487Y777642D01*
X773373Y778902D01*
X774632Y780787D01*
X774837Y781816D01*
X776248Y782400D01*
X777026Y781881D01*
X779250Y781438D01*
X781474Y781881D01*
X782702Y782701D01*
X784107Y782147D01*
D02*
G37*
G36*
X987276Y735131D02*
X989500Y734688D01*
X991016Y734990D01*
X993003Y733003D01*
X993003Y733003D01*
X993919Y732391D01*
X995000Y732176D01*
X995000Y732176D01*
X997000D01*
Y727750D01*
X1013501D01*
X1013987Y726577D01*
X989489Y702079D01*
X968695D01*
X967017Y701745D01*
X965595Y700795D01*
X964946Y700939D01*
X964235Y701231D01*
X963960Y701642D01*
X963818Y702500D01*
X963960Y703358D01*
X964340Y703927D01*
X964554Y705000D01*
X964340Y706073D01*
X963733Y706983D01*
Y708017D01*
X964340Y708927D01*
X964554Y710000D01*
X964340Y711073D01*
X963960Y711642D01*
X963818Y712500D01*
X963960Y713358D01*
X964340Y713927D01*
X964554Y715000D01*
X964340Y716073D01*
X963960Y716642D01*
X963818Y717500D01*
X963960Y718358D01*
X964340Y718927D01*
X964554Y720000D01*
X964340Y721073D01*
X963733Y721983D01*
Y723017D01*
X964340Y723927D01*
X964554Y725000D01*
X964374Y725906D01*
X964515Y726317D01*
X965131Y727176D01*
X970460D01*
Y725770D01*
X976730D01*
Y731540D01*
X975370D01*
X974661Y732689D01*
X974810Y733316D01*
X975994Y734500D01*
X984500D01*
Y735574D01*
X984574Y735642D01*
X985770Y736137D01*
X987276Y735131D01*
D02*
G37*
G36*
X871897Y953116D02*
X870390Y952109D01*
X869131Y950224D01*
X868688Y948000D01*
X869131Y945776D01*
X870390Y943891D01*
X872276Y942631D01*
X874500Y942188D01*
X876016Y942490D01*
X909216Y909290D01*
Y904938D01*
X908042Y904452D01*
X887527Y924967D01*
X886611Y925579D01*
X885530Y925794D01*
X885530Y925794D01*
X850504D01*
X849991Y926137D01*
X847767Y926580D01*
X845543Y926137D01*
X843658Y924878D01*
X842398Y922992D01*
X841955Y920768D01*
X842398Y918544D01*
X843658Y916659D01*
X844415Y916152D01*
Y915260D01*
X844293Y914706D01*
X843411Y913386D01*
X841936Y912917D01*
X841649Y913137D01*
X840010Y913817D01*
X839520Y913881D01*
Y907250D01*
X836980D01*
Y913881D01*
X836490Y913817D01*
X834851Y913137D01*
X833443Y912057D01*
X832363Y910649D01*
X831684Y909009D01*
X831452Y907250D01*
X830208Y906965D01*
X829109Y908609D01*
X827224Y909869D01*
X826306Y910052D01*
X825888Y911430D01*
X845730Y931273D01*
X846850Y930918D01*
X847000Y930804D01*
Y928500D01*
X865000D01*
Y946500D01*
X850672D01*
X849630Y947770D01*
X849828Y948770D01*
X849386Y950993D01*
X848126Y952879D01*
X847772Y953116D01*
X848157Y954386D01*
X871511D01*
X871897Y953116D01*
D02*
G37*
G36*
X687500Y948824D02*
X676044D01*
X676044Y948824D01*
X674964Y948609D01*
X674047Y947997D01*
X674047Y947997D01*
X647740Y921690D01*
X646404Y922150D01*
X645887Y923399D01*
X644807Y924807D01*
X643399Y925887D01*
X641759Y926566D01*
X641270Y926631D01*
Y920000D01*
X638730D01*
Y926631D01*
X638241Y926566D01*
X636601Y925887D01*
X635594Y925115D01*
X634324Y925649D01*
Y949080D01*
X639630Y954386D01*
X641460D01*
Y947270D01*
X659540D01*
Y954386D01*
X687500D01*
Y948824D01*
D02*
G37*
G36*
X810431Y947575D02*
X809711Y946499D01*
X807821Y947282D01*
X806470Y947459D01*
Y937500D01*
X805200D01*
Y936230D01*
X795241D01*
X795418Y934879D01*
X796430Y932437D01*
X798039Y930339D01*
X799015Y929591D01*
X798976Y928409D01*
X797717Y926524D01*
X797389Y924874D01*
X797214Y924756D01*
X795944Y925427D01*
Y928880D01*
X795729Y929961D01*
X795117Y930877D01*
X795117Y930877D01*
X790760Y935234D01*
X791062Y936750D01*
X790619Y938974D01*
X789360Y940860D01*
X787474Y942119D01*
X785250Y942562D01*
X783026Y942119D01*
X781141Y940860D01*
X779881Y938974D01*
X779438Y936750D01*
X779881Y934526D01*
X781141Y932641D01*
X783026Y931381D01*
X785250Y930938D01*
X786766Y931240D01*
X790296Y927710D01*
Y923941D01*
X789122Y923455D01*
X787184Y925393D01*
X786341Y925956D01*
X785346Y926154D01*
X780926D01*
X780679Y926319D01*
X779598Y926534D01*
X764824D01*
X764298Y927804D01*
X786840Y950346D01*
X807660D01*
X810431Y947575D01*
D02*
G37*
G36*
X1125640Y729641D02*
X1127133Y728644D01*
X1126747Y727374D01*
X1107500D01*
X1106352Y726898D01*
X1105876Y725750D01*
Y725301D01*
X1104606Y724961D01*
X1103399Y725887D01*
X1101759Y726566D01*
X1101270Y726631D01*
Y720000D01*
Y713369D01*
X1101759Y713433D01*
X1103399Y714112D01*
X1104606Y715039D01*
X1105876Y714699D01*
Y688000D01*
X1106231Y687144D01*
X1105671Y685874D01*
X1098039D01*
Y695729D01*
X1091019D01*
Y685459D01*
X1093636D01*
X1094414Y684189D01*
X1094337Y684039D01*
X1093269D01*
Y675999D01*
Y667959D01*
X1095751D01*
Y667498D01*
X1096227Y666350D01*
X1099725Y662852D01*
X1100873Y662376D01*
X1100705Y661176D01*
X1093738Y661124D01*
X1093170Y660883D01*
X1092602Y660648D01*
X1092599Y660642D01*
X1092593Y660639D01*
X1092362Y660069D01*
X1092126Y659500D01*
Y646557D01*
X1087706Y640874D01*
X1065500D01*
X1064352Y640398D01*
X1063876Y639250D01*
Y618304D01*
X1055500D01*
Y638750D01*
X1053153D01*
X1052667Y639923D01*
X1059300Y646556D01*
X1077749D01*
Y644999D01*
X1087249D01*
Y658999D01*
X1077749D01*
Y652204D01*
X1071500D01*
Y657012D01*
X1083487Y668999D01*
X1086209D01*
Y667959D01*
X1090729D01*
Y675999D01*
Y684039D01*
X1086209D01*
Y682999D01*
X1077749D01*
Y671249D01*
X1070250Y663750D01*
X1051500D01*
Y660324D01*
X1048750D01*
Y667500D01*
X1036250D01*
Y647500D01*
X1048750D01*
Y654676D01*
X1051500D01*
Y651250D01*
X1054346D01*
X1054833Y650077D01*
X1045253Y640497D01*
X1044641Y639581D01*
X1044475Y638750D01*
X1039000D01*
Y621486D01*
X1037827Y621000D01*
X1027856Y630971D01*
X1026940Y631583D01*
X1025859Y631798D01*
X1025859Y631798D01*
X934161D01*
X934161Y631798D01*
X933080Y631583D01*
X932164Y630971D01*
X929517Y628324D01*
X915718D01*
X914859Y629609D01*
X912974Y630869D01*
X912384Y630987D01*
X912016Y632202D01*
X921995Y642181D01*
X922981Y641371D01*
X921881Y639724D01*
X921438Y637500D01*
X921881Y635276D01*
X923140Y633391D01*
X925026Y632131D01*
X927250Y631688D01*
X929474Y632131D01*
X931359Y633391D01*
X932218Y634676D01*
X934000D01*
X934000Y634676D01*
X935081Y634891D01*
X935997Y635503D01*
X936994Y636500D01*
X945500D01*
Y649500D01*
X943067D01*
X942324Y650500D01*
X942109Y651581D01*
X941497Y652497D01*
X941497Y652497D01*
X940324Y653670D01*
Y662250D01*
X940304Y662353D01*
Y668656D01*
X940519Y668842D01*
X941498Y669258D01*
X950503Y660253D01*
X950503Y660253D01*
X950750Y660088D01*
Y652250D01*
X963250D01*
Y672250D01*
X964209Y673000D01*
X977710D01*
Y663520D01*
X992290D01*
Y673000D01*
X1006395D01*
X1007390Y673198D01*
X1008234Y673762D01*
X1031453Y696981D01*
X1032626Y696495D01*
X1032626Y671250D01*
X1033102Y670102D01*
X1034250Y669626D01*
X1042165D01*
X1042500Y669582D01*
X1042835Y669626D01*
X1070500D01*
X1071648Y670102D01*
X1072123Y671250D01*
X1072124Y699000D01*
X1071648Y700148D01*
X1070500Y700624D01*
X1036755Y700624D01*
X1036269Y701797D01*
X1065122Y730650D01*
X1124966D01*
X1125640Y729641D01*
D02*
G37*
G36*
X692250Y703500D02*
X710700D01*
Y703294D01*
X710750Y703042D01*
Y693874D01*
X660500D01*
Y701756D01*
X665670Y706926D01*
X692250D01*
Y703500D01*
D02*
G37*
G36*
X580150Y810100D02*
Y791900D01*
X588600D01*
Y763500D01*
X582383Y757283D01*
X563259Y757283D01*
Y791900D01*
X549750Y799500D01*
Y813750D01*
X576500D01*
X580150Y810100D01*
D02*
G37*
G36*
X691785Y720870D02*
X691444Y719772D01*
X691315Y719600D01*
X673927D01*
X665400Y728127D01*
X665886Y729300D01*
X683355D01*
X691785Y720870D01*
D02*
G37*
G36*
X810676Y784324D02*
Y753869D01*
X809949Y753142D01*
X809336Y752226D01*
X809121Y751145D01*
X809121Y751145D01*
Y744874D01*
X809121Y744874D01*
X809336Y743793D01*
X809949Y742877D01*
X819676Y733150D01*
Y683250D01*
X818406Y682663D01*
X816974Y683619D01*
X814750Y684062D01*
X812526Y683619D01*
X810640Y682359D01*
X809381Y680474D01*
X808938Y678250D01*
X809381Y676026D01*
X810640Y674140D01*
X812526Y672881D01*
X813321Y672723D01*
X813338Y672682D01*
X813130Y672246D01*
X812500Y671554D01*
X811427Y671340D01*
X810858Y670960D01*
X810000Y670818D01*
X809142Y670960D01*
X808573Y671340D01*
X807500Y671554D01*
X806427Y671340D01*
X805858Y670960D01*
X805000Y670818D01*
X804142Y670960D01*
X803573Y671340D01*
X802500Y671554D01*
X801594Y671374D01*
X801183Y671515D01*
X800324Y672131D01*
Y687750D01*
X800109Y688831D01*
X799497Y689747D01*
X799497Y689747D01*
X792747Y696497D01*
X791831Y697109D01*
X790750Y697324D01*
X790750Y697324D01*
X778107D01*
X777855Y698594D01*
X777899Y698613D01*
X779307Y699693D01*
X780387Y701101D01*
X781067Y702740D01*
X781131Y703230D01*
X767869D01*
X767934Y702740D01*
X768613Y701101D01*
X769693Y699693D01*
X771101Y698613D01*
X771198Y698572D01*
X771223Y697960D01*
X771009Y697276D01*
X770169Y697109D01*
X769253Y696497D01*
X769253Y696497D01*
X763748Y690992D01*
X762574Y691478D01*
Y695064D01*
X762574Y695064D01*
X762359Y696144D01*
X761747Y697061D01*
X761747Y697061D01*
X756811Y701997D01*
X755895Y702609D01*
X755757Y702637D01*
X754873Y703472D01*
X754896Y703730D01*
X744750D01*
Y706270D01*
X754862D01*
X754820Y706479D01*
X753982Y707732D01*
X753767Y708817D01*
X753840Y708927D01*
X754054Y710000D01*
X753874Y710906D01*
X754015Y711317D01*
X754631Y712176D01*
X772100D01*
X772352Y710906D01*
X771101Y710387D01*
X769693Y709307D01*
X768613Y707899D01*
X767934Y706260D01*
X767869Y705770D01*
X781131D01*
X781067Y706260D01*
X780387Y707899D01*
X779307Y709307D01*
X777899Y710387D01*
X776648Y710906D01*
X776900Y712176D01*
X782463D01*
X782463Y712176D01*
X783544Y712391D01*
X784461Y713003D01*
X799067Y727609D01*
X799067Y727609D01*
X799679Y728526D01*
X799894Y729607D01*
Y784318D01*
X801110Y784687D01*
X801141Y784641D01*
X803026Y783381D01*
X805250Y782938D01*
X807474Y783381D01*
X809360Y784641D01*
X809406Y784710D01*
X810676Y784324D01*
D02*
G37*
G36*
X840262Y953116D02*
X839907Y952879D01*
X838648Y950993D01*
X838205Y948770D01*
X838648Y946545D01*
X839907Y944660D01*
X841192Y943801D01*
Y934723D01*
X840123Y933654D01*
X839046Y934373D01*
X839368Y935151D01*
X839678Y937500D01*
X839368Y939849D01*
X838461Y942039D01*
X837019Y943919D01*
X835139Y945361D01*
X832950Y946268D01*
X830600Y946578D01*
X828251Y946268D01*
X826061Y945361D01*
X824181Y943919D01*
X822738Y942039D01*
X822314Y941015D01*
X821044Y941267D01*
Y943780D01*
X821044Y943780D01*
X820829Y944861D01*
X820217Y945777D01*
X812782Y953212D01*
X813268Y954386D01*
X839876D01*
X840262Y953116D01*
D02*
G37*
%LPC*%
G36*
X983730Y660980D02*
X977710D01*
Y651210D01*
X983730D01*
Y660980D01*
D02*
G37*
G36*
X992290D02*
X986270D01*
Y651210D01*
X992290D01*
Y660980D01*
D02*
G37*
G36*
X549040Y674230D02*
X534460D01*
Y667396D01*
X533693Y666807D01*
X532613Y665399D01*
X531934Y663760D01*
X531869Y663270D01*
X538500D01*
Y662000D01*
X539770D01*
Y655369D01*
X540260Y655434D01*
X541899Y656113D01*
X543125Y657053D01*
X544351Y656113D01*
X545990Y655434D01*
X546480Y655369D01*
Y662000D01*
X547750D01*
Y663270D01*
X554381D01*
X554316Y663760D01*
X553637Y665399D01*
X552557Y666807D01*
X551149Y667887D01*
X549510Y668567D01*
X549040Y668628D01*
Y674230D01*
D02*
G37*
G36*
X1177605Y722355D02*
X1166927D01*
X1167058Y721363D01*
X1167931Y719255D01*
X1169320Y717445D01*
X1171130Y716056D01*
X1173238Y715183D01*
X1175500Y714885D01*
X1177605D01*
Y722355D01*
D02*
G37*
G36*
X626631Y718730D02*
X621270D01*
Y713369D01*
X621759Y713433D01*
X623399Y714112D01*
X624807Y715193D01*
X625887Y716601D01*
X626566Y718240D01*
X626631Y718730D01*
D02*
G37*
G36*
X1182000Y652124D02*
X1142000D01*
X1141998Y652123D01*
X1141996Y652124D01*
X1141426Y651886D01*
X1140877Y651658D01*
X1140852Y651648D01*
X1140851Y651646D01*
X1140849Y651645D01*
X1140376Y650500D01*
X1140377Y650498D01*
X1140376Y650496D01*
X1140475Y612345D01*
X1140713Y611775D01*
X1140951Y611201D01*
X1140953Y611200D01*
X1140954Y611198D01*
X1141526Y610963D01*
X1142099Y610726D01*
X1181899D01*
X1183047Y611201D01*
X1183148Y611302D01*
X1183624Y612450D01*
Y650500D01*
X1183148Y651648D01*
X1182000Y652124D01*
D02*
G37*
G36*
X666980Y659290D02*
X662210D01*
Y653770D01*
X666980D01*
Y659290D01*
D02*
G37*
G36*
X537230Y660730D02*
X531869D01*
X531934Y660240D01*
X532613Y658601D01*
X533693Y657193D01*
X535101Y656113D01*
X536740Y655434D01*
X537230Y655369D01*
Y660730D01*
D02*
G37*
G36*
X1125480Y650490D02*
X1118110D01*
Y644670D01*
X1125480D01*
Y650490D01*
D02*
G37*
G36*
X533573Y722855D02*
X522895D01*
Y715385D01*
X525000D01*
X527262Y715683D01*
X529370Y716556D01*
X531180Y717945D01*
X532569Y719755D01*
X533442Y721863D01*
X533573Y722855D01*
D02*
G37*
G36*
X520355D02*
X509677D01*
X509808Y721863D01*
X510681Y719755D01*
X512070Y717945D01*
X513880Y716556D01*
X515988Y715683D01*
X518250Y715385D01*
X520355D01*
Y722855D01*
D02*
G37*
G36*
X1022790Y656230D02*
X1008210D01*
Y646460D01*
X1015261D01*
X1015692Y645190D01*
X1015193Y644807D01*
X1014112Y643399D01*
X1013433Y641759D01*
X1013369Y641270D01*
X1026631D01*
X1026566Y641759D01*
X1025887Y643399D01*
X1024807Y644807D01*
X1023721Y645640D01*
X1022790Y646460D01*
Y656230D01*
D02*
G37*
G36*
X875730Y650290D02*
X869960D01*
Y644020D01*
X875730D01*
Y650290D01*
D02*
G37*
G36*
X954230Y650540D02*
X948460D01*
Y644270D01*
X954230D01*
Y650540D01*
D02*
G37*
G36*
X512730Y655909D02*
X511379Y655732D01*
X508937Y654720D01*
X506839Y653111D01*
X505230Y651013D01*
X504218Y648571D01*
X504041Y647220D01*
X512730D01*
Y655909D01*
D02*
G37*
G36*
X515270D02*
Y647220D01*
X523959D01*
X523782Y648571D01*
X522770Y651013D01*
X521161Y653111D01*
X519063Y654720D01*
X516621Y655732D01*
X515270Y655909D01*
D02*
G37*
G36*
X1190823Y722355D02*
X1180145D01*
Y714885D01*
X1182250D01*
X1184512Y715183D01*
X1186620Y716056D01*
X1188430Y717445D01*
X1189819Y719255D01*
X1190692Y721363D01*
X1190823Y722355D01*
D02*
G37*
G36*
X1135390Y650490D02*
X1128020D01*
Y644670D01*
X1135390D01*
Y650490D01*
D02*
G37*
G36*
X674460Y659790D02*
X673397Y659290D01*
X669520D01*
Y652500D01*
Y645710D01*
X673397D01*
X674460Y645210D01*
X675353Y645210D01*
X684230D01*
Y652500D01*
Y659790D01*
X675353D01*
X674460Y659790D01*
D02*
G37*
G36*
X666980Y651230D02*
X662210D01*
Y645710D01*
X666980D01*
Y651230D01*
D02*
G37*
G36*
X984881Y710230D02*
X979520D01*
Y704869D01*
X980010Y704933D01*
X981649Y705613D01*
X983057Y706693D01*
X984137Y708101D01*
X984817Y709741D01*
X984881Y710230D01*
D02*
G37*
G36*
X976980D02*
X971619D01*
X971684Y709741D01*
X972363Y708101D01*
X973443Y706693D01*
X974851Y705613D01*
X976490Y704933D01*
X976980Y704869D01*
Y710230D01*
D02*
G37*
G36*
X1098039Y708539D02*
X1091019D01*
Y698269D01*
X1098039D01*
Y708539D01*
D02*
G37*
G36*
X724230Y672790D02*
X717960D01*
Y667020D01*
X724230D01*
Y672790D01*
D02*
G37*
G36*
X866631Y718730D02*
X861270D01*
Y713369D01*
X861759Y713433D01*
X863399Y714112D01*
X864807Y715193D01*
X865887Y716601D01*
X866566Y718240D01*
X866631Y718730D01*
D02*
G37*
G36*
X985540Y723230D02*
X970460D01*
Y717460D01*
X972859D01*
X973252Y716684D01*
X973353Y716190D01*
X972363Y714899D01*
X971684Y713260D01*
X971619Y712770D01*
X984881D01*
X984817Y713260D01*
X984137Y714899D01*
X983147Y716190D01*
X983248Y716684D01*
X983641Y717460D01*
X985540D01*
Y723230D01*
D02*
G37*
G36*
X1088479Y708539D02*
X1081459D01*
Y698269D01*
X1088479D01*
Y708539D01*
D02*
G37*
G36*
X550540Y706790D02*
X542270D01*
Y698020D01*
X550540D01*
Y706790D01*
D02*
G37*
G36*
X707730Y688790D02*
X697960D01*
Y682770D01*
X707730D01*
Y688790D01*
D02*
G37*
G36*
X1088479Y695729D02*
X1081459D01*
Y685459D01*
X1088479D01*
Y695729D01*
D02*
G37*
G36*
X619290Y677540D02*
X609520D01*
Y671520D01*
X619290D01*
Y677540D01*
D02*
G37*
G36*
X780480Y684381D02*
X779990Y684316D01*
X778351Y683637D01*
X776943Y682557D01*
X775863Y681149D01*
X775183Y679510D01*
X775119Y679020D01*
X780480D01*
Y684381D01*
D02*
G37*
G36*
X783020D02*
Y679020D01*
X788381D01*
X788316Y679510D01*
X787637Y681149D01*
X786557Y682557D01*
X785149Y683637D01*
X783510Y684316D01*
X783020Y684381D01*
D02*
G37*
G36*
X1014230Y668540D02*
X1008210D01*
Y658770D01*
X1014230D01*
Y668540D01*
D02*
G37*
G36*
X1022790D02*
X1016770D01*
Y658770D01*
X1022790D01*
Y668540D01*
D02*
G37*
G36*
X578730Y718730D02*
X573369D01*
X573433Y718240D01*
X574113Y716601D01*
X575193Y715193D01*
X576601Y714112D01*
X578240Y713433D01*
X578730Y713369D01*
Y718730D01*
D02*
G37*
G36*
X618730D02*
X613369D01*
X613433Y718240D01*
X614113Y716601D01*
X615193Y715193D01*
X616601Y714112D01*
X618240Y713433D01*
X618730Y713369D01*
Y718730D01*
D02*
G37*
G36*
X586631D02*
X581270D01*
Y713369D01*
X581759Y713433D01*
X583399Y714112D01*
X584807Y715193D01*
X585887Y716601D01*
X586566Y718240D01*
X586631Y718730D01*
D02*
G37*
G36*
X554381Y660730D02*
X549020D01*
Y655369D01*
X549510Y655434D01*
X551149Y656113D01*
X552557Y657193D01*
X553637Y658601D01*
X554316Y660240D01*
X554381Y660730D01*
D02*
G37*
G36*
X1098730Y718730D02*
X1093369D01*
X1093433Y718240D01*
X1094112Y716601D01*
X1095193Y715193D01*
X1096601Y714112D01*
X1098240Y713433D01*
X1098730Y713369D01*
Y718730D01*
D02*
G37*
G36*
X715631Y668230D02*
X710270D01*
Y662869D01*
X710760Y662934D01*
X712399Y663613D01*
X713807Y664693D01*
X714887Y666101D01*
X715566Y667740D01*
X715631Y668230D01*
D02*
G37*
G36*
X619290Y668980D02*
X609520D01*
Y662960D01*
X619290D01*
Y668980D01*
D02*
G37*
G36*
X579500Y705750D02*
X562500D01*
Y687750D01*
X565926D01*
Y685500D01*
X562500D01*
Y665500D01*
X575000D01*
Y685500D01*
X571574D01*
Y687750D01*
X579500D01*
Y705750D01*
D02*
G37*
G36*
X906631Y718730D02*
X901270D01*
Y713369D01*
X901759Y713433D01*
X903399Y714112D01*
X904807Y715193D01*
X905887Y716601D01*
X906566Y718240D01*
X906631Y718730D01*
D02*
G37*
G36*
X707730Y668230D02*
X702369D01*
X702433Y667740D01*
X703113Y666101D01*
X704193Y664693D01*
X705601Y663613D01*
X707241Y662934D01*
X707730Y662869D01*
Y668230D01*
D02*
G37*
G36*
X898730Y718730D02*
X893369D01*
X893433Y718240D01*
X894112Y716601D01*
X895193Y715193D01*
X896601Y714112D01*
X898240Y713433D01*
X898730Y713369D01*
Y718730D01*
D02*
G37*
G36*
X1001270Y606631D02*
Y601270D01*
X1006631D01*
X1006566Y601759D01*
X1005887Y603399D01*
X1004807Y604807D01*
X1003399Y605887D01*
X1001759Y606567D01*
X1001270Y606631D01*
D02*
G37*
G36*
X998730D02*
X998240Y606567D01*
X996601Y605887D01*
X995193Y604807D01*
X994112Y603399D01*
X993433Y601759D01*
X993369Y601270D01*
X998730D01*
Y606631D01*
D02*
G37*
G36*
X1041270D02*
Y601270D01*
X1046631D01*
X1046566Y601759D01*
X1045887Y603399D01*
X1044807Y604807D01*
X1043399Y605887D01*
X1041759Y606567D01*
X1041270Y606631D01*
D02*
G37*
G36*
X1038730D02*
X1038240Y606567D01*
X1036601Y605887D01*
X1035193Y604807D01*
X1034112Y603399D01*
X1033433Y601759D01*
X1033369Y601270D01*
X1038730D01*
Y606631D01*
D02*
G37*
G36*
X961270D02*
Y601270D01*
X966631D01*
X966566Y601759D01*
X965887Y603399D01*
X964807Y604807D01*
X963399Y605887D01*
X961759Y606567D01*
X961270Y606631D01*
D02*
G37*
G36*
X1100230Y602980D02*
X1089960D01*
Y595960D01*
X1100230D01*
Y602980D01*
D02*
G37*
G36*
X1126631Y598730D02*
X1121270D01*
Y593369D01*
X1121759Y593433D01*
X1123399Y594113D01*
X1124807Y595193D01*
X1125887Y596601D01*
X1126566Y598241D01*
X1126631Y598730D01*
D02*
G37*
G36*
X518730Y606631D02*
X518241Y606567D01*
X516601Y605887D01*
X515193Y604807D01*
X514113Y603399D01*
X513433Y601759D01*
X513369Y601270D01*
X518730D01*
Y606631D01*
D02*
G37*
G36*
X578750Y612750D02*
X560750D01*
Y595750D01*
X578750D01*
Y601426D01*
X583500D01*
Y599500D01*
X603500D01*
Y612000D01*
X583500D01*
Y607074D01*
X578750D01*
Y612750D01*
D02*
G37*
G36*
X1133881Y613980D02*
X1128520D01*
Y608619D01*
X1129009Y608684D01*
X1130649Y609363D01*
X1132057Y610443D01*
X1133137Y611851D01*
X1133817Y613490D01*
X1133881Y613980D01*
D02*
G37*
G36*
X1125980D02*
X1120619D01*
X1120684Y613490D01*
X1121363Y611851D01*
X1122443Y610443D01*
X1123851Y609363D01*
X1125490Y608684D01*
X1125980Y608619D01*
Y613980D01*
D02*
G37*
G36*
X669790Y620040D02*
X663770D01*
Y610270D01*
X669790D01*
Y620040D01*
D02*
G37*
G36*
X753694Y617993D02*
X750900D01*
Y609230D01*
X753694D01*
Y617993D01*
D02*
G37*
G36*
X707730Y612980D02*
X697960D01*
Y606960D01*
X707730D01*
Y612980D01*
D02*
G37*
G36*
X1081270Y606631D02*
Y601270D01*
X1086631D01*
X1086566Y601759D01*
X1085887Y603399D01*
X1084807Y604807D01*
X1083399Y605887D01*
X1081759Y606567D01*
X1081270Y606631D01*
D02*
G37*
G36*
X1078730D02*
X1078240Y606567D01*
X1076601Y605887D01*
X1075193Y604807D01*
X1074112Y603399D01*
X1073433Y601759D01*
X1073369Y601270D01*
X1078730D01*
Y606631D01*
D02*
G37*
G36*
X540000Y607585D02*
X536569Y607247D01*
X533271Y606246D01*
X530230Y604621D01*
X527637Y602493D01*
X527528Y602442D01*
X526165Y602729D01*
X525887Y603399D01*
X524807Y604807D01*
X523399Y605887D01*
X521759Y606567D01*
X521270Y606631D01*
Y600000D01*
Y593369D01*
X521474Y593396D01*
X522249Y592884D01*
X522655Y592430D01*
X522415Y590000D01*
X522753Y586569D01*
X523754Y583271D01*
X525379Y580230D01*
X527566Y577566D01*
X530230Y575379D01*
X533271Y573754D01*
X536569Y572753D01*
X540000Y572415D01*
X543431Y572753D01*
X546729Y573754D01*
X549770Y575379D01*
X552434Y577566D01*
X554621Y580230D01*
X556246Y583271D01*
X557247Y586569D01*
X557585Y590000D01*
X557247Y593431D01*
X556246Y596729D01*
X554621Y599770D01*
X552434Y602434D01*
X549770Y604621D01*
X546729Y606246D01*
X543431Y607247D01*
X540000Y607585D01*
D02*
G37*
G36*
X1121270Y606631D02*
Y601270D01*
X1126631D01*
X1126566Y601759D01*
X1125887Y603399D01*
X1124807Y604807D01*
X1123399Y605887D01*
X1121759Y606567D01*
X1121270Y606631D01*
D02*
G37*
G36*
X661930Y573959D02*
X660579Y573782D01*
X658137Y572770D01*
X656039Y571161D01*
X654430Y569063D01*
X653418Y566621D01*
X653241Y565270D01*
X661930D01*
Y573959D01*
D02*
G37*
G36*
X979349Y587997D02*
X958315D01*
Y562899D01*
X979349D01*
Y587997D01*
D02*
G37*
G36*
X1160000Y607585D02*
X1156569Y607247D01*
X1153271Y606246D01*
X1150230Y604621D01*
X1147566Y602434D01*
X1145379Y599770D01*
X1143754Y596729D01*
X1142753Y593431D01*
X1142415Y590000D01*
X1142753Y586569D01*
X1143754Y583271D01*
X1145379Y580230D01*
X1147566Y577566D01*
X1150230Y575379D01*
X1153271Y573754D01*
X1156569Y572753D01*
X1160000Y572415D01*
X1163431Y572753D01*
X1166729Y573754D01*
X1169770Y575379D01*
X1172434Y577566D01*
X1174621Y580230D01*
X1176246Y583271D01*
X1177247Y586569D01*
X1177585Y590000D01*
X1177247Y593431D01*
X1176246Y596729D01*
X1174621Y599770D01*
X1172434Y602434D01*
X1169770Y604621D01*
X1166729Y606246D01*
X1163431Y607247D01*
X1160000Y607585D01*
D02*
G37*
G36*
X664470Y573959D02*
Y565270D01*
X673159D01*
X672982Y566621D01*
X671970Y569063D01*
X670361Y571161D01*
X668263Y572770D01*
X665821Y573782D01*
X664470Y573959D01*
D02*
G37*
G36*
X595250Y573000D02*
X577250D01*
Y555000D01*
X595250D01*
Y573000D01*
D02*
G37*
G36*
X673159Y562730D02*
X664470D01*
Y554041D01*
X665821Y554218D01*
X668263Y555230D01*
X670361Y556839D01*
X671970Y558937D01*
X672982Y561379D01*
X673159Y562730D01*
D02*
G37*
G36*
X661930D02*
X653241D01*
X653418Y561379D01*
X654430Y558937D01*
X656039Y556839D01*
X658137Y555230D01*
X660579Y554218D01*
X661930Y554041D01*
Y562730D01*
D02*
G37*
G36*
X637800Y573078D02*
X635451Y572768D01*
X633261Y571861D01*
X631381Y570419D01*
X629939Y568539D01*
X629032Y566349D01*
X628722Y564000D01*
X629032Y561651D01*
X629939Y559461D01*
X631381Y557581D01*
X633261Y556138D01*
X635451Y555232D01*
X637800Y554922D01*
X640150Y555232D01*
X642339Y556138D01*
X644219Y557581D01*
X645661Y559461D01*
X646568Y561651D01*
X646878Y564000D01*
X646568Y566349D01*
X645661Y568539D01*
X644219Y570419D01*
X642339Y571861D01*
X640150Y572768D01*
X637800Y573078D01*
D02*
G37*
G36*
X612400D02*
X610051Y572768D01*
X607861Y571861D01*
X605981Y570419D01*
X604538Y568539D01*
X603632Y566349D01*
X603322Y564000D01*
X603632Y561651D01*
X604538Y559461D01*
X605981Y557581D01*
X607861Y556138D01*
X610051Y555232D01*
X612400Y554922D01*
X614749Y555232D01*
X616939Y556138D01*
X618819Y557581D01*
X620261Y559461D01*
X621168Y561651D01*
X621478Y564000D01*
X621168Y566349D01*
X620261Y568539D01*
X618819Y570419D01*
X616939Y571861D01*
X614749Y572768D01*
X612400Y573078D01*
D02*
G37*
G36*
X966631Y598730D02*
X961270D01*
Y593369D01*
X961759Y593433D01*
X963399Y594113D01*
X964807Y595193D01*
X965887Y596601D01*
X966566Y598241D01*
X966631Y598730D01*
D02*
G37*
G36*
X518730D02*
X513369D01*
X513433Y598241D01*
X514113Y596601D01*
X515193Y595193D01*
X516601Y594113D01*
X518241Y593433D01*
X518730Y593369D01*
Y598730D01*
D02*
G37*
G36*
X1006631D02*
X1001270D01*
Y593369D01*
X1001759Y593433D01*
X1003399Y594113D01*
X1004807Y595193D01*
X1005887Y596601D01*
X1006566Y598241D01*
X1006631Y598730D01*
D02*
G37*
G36*
X998730D02*
X993369D01*
X993433Y598241D01*
X994112Y596601D01*
X995193Y595193D01*
X996601Y594113D01*
X998240Y593433D01*
X998730Y593369D01*
Y598730D01*
D02*
G37*
G36*
X1086631D02*
X1073369D01*
X1073433Y598241D01*
X1074112Y596601D01*
X1075193Y595193D01*
X1076396Y594270D01*
X1076285Y593469D01*
X1076054Y593000D01*
X1069000D01*
Y586824D01*
X1054250D01*
Y594500D01*
X1045876D01*
X1045250Y595770D01*
X1045887Y596601D01*
X1046566Y598241D01*
X1046631Y598730D01*
X1033369D01*
X1033433Y598241D01*
X1034112Y596601D01*
X1035193Y595193D01*
X1036601Y594113D01*
X1038240Y593433D01*
X1039750Y593235D01*
Y573500D01*
X1054250D01*
Y581176D01*
X1069000D01*
Y575000D01*
X1086000D01*
Y593000D01*
X1083946D01*
X1083715Y593469D01*
X1083604Y594270D01*
X1084807Y595193D01*
X1085887Y596601D01*
X1086566Y598241D01*
X1086631Y598730D01*
D02*
G37*
G36*
X1117040Y582730D02*
X1108770D01*
Y573960D01*
X1117040D01*
Y582730D01*
D02*
G37*
G36*
X1106230D02*
X1097960D01*
Y573960D01*
X1106230D01*
Y582730D01*
D02*
G37*
G36*
X1025250Y594500D02*
X1010750D01*
Y586574D01*
X1006968D01*
X1006109Y587859D01*
X1004224Y589119D01*
X1002000Y589562D01*
X999776Y589119D01*
X997890Y587859D01*
X996631Y585974D01*
X996188Y583750D01*
X996631Y581526D01*
X997890Y579641D01*
X999776Y578381D01*
X1002000Y577938D01*
X1004224Y578381D01*
X1006109Y579641D01*
X1006968Y580926D01*
X1010750D01*
Y573500D01*
X1025250D01*
Y594500D01*
D02*
G37*
G36*
X1106230Y594040D02*
X1097960D01*
Y585270D01*
X1106230D01*
Y594040D01*
D02*
G37*
G36*
X568480Y643790D02*
X559710D01*
Y635520D01*
X568480D01*
Y643790D01*
D02*
G37*
G36*
X954230Y641730D02*
X948460D01*
Y635460D01*
X954230D01*
Y641730D01*
D02*
G37*
G36*
X615230Y643790D02*
X606460D01*
Y635520D01*
X615230D01*
Y643790D01*
D02*
G37*
G36*
X579790D02*
X571020D01*
Y635520D01*
X579790D01*
Y643790D01*
D02*
G37*
G36*
X834040Y641480D02*
X828270D01*
Y635210D01*
X834040D01*
Y641480D01*
D02*
G37*
G36*
X1018730Y638730D02*
X1013369D01*
X1013433Y638241D01*
X1014112Y636601D01*
X1015193Y635193D01*
X1016601Y634113D01*
X1018240Y633433D01*
X1018730Y633369D01*
Y638730D01*
D02*
G37*
G36*
X986631D02*
X981270D01*
Y633369D01*
X981759Y633433D01*
X983399Y634113D01*
X984807Y635193D01*
X985887Y636601D01*
X986566Y638241D01*
X986631Y638730D01*
D02*
G37*
G36*
X769040Y641480D02*
X763270D01*
Y635210D01*
X769040D01*
Y641480D01*
D02*
G37*
G36*
X1026631Y638730D02*
X1021270D01*
Y633369D01*
X1021759Y633433D01*
X1023399Y634113D01*
X1024807Y635193D01*
X1025887Y636601D01*
X1026566Y638241D01*
X1026631Y638730D01*
D02*
G37*
G36*
X858730Y646631D02*
X858240Y646566D01*
X856601Y645887D01*
X855193Y644807D01*
X854112Y643399D01*
X853433Y641759D01*
X853369Y641270D01*
X858730D01*
Y646631D01*
D02*
G37*
G36*
X541270D02*
Y641270D01*
X546631D01*
X546566Y641759D01*
X545887Y643399D01*
X544807Y644807D01*
X543399Y645887D01*
X541759Y646566D01*
X541270Y646631D01*
D02*
G37*
G36*
X981270D02*
Y641270D01*
X986631D01*
X986566Y641759D01*
X985887Y643399D01*
X984807Y644807D01*
X983399Y645887D01*
X981759Y646566D01*
X981270Y646631D01*
D02*
G37*
G36*
X861270D02*
Y641270D01*
X866631D01*
X866566Y641759D01*
X865887Y643399D01*
X864807Y644807D01*
X863399Y645887D01*
X861759Y646566D01*
X861270Y646631D01*
D02*
G37*
G36*
X538730D02*
X538241Y646566D01*
X536601Y645887D01*
X535193Y644807D01*
X534113Y643399D01*
X533433Y641759D01*
X533369Y641270D01*
X538730D01*
Y646631D01*
D02*
G37*
G36*
X962540Y650540D02*
X956770D01*
Y643000D01*
Y635460D01*
X962540D01*
Y637185D01*
X963810Y637616D01*
X963943Y637443D01*
X965351Y636363D01*
X966991Y635684D01*
X967480Y635619D01*
Y642250D01*
Y648881D01*
X966991Y648817D01*
X965351Y648137D01*
X963943Y647057D01*
X963810Y646884D01*
X962540Y647315D01*
Y650540D01*
D02*
G37*
G36*
X626540Y643790D02*
X617770D01*
Y635520D01*
X626540D01*
Y643790D01*
D02*
G37*
G36*
X523959Y644680D02*
X515270D01*
Y635991D01*
X516621Y636168D01*
X519063Y637180D01*
X521161Y638789D01*
X522770Y640887D01*
X523782Y643329D01*
X523959Y644680D01*
D02*
G37*
G36*
X512730D02*
X504041D01*
X504218Y643329D01*
X505230Y640887D01*
X506839Y638789D01*
X508937Y637180D01*
X511379Y636168D01*
X512730Y635991D01*
Y644680D01*
D02*
G37*
G36*
X579790Y632980D02*
X571020D01*
Y624710D01*
X579790D01*
Y632980D01*
D02*
G37*
G36*
X568480D02*
X559710D01*
Y624710D01*
X568480D01*
Y632980D01*
D02*
G37*
G36*
X626540D02*
X617770D01*
Y624710D01*
X626540D01*
Y632980D01*
D02*
G37*
G36*
X615230D02*
X606460D01*
Y624710D01*
X615230D01*
Y632980D01*
D02*
G37*
G36*
X834881Y624480D02*
X829520D01*
Y619119D01*
X830010Y619184D01*
X831649Y619863D01*
X833057Y620943D01*
X834137Y622351D01*
X834817Y623991D01*
X834881Y624480D01*
D02*
G37*
G36*
X1133631Y628230D02*
X1120369D01*
X1120434Y627741D01*
X1121113Y626101D01*
X1122193Y624693D01*
X1123601Y623613D01*
X1125104Y622990D01*
X1125203Y622505D01*
X1125130Y621667D01*
X1123851Y621137D01*
X1122443Y620057D01*
X1121363Y618649D01*
X1120684Y617010D01*
X1120619Y616520D01*
X1133881D01*
X1133817Y617010D01*
X1133137Y618649D01*
X1132057Y620057D01*
X1130649Y621137D01*
X1129146Y621760D01*
X1129047Y622245D01*
X1129120Y623083D01*
X1130399Y623613D01*
X1131807Y624693D01*
X1132887Y626101D01*
X1133567Y627741D01*
X1133631Y628230D01*
D02*
G37*
G36*
X720040Y621540D02*
X710270D01*
Y615520D01*
X720040D01*
Y621540D01*
D02*
G37*
G36*
X826980Y624480D02*
X821619D01*
X821684Y623991D01*
X822363Y622351D01*
X823443Y620943D01*
X824851Y619863D01*
X826490Y619184D01*
X826980Y619119D01*
Y624480D01*
D02*
G37*
G36*
X763854Y617993D02*
X761060D01*
Y616953D01*
X759028D01*
Y617993D01*
X756234D01*
Y607960D01*
X754964D01*
Y606690D01*
X750900D01*
Y597927D01*
X750900Y597927D01*
X750900D01*
X750391Y596863D01*
X750131Y596474D01*
X749688Y594250D01*
X750131Y592026D01*
X751391Y590140D01*
X753276Y588881D01*
X755500Y588438D01*
X757724Y588881D01*
X759610Y590140D01*
X760869Y592026D01*
X761312Y594250D01*
X761010Y595766D01*
X762247Y597003D01*
X762247Y597003D01*
X762859Y597919D01*
X762861Y597927D01*
X763854D01*
Y607960D01*
Y617993D01*
D02*
G37*
G36*
X858730Y638730D02*
X853369D01*
X853433Y638241D01*
X854112Y636601D01*
X855193Y635193D01*
X856601Y634113D01*
X858240Y633433D01*
X858730Y633369D01*
Y638730D01*
D02*
G37*
G36*
X546631D02*
X541270D01*
Y633369D01*
X541759Y633433D01*
X543399Y634113D01*
X544807Y635193D01*
X545887Y636601D01*
X546566Y638241D01*
X546631Y638730D01*
D02*
G37*
G36*
X970020Y648881D02*
Y642250D01*
Y635619D01*
X970509Y635684D01*
X972149Y636363D01*
X972671Y636763D01*
X974112Y636601D01*
X975193Y635193D01*
X976601Y634113D01*
X978240Y633433D01*
X978730Y633369D01*
Y640000D01*
Y646631D01*
X978240Y646566D01*
X976601Y645887D01*
X976079Y645487D01*
X974637Y645649D01*
X973557Y647057D01*
X972149Y648137D01*
X970509Y648817D01*
X970020Y648881D01*
D02*
G37*
G36*
X866631Y638730D02*
X861270D01*
Y633369D01*
X861759Y633433D01*
X863399Y634113D01*
X864807Y635193D01*
X865887Y636601D01*
X866566Y638241D01*
X866631Y638730D01*
D02*
G37*
G36*
X538730D02*
X533369D01*
X533433Y638241D01*
X534113Y636601D01*
X535193Y635193D01*
X536601Y634113D01*
X538241Y633433D01*
X538730Y633369D01*
Y638730D01*
D02*
G37*
G36*
X826980Y632381D02*
X826490Y632317D01*
X824851Y631637D01*
X823443Y630557D01*
X822363Y629149D01*
X821684Y627509D01*
X821619Y627020D01*
X826980D01*
Y632381D01*
D02*
G37*
G36*
X593750Y688312D02*
X591526Y687869D01*
X589641Y686609D01*
X588381Y684724D01*
X587938Y682500D01*
X588381Y680276D01*
X589641Y678391D01*
X590676Y677699D01*
Y639000D01*
X583500D01*
Y626500D01*
X603500D01*
Y639000D01*
X596324D01*
Y662057D01*
X597210Y662960D01*
X597594Y662960D01*
X606980D01*
Y670250D01*
Y677540D01*
X598702D01*
X598695Y677547D01*
X598140Y678810D01*
X599119Y680276D01*
X599562Y682500D01*
X599119Y684724D01*
X597859Y686609D01*
X595974Y687869D01*
X593750Y688312D01*
D02*
G37*
G36*
X1135390Y642130D02*
X1118110D01*
Y636310D01*
X1122717D01*
X1123148Y635040D01*
X1122193Y634307D01*
X1121113Y632899D01*
X1120434Y631259D01*
X1120369Y630770D01*
X1133631D01*
X1133567Y631259D01*
X1132887Y632899D01*
X1131807Y634307D01*
X1130852Y635040D01*
X1131283Y636310D01*
X1135390D01*
Y642130D01*
D02*
G37*
G36*
X829520Y632381D02*
Y627020D01*
X834881D01*
X834817Y627509D01*
X834137Y629149D01*
X833057Y630557D01*
X831649Y631637D01*
X830010Y632317D01*
X829520Y632381D01*
D02*
G37*
G36*
X519730Y903730D02*
X508960D01*
Y895710D01*
X519730D01*
Y903730D01*
D02*
G37*
G36*
X561040Y902540D02*
X554020D01*
Y892270D01*
X561040D01*
Y902540D01*
D02*
G37*
G36*
X770040Y902230D02*
X763770D01*
Y896460D01*
X770040D01*
Y902230D01*
D02*
G37*
G36*
X761230D02*
X754960D01*
Y896460D01*
X761230D01*
Y902230D01*
D02*
G37*
G36*
X526631Y918730D02*
X513369D01*
X513433Y918240D01*
X514113Y916601D01*
X514911Y915560D01*
X514410Y914290D01*
X508960D01*
Y906270D01*
X521000D01*
Y905000D01*
X522270D01*
Y895710D01*
X529446D01*
X530113Y894101D01*
X531193Y892693D01*
Y891557D01*
X530113Y890149D01*
X529434Y888510D01*
X529369Y888020D01*
X542631D01*
X542566Y888510D01*
X541887Y890149D01*
X540807Y891557D01*
Y892693D01*
X541887Y894101D01*
X542566Y895741D01*
X542631Y896230D01*
X536000D01*
Y897500D01*
X534730D01*
Y904131D01*
X534310Y904076D01*
X533975Y904087D01*
X533040Y904712D01*
Y914290D01*
X525590D01*
X525089Y915560D01*
X525887Y916601D01*
X526567Y918240D01*
X526631Y918730D01*
D02*
G37*
G36*
X1167730Y888631D02*
X1167240Y888566D01*
X1165601Y887887D01*
X1164193Y886807D01*
X1163112Y885399D01*
X1162687Y884372D01*
X1161312D01*
X1160887Y885399D01*
X1159807Y886807D01*
X1158399Y887887D01*
X1156759Y888566D01*
X1156270Y888631D01*
Y882000D01*
Y875369D01*
X1156759Y875433D01*
X1158399Y876112D01*
X1159807Y877193D01*
X1160887Y878601D01*
X1161312Y879628D01*
X1162687D01*
X1163112Y878601D01*
X1164193Y877193D01*
X1165601Y876112D01*
X1167240Y875433D01*
X1167730Y875369D01*
Y882000D01*
Y888631D01*
D02*
G37*
G36*
X551480Y902540D02*
X544460D01*
Y892270D01*
X551480D01*
Y902540D01*
D02*
G37*
G36*
X1160730Y894730D02*
X1155369D01*
X1155433Y894240D01*
X1156112Y892601D01*
X1157193Y891193D01*
X1158601Y890112D01*
X1160240Y889433D01*
X1160730Y889369D01*
Y894730D01*
D02*
G37*
G36*
X998730Y918730D02*
X993369D01*
X993433Y918240D01*
X994112Y916601D01*
X995193Y915193D01*
X996601Y914112D01*
X998240Y913433D01*
X998730Y913369D01*
Y918730D01*
D02*
G37*
G36*
X686631D02*
X681270D01*
Y913369D01*
X681759Y913433D01*
X683399Y914112D01*
X684807Y915193D01*
X685887Y916601D01*
X686566Y918240D01*
X686631Y918730D01*
D02*
G37*
G36*
X1038730D02*
X1033369D01*
X1033433Y918240D01*
X1034112Y916601D01*
X1035193Y915193D01*
X1036601Y914112D01*
X1038240Y913433D01*
X1038730Y913369D01*
Y918730D01*
D02*
G37*
G36*
X1006631D02*
X1001270D01*
Y913369D01*
X1001759Y913433D01*
X1003399Y914112D01*
X1004807Y915193D01*
X1005887Y916601D01*
X1006566Y918240D01*
X1006631Y918730D01*
D02*
G37*
G36*
X558730D02*
X553369D01*
X553433Y918240D01*
X554113Y916601D01*
X555193Y915193D01*
X556601Y914112D01*
X558241Y913433D01*
X558730Y913369D01*
Y918730D01*
D02*
G37*
G36*
X537270Y904131D02*
Y898770D01*
X542631D01*
X542566Y899259D01*
X541887Y900899D01*
X540807Y902307D01*
X539399Y903387D01*
X537760Y904066D01*
X537270Y904131D01*
D02*
G37*
G36*
X678730Y918730D02*
X673369D01*
X673433Y918240D01*
X674112Y916601D01*
X675193Y915193D01*
X676601Y914112D01*
X678241Y913433D01*
X678730Y913369D01*
Y918730D01*
D02*
G37*
G36*
X566631D02*
X561270D01*
Y913369D01*
X561759Y913433D01*
X563399Y914112D01*
X564807Y915193D01*
X565887Y916601D01*
X566567Y918240D01*
X566631Y918730D01*
D02*
G37*
G36*
X1145540Y903980D02*
X1128960D01*
Y894040D01*
X1128460D01*
Y884270D01*
X1143040D01*
Y893710D01*
X1145540D01*
Y903980D01*
D02*
G37*
G36*
X1153730Y880730D02*
X1148369D01*
X1148433Y880240D01*
X1149112Y878601D01*
X1150193Y877193D01*
X1151601Y876112D01*
X1153240Y875433D01*
X1153730Y875369D01*
Y880730D01*
D02*
G37*
G36*
X1026631Y878730D02*
X1021270D01*
Y873369D01*
X1021759Y873433D01*
X1023399Y874112D01*
X1024807Y875193D01*
X1025887Y876601D01*
X1026566Y878240D01*
X1026631Y878730D01*
D02*
G37*
G36*
X551480Y889730D02*
X544460D01*
Y879460D01*
X551480D01*
Y889730D01*
D02*
G37*
G36*
X1175631Y880730D02*
X1170270D01*
Y875369D01*
X1170759Y875433D01*
X1172399Y876112D01*
X1173807Y877193D01*
X1174887Y878601D01*
X1175566Y880240D01*
X1175631Y880730D01*
D02*
G37*
G36*
X1078770Y873631D02*
Y868270D01*
X1084131D01*
X1084066Y868760D01*
X1083387Y870399D01*
X1082307Y871807D01*
X1080899Y872887D01*
X1079259Y873567D01*
X1078770Y873631D01*
D02*
G37*
G36*
X1076230D02*
X1075741Y873567D01*
X1074101Y872887D01*
X1072693Y871807D01*
X1071613Y870399D01*
X1070934Y868760D01*
X1070869Y868270D01*
X1076230D01*
Y873631D01*
D02*
G37*
G36*
X1018730Y878730D02*
X1013369D01*
X1013433Y878240D01*
X1014112Y876601D01*
X1015193Y875193D01*
X1016601Y874112D01*
X1018240Y873433D01*
X1018730Y873369D01*
Y878730D01*
D02*
G37*
G36*
X1143040Y881730D02*
X1128460D01*
Y871960D01*
X1128460Y871960D01*
X1128460D01*
X1128231Y871591D01*
X1128112Y871399D01*
X1127914Y870919D01*
X1127433Y869759D01*
X1127369Y869270D01*
X1140631D01*
X1140566Y869759D01*
X1140181Y870690D01*
X1140985Y871960D01*
X1143040D01*
Y881730D01*
D02*
G37*
G36*
X1021270Y886631D02*
Y881270D01*
X1026631D01*
X1026566Y881759D01*
X1025887Y883399D01*
X1024807Y884807D01*
X1023399Y885887D01*
X1021759Y886566D01*
X1021270Y886631D01*
D02*
G37*
G36*
X1018730D02*
X1018240Y886566D01*
X1016601Y885887D01*
X1015193Y884807D01*
X1014112Y883399D01*
X1013433Y881759D01*
X1013369Y881270D01*
X1018730D01*
Y886631D01*
D02*
G37*
G36*
X1170270Y888631D02*
Y883270D01*
X1175631D01*
X1175566Y883759D01*
X1174887Y885399D01*
X1173807Y886807D01*
X1172399Y887887D01*
X1170759Y888566D01*
X1170270Y888631D01*
D02*
G37*
G36*
X1153730D02*
X1153240Y888566D01*
X1151601Y887887D01*
X1150193Y886807D01*
X1149112Y885399D01*
X1148433Y883759D01*
X1148369Y883270D01*
X1153730D01*
Y888631D01*
D02*
G37*
G36*
X542631Y885480D02*
X537270D01*
Y880119D01*
X537760Y880183D01*
X539399Y880863D01*
X540807Y881943D01*
X541887Y883351D01*
X542566Y884990D01*
X542631Y885480D01*
D02*
G37*
G36*
X561040Y889730D02*
X554020D01*
Y879460D01*
X561040D01*
Y889730D01*
D02*
G37*
G36*
X661270Y886631D02*
Y881270D01*
X666631D01*
X666566Y881759D01*
X665887Y883399D01*
X664807Y884807D01*
X663399Y885887D01*
X661759Y886566D01*
X661270Y886631D01*
D02*
G37*
G36*
X658730D02*
X658240Y886566D01*
X656601Y885887D01*
X655193Y884807D01*
X654112Y883399D01*
X653433Y881759D01*
X653369Y881270D01*
X658730D01*
Y886631D01*
D02*
G37*
G36*
X803930Y947459D02*
X802579Y947282D01*
X800137Y946270D01*
X798039Y944661D01*
X796430Y942563D01*
X795418Y940121D01*
X795241Y938770D01*
X803930D01*
Y947459D01*
D02*
G37*
G36*
X659540Y944730D02*
X651770D01*
Y935710D01*
X659540D01*
Y944730D01*
D02*
G37*
G36*
X979070Y947459D02*
Y938770D01*
X987759D01*
X987582Y940121D01*
X986570Y942563D01*
X984961Y944661D01*
X982863Y946270D01*
X980421Y947282D01*
X979070Y947459D01*
D02*
G37*
G36*
X976530D02*
X975179Y947282D01*
X972737Y946270D01*
X970639Y944661D01*
X969030Y942563D01*
X968018Y940121D01*
X967841Y938770D01*
X976530D01*
Y947459D01*
D02*
G37*
G36*
X739730Y940290D02*
X733460D01*
Y934520D01*
X739730D01*
Y940290D01*
D02*
G37*
G36*
X1051500Y946500D02*
X1033500D01*
Y928500D01*
X1051500D01*
Y946500D01*
D02*
G37*
G36*
X649230Y944730D02*
X641460D01*
Y935710D01*
X649230D01*
Y944730D01*
D02*
G37*
G36*
X748540Y940290D02*
X742270D01*
Y934520D01*
X748540D01*
Y940290D01*
D02*
G37*
G36*
X936000Y976500D02*
X918000D01*
Y958500D01*
X936000D01*
Y976500D01*
D02*
G37*
G36*
X952400Y976578D02*
X950051Y976268D01*
X947861Y975361D01*
X945981Y973919D01*
X944538Y972039D01*
X943632Y969849D01*
X943322Y967500D01*
X943632Y965151D01*
X944538Y962961D01*
X945981Y961081D01*
X947861Y959639D01*
X950051Y958732D01*
X952400Y958422D01*
X954750Y958732D01*
X956939Y959639D01*
X958819Y961081D01*
X960262Y962961D01*
X961168Y965151D01*
X961478Y967500D01*
X961168Y969849D01*
X960262Y972039D01*
X958819Y973919D01*
X956939Y975361D01*
X954750Y976268D01*
X952400Y976578D01*
D02*
G37*
G36*
X979070Y977459D02*
Y968770D01*
X987759D01*
X987582Y970121D01*
X986570Y972563D01*
X984961Y974661D01*
X982863Y976270D01*
X980421Y977282D01*
X979070Y977459D01*
D02*
G37*
G36*
X976530D02*
X975179Y977282D01*
X972737Y976270D01*
X970639Y974661D01*
X969030Y972563D01*
X968018Y970121D01*
X967841Y968770D01*
X976530D01*
Y977459D01*
D02*
G37*
G36*
X1069170Y947459D02*
Y938770D01*
X1077859D01*
X1077682Y940121D01*
X1076670Y942563D01*
X1075061Y944661D01*
X1072963Y946270D01*
X1070521Y947282D01*
X1069170Y947459D01*
D02*
G37*
G36*
X1066630D02*
X1065279Y947282D01*
X1062837Y946270D01*
X1060739Y944661D01*
X1059130Y942563D01*
X1058118Y940121D01*
X1057941Y938770D01*
X1066630D01*
Y947459D01*
D02*
G37*
G36*
X987759Y966230D02*
X979070D01*
Y957541D01*
X980421Y957718D01*
X982863Y958730D01*
X984961Y960339D01*
X986570Y962437D01*
X987582Y964879D01*
X987759Y966230D01*
D02*
G37*
G36*
X976530D02*
X967841D01*
X968018Y964879D01*
X969030Y962437D01*
X970639Y960339D01*
X972737Y958730D01*
X975179Y957718D01*
X976530Y957541D01*
Y966230D01*
D02*
G37*
G36*
X1077859Y936230D02*
X1069170D01*
Y927541D01*
X1070521Y927718D01*
X1072963Y928730D01*
X1075061Y930339D01*
X1076670Y932437D01*
X1077682Y934879D01*
X1077859Y936230D01*
D02*
G37*
G36*
X681270Y926631D02*
Y921270D01*
X686631D01*
X686566Y921759D01*
X685887Y923399D01*
X684807Y924807D01*
X683399Y925887D01*
X681759Y926566D01*
X681270Y926631D01*
D02*
G37*
G36*
X678730D02*
X678241Y926566D01*
X676601Y925887D01*
X675193Y924807D01*
X674112Y923399D01*
X673433Y921759D01*
X673369Y921270D01*
X678730D01*
Y926631D01*
D02*
G37*
G36*
X1001270D02*
Y921270D01*
X1006631D01*
X1006566Y921759D01*
X1005887Y923399D01*
X1004807Y924807D01*
X1003399Y925887D01*
X1001759Y926566D01*
X1001270Y926631D01*
D02*
G37*
G36*
X998730D02*
X998240Y926566D01*
X996601Y925887D01*
X995193Y924807D01*
X994112Y923399D01*
X993433Y921759D01*
X993369Y921270D01*
X998730D01*
Y926631D01*
D02*
G37*
G36*
X521270D02*
Y921270D01*
X526631D01*
X526567Y921759D01*
X525887Y923399D01*
X524807Y924807D01*
X523399Y925887D01*
X521759Y926566D01*
X521270Y926631D01*
D02*
G37*
G36*
X518730D02*
X518241Y926566D01*
X516601Y925887D01*
X515193Y924807D01*
X514113Y923399D01*
X513433Y921759D01*
X513369Y921270D01*
X518730D01*
Y926631D01*
D02*
G37*
G36*
X561270D02*
Y921270D01*
X566631D01*
X566567Y921759D01*
X565887Y923399D01*
X564807Y924807D01*
X563399Y925887D01*
X561759Y926566D01*
X561270Y926631D01*
D02*
G37*
G36*
X558730D02*
X558241Y926566D01*
X556601Y925887D01*
X555193Y924807D01*
X554113Y923399D01*
X553433Y921759D01*
X553369Y921270D01*
X558730D01*
Y926631D01*
D02*
G37*
G36*
X976530Y936230D02*
X967841D01*
X968018Y934879D01*
X969030Y932437D01*
X970639Y930339D01*
X972737Y928730D01*
X975179Y927718D01*
X976530Y927541D01*
Y936230D01*
D02*
G37*
G36*
X748540Y931980D02*
X742270D01*
Y926210D01*
X748540D01*
Y931980D01*
D02*
G37*
G36*
X1066630Y936230D02*
X1057941D01*
X1058118Y934879D01*
X1059130Y932437D01*
X1060739Y930339D01*
X1062837Y928730D01*
X1065279Y927718D01*
X1066630Y927541D01*
Y936230D01*
D02*
G37*
G36*
X987759D02*
X979070D01*
Y927541D01*
X980421Y927718D01*
X982863Y928730D01*
X984961Y930339D01*
X986570Y932437D01*
X987582Y934879D01*
X987759Y936230D01*
D02*
G37*
G36*
X540000Y957585D02*
X536569Y957247D01*
X533271Y956246D01*
X530230Y954621D01*
X527566Y952434D01*
X525379Y949770D01*
X523754Y946729D01*
X522753Y943431D01*
X522415Y940000D01*
X522753Y936569D01*
X523754Y933271D01*
X525379Y930230D01*
X527566Y927566D01*
X530230Y925379D01*
X533271Y923754D01*
X536569Y922753D01*
X540000Y922415D01*
X543431Y922753D01*
X546729Y923754D01*
X549770Y925379D01*
X552434Y927566D01*
X554621Y930230D01*
X556246Y933271D01*
X557247Y936569D01*
X557585Y940000D01*
X557247Y943431D01*
X556246Y946729D01*
X554621Y949770D01*
X552434Y952434D01*
X549770Y954621D01*
X546729Y956246D01*
X543431Y957247D01*
X540000Y957585D01*
D02*
G37*
G36*
X1038730Y926631D02*
X1038240Y926566D01*
X1036601Y925887D01*
X1035193Y924807D01*
X1034112Y923399D01*
X1033433Y921759D01*
X1033369Y921270D01*
X1038730D01*
Y926631D01*
D02*
G37*
G36*
X739730Y931980D02*
X733460D01*
Y926210D01*
X739730D01*
Y931980D01*
D02*
G37*
G36*
X1160000Y957585D02*
X1156569Y957247D01*
X1153271Y956246D01*
X1150230Y954621D01*
X1147566Y952434D01*
X1145379Y949770D01*
X1143754Y946729D01*
X1142753Y943431D01*
X1142415Y940000D01*
X1142753Y936569D01*
X1143754Y933271D01*
X1145379Y930230D01*
X1147566Y927566D01*
X1150230Y925379D01*
X1153271Y923754D01*
X1156569Y922753D01*
X1160000Y922415D01*
X1163431Y922753D01*
X1166729Y923754D01*
X1169770Y925379D01*
X1172434Y927566D01*
X1174621Y930230D01*
X1176246Y933271D01*
X1177247Y936569D01*
X1177585Y940000D01*
X1177247Y943431D01*
X1176246Y946729D01*
X1174621Y949770D01*
X1172434Y952434D01*
X1169770Y954621D01*
X1166729Y956246D01*
X1163431Y957247D01*
X1160000Y957585D01*
D02*
G37*
G36*
X906631Y798730D02*
X901270D01*
Y793369D01*
X901759Y793433D01*
X903399Y794112D01*
X904807Y795193D01*
X905887Y796601D01*
X906566Y798240D01*
X906631Y798730D01*
D02*
G37*
G36*
X898730D02*
X893369D01*
X893433Y798240D01*
X894112Y796601D01*
X895193Y795193D01*
X896601Y794112D01*
X898240Y793433D01*
X898730Y793369D01*
Y798730D01*
D02*
G37*
G36*
X858730Y806631D02*
X858240Y806566D01*
X856601Y805887D01*
X855193Y804807D01*
X854112Y803399D01*
X853433Y801759D01*
X853369Y801270D01*
X858730D01*
Y806631D01*
D02*
G37*
G36*
X938730Y798730D02*
X933369D01*
X933433Y798240D01*
X934112Y796601D01*
X935193Y795193D01*
X936601Y794112D01*
X938240Y793433D01*
X938730Y793369D01*
Y798730D01*
D02*
G37*
G36*
X1093230Y793540D02*
X1082960D01*
Y786520D01*
X1093230D01*
Y793540D01*
D02*
G37*
G36*
X1106040Y783980D02*
X1095770D01*
Y776960D01*
X1106040D01*
Y783980D01*
D02*
G37*
G36*
X1146355Y794572D02*
X1144591Y794340D01*
X1142696Y793555D01*
X1141069Y792306D01*
X1139820Y790679D01*
X1139035Y788784D01*
X1138935Y788020D01*
X1146355D01*
Y794572D01*
D02*
G37*
G36*
X732040Y792540D02*
X725770D01*
Y786770D01*
X732040D01*
Y792540D01*
D02*
G37*
G36*
X1131790Y814230D02*
X1121020D01*
Y806210D01*
X1131790D01*
Y814230D01*
D02*
G37*
G36*
X1118480D02*
X1107710D01*
Y806210D01*
X1118480D01*
Y814230D01*
D02*
G37*
G36*
X1106040Y813980D02*
X1095770D01*
Y806960D01*
X1106040D01*
Y813980D01*
D02*
G37*
G36*
X1182250Y814115D02*
X1180145D01*
Y806645D01*
X1190823D01*
X1190692Y807637D01*
X1189819Y809745D01*
X1188430Y811555D01*
X1186620Y812944D01*
X1184512Y813817D01*
X1182250Y814115D01*
D02*
G37*
G36*
X898730Y806631D02*
X898240Y806566D01*
X896601Y805887D01*
X895193Y804807D01*
X894112Y803399D01*
X893433Y801759D01*
X893369Y801270D01*
X898730D01*
Y806631D01*
D02*
G37*
G36*
X861270D02*
Y801270D01*
X866631D01*
X866566Y801759D01*
X865887Y803399D01*
X864807Y804807D01*
X863399Y805887D01*
X861759Y806566D01*
X861270Y806631D01*
D02*
G37*
G36*
X938730D02*
X938240Y806566D01*
X936601Y805887D01*
X935193Y804807D01*
X934112Y803399D01*
X933433Y801759D01*
X933369Y801270D01*
X938730D01*
Y806631D01*
D02*
G37*
G36*
X901270D02*
Y801270D01*
X906631D01*
X906566Y801759D01*
X905887Y803399D01*
X904807Y804807D01*
X903399Y805887D01*
X901759Y806566D01*
X901270Y806631D01*
D02*
G37*
G36*
X1093230Y783980D02*
X1082960D01*
Y776960D01*
X1093230D01*
Y783980D01*
D02*
G37*
G36*
X606631Y758730D02*
X601270D01*
Y753369D01*
X601759Y753433D01*
X603399Y754112D01*
X604807Y755193D01*
X605887Y756601D01*
X606567Y758240D01*
X606631Y758730D01*
D02*
G37*
G36*
X985540Y731540D02*
X979270D01*
Y725770D01*
X985540D01*
Y731540D01*
D02*
G37*
G36*
X646631Y758730D02*
X641270D01*
Y753369D01*
X641759Y753433D01*
X643399Y754112D01*
X644807Y755193D01*
X645887Y756601D01*
X646566Y758240D01*
X646631Y758730D01*
D02*
G37*
G36*
X638730D02*
X633369D01*
X633433Y758240D01*
X634113Y756601D01*
X635193Y755193D01*
X636601Y754112D01*
X638241Y753433D01*
X638730Y753369D01*
Y758730D01*
D02*
G37*
G36*
X898730Y726631D02*
X898240Y726566D01*
X896601Y725887D01*
X895193Y724807D01*
X894112Y723399D01*
X893433Y721759D01*
X893369Y721270D01*
X898730D01*
Y726631D01*
D02*
G37*
G36*
X861270D02*
Y721270D01*
X866631D01*
X866566Y721759D01*
X865887Y723399D01*
X864807Y724807D01*
X863399Y725887D01*
X861759Y726566D01*
X861270Y726631D01*
D02*
G37*
G36*
X1098730D02*
X1098240Y726566D01*
X1096601Y725887D01*
X1095193Y724807D01*
X1094112Y723399D01*
X1093433Y721759D01*
X1093369Y721270D01*
X1098730D01*
Y726631D01*
D02*
G37*
G36*
X901270D02*
Y721270D01*
X906631D01*
X906566Y721759D01*
X905887Y723399D01*
X904807Y724807D01*
X903399Y725887D01*
X901759Y726566D01*
X901270Y726631D01*
D02*
G37*
G36*
X678730Y766631D02*
X678241Y766566D01*
X676601Y765887D01*
X675193Y764807D01*
X674112Y763399D01*
X673433Y761759D01*
X673369Y761270D01*
X678730D01*
Y766631D01*
D02*
G37*
G36*
X601270D02*
Y761270D01*
X606631D01*
X606567Y761759D01*
X605887Y763399D01*
X604807Y764807D01*
X603399Y765887D01*
X601759Y766566D01*
X601270Y766631D01*
D02*
G37*
G36*
X1038730D02*
X1038240Y766566D01*
X1036601Y765887D01*
X1035193Y764807D01*
X1034112Y763399D01*
X1033433Y761759D01*
X1033369Y761270D01*
X1038730D01*
Y766631D01*
D02*
G37*
G36*
X681270D02*
Y761270D01*
X686631D01*
X686566Y761759D01*
X685887Y763399D01*
X684807Y764807D01*
X683399Y765887D01*
X681759Y766566D01*
X681270Y766631D01*
D02*
G37*
G36*
X686631Y758730D02*
X681270D01*
Y753369D01*
X681759Y753433D01*
X683399Y754112D01*
X684807Y755193D01*
X685887Y756601D01*
X686566Y758240D01*
X686631Y758730D01*
D02*
G37*
G36*
X678730D02*
X673369D01*
X673433Y758240D01*
X674112Y756601D01*
X675193Y755193D01*
X676601Y754112D01*
X678241Y753433D01*
X678730Y753369D01*
Y758730D01*
D02*
G37*
G36*
X1019040Y763730D02*
X1008770D01*
Y756710D01*
X1019040D01*
Y763730D01*
D02*
G37*
G36*
X1006230D02*
X995960D01*
Y756710D01*
X1006230D01*
Y763730D01*
D02*
G37*
G36*
X520355Y814615D02*
X518250D01*
X515988Y814317D01*
X513880Y813444D01*
X512070Y812055D01*
X510681Y810245D01*
X509808Y808137D01*
X509677Y807145D01*
X520355D01*
Y814615D01*
D02*
G37*
G36*
X1018730Y865040D02*
X1012710D01*
Y855270D01*
X1018730D01*
Y865040D01*
D02*
G37*
G36*
X1169790Y861480D02*
X1159020D01*
Y853460D01*
X1169790D01*
Y861480D01*
D02*
G37*
G36*
X1065750Y896250D02*
X1047750D01*
Y879250D01*
X1053926D01*
Y873000D01*
X1045750D01*
Y856500D01*
X1067750D01*
Y873000D01*
X1059574D01*
Y879250D01*
X1065750D01*
Y896250D01*
D02*
G37*
G36*
X1027290Y865040D02*
X1021270D01*
Y855270D01*
X1027290D01*
Y865040D01*
D02*
G37*
G36*
X841270Y846631D02*
Y841270D01*
X846631D01*
X846566Y841759D01*
X845887Y843399D01*
X844807Y844807D01*
X843399Y845887D01*
X841759Y846566D01*
X841270Y846631D01*
D02*
G37*
G36*
X838730D02*
X838240Y846566D01*
X836601Y845887D01*
X835193Y844807D01*
X834112Y843399D01*
X833433Y841759D01*
X833369Y841270D01*
X838730D01*
Y846631D01*
D02*
G37*
G36*
X1156480Y861480D02*
X1145710D01*
Y853460D01*
X1156480D01*
Y861480D01*
D02*
G37*
G36*
X1018730Y852730D02*
X1012710D01*
Y842960D01*
X1018730D01*
Y852730D01*
D02*
G37*
G36*
X1169790Y872040D02*
X1159020D01*
Y864020D01*
X1169790D01*
Y872040D01*
D02*
G37*
G36*
X1156480D02*
X1145710D01*
Y864020D01*
X1156480D01*
Y872040D01*
D02*
G37*
G36*
X666631Y878730D02*
X653369D01*
X653433Y878240D01*
X653597Y877846D01*
X652891Y876790D01*
X651770D01*
Y867770D01*
X659540D01*
Y872798D01*
X660000Y873202D01*
X661759Y873433D01*
X663399Y874112D01*
X664807Y875193D01*
X665887Y876601D01*
X666566Y878240D01*
X666631Y878730D01*
D02*
G37*
G36*
X649230Y876790D02*
X641460D01*
Y867770D01*
X649230D01*
Y876790D01*
D02*
G37*
G36*
X1084131Y865730D02*
X1078770D01*
Y860369D01*
X1079259Y860434D01*
X1080899Y861113D01*
X1082307Y862193D01*
X1083387Y863601D01*
X1084066Y865240D01*
X1084131Y865730D01*
D02*
G37*
G36*
X1076230D02*
X1070869D01*
X1070934Y865240D01*
X1071613Y863601D01*
X1072693Y862193D01*
X1074101Y861113D01*
X1075741Y860434D01*
X1076230Y860369D01*
Y865730D01*
D02*
G37*
G36*
X1140631Y866730D02*
X1135270D01*
Y861369D01*
X1135759Y861433D01*
X1137399Y862112D01*
X1138807Y863193D01*
X1139887Y864601D01*
X1140566Y866240D01*
X1140631Y866730D01*
D02*
G37*
G36*
X1132730D02*
X1127369D01*
X1127433Y866240D01*
X1128112Y864601D01*
X1129193Y863193D01*
X1130601Y862112D01*
X1132240Y861433D01*
X1132730Y861369D01*
Y866730D01*
D02*
G37*
G36*
X801270Y846631D02*
Y841270D01*
X806631D01*
X806566Y841759D01*
X805887Y843399D01*
X804807Y844807D01*
X803399Y845887D01*
X801759Y846566D01*
X801270Y846631D01*
D02*
G37*
G36*
X622790Y819980D02*
X613020D01*
Y813960D01*
X622790D01*
Y819980D01*
D02*
G37*
G36*
X1043881Y825980D02*
X1038520D01*
Y820619D01*
X1039009Y820684D01*
X1040649Y821363D01*
X1042057Y822443D01*
X1043137Y823851D01*
X1043817Y825490D01*
X1043881Y825980D01*
D02*
G37*
G36*
X622790Y828540D02*
X613020D01*
Y822520D01*
X622790D01*
Y828540D01*
D02*
G37*
G36*
X1078731Y817731D02*
X1073370D01*
X1073434Y817241D01*
X1074113Y815602D01*
X1075194Y814194D01*
X1076602Y813113D01*
X1078241Y812434D01*
X1078731Y812370D01*
Y817731D01*
D02*
G37*
G36*
X702480Y817730D02*
X696210D01*
Y811960D01*
X702480D01*
Y817730D01*
D02*
G37*
G36*
X711290D02*
X705020D01*
Y811960D01*
X711290D01*
Y817730D01*
D02*
G37*
G36*
X541730Y818980D02*
X531960D01*
Y813051D01*
X531011Y812184D01*
X529370Y813444D01*
X527262Y814317D01*
X525000Y814615D01*
X522895D01*
Y807145D01*
X533573D01*
X533442Y808137D01*
X532569Y810245D01*
X531180Y812055D01*
X532012Y812960D01*
X541730D01*
Y818980D01*
D02*
G37*
G36*
X1038520Y833881D02*
Y828520D01*
X1043881D01*
X1043817Y829009D01*
X1043137Y830649D01*
X1042057Y832057D01*
X1040649Y833137D01*
X1039009Y833817D01*
X1038520Y833881D01*
D02*
G37*
G36*
X838730Y838730D02*
X833369D01*
X833433Y838240D01*
X834112Y836601D01*
X835193Y835193D01*
X836601Y834112D01*
X838240Y833433D01*
X838730Y833369D01*
Y838730D01*
D02*
G37*
G36*
X846631D02*
X841270D01*
Y833369D01*
X841759Y833433D01*
X843399Y834112D01*
X844807Y835193D01*
X845887Y836601D01*
X846566Y838240D01*
X846631Y838730D01*
D02*
G37*
G36*
X798730Y846631D02*
X798240Y846566D01*
X796601Y845887D01*
X795193Y844807D01*
X794112Y843399D01*
X793433Y841759D01*
X793369Y841270D01*
X798730D01*
Y846631D01*
D02*
G37*
G36*
X705270Y838631D02*
Y833270D01*
X710631D01*
X710566Y833760D01*
X709887Y835399D01*
X708807Y836807D01*
X707399Y837887D01*
X705760Y838567D01*
X705270Y838631D01*
D02*
G37*
G36*
X1097730Y838540D02*
X1093210D01*
Y832770D01*
X1097730D01*
Y838540D01*
D02*
G37*
G36*
X1085771Y834632D02*
Y829271D01*
X1091132D01*
X1091067Y829760D01*
X1090388Y831400D01*
X1089308Y832808D01*
X1087900Y833888D01*
X1086260Y834567D01*
X1085771Y834632D01*
D02*
G37*
G36*
X702730Y838631D02*
X702241Y838567D01*
X700601Y837887D01*
X699193Y836807D01*
X698113Y835399D01*
X697433Y833760D01*
X697369Y833270D01*
X702730D01*
Y838631D01*
D02*
G37*
%LPD*%
G36*
X1182000Y612450D02*
X1181899Y612349D01*
X1142099D01*
X1142000Y650500D01*
X1182000D01*
Y612450D01*
D02*
G37*
D10*
X1016000Y610750D02*
D03*
X1042500Y677500D02*
D03*
D11*
X1110000Y752750D02*
D03*
Y767000D02*
D03*
X1092000D02*
D03*
Y752750D02*
D03*
D12*
X1101499Y675999D02*
D03*
X1091999D02*
D03*
X1082499D02*
D03*
Y651999D02*
D03*
X1101499D02*
D03*
D13*
X709000Y642250D02*
D03*
Y614250D02*
D03*
Y681500D02*
D03*
Y653500D02*
D03*
X685500Y625500D02*
D03*
Y652500D02*
D03*
X611750Y821250D02*
D03*
Y793250D02*
D03*
X608250Y670250D02*
D03*
Y698250D02*
D03*
X702250Y736750D02*
D03*
Y709750D02*
D03*
X722500Y803000D02*
D03*
Y830000D02*
D03*
X543000Y820250D02*
D03*
Y847250D02*
D03*
X1061500Y684500D02*
D03*
Y657500D02*
D03*
X722000Y949250D02*
D03*
Y922250D02*
D03*
X593500Y605750D02*
D03*
Y632750D02*
D03*
X640250Y605750D02*
D03*
Y632750D02*
D03*
X702250Y749500D02*
D03*
Y776500D02*
D03*
D14*
X754964Y607960D02*
D03*
X760044D02*
D03*
X765124D02*
D03*
X769950D02*
D03*
X775030D02*
D03*
X780110D02*
D03*
X784936D02*
D03*
X790016D02*
D03*
X795096D02*
D03*
X799922D02*
D03*
X805002D02*
D03*
X810082D02*
D03*
X814908D02*
D03*
X819988D02*
D03*
X825068D02*
D03*
X829894D02*
D03*
X834974D02*
D03*
X840054D02*
D03*
X844880D02*
D03*
X849960D02*
D03*
X855040D02*
D03*
X860120D02*
D03*
X864946D02*
D03*
X870026D02*
D03*
X875106D02*
D03*
X879932D02*
D03*
X885012D02*
D03*
X890092D02*
D03*
X894918D02*
D03*
X899998D02*
D03*
X905078D02*
D03*
X909904D02*
D03*
X914984D02*
D03*
X920064D02*
D03*
X924890D02*
D03*
X929970D02*
D03*
X935050D02*
D03*
X939876D02*
D03*
X944956D02*
D03*
X950036D02*
D03*
D15*
X968832Y575448D02*
D03*
X736168D02*
D03*
D16*
X725500Y681750D02*
D03*
Y665750D02*
D03*
X703750Y803000D02*
D03*
Y819000D02*
D03*
X762500Y887500D02*
D03*
Y903500D02*
D03*
X977500Y868000D02*
D03*
Y852000D02*
D03*
X978000Y740500D02*
D03*
Y724500D02*
D03*
X724500Y715500D02*
D03*
Y699500D02*
D03*
Y769500D02*
D03*
Y785500D02*
D03*
X742000Y668500D02*
D03*
Y652500D02*
D03*
X741000Y949250D02*
D03*
Y933250D02*
D03*
D17*
X668250Y637000D02*
D03*
Y652500D02*
D03*
D18*
X571000Y696750D02*
D03*
X541000D02*
D03*
X1077500Y584000D02*
D03*
X1107500D02*
D03*
D19*
X568750Y675500D02*
D03*
X541750D02*
D03*
X992000Y854000D02*
D03*
X1020000D02*
D03*
X957000Y662250D02*
D03*
X985000D02*
D03*
X1135750Y883000D02*
D03*
X1108750D02*
D03*
X1015500Y657500D02*
D03*
X1042500D02*
D03*
X689500Y609000D02*
D03*
X662500D02*
D03*
D20*
X649000Y698250D02*
D03*
Y793250D02*
D03*
D21*
X549625Y778000D02*
D03*
Y771500D02*
D03*
Y765000D02*
D03*
Y758500D02*
D03*
Y752000D02*
D03*
X1150875Y751500D02*
D03*
Y758000D02*
D03*
Y764500D02*
D03*
Y771000D02*
D03*
Y777500D02*
D03*
D22*
X521625Y753500D02*
D03*
Y776500D02*
D03*
X1178875Y776000D02*
D03*
Y753000D02*
D03*
D23*
X939500Y643000D02*
D03*
X955500D02*
D03*
X883500Y895250D02*
D03*
X899500D02*
D03*
X822250Y893750D02*
D03*
X838250D02*
D03*
X973750Y781000D02*
D03*
X989750D02*
D03*
X893000Y642750D02*
D03*
X877000D02*
D03*
X843000D02*
D03*
X827000D02*
D03*
X778000D02*
D03*
X762000D02*
D03*
D24*
X1107250Y905250D02*
D03*
X1137250D02*
D03*
X582750Y891000D02*
D03*
X552750D02*
D03*
X1047000Y584000D02*
D03*
X1018000D02*
D03*
X1119749Y696999D02*
D03*
X1089749D02*
D03*
D25*
X1157750Y831750D02*
D03*
Y862750D02*
D03*
X1056750Y833750D02*
D03*
Y864750D02*
D03*
X1119750Y815500D02*
D03*
Y784500D02*
D03*
X577000Y778000D02*
D03*
Y747000D02*
D03*
X606500Y923250D02*
D03*
Y892250D02*
D03*
X521000Y874000D02*
D03*
Y905000D02*
D03*
D26*
X1094500Y815250D02*
D03*
Y785250D02*
D03*
X1101500Y634250D02*
D03*
Y604250D02*
D03*
X1007500Y735000D02*
D03*
Y765000D02*
D03*
D27*
X1056750Y887750D02*
D03*
Y917750D02*
D03*
X589750Y801500D02*
D03*
Y831500D02*
D03*
X569750Y604250D02*
D03*
Y634250D02*
D03*
X616500Y604250D02*
D03*
Y634250D02*
D03*
D28*
X1099000Y831500D02*
D03*
X1108500D02*
D03*
X1118000D02*
D03*
Y855500D02*
D03*
X1108500D02*
D03*
X1099000D02*
D03*
X580750Y871250D02*
D03*
X571250D02*
D03*
X561750D02*
D03*
Y847250D02*
D03*
X571250D02*
D03*
X580750D02*
D03*
D29*
X1078250Y627750D02*
D03*
X1047250D02*
D03*
D30*
X1161999Y676049D02*
D03*
Y621449D02*
D03*
D31*
X1126750Y676100D02*
D03*
Y643400D02*
D03*
D32*
X650500Y866500D02*
D03*
X695500D02*
D03*
X650500Y946000D02*
D03*
X695500D02*
D03*
D33*
X955250Y695000D02*
D03*
Y855000D02*
D03*
Y850000D02*
D03*
Y845000D02*
D03*
Y840000D02*
D03*
Y835000D02*
D03*
Y830000D02*
D03*
Y825000D02*
D03*
Y820000D02*
D03*
Y815000D02*
D03*
Y810000D02*
D03*
Y805000D02*
D03*
Y800000D02*
D03*
Y795000D02*
D03*
Y790000D02*
D03*
Y785000D02*
D03*
Y780000D02*
D03*
Y775000D02*
D03*
Y770000D02*
D03*
Y765000D02*
D03*
Y760000D02*
D03*
Y755000D02*
D03*
Y750000D02*
D03*
Y745000D02*
D03*
Y740000D02*
D03*
Y735000D02*
D03*
Y730000D02*
D03*
Y725000D02*
D03*
Y720000D02*
D03*
Y715000D02*
D03*
Y710000D02*
D03*
Y705000D02*
D03*
Y700000D02*
D03*
Y690000D02*
D03*
Y685000D02*
D03*
Y680000D02*
D03*
X744750D02*
D03*
Y685000D02*
D03*
Y690000D02*
D03*
Y695000D02*
D03*
Y700000D02*
D03*
Y705000D02*
D03*
Y710000D02*
D03*
Y715000D02*
D03*
Y720000D02*
D03*
Y725000D02*
D03*
Y730000D02*
D03*
Y735000D02*
D03*
Y740000D02*
D03*
Y745000D02*
D03*
Y750000D02*
D03*
Y755000D02*
D03*
Y760000D02*
D03*
Y765000D02*
D03*
Y770000D02*
D03*
Y775000D02*
D03*
Y780000D02*
D03*
Y785000D02*
D03*
Y790000D02*
D03*
Y795000D02*
D03*
Y800000D02*
D03*
Y805000D02*
D03*
Y810000D02*
D03*
Y815000D02*
D03*
Y820000D02*
D03*
Y825000D02*
D03*
Y830000D02*
D03*
Y835000D02*
D03*
Y840000D02*
D03*
Y845000D02*
D03*
Y850000D02*
D03*
Y855000D02*
D03*
D34*
X762500Y872750D02*
D03*
X767500D02*
D03*
X772500D02*
D03*
X777500D02*
D03*
X782500D02*
D03*
X787500D02*
D03*
X792500D02*
D03*
X797500D02*
D03*
X802500D02*
D03*
X807500D02*
D03*
X812500D02*
D03*
X817500D02*
D03*
X822500D02*
D03*
X827500D02*
D03*
X832500D02*
D03*
X837500D02*
D03*
X842500D02*
D03*
X847500D02*
D03*
X852500D02*
D03*
X857500D02*
D03*
X862500D02*
D03*
X867500D02*
D03*
X872500D02*
D03*
X877500D02*
D03*
X882500D02*
D03*
X887500D02*
D03*
X892500D02*
D03*
X897500D02*
D03*
X902500D02*
D03*
X907500D02*
D03*
X912500D02*
D03*
X917500D02*
D03*
X922500D02*
D03*
X927500D02*
D03*
X932500D02*
D03*
X937500D02*
D03*
Y662250D02*
D03*
X932500D02*
D03*
X927500D02*
D03*
X922500D02*
D03*
X917500D02*
D03*
X912500D02*
D03*
X907500D02*
D03*
X902500D02*
D03*
X897500D02*
D03*
X892500D02*
D03*
X887500D02*
D03*
X882500D02*
D03*
X877500D02*
D03*
X872500D02*
D03*
X867500D02*
D03*
X862500D02*
D03*
X857500D02*
D03*
X852500D02*
D03*
X847500D02*
D03*
X842500D02*
D03*
X837500D02*
D03*
X832500D02*
D03*
X827500D02*
D03*
X822500D02*
D03*
X817500D02*
D03*
X812500D02*
D03*
X807500D02*
D03*
X802500D02*
D03*
X797500D02*
D03*
X792500D02*
D03*
X787500D02*
D03*
X782500D02*
D03*
X777500D02*
D03*
X772500D02*
D03*
X767500D02*
D03*
X762500D02*
D03*
D35*
X1020730Y615480D02*
X1039353D01*
X1016000Y610750D02*
X1020730Y615480D01*
X1082499Y672005D02*
Y675999D01*
X1067994Y657500D02*
X1082499Y672005D01*
X1061500Y657500D02*
X1067994D01*
X898750Y592750D02*
Y593250D01*
X908750Y582750D02*
Y582893D01*
X898750Y593250D02*
X905078Y599578D01*
X908750Y582893D02*
X915720Y589863D01*
X800015Y595002D02*
Y607523D01*
X799750Y607788D02*
X800015Y607523D01*
X797500Y662250D02*
Y687750D01*
X790750Y694500D02*
X797500Y687750D01*
X771250Y694500D02*
X790750D01*
X763790Y687040D02*
X771250Y694500D01*
X763790Y675827D02*
Y687040D01*
X749770Y661807D02*
X763790Y675827D01*
X749770Y646853D02*
Y661807D01*
X759750Y677500D02*
Y695064D01*
X750750Y668500D02*
X759750Y677500D01*
X742000Y668500D02*
X750750D01*
X679250Y619250D02*
X685500Y625500D01*
X679250Y595500D02*
Y619250D01*
X700162Y584500D02*
X730750Y615089D01*
X662250Y584500D02*
X700162D01*
X651520Y595230D02*
X662250Y584500D01*
X976750Y867750D02*
Y880500D01*
Y867750D02*
X977500Y867000D01*
X596417Y819750D02*
X600480Y823813D01*
X575266Y819750D02*
X596417D01*
X566646Y828370D02*
X575266Y819750D01*
X631500Y845369D02*
Y891430D01*
X620071Y833940D02*
X631500Y845369D01*
X618397Y837980D02*
X627250Y846833D01*
X607272Y833940D02*
X620071D01*
X600480Y827147D02*
X607272Y833940D01*
X600480Y823813D02*
Y827147D01*
X605599Y837980D02*
X618397D01*
X598619Y831000D02*
X605599Y837980D01*
X574500Y831000D02*
X598619D01*
X627250Y846833D02*
Y881796D01*
X635540Y862444D02*
X644500Y853484D01*
X635540Y862444D02*
Y893103D01*
X838565Y854500D02*
X866435D01*
X827500Y865565D02*
Y872750D01*
Y865565D02*
X838565Y854500D01*
X877500Y865565D02*
Y872750D01*
X866435Y854500D02*
X877500Y865565D01*
X792500Y872750D02*
Y911806D01*
X793120Y912426D01*
X762500Y909500D02*
X769000Y916000D01*
X762500Y903500D02*
Y909500D01*
X725011Y757260D02*
Y768989D01*
X721933Y750210D02*
X742787D01*
X711643Y760500D02*
X721933Y750210D01*
X714432Y742380D02*
X735094D01*
X694000Y767500D02*
X711766D01*
X690880Y730854D02*
Y764380D01*
X694000Y767500D01*
X711766D02*
X714620Y770354D01*
X665750Y776500D02*
X706500D01*
X759312Y800000D02*
X768782Y809470D01*
X760874Y795000D02*
X768374Y802500D01*
X768782Y809470D02*
X776030D01*
X768374Y802500D02*
X773000D01*
X764530Y747099D02*
Y753970D01*
X778764Y742759D02*
Y745450D01*
X777483Y728372D02*
Y734146D01*
X764530Y747099D02*
X777483Y734146D01*
X760500Y731415D02*
X767626Y724289D01*
X760500Y731415D02*
Y732250D01*
X767626Y724289D02*
X773400D01*
X777483Y728372D01*
X744750Y720000D02*
X781750D01*
X789500Y727750D01*
X724500Y769500D02*
X725011Y768989D01*
X727761Y731759D02*
X728002Y732000D01*
X767274Y785000D02*
X769263Y783011D01*
X744750Y785000D02*
X767274D01*
X744750Y790000D02*
X776013D01*
X708802Y736750D02*
X714432Y742380D01*
X735094D02*
X737474Y740000D01*
X716929Y749500D02*
X719429Y747000D01*
X737474Y740000D02*
X744750D01*
X703000Y736750D02*
X708802D01*
X742787Y750210D02*
X742967Y750030D01*
X734500Y732000D02*
X736500Y730000D01*
X728002Y732000D02*
X734500D01*
X695484Y726250D02*
X709000D01*
X883269Y759760D02*
X890740D01*
X891000Y759500D01*
X891750Y760250D01*
X514000Y696750D02*
X518500D01*
X568750Y694500D02*
X571000Y696750D01*
X568750Y675500D02*
Y694500D01*
X751935Y695000D02*
X755710Y691225D01*
X744750Y695000D02*
X751935D01*
X709000Y681500D02*
X709250Y681750D01*
X725500D01*
X734790Y613415D02*
Y626159D01*
X722000Y600625D02*
X734790Y613415D01*
X722000Y595000D02*
Y600625D01*
X730750Y615089D02*
Y627833D01*
X734790Y626159D02*
X753810Y645179D01*
X730750Y627833D02*
X749770Y646853D01*
X758500Y760000D02*
X764530Y753970D01*
X744750Y760000D02*
X758500D01*
X744750Y715000D02*
X782463D01*
X797070Y729607D01*
X744750Y755000D02*
X751935D01*
X769250Y591500D02*
Y598750D01*
X779000Y593916D02*
Y594750D01*
X792014Y588252D02*
Y597014D01*
X837016Y594752D02*
X839961Y597697D01*
X844267Y587752D02*
Y593267D01*
X769250Y598750D02*
X769950Y599450D01*
X792014Y597014D02*
X795096Y600096D01*
X755500Y594250D02*
X760250Y599000D01*
X736500Y730000D02*
X744750D01*
X724500Y715500D02*
Y721000D01*
X720250Y725250D02*
X724500Y721000D01*
X702750Y749500D02*
X716929D01*
X789500Y727750D02*
Y784250D01*
X620500Y954250D02*
X644250Y978000D01*
X620500Y906250D02*
Y954250D01*
X936807Y931589D02*
X942220Y926177D01*
X933411Y931589D02*
X936807D01*
X942220Y885613D02*
Y926177D01*
X927250Y937750D02*
X933411Y931589D01*
X932363Y881530D02*
X932500D01*
X928280Y885613D02*
X932363Y881530D01*
X932500Y872750D02*
Y881530D01*
X935250Y888500D02*
X937480Y886270D01*
Y872750D02*
Y886270D01*
X942120Y885513D02*
X942220Y885613D01*
X942120Y828066D02*
Y885513D01*
X785670Y953170D02*
X808830D01*
X818220Y943780D01*
Y934030D02*
X820985Y931265D01*
X808250Y903500D02*
X820985Y916235D01*
Y931265D01*
X814980Y904517D02*
X844017Y933553D01*
Y948770D01*
X638460Y957210D02*
X876577D01*
X821500Y894250D02*
X825000Y897750D01*
Y904500D01*
X814980Y887603D02*
Y904517D01*
Y887603D02*
X817500Y885083D01*
Y872750D02*
Y885083D01*
X808250Y884185D02*
X812500Y879935D01*
Y872750D02*
Y879935D01*
X808250Y884185D02*
Y903500D01*
X845547Y890424D02*
Y906547D01*
Y890424D02*
X847500Y888471D01*
X845547Y906547D02*
X848517Y909517D01*
X785250Y936750D02*
X793120Y928880D01*
Y912426D02*
Y928880D01*
X818220Y934030D02*
Y943780D01*
X764000Y923710D02*
X779598D01*
X750840Y910550D02*
X764000Y923710D01*
X807911Y919268D02*
X814015D01*
X802460Y913817D02*
X807911Y919268D01*
X802460Y872790D02*
Y913817D01*
Y872790D02*
X802500Y872750D01*
X810479Y859265D02*
X815515D01*
X807500Y862244D02*
X810479Y859265D01*
X807500Y862244D02*
Y872750D01*
X797500D02*
Y920000D01*
X800891Y923391D01*
X722000Y949250D02*
X741000D01*
X922500Y872750D02*
Y923083D01*
X876577Y957210D02*
X917500Y916287D01*
X999744Y831387D02*
Y890006D01*
X952325Y937425D02*
X999744Y890006D01*
X917500Y872750D02*
Y916287D01*
X985774Y800012D02*
X986749D01*
X965339Y792810D02*
X1007333D01*
X984103Y788770D02*
X995397D01*
X976333Y781000D02*
X984103Y788770D01*
X955250Y800000D02*
X986762D01*
X955250Y820000D02*
X988357D01*
X999744Y831387D01*
X981250Y828000D02*
X986500D01*
X979280Y826030D02*
X981250Y828000D01*
X995000Y735000D02*
X1007500D01*
X989500Y740500D02*
X995000Y735000D01*
X995813Y771980D02*
X997353Y773520D01*
X1000783D02*
X1003775Y776511D01*
X997353Y773520D02*
X1000783D01*
X973750Y781000D02*
X976333D01*
X962435Y790000D02*
X972592Y779843D01*
X1014792Y787042D02*
X1021750Y794000D01*
X997125Y787042D02*
X1014792D01*
X995397Y788770D02*
X997125Y787042D01*
X1008633Y792370D02*
X1010275Y794012D01*
X963148Y795000D02*
X965339Y792810D01*
X1007333D02*
X1007773Y792370D01*
X1008633D01*
X968334Y771980D02*
X995813D01*
X521000Y870000D02*
X522250Y871250D01*
X561750D01*
X720250Y861250D02*
X736500Y845000D01*
X744750D01*
X725000Y862213D02*
Y867750D01*
Y862213D02*
X737213Y850000D01*
X744750D01*
X738124Y855000D02*
X744750D01*
X733000Y860124D02*
X738124Y855000D01*
X733000Y860124D02*
Y883456D01*
X651520Y595230D02*
Y613980D01*
X643750Y621750D02*
X651520Y613980D01*
X643750Y621750D02*
Y632750D01*
X753810Y647977D02*
X762500Y656667D01*
X753810Y645179D02*
Y647977D01*
X644500Y840016D02*
Y853484D01*
Y840016D02*
X681180Y803336D01*
Y796864D02*
Y803336D01*
X561750Y843750D02*
X574500Y831000D01*
X561750Y843750D02*
Y847250D01*
X539130Y828370D02*
X566646D01*
X520750Y846750D02*
X539130Y828370D01*
X520750Y846750D02*
Y867500D01*
X606500Y892250D02*
X620500Y906250D01*
X908857Y572500D02*
X909857Y573500D01*
X910607Y572750D01*
X905078Y599578D02*
Y607960D01*
X844880Y599852D02*
Y607960D01*
X842725Y597697D02*
X844880Y599852D01*
X839961Y597697D02*
X842725D01*
X704250Y760500D02*
X711643D01*
X767451Y821263D02*
X772763D01*
X756188Y810000D02*
X767451Y821263D01*
X799750Y607788D02*
X799922Y607960D01*
X779000Y593916D02*
X784936Y599852D01*
Y607960D01*
X963725Y830000D02*
X967695Y826030D01*
X955250Y830000D02*
X963725D01*
X967695Y826030D02*
X979280D01*
X969000Y835000D02*
X971000Y833000D01*
X955250Y835000D02*
X969000D01*
X955250Y845000D02*
X966750D01*
X967710Y844040D01*
X982957D01*
X992000Y853083D01*
Y854000D01*
X965500Y855000D02*
X977500Y867000D01*
X992538Y840000D02*
X992774Y839764D01*
X955250Y840000D02*
X992538D01*
X976500Y850000D02*
X977500Y851000D01*
X955250Y850000D02*
X976500D01*
X955250Y855000D02*
X965500D01*
X955250Y815000D02*
X1010262D01*
X945186Y825000D02*
X955250D01*
X942120Y828066D02*
X945186Y825000D01*
X1079880Y649380D02*
X1082499Y651999D01*
X1058130Y649380D02*
X1079880D01*
X1047250Y638500D02*
X1058130Y649380D01*
X814750Y678250D02*
X817500Y675500D01*
Y662250D02*
Y675500D01*
X811946Y744874D02*
Y751145D01*
X813500Y752700D02*
Y798000D01*
X811946Y751145D02*
X813500Y752700D01*
X822500Y662250D02*
Y734320D01*
X811946Y744874D02*
X822500Y734320D01*
X821500Y894250D02*
X822000Y893750D01*
X822500Y834500D02*
Y872750D01*
X803500Y815500D02*
X822500Y834500D01*
X640250Y632750D02*
X643750D01*
X687016Y609000D02*
X689500D01*
X826750Y642500D02*
X827000Y642750D01*
X754814Y700000D02*
X759750Y695064D01*
X744750Y700000D02*
X754814D01*
X593500Y632750D02*
X595734D01*
X819516Y748010D02*
X820516D01*
X827500Y741025D01*
X830240Y749260D02*
X832140Y747360D01*
X803500Y790500D02*
Y815500D01*
Y790500D02*
X805250Y788750D01*
X891750Y760250D02*
X907000Y745000D01*
X894750Y749750D02*
X904500Y740000D01*
X885250Y749750D02*
X894750D01*
X904270Y758510D02*
X912780Y750000D01*
X919610Y766078D02*
X925688Y760000D01*
X914618Y771070D02*
X919610Y766078D01*
X924250Y768000D02*
X927250Y765000D01*
X924250Y768000D02*
Y773250D01*
X927250Y765000D02*
X955250D01*
X850000Y768250D02*
X850750D01*
X842450Y760700D02*
X850000Y768250D01*
X867750Y742096D02*
Y761000D01*
X869250Y762500D01*
X851730Y726076D02*
X867750Y742096D01*
X847090Y727998D02*
X856767Y737675D01*
X827500Y662250D02*
Y741025D01*
X877500Y670738D02*
X881519Y674756D01*
X877500Y662250D02*
Y670738D01*
X946250Y725000D02*
X955250D01*
X711750Y904706D02*
Y911200D01*
Y904706D02*
X733000Y883456D01*
X710756Y911200D02*
X711750D01*
X722000Y908000D02*
X722250Y907750D01*
X722000Y908000D02*
Y922250D01*
X925688Y760000D02*
X955250D01*
X549625Y778000D02*
X564250D01*
X695500Y946000D02*
X698750Y949250D01*
X722000D01*
X608250Y698250D02*
X649000D01*
X611750Y793250D02*
X649000D01*
X571250Y847250D02*
Y853000D01*
X567000Y857250D02*
X571250Y853000D01*
X553000Y857250D02*
X567000D01*
X543000Y847250D02*
X553000Y857250D01*
X589750Y801000D02*
X594000Y796750D01*
Y764000D02*
Y796750D01*
X577000Y747000D02*
X594000Y764000D01*
X638750Y604250D02*
X640250Y605750D01*
X616500Y604250D02*
X638750D01*
X592000D02*
X593500Y605750D01*
X569750Y604250D02*
X592000D01*
X1017750Y583750D02*
X1018000Y584000D01*
X1002000Y583750D02*
X1017750D01*
X1047000Y584000D02*
X1077500D01*
X1178875Y753000D02*
Y758730D01*
X1085500Y855500D02*
X1099000D01*
X1094500Y812750D02*
Y815250D01*
X1181250Y838750D02*
Y886750D01*
X1150250Y917750D02*
X1181250Y886750D01*
X1056750Y917750D02*
X1150250D01*
X1056750Y864750D02*
Y887750D01*
X1168500Y815500D02*
X1181250Y828250D01*
Y838750D01*
X1171750Y848250D02*
X1181250Y838750D01*
X1139000Y848250D02*
X1171750D01*
X1131750Y855500D02*
X1139000Y848250D01*
X1118000Y855500D02*
X1131750D01*
X1099000D02*
Y897000D01*
X1107250Y905250D01*
X1108500Y855500D02*
Y883000D01*
X1157500Y831500D02*
X1157750Y831750D01*
X1118000Y831500D02*
X1157500D01*
X1042500Y657500D02*
X1061500D01*
X1047250Y627750D02*
Y638500D01*
X1101599Y676099D02*
X1121749D01*
X1101499Y675999D02*
X1101599Y676099D01*
X721750Y702500D02*
X724750Y699500D01*
X723500Y698500D02*
X724500Y699500D01*
Y698380D02*
Y699500D01*
X730250Y705000D02*
X744750D01*
X724750Y699500D02*
X730250Y705000D01*
X703750Y831750D02*
X704000Y832000D01*
X703750Y819000D02*
Y831750D01*
X822000Y891250D02*
Y893750D01*
X822250D01*
X838000Y891250D02*
Y893750D01*
X838250Y894000D02*
Y907250D01*
X978000Y724500D02*
X978250Y724250D01*
Y711500D02*
Y724250D01*
X822000Y891250D02*
X827500Y885750D01*
Y872750D02*
Y885750D01*
X832500Y885750D02*
X838000Y891250D01*
X832500Y872750D02*
Y885750D01*
X972500Y735000D02*
X978000Y740500D01*
X955250Y735000D02*
X972500D01*
Y730000D02*
X978000Y724500D01*
X955250Y730000D02*
X972500D01*
X887500Y650250D02*
X893000Y644750D01*
X887500Y650250D02*
Y662250D01*
X877000Y642750D02*
Y645000D01*
X882500Y650500D01*
Y662250D01*
X843000Y642750D02*
Y645250D01*
X837500Y650750D02*
X843000Y645250D01*
X837500Y650750D02*
Y662250D01*
X832500Y650750D02*
Y662250D01*
X772500Y650500D02*
Y662250D01*
X724500Y715500D02*
X730000Y710000D01*
X744750D01*
X724500Y769500D02*
X724750D01*
X730250Y775000D01*
X744750D01*
X724500Y785500D02*
X730000Y780000D01*
X744750D01*
X722500Y830000D02*
X744750D01*
Y835000D02*
X754814D01*
X759250Y839436D01*
X887500Y842500D02*
Y872750D01*
X649000Y793250D02*
X665750Y776500D01*
X664500Y709750D02*
X706500D01*
X649000Y698250D02*
X653000D01*
X664500Y709750D01*
X721430Y804070D02*
X722500Y803000D01*
X704820Y804070D02*
X721430D01*
X714620Y770354D02*
Y782646D01*
X704836Y792430D02*
X714620Y782646D01*
X687250Y866500D02*
X695500D01*
X690880Y730854D02*
X695484Y726250D01*
X681180Y796864D02*
X685614Y792430D01*
X704836D01*
X744750Y805000D02*
X757750D01*
X744750Y800000D02*
X759312D01*
X744750Y795000D02*
X760874D01*
X744750Y810000D02*
X756188D01*
X811500Y800000D02*
X813500Y798000D01*
X856767Y737675D02*
Y751510D01*
X797070Y729607D02*
Y791930D01*
X795500Y793500D02*
X797070Y791930D01*
X914270Y771418D02*
X914618Y771070D01*
X914270Y771418D02*
Y778511D01*
X676044Y946000D02*
X695500D01*
X642500Y896000D02*
X686250D01*
X687690Y894560D01*
X722126Y846000D02*
X728126Y840000D01*
X744750D01*
X518250Y870000D02*
X521000D01*
X518250D02*
X520750Y867500D01*
X695246Y897504D02*
X725000Y867750D01*
X759250Y839436D02*
Y853250D01*
X740750Y871750D02*
Y877000D01*
Y871750D02*
X759250Y853250D01*
X912500Y662250D02*
Y677986D01*
X767500Y650500D02*
Y662250D01*
X593500Y632750D02*
Y685250D01*
X827000Y642750D02*
Y645250D01*
X832500Y650750D01*
X762000Y642750D02*
Y645000D01*
X767500Y650500D01*
X772500Y650500D02*
X778000Y645000D01*
Y642750D02*
X779250Y644000D01*
X778000Y642750D02*
Y645000D01*
X874500Y694000D02*
X875320Y694820D01*
X832140Y680644D02*
Y747360D01*
X837810Y681535D02*
Y778560D01*
X842450Y683457D02*
Y760700D01*
X847090Y685379D02*
Y727998D01*
X851730Y687301D02*
Y726076D01*
X862250Y683343D02*
Y687500D01*
X842500Y662250D02*
Y670284D01*
X832140Y680644D02*
X842500Y670284D01*
X847767Y920768D02*
X849969Y922970D01*
X847500Y872750D02*
Y888471D01*
X852500Y872750D02*
Y896000D01*
X864617Y885266D02*
X866518D01*
X867500Y872750D02*
Y884284D01*
X866518Y885266D02*
X867500Y884284D01*
X848517Y909517D02*
Y910768D01*
X857500Y872750D02*
Y891143D01*
X859487Y893130D01*
Y896487D01*
X863000Y900000D01*
X829750Y607816D02*
X829894Y607960D01*
X872500Y872750D02*
Y881391D01*
X873488Y882379D01*
Y899512D01*
X873000Y900000D02*
X873488Y899512D01*
X877500Y872750D02*
X877528Y872778D01*
X897500Y842500D02*
Y872750D01*
X953500Y642750D02*
X954000Y642250D01*
X968750D01*
X939500Y643000D02*
Y650500D01*
X937500Y652500D02*
X939500Y650500D01*
X937500Y652500D02*
Y662250D01*
X952500D02*
X957000D01*
X940750Y674000D02*
X952500Y662250D01*
X935000Y674000D02*
X940750D01*
X932500Y671500D02*
X935000Y674000D01*
X932500Y662250D02*
Y671500D01*
X899998Y607960D02*
Y615814D01*
X955250Y790000D02*
X962435D01*
X1012525Y817263D02*
X1020525D01*
X955250Y770000D02*
X964600D01*
X955250Y795000D02*
X963148D01*
X955250Y775000D02*
X965314D01*
X968334Y771980D01*
X964600Y770000D02*
X970350Y764250D01*
X810000Y607878D02*
X810082Y607960D01*
X657000Y846000D02*
X722126D01*
X644500Y853484D02*
X646996Y855980D01*
X676730D01*
X687250Y866500D01*
X668250Y637000D02*
X679750Y625500D01*
X685500D01*
X767043Y814293D02*
X782648D01*
X757750Y805000D02*
X767043Y814293D01*
X978000Y740500D02*
X989500D01*
X843000Y629250D02*
Y642750D01*
X855040Y607960D02*
X860120D01*
X762500Y656667D02*
Y662250D01*
X893000Y642750D02*
X904250D01*
X760250Y599000D02*
Y607754D01*
X760044Y607960D02*
X760250Y607754D01*
X769950Y599450D02*
Y607960D01*
X843000Y629250D02*
X846220Y626030D01*
X886250Y841250D02*
X887500Y842500D01*
X896250Y841250D02*
X897500Y842500D01*
X1010262Y815000D02*
X1012525Y817263D01*
X920520Y850515D02*
Y857372D01*
X912500Y865392D02*
Y872750D01*
Y865392D02*
X920520Y857372D01*
X907500Y860250D02*
Y872750D01*
Y860250D02*
X911750Y856000D01*
X927500Y841000D02*
Y872750D01*
X900250Y824500D02*
X911000D01*
X927500Y841000D01*
X849969Y922970D02*
X885530D01*
X877528Y872778D02*
Y888528D01*
X883000Y894000D01*
Y905500D01*
X892500Y872750D02*
Y883000D01*
X896980Y887480D01*
X905897D01*
X908000Y889583D01*
Y900500D01*
X885530Y922970D02*
X908000Y900500D01*
X907571Y883440D02*
X912040Y887909D01*
Y910460D01*
X874500Y948000D02*
X912040Y910460D01*
X902500Y872750D02*
Y881000D01*
X904940Y883440D01*
X907571D01*
X932904Y622004D02*
X943022D01*
X929359Y618459D02*
X932904Y622004D01*
X899998Y615814D02*
X902642Y618459D01*
X929359D01*
X927250Y637500D02*
X934000D01*
X939500Y643000D01*
X934161Y628974D02*
X1025859D01*
X1039353Y615480D01*
X1065980D01*
X1078250Y627750D01*
X930687Y625500D02*
X934161Y628974D01*
X910750Y625500D02*
X930687D01*
X914770Y760213D02*
X919983Y755000D01*
X955250D01*
X912780Y750000D02*
X955250D01*
X907000Y745000D02*
X955250D01*
X904500Y740000D02*
X955250D01*
X917500Y671500D02*
X921340Y675340D01*
X917500Y662250D02*
Y671500D01*
X872500Y662250D02*
Y682366D01*
X881519Y674756D02*
Y676408D01*
X847500Y662250D02*
Y671845D01*
X837810Y681535D02*
X847500Y671845D01*
X852500Y662250D02*
Y673408D01*
X842450Y683457D02*
X852500Y673408D01*
X847090Y685379D02*
X857500Y674969D01*
Y662250D02*
Y674969D01*
X851730Y687301D02*
X862500Y676531D01*
Y662250D02*
Y676531D01*
X862250Y683343D02*
X867500Y678093D01*
Y662250D02*
Y678093D01*
X892500Y662250D02*
Y677500D01*
X882750Y687250D02*
X892500Y677500D01*
X903270Y691007D02*
X906540Y687737D01*
X921340Y675340D02*
Y686687D01*
X897500Y662250D02*
Y679509D01*
X890320Y686689D02*
X897500Y679509D01*
X919988Y712508D02*
X920996Y711500D01*
X922558Y710000D02*
X955250D01*
X902500Y662250D02*
Y681071D01*
X895700Y687871D02*
X902500Y681071D01*
X907500Y662250D02*
Y674821D01*
X906540Y675781D02*
X907500Y674821D01*
X906540Y675781D02*
Y687737D01*
X912500Y677986D02*
X913770Y679256D01*
X918520Y689507D02*
X921340Y686687D01*
X919771Y712508D02*
X919988D01*
X929750Y690250D02*
X939500Y700000D01*
X955250D01*
X927250Y703000D02*
X929250Y705000D01*
X955250D01*
X593500Y685250D02*
X593750Y685000D01*
Y682500D02*
Y685000D01*
X829780Y578220D02*
Y594387D01*
X829750Y594417D02*
X829780Y594387D01*
X829750Y594417D02*
Y607816D01*
X844267Y593267D02*
X849960Y598960D01*
Y607960D01*
X909904Y593904D02*
Y607960D01*
X795096Y600096D02*
Y607960D01*
X829780Y578220D02*
X830000Y578000D01*
X810000Y594750D02*
Y607878D01*
X908750Y592750D02*
X909904Y593904D01*
X915720Y589863D02*
Y597694D01*
X915000Y598414D02*
X915720Y597694D01*
X915000Y598414D02*
Y607944D01*
X908750Y572500D02*
X908857D01*
X920064Y583814D02*
Y607960D01*
X908750Y572500D02*
X920064Y583814D01*
X868387Y572280D02*
X872470Y576363D01*
Y582137D01*
X870026Y584581D02*
X872470Y582137D01*
X870026Y584581D02*
Y607960D01*
X852750Y577500D02*
X857970Y572280D01*
X868387D01*
X864946Y579804D02*
X865500Y579250D01*
X864946Y579804D02*
Y607960D01*
X875106Y593144D02*
Y607960D01*
X846220Y626030D02*
X877037D01*
X890827Y639820D02*
X893000D01*
Y642750D01*
X875518Y634504D02*
Y641268D01*
X877037Y626030D02*
X890827Y639820D01*
X875518Y641268D02*
X877000Y642750D01*
X894918Y607960D02*
Y623418D01*
X895000Y623500D01*
X779250Y644000D02*
X784250Y639000D01*
X787500D01*
X801265Y649505D02*
X802500Y650740D01*
Y662250D01*
X837810Y778560D02*
X848250Y789000D01*
X854250D01*
X631500Y950250D02*
X638460Y957210D01*
X635540Y905496D02*
X676044Y946000D01*
X635530Y893113D02*
Y898887D01*
X635540Y898897D02*
Y905496D01*
X631490Y891440D02*
Y900561D01*
X631500Y900571D02*
Y950250D01*
X687690Y894381D02*
Y894560D01*
Y894381D02*
X692124Y889947D01*
X720250Y861250D02*
Y866000D01*
X692124Y889947D02*
X696303D01*
X720250Y866000D01*
X1118000Y831500D02*
X1120824Y834324D01*
X1035730Y848230D02*
X1119008D01*
X1120824Y846414D01*
Y834324D02*
Y846414D01*
X691750Y803000D02*
X703750D01*
X688750Y800000D02*
X691750Y803000D01*
X928280Y885613D02*
Y915530D01*
X934500Y921750D01*
X776030Y809470D02*
X780250Y805250D01*
X787764D01*
X744750Y765000D02*
X759213D01*
X778764Y745450D01*
X919988Y712570D02*
X922558Y710000D01*
X933250Y729250D02*
X937500Y725000D01*
X955250D01*
X923250Y729250D02*
X932500Y720000D01*
X955250D01*
X908000Y731750D02*
X910500D01*
X927250Y715000D01*
X955250D01*
X875320Y694820D02*
X885886D01*
X890320Y690386D01*
Y686689D02*
Y690386D01*
X873250Y705250D02*
X882750D01*
X895700Y692300D01*
Y687871D02*
Y692300D01*
X644250Y978000D02*
X867583D01*
X922500Y923083D01*
X875106Y593144D02*
X877500Y590750D01*
X743390Y910890D02*
X785670Y953170D01*
D36*
X894650Y568073D02*
Y574920D01*
X894750Y575020D01*
X755710Y678862D02*
Y691225D01*
X755486Y678862D02*
X755710D01*
X752824Y676200D02*
X755486Y678862D01*
X731050Y676200D02*
X752824D01*
X812500Y654887D02*
X818600Y648787D01*
X807500Y654046D02*
X815000Y646546D01*
X741500Y621591D02*
X749509Y629600D01*
X741500Y597990D02*
Y621591D01*
X738512Y595002D02*
X741500Y597990D01*
X613000Y885750D02*
X623296D01*
X627250Y881796D01*
X733512Y738560D02*
X737072Y735000D01*
X716014Y738560D02*
X733512D01*
X760710Y741781D02*
X770513Y731977D01*
Y731259D02*
Y731977D01*
X720229Y746200D02*
X736676D01*
X719429Y747000D02*
X720229Y746200D01*
X713300Y735846D02*
X716014Y738560D01*
X713300Y728300D02*
Y735846D01*
X711250Y726250D02*
X713300Y728300D01*
X709000Y726250D02*
X711250D01*
X736676Y746200D02*
X737876Y745000D01*
X737072Y735000D02*
X744750D01*
X760710Y741781D02*
Y745914D01*
X606500Y892250D02*
X613000Y885750D01*
X514000Y696750D02*
X517803D01*
X552953Y731900D01*
X684432D01*
X711517Y722430D02*
X716950Y716997D01*
X711806Y717050D02*
X713300Y715556D01*
Y703294D02*
Y715556D01*
X716950Y693944D02*
Y716997D01*
X684432Y731900D02*
X693902Y722430D01*
X711517D01*
X554444Y728300D02*
X661550D01*
X672850Y717000D01*
X692644D01*
X692694Y717050D01*
X711806D01*
X713300Y703294D02*
X713350Y703244D01*
X735750Y690000D02*
X744750D01*
X733300Y692450D02*
X735750Y690000D01*
X718444Y692450D02*
X733300D01*
X713350Y692453D02*
Y703244D01*
Y692453D02*
X717003Y688800D01*
X731556D01*
X735356Y685000D01*
X744750D01*
X716950Y693944D02*
X718444Y692450D01*
X725500Y681750D02*
X731050Y676200D01*
X742000Y666250D02*
Y668500D01*
X718750Y643000D02*
X742000Y666250D01*
X709750Y643000D02*
X718750D01*
X689500Y618200D02*
X695056D01*
X709000Y642250D02*
X709750Y643000D01*
X696550Y629800D02*
X709000Y642250D01*
X696550Y619694D02*
Y629800D01*
X695056Y618200D02*
X696550Y619694D01*
X689500Y609000D02*
Y618200D01*
X751624Y755000D02*
X760710Y745914D01*
X744750Y755000D02*
X751624D01*
X753998Y581502D02*
X810502D01*
X745500Y590000D02*
X753998Y581502D01*
X745500Y590000D02*
Y620500D01*
X737876Y745000D02*
X744750D01*
X785346Y923554D02*
X789300Y919600D01*
Y914008D02*
Y919600D01*
X782500Y907208D02*
X789300Y914008D01*
X779754Y923554D02*
X785346D01*
X745308Y905018D02*
X750840Y910550D01*
X739268Y905018D02*
X745308D01*
X739227Y904977D02*
X739268Y905018D01*
X777500Y911754D02*
X782550Y916804D01*
X783250Y857500D02*
X787500Y861750D01*
X765876Y857500D02*
X783250D01*
X758700Y864676D02*
X765876Y857500D01*
X982978Y806762D02*
X1042532D01*
X981466Y805250D02*
X982978Y806762D01*
X955500Y805250D02*
X981466D01*
X940573Y780000D02*
X955250D01*
X927073Y793500D02*
X940573Y780000D01*
X920750Y793500D02*
X927073D01*
X955612Y810362D02*
X1023170D01*
X955250Y810000D02*
X955612Y810362D01*
X947527Y685000D02*
X955250D01*
X944350Y678177D02*
Y681823D01*
X947527Y685000D01*
X1122450Y737450D02*
X1129750Y744750D01*
X1062306Y737450D02*
X1122450D01*
X1004855Y680000D02*
X1062306Y737450D01*
X955250Y680000D02*
X1004855D01*
X1143500Y771000D02*
X1150875D01*
X1137500Y777000D02*
X1143500Y771000D01*
X1064045Y733250D02*
X1129750D01*
X1150025Y750650D02*
X1150875Y751500D01*
X1139790Y750650D02*
X1150025D01*
X1138225Y749085D02*
X1139790Y750650D01*
X1138225Y742225D02*
Y749085D01*
X1129750Y733750D02*
X1138225Y742225D01*
X1006395Y675600D02*
X1064045Y733250D01*
X944350Y678177D02*
X946927Y675600D01*
X1006395D01*
X762500Y872750D02*
Y887500D01*
X751500D02*
X762500D01*
X751250Y887750D02*
X751500Y887500D01*
X762500Y872750D02*
X767500D01*
X777500D02*
Y911754D01*
X758700Y864676D02*
Y869800D01*
X735250Y893250D02*
X758700Y869800D01*
X735250Y893250D02*
Y894250D01*
X732261Y905017D02*
X739267D01*
X739227Y904977D02*
X739267Y905017D01*
X782500Y872750D02*
Y907208D01*
X834974Y616270D02*
X840704Y622000D01*
X834974Y607960D02*
Y616270D01*
X840054Y607960D02*
Y615757D01*
X842300Y618003D01*
X777500Y652497D02*
Y662250D01*
X879750Y607778D02*
X879932Y607960D01*
X790016Y615503D02*
X792516Y618003D01*
X790016Y607960D02*
Y615503D01*
X777500Y652497D02*
X779697Y650300D01*
X812500Y654887D02*
Y662250D01*
X807500Y654046D02*
Y662250D01*
X779697Y650300D02*
X785746D01*
X787500Y653637D02*
Y662250D01*
Y861750D02*
Y872750D01*
X922500Y651454D02*
Y662250D01*
X927500Y651363D02*
Y662250D01*
X745500Y620500D02*
X751000Y626000D01*
X955250Y805000D02*
X955500Y805250D01*
X825068Y596068D02*
Y607960D01*
X810502Y581502D02*
X825068Y596068D01*
X879932Y599068D02*
Y607960D01*
X885012Y599079D02*
Y607960D01*
X890092Y599090D02*
Y607960D01*
Y599090D02*
X891769Y597413D01*
Y578001D02*
X894750Y575020D01*
X891769Y578001D02*
Y597413D01*
X842300Y618003D02*
X879503D01*
X840704Y622000D02*
X878409D01*
X891609Y635200D01*
X879503Y618003D02*
X893100Y631600D01*
X907304D01*
X908387Y632250D02*
X927500Y651363D01*
X907304Y631600D02*
X907954Y632250D01*
X908387D01*
X891609Y635200D02*
X905813D01*
X906463Y635850D01*
X906896D01*
X922500Y651454D01*
X751000Y626000D02*
X789137D01*
X749509Y629600D02*
X787646D01*
X789137Y626000D02*
X797850Y634713D01*
X787646Y629600D02*
X794250Y636204D01*
Y641796D01*
X787500Y653637D02*
X797850Y643287D01*
Y634713D02*
Y643287D01*
X785746Y650300D02*
X794250Y641796D01*
X1023170Y810362D02*
X1028250Y815442D01*
Y840750D01*
X1035730Y848230D01*
X514000Y671350D02*
X531450Y688800D01*
Y705306D01*
X554444Y728300D01*
X818600Y630509D02*
Y648787D01*
X805002Y607960D02*
Y616911D01*
X818600Y630509D01*
X792516Y618003D02*
X800753D01*
X815000Y632250D01*
Y646546D01*
X1103000Y801250D02*
X1119750Y784500D01*
X1042532Y806762D02*
X1048044Y801250D01*
X1103000D01*
X1119750Y784500D02*
X1123500D01*
X1154500Y815500D01*
X1168500D01*
X885012Y599079D02*
X888019Y596073D01*
X879932Y599068D02*
X884250Y594750D01*
X888019Y572769D02*
Y596073D01*
X881269Y579501D02*
Y584973D01*
X884250Y587954D01*
Y594750D01*
X884820Y569570D02*
X888019Y572769D01*
X884750Y569570D02*
X884820D01*
D37*
X991305Y697695D02*
X1057811Y764200D01*
X968695Y697695D02*
X991305D01*
X1057811Y764200D02*
X1089200D01*
X994495Y689995D02*
X996750Y692250D01*
X996750D02*
X1054450Y749950D01*
X1089200D01*
X972005Y689995D02*
X994495D01*
X1134238Y754135D02*
X1136062Y755958D01*
X1119685Y754135D02*
X1134238D01*
X1118300Y752750D02*
X1119685Y754135D01*
X1110000Y752750D02*
X1118300D01*
X1131885Y765750D02*
X1137750D01*
X1131750Y765615D02*
X1131885Y765750D01*
X1119685Y765615D02*
X1131750D01*
X1118300Y767000D02*
X1119685Y765615D01*
X1110000Y767000D02*
X1118300D01*
X1089200Y764200D02*
X1092000Y767000D01*
X966500Y695500D02*
X968695Y697695D01*
X1089200Y749950D02*
X1092000Y752750D01*
D38*
X1139000Y764500D02*
X1150875D01*
X1137750Y765750D02*
X1139000Y764500D01*
X1138103Y758000D02*
X1150875D01*
X1136062Y755958D02*
X1138103Y758000D01*
X966000Y695000D02*
X966500Y695500D01*
X955250Y695000D02*
X966000D01*
X964010Y689995D02*
X972005D01*
X955250Y690000D02*
X964005D01*
D39*
X521625Y731560D02*
D03*
X521625Y798440D02*
D03*
X1178875Y797940D02*
D03*
X1178875Y731060D02*
D03*
D40*
X977800Y937500D02*
D03*
X952400D02*
D03*
X514000Y671350D02*
D03*
Y645950D02*
D03*
X663200Y564000D02*
D03*
X637800D02*
D03*
X612400D02*
D03*
X855700Y967500D02*
D03*
X830300D02*
D03*
X804900D02*
D03*
X805200Y937500D02*
D03*
X830600D02*
D03*
X952400Y967500D02*
D03*
X977800D02*
D03*
X1067900Y937500D02*
D03*
D41*
X927000D02*
D03*
X586250Y564000D02*
D03*
X779500Y967500D02*
D03*
X856000Y937500D02*
D03*
X927000Y967500D02*
D03*
X1042500Y937500D02*
D03*
D42*
X552875Y742750D02*
D03*
Y787250D02*
D03*
X1147625Y786750D02*
D03*
Y742250D02*
D03*
D43*
X521625Y724125D02*
D03*
Y805875D02*
D03*
X1178875Y805375D02*
D03*
Y723625D02*
D03*
D44*
X1160000Y590000D02*
D03*
Y940000D02*
D03*
X540000D02*
D03*
Y590000D02*
D03*
D45*
X514000Y696750D02*
D03*
D46*
X894650Y568073D02*
D03*
X898750Y592750D02*
D03*
X908750Y582750D02*
D03*
X800015Y595002D02*
D03*
X1162000Y896000D02*
D03*
X1169000Y882000D02*
D03*
X1155000D02*
D03*
X1134000Y868000D02*
D03*
X781750Y677750D02*
D03*
X806500Y639250D02*
D03*
X679250Y595500D02*
D03*
X976750Y880500D02*
D03*
X1037250Y827250D02*
D03*
X1077500Y867000D02*
D03*
X547750Y662000D02*
D03*
X538500D02*
D03*
X769000Y916000D02*
D03*
X725011Y757260D02*
D03*
X773000Y802500D02*
D03*
X770513Y731259D02*
D03*
X778764Y742759D02*
D03*
X760500Y732250D02*
D03*
X727761Y731759D02*
D03*
X774500Y704500D02*
D03*
X769263Y783011D02*
D03*
X883269Y759760D02*
D03*
X1120000Y600000D02*
D03*
X1100000Y720000D02*
D03*
X1080000Y600000D02*
D03*
X1040000Y920000D02*
D03*
Y760000D02*
D03*
Y600000D02*
D03*
X1000000Y920000D02*
D03*
X1020000Y880000D02*
D03*
Y640000D02*
D03*
X1000000Y600000D02*
D03*
X980000Y640000D02*
D03*
X960000Y600000D02*
D03*
X940000Y800000D02*
D03*
X900000D02*
D03*
Y720000D02*
D03*
X840000Y840000D02*
D03*
X860000Y800000D02*
D03*
Y720000D02*
D03*
Y640000D02*
D03*
X800000Y840000D02*
D03*
X680000Y920000D02*
D03*
Y760000D02*
D03*
X640000Y920000D02*
D03*
X660000Y880000D02*
D03*
X640000Y760000D02*
D03*
X600000D02*
D03*
X620000Y720000D02*
D03*
X560000Y920000D02*
D03*
X580000Y720000D02*
D03*
X520000Y920000D02*
D03*
X540000Y640000D02*
D03*
X520000Y600000D02*
D03*
X769250Y591500D02*
D03*
X779000Y594750D02*
D03*
X792014Y588252D02*
D03*
X837016Y594752D02*
D03*
X844267Y587752D02*
D03*
X755500Y594250D02*
D03*
X738512Y595002D02*
D03*
X720250Y725250D02*
D03*
X934500Y921750D02*
D03*
X935250Y888500D02*
D03*
X844017Y948770D02*
D03*
X825000Y904500D02*
D03*
X852517Y896017D02*
D03*
X803086Y924300D02*
D03*
X804765Y829014D02*
D03*
X815515Y859265D02*
D03*
X814015Y919268D02*
D03*
X782550Y916804D02*
D03*
X985774Y800012D02*
D03*
X986500Y828000D02*
D03*
X1003775Y776511D02*
D03*
X1010275Y794012D02*
D03*
X1021750Y794000D02*
D03*
X537520Y859250D02*
D03*
X558000Y801001D02*
D03*
X528250Y859250D02*
D03*
X709000Y669500D02*
D03*
X1140001Y720000D02*
D03*
Y710000D02*
D03*
Y700000D02*
D03*
X580500Y918001D02*
D03*
X576001Y909001D02*
D03*
X585000Y927001D02*
D03*
X576001D02*
D03*
X585000Y909001D02*
D03*
X589501Y918001D02*
D03*
X576001Y765001D02*
D03*
X567001Y801001D02*
D03*
X571501Y792001D02*
D03*
X704250Y760500D02*
D03*
X971000Y833000D02*
D03*
X992774Y839764D02*
D03*
X1129750Y744750D02*
D03*
X1137500Y777000D02*
D03*
X1129750Y733750D02*
D03*
X814750Y678250D02*
D03*
X785250Y936750D02*
D03*
X862250Y687500D02*
D03*
X819516Y748010D02*
D03*
X830240Y749260D02*
D03*
X811500Y800000D02*
D03*
X772763Y821263D02*
D03*
X805250Y788750D02*
D03*
X789500Y784250D02*
D03*
X885250Y749750D02*
D03*
X914770Y760213D02*
D03*
X904270Y758510D02*
D03*
X924250Y773250D02*
D03*
X850750Y768250D02*
D03*
X869250Y762500D02*
D03*
X711750Y911200D02*
D03*
X722250Y907750D02*
D03*
X989500Y740500D02*
D03*
X751250Y887750D02*
D03*
X1002000Y583750D02*
D03*
X1085500Y855500D02*
D03*
X1040001Y690000D02*
D03*
X1170001Y640000D02*
D03*
X1160001D02*
D03*
X1150001D02*
D03*
X704000Y832000D02*
D03*
X838250Y907250D02*
D03*
X978250Y711500D02*
D03*
X536000Y886750D02*
D03*
Y897500D02*
D03*
X1127000Y629500D02*
D03*
X1127250Y615250D02*
D03*
X695259Y897517D02*
D03*
X688750Y800000D02*
D03*
X795500Y793500D02*
D03*
X856250Y755750D02*
D03*
X920750Y793500D02*
D03*
X914270Y778511D02*
D03*
X642500Y896000D02*
D03*
X740750Y877000D02*
D03*
X735250Y894250D02*
D03*
X732261Y905017D02*
D03*
X742512Y911768D02*
D03*
X843000Y629250D02*
D03*
X873250Y705250D02*
D03*
X874500Y694000D02*
D03*
X847767Y920768D02*
D03*
X866518Y885266D02*
D03*
X863000Y900000D02*
D03*
X848517Y910768D02*
D03*
X883000Y905500D02*
D03*
X873000Y900000D02*
D03*
X968750Y642250D02*
D03*
X1020525Y817263D02*
D03*
X657000Y846000D02*
D03*
X782648Y814293D02*
D03*
X787764Y805262D02*
D03*
X779250Y787250D02*
D03*
X904250Y642750D02*
D03*
X927250Y637500D02*
D03*
X828250Y625750D02*
D03*
X722000Y595000D02*
D03*
X886250Y841250D02*
D03*
X896250D02*
D03*
X911750Y856000D02*
D03*
X920520Y850515D02*
D03*
X900250Y824500D02*
D03*
X874500Y948000D02*
D03*
X943022Y622004D02*
D03*
X910750Y625500D02*
D03*
X973250Y764250D02*
D03*
X933250Y729250D02*
D03*
X881519Y676408D02*
D03*
X873018Y682757D02*
D03*
X882750Y687250D02*
D03*
X923250Y729250D02*
D03*
X903270Y691007D02*
D03*
X913770Y679256D02*
D03*
X918520Y689507D02*
D03*
X919771Y712508D02*
D03*
X929750Y690250D02*
D03*
X927250Y703000D02*
D03*
X908000Y731750D02*
D03*
X593750Y682500D02*
D03*
X852750Y577500D02*
D03*
X830000Y578000D02*
D03*
X810000Y594750D02*
D03*
X908750Y592750D02*
D03*
Y572500D02*
D03*
X881269Y579501D02*
D03*
X865500Y579250D02*
D03*
X875518Y634504D02*
D03*
X895000Y623500D02*
D03*
X787500Y639000D02*
D03*
X801265Y649505D02*
D03*
X854250Y789000D02*
D03*
X589501Y846001D02*
D03*
X594001Y855001D02*
D03*
X598501Y864001D02*
D03*
X607500D02*
D03*
X603000Y873001D02*
D03*
X612001D02*
D03*
X1057501Y810001D02*
D03*
X1053001Y819001D02*
D03*
X1062001D02*
D03*
X1075501Y828001D02*
D03*
X1080001Y819001D02*
D03*
X1084501Y828001D02*
D03*
X1098001Y621001D02*
D03*
X1107001D02*
D03*
X877500Y590750D02*
D03*
X884750Y569570D02*
D03*
M02*
