G04 Layer_Color=65535*
%FSLAX44Y44*%
%MOMM*%
G71*
G01*
G75*
%ADD35C,0.2540*%
%ADD64C,0.1270*%
%ADD65C,0.2500*%
%ADD66C,0.6000*%
%ADD67C,0.2000*%
%ADD68C,0.1524*%
%ADD69R,0.2040X1.3000*%
%ADD70R,1.3000X0.2040*%
G36*
X756444Y623236D02*
X756464Y623255D01*
X756540Y623332D01*
X756675Y623428D01*
X756848Y623562D01*
X757059Y623735D01*
X757309Y623908D01*
X757597Y624119D01*
X757923Y624311D01*
X757942D01*
X757961Y624330D01*
X758077Y624407D01*
X758249Y624503D01*
X758461Y624618D01*
X758710Y624753D01*
X758979Y624868D01*
X759267Y625003D01*
X759536Y625118D01*
Y623601D01*
X759517D01*
X759478Y623582D01*
X759402Y623543D01*
X759325Y623486D01*
X759210Y623428D01*
X759075Y623370D01*
X758768Y623198D01*
X758422Y622986D01*
X758038Y622737D01*
X757654Y622449D01*
X757289Y622141D01*
X757270Y622122D01*
X757251Y622103D01*
X757136Y621988D01*
X756963Y621815D01*
X756752Y621604D01*
X756521Y621335D01*
X756291Y621047D01*
X756080Y620740D01*
X755907Y620432D01*
X754889D01*
Y633106D01*
X756444D01*
Y623236D01*
D02*
G37*
D35*
X971828Y615868D02*
X966750D01*
Y612059D01*
X969289Y613328D01*
X970559D01*
X971828Y612059D01*
Y609520D01*
X970559Y608250D01*
X968020D01*
X966750Y609520D01*
X974368Y615868D02*
Y610789D01*
X976907Y608250D01*
X979446Y610789D01*
Y615868D01*
X981985Y606980D02*
X987063D01*
X989603Y615868D02*
X994681D01*
X992142D01*
Y608250D01*
X997220D02*
Y615868D01*
X1001029D01*
X1002299Y614598D01*
Y612059D01*
X1001029Y610789D01*
X997220D01*
X1039652Y698750D02*
X1038382Y700020D01*
Y702559D01*
X1039652Y703828D01*
X1040922D01*
X1042191Y702559D01*
Y701289D01*
Y702559D01*
X1043461Y703828D01*
X1044730D01*
X1046000Y702559D01*
Y700020D01*
X1044730Y698750D01*
X1038382Y706367D02*
X1043461D01*
X1046000Y708907D01*
X1043461Y711446D01*
X1038382D01*
X1039652Y713985D02*
X1038382Y715255D01*
Y717794D01*
X1039652Y719063D01*
X1040922D01*
X1042191Y717794D01*
Y716524D01*
Y717794D01*
X1043461Y719063D01*
X1044730D01*
X1046000Y717794D01*
Y715255D01*
X1044730Y713985D01*
X1047270Y721603D02*
Y726681D01*
X1038382Y729220D02*
Y734298D01*
Y731759D01*
X1046000D01*
Y736838D02*
X1038382D01*
Y740646D01*
X1039652Y741916D01*
X1042191D01*
X1043461Y740646D01*
Y736838D01*
X504383Y590250D02*
X510730D01*
X512000Y591520D01*
Y594059D01*
X510730Y595328D01*
X504383D01*
X512000Y597868D02*
X506922D01*
X504383Y600407D01*
X506922Y602946D01*
X512000D01*
X508191D01*
Y597868D01*
X512000Y605485D02*
X504383D01*
Y609294D01*
X505652Y610563D01*
X508191D01*
X509461Y609294D01*
Y605485D01*
Y608024D02*
X512000Y610563D01*
X504383Y613103D02*
Y618181D01*
Y615642D01*
X512000D01*
Y624529D02*
X504383D01*
X508191Y620720D01*
Y625798D01*
X547078Y565098D02*
X545809Y566367D01*
X543270D01*
X542000Y565098D01*
Y563828D01*
X543270Y562559D01*
X545809D01*
X547078Y561289D01*
Y560020D01*
X545809Y558750D01*
X543270D01*
X542000Y560020D01*
X549618Y558750D02*
Y566367D01*
X553426D01*
X554696Y565098D01*
Y562559D01*
X553426Y561289D01*
X549618D01*
X557235Y566367D02*
X559774D01*
X558505D01*
Y558750D01*
X557235D01*
X559774D01*
X568661Y566367D02*
X563583D01*
Y562559D01*
X566122Y563828D01*
X567392D01*
X568661Y562559D01*
Y560020D01*
X567392Y558750D01*
X564853D01*
X563583Y560020D01*
X734500Y974867D02*
X737039D01*
X735770D01*
Y967250D01*
X734500D01*
X737039D01*
X745926D02*
X740848D01*
X745926Y972328D01*
Y973598D01*
X744657Y974867D01*
X742117D01*
X740848Y973598D01*
X753544D02*
X752274Y974867D01*
X749735D01*
X748465Y973598D01*
Y972328D01*
X749735Y971059D01*
X752274D01*
X753544Y969789D01*
Y968520D01*
X752274Y967250D01*
X749735D01*
X748465Y968520D01*
X756083Y973598D02*
X757353Y974867D01*
X759892D01*
X761161Y973598D01*
Y972328D01*
X759892Y971059D01*
X758622D01*
X759892D01*
X761161Y969789D01*
Y968520D01*
X759892Y967250D01*
X757353D01*
X756083Y968520D01*
X885000Y974867D02*
X887539D01*
X886270D01*
Y967250D01*
X885000D01*
X887539D01*
X896426D02*
X891348D01*
X896426Y972328D01*
Y973598D01*
X895157Y974867D01*
X892617D01*
X891348Y973598D01*
X904044D02*
X902774Y974867D01*
X900235D01*
X898966Y973598D01*
Y968520D01*
X900235Y967250D01*
X902774D01*
X904044Y968520D01*
X906583Y967250D02*
X909122D01*
X907853D01*
Y974867D01*
X906583Y973598D01*
X759098Y941922D02*
X760368Y943191D01*
Y945730D01*
X759098Y947000D01*
X754020D01*
X752750Y945730D01*
Y943191D01*
X754020Y941922D01*
X752750Y939382D02*
Y936843D01*
Y938113D01*
X760368D01*
X759098Y939382D01*
X1027348Y753672D02*
X1028617Y754941D01*
Y757480D01*
X1027348Y758750D01*
X1022270D01*
X1021000Y757480D01*
Y754941D01*
X1022270Y753672D01*
X1028617Y746054D02*
Y751133D01*
X1024809D01*
X1026078Y748593D01*
Y747324D01*
X1024809Y746054D01*
X1022270D01*
X1021000Y747324D01*
Y749863D01*
X1022270Y751133D01*
X1082078Y721348D02*
X1080809Y722617D01*
X1078270D01*
X1077000Y721348D01*
Y716270D01*
X1078270Y715000D01*
X1080809D01*
X1082078Y716270D01*
X1084617Y722617D02*
X1089696D01*
Y721348D01*
X1084617Y716270D01*
Y715000D01*
X1123652Y583078D02*
X1122383Y581809D01*
Y579270D01*
X1123652Y578000D01*
X1128730D01*
X1130000Y579270D01*
Y581809D01*
X1128730Y583078D01*
X1123652Y585617D02*
X1122383Y586887D01*
Y589426D01*
X1123652Y590696D01*
X1124922D01*
X1126191Y589426D01*
X1127461Y590696D01*
X1128730D01*
X1130000Y589426D01*
Y586887D01*
X1128730Y585617D01*
X1127461D01*
X1126191Y586887D01*
X1124922Y585617D01*
X1123652D01*
X1126191Y586887D02*
Y589426D01*
X706402Y589328D02*
X705132Y588059D01*
Y585520D01*
X706402Y584250D01*
X711480D01*
X712750Y585520D01*
Y588059D01*
X711480Y589328D01*
X712750Y591867D02*
Y594407D01*
Y593137D01*
X705132D01*
X706402Y591867D01*
X705132Y598215D02*
Y603294D01*
X706402D01*
X711480Y598215D01*
X712750D01*
X727098Y755422D02*
X728367Y756691D01*
Y759230D01*
X727098Y760500D01*
X722020D01*
X720750Y759230D01*
Y756691D01*
X722020Y755422D01*
X720750Y752883D02*
Y750343D01*
Y751613D01*
X728367D01*
X727098Y752883D01*
X722020Y746535D02*
X720750Y745265D01*
Y742726D01*
X722020Y741456D01*
X727098D01*
X728367Y742726D01*
Y745265D01*
X727098Y746535D01*
X725828D01*
X724559Y745265D01*
Y741456D01*
X682152Y702078D02*
X680882Y700809D01*
Y698270D01*
X682152Y697000D01*
X687230D01*
X688500Y698270D01*
Y700809D01*
X687230Y702078D01*
X688500Y709696D02*
Y704617D01*
X683422Y709696D01*
X682152D01*
X680882Y708426D01*
Y705887D01*
X682152Y704617D01*
Y712235D02*
X680882Y713505D01*
Y716044D01*
X682152Y717313D01*
X687230D01*
X688500Y716044D01*
Y713505D01*
X687230Y712235D01*
X682152D01*
X739328Y643848D02*
X738059Y645117D01*
X735520D01*
X734250Y643848D01*
Y638770D01*
X735520Y637500D01*
X738059D01*
X739328Y638770D01*
X746946Y637500D02*
X741868D01*
X746946Y642578D01*
Y643848D01*
X745676Y645117D01*
X743137D01*
X741868Y643848D01*
X749485Y637500D02*
X752024D01*
X750755D01*
Y645117D01*
X749485Y643848D01*
X803578Y629098D02*
X802309Y630368D01*
X799770D01*
X798500Y629098D01*
Y624020D01*
X799770Y622750D01*
X802309D01*
X803578Y624020D01*
X811196Y622750D02*
X806117D01*
X811196Y627828D01*
Y629098D01*
X809926Y630368D01*
X807387D01*
X806117Y629098D01*
X818813Y622750D02*
X813735D01*
X818813Y627828D01*
Y629098D01*
X817544Y630368D01*
X815005D01*
X813735Y629098D01*
X873078Y627098D02*
X871809Y628368D01*
X869270D01*
X868000Y627098D01*
Y622020D01*
X869270Y620750D01*
X871809D01*
X873078Y622020D01*
X880696Y620750D02*
X875618D01*
X880696Y625828D01*
Y627098D01*
X879426Y628368D01*
X876887D01*
X875618Y627098D01*
X883235D02*
X884505Y628368D01*
X887044D01*
X888313Y627098D01*
Y625828D01*
X887044Y624559D01*
X885774D01*
X887044D01*
X888313Y623289D01*
Y622020D01*
X887044Y620750D01*
X884505D01*
X883235Y622020D01*
X995348Y720172D02*
X996618Y721441D01*
Y723980D01*
X995348Y725250D01*
X990270D01*
X989000Y723980D01*
Y721441D01*
X990270Y720172D01*
X989000Y712554D02*
Y717632D01*
X994078Y712554D01*
X995348D01*
X996618Y713824D01*
Y716363D01*
X995348Y717632D01*
X989000Y706206D02*
X996618D01*
X992809Y710015D01*
Y704937D01*
X1021078Y782348D02*
X1019809Y783617D01*
X1017270D01*
X1016000Y782348D01*
Y777270D01*
X1017270Y776000D01*
X1019809D01*
X1021078Y777270D01*
X1028696Y776000D02*
X1023617D01*
X1028696Y781078D01*
Y782348D01*
X1027426Y783617D01*
X1024887D01*
X1023617Y782348D01*
X1036313Y783617D02*
X1031235D01*
Y779809D01*
X1033774Y781078D01*
X1035044D01*
X1036313Y779809D01*
Y777270D01*
X1035044Y776000D01*
X1032505D01*
X1031235Y777270D01*
X952578Y872598D02*
X951309Y873867D01*
X948770D01*
X947500Y872598D01*
Y867520D01*
X948770Y866250D01*
X951309D01*
X952578Y867520D01*
X960196Y866250D02*
X955117D01*
X960196Y871328D01*
Y872598D01*
X958926Y873867D01*
X956387D01*
X955117Y872598D01*
X967813Y873867D02*
X965274Y872598D01*
X962735Y870059D01*
Y867520D01*
X964005Y866250D01*
X966544D01*
X967813Y867520D01*
Y868789D01*
X966544Y870059D01*
X962735D01*
X887078Y920098D02*
X885809Y921367D01*
X883270D01*
X882000Y920098D01*
Y915020D01*
X883270Y913750D01*
X885809D01*
X887078Y915020D01*
X894696Y913750D02*
X889617D01*
X894696Y918828D01*
Y920098D01*
X893426Y921367D01*
X890887D01*
X889617Y920098D01*
X897235Y921367D02*
X902313D01*
Y920098D01*
X897235Y915020D01*
Y913750D01*
X796078Y896348D02*
X794809Y897617D01*
X792270D01*
X791000Y896348D01*
Y891270D01*
X792270Y890000D01*
X794809D01*
X796078Y891270D01*
X803696Y890000D02*
X798617D01*
X803696Y895078D01*
Y896348D01*
X802426Y897617D01*
X799887D01*
X798617Y896348D01*
X806235D02*
X807505Y897617D01*
X810044D01*
X811313Y896348D01*
Y895078D01*
X810044Y893809D01*
X811313Y892539D01*
Y891270D01*
X810044Y890000D01*
X807505D01*
X806235Y891270D01*
Y892539D01*
X807505Y893809D01*
X806235Y895078D01*
Y896348D01*
X807505Y893809D02*
X810044D01*
X746402Y890578D02*
X745132Y889309D01*
Y886770D01*
X746402Y885500D01*
X751480D01*
X752750Y886770D01*
Y889309D01*
X751480Y890578D01*
X752750Y898196D02*
Y893118D01*
X747672Y898196D01*
X746402D01*
X745132Y896926D01*
Y894387D01*
X746402Y893118D01*
X751480Y900735D02*
X752750Y902005D01*
Y904544D01*
X751480Y905813D01*
X746402D01*
X745132Y904544D01*
Y902005D01*
X746402Y900735D01*
X747672D01*
X748941Y902005D01*
Y905813D01*
X685652Y814828D02*
X684382Y813559D01*
Y811020D01*
X685652Y809750D01*
X690730D01*
X692000Y811020D01*
Y813559D01*
X690730Y814828D01*
X685652Y817367D02*
X684382Y818637D01*
Y821176D01*
X685652Y822446D01*
X686922D01*
X688191Y821176D01*
Y819907D01*
Y821176D01*
X689461Y822446D01*
X690730D01*
X692000Y821176D01*
Y818637D01*
X690730Y817367D01*
X685652Y824985D02*
X684382Y826255D01*
Y828794D01*
X685652Y830063D01*
X690730D01*
X692000Y828794D01*
Y826255D01*
X690730Y824985D01*
X685652D01*
X957828Y628848D02*
X956559Y630117D01*
X954020D01*
X952750Y628848D01*
Y623770D01*
X954020Y622500D01*
X956559D01*
X957828Y623770D01*
X960368Y628848D02*
X961637Y630117D01*
X964176D01*
X965446Y628848D01*
Y627578D01*
X964176Y626309D01*
X962907D01*
X964176D01*
X965446Y625039D01*
Y623770D01*
X964176Y622500D01*
X961637D01*
X960368Y623770D01*
X967985Y622500D02*
X970524D01*
X969255D01*
Y630117D01*
X967985Y628848D01*
X722402Y641578D02*
X721133Y640309D01*
Y637770D01*
X722402Y636500D01*
X727480D01*
X728750Y637770D01*
Y640309D01*
X727480Y641578D01*
X722402Y644118D02*
X721133Y645387D01*
Y647926D01*
X722402Y649196D01*
X723672D01*
X724941Y647926D01*
Y646657D01*
Y647926D01*
X726211Y649196D01*
X727480D01*
X728750Y647926D01*
Y645387D01*
X727480Y644118D01*
X728750Y656813D02*
Y651735D01*
X723672Y656813D01*
X722402D01*
X721133Y655544D01*
Y653005D01*
X722402Y651735D01*
X699828Y698848D02*
X698559Y700117D01*
X696020D01*
X694750Y698848D01*
Y693770D01*
X696020Y692500D01*
X698559D01*
X699828Y693770D01*
X702367Y698848D02*
X703637Y700117D01*
X706176D01*
X707446Y698848D01*
Y697578D01*
X706176Y696309D01*
X704907D01*
X706176D01*
X707446Y695039D01*
Y693770D01*
X706176Y692500D01*
X703637D01*
X702367Y693770D01*
X709985Y698848D02*
X711255Y700117D01*
X713794D01*
X715063Y698848D01*
Y697578D01*
X713794Y696309D01*
X712524D01*
X713794D01*
X715063Y695039D01*
Y693770D01*
X713794Y692500D01*
X711255D01*
X709985Y693770D01*
X604328Y658098D02*
X603059Y659368D01*
X600520D01*
X599250Y658098D01*
Y653020D01*
X600520Y651750D01*
X603059D01*
X604328Y653020D01*
X606867Y658098D02*
X608137Y659368D01*
X610676D01*
X611946Y658098D01*
Y656828D01*
X610676Y655559D01*
X609407D01*
X610676D01*
X611946Y654289D01*
Y653020D01*
X610676Y651750D01*
X608137D01*
X606867Y653020D01*
X618294Y651750D02*
Y659368D01*
X614485Y655559D01*
X619563D01*
X627902Y814828D02*
X626632Y813559D01*
Y811020D01*
X627902Y809750D01*
X632980D01*
X634250Y811020D01*
Y813559D01*
X632980Y814828D01*
X627902Y817367D02*
X626632Y818637D01*
Y821176D01*
X627902Y822446D01*
X629172D01*
X630441Y821176D01*
Y819907D01*
Y821176D01*
X631711Y822446D01*
X632980D01*
X634250Y821176D01*
Y818637D01*
X632980Y817367D01*
X626632Y830063D02*
Y824985D01*
X630441D01*
X629172Y827524D01*
Y828794D01*
X630441Y830063D01*
X632980D01*
X634250Y828794D01*
Y826255D01*
X632980Y824985D01*
X994828Y875348D02*
X993559Y876618D01*
X991020D01*
X989750Y875348D01*
Y870270D01*
X991020Y869000D01*
X993559D01*
X994828Y870270D01*
X997367Y875348D02*
X998637Y876618D01*
X1001176D01*
X1002446Y875348D01*
Y874078D01*
X1001176Y872809D01*
X999907D01*
X1001176D01*
X1002446Y871539D01*
Y870270D01*
X1001176Y869000D01*
X998637D01*
X997367Y870270D01*
X1010063Y876618D02*
X1007524Y875348D01*
X1004985Y872809D01*
Y870270D01*
X1006255Y869000D01*
X1008794D01*
X1010063Y870270D01*
Y871539D01*
X1008794Y872809D01*
X1004985D01*
X996902Y654578D02*
X995632Y653309D01*
Y650770D01*
X996902Y649500D01*
X1001980D01*
X1003250Y650770D01*
Y653309D01*
X1001980Y654578D01*
X996902Y657117D02*
X995632Y658387D01*
Y660926D01*
X996902Y662196D01*
X998172D01*
X999441Y660926D01*
Y659657D01*
Y660926D01*
X1000711Y662196D01*
X1001980D01*
X1003250Y660926D01*
Y658387D01*
X1001980Y657117D01*
X995632Y664735D02*
Y669813D01*
X996902D01*
X1001980Y664735D01*
X1003250D01*
X542578Y913598D02*
X541309Y914867D01*
X538770D01*
X537500Y913598D01*
Y908520D01*
X538770Y907250D01*
X541309D01*
X542578Y908520D01*
X545118Y913598D02*
X546387Y914867D01*
X548926D01*
X550196Y913598D01*
Y912328D01*
X548926Y911059D01*
X547657D01*
X548926D01*
X550196Y909789D01*
Y908520D01*
X548926Y907250D01*
X546387D01*
X545118Y908520D01*
X552735Y913598D02*
X554005Y914867D01*
X556544D01*
X557813Y913598D01*
Y912328D01*
X556544Y911059D01*
X557813Y909789D01*
Y908520D01*
X556544Y907250D01*
X554005D01*
X552735Y908520D01*
Y909789D01*
X554005Y911059D01*
X552735Y912328D01*
Y913598D01*
X554005Y911059D02*
X556544D01*
X1075152Y794078D02*
X1073882Y792809D01*
Y790270D01*
X1075152Y789000D01*
X1080230D01*
X1081500Y790270D01*
Y792809D01*
X1080230Y794078D01*
X1075152Y796618D02*
X1073882Y797887D01*
Y800426D01*
X1075152Y801696D01*
X1076422D01*
X1077691Y800426D01*
Y799157D01*
Y800426D01*
X1078961Y801696D01*
X1080230D01*
X1081500Y800426D01*
Y797887D01*
X1080230Y796618D01*
Y804235D02*
X1081500Y805505D01*
Y808044D01*
X1080230Y809313D01*
X1075152D01*
X1073882Y808044D01*
Y805505D01*
X1075152Y804235D01*
X1076422D01*
X1077691Y805505D01*
Y809313D01*
X1080078Y908848D02*
X1078809Y910117D01*
X1076270D01*
X1075000Y908848D01*
Y903770D01*
X1076270Y902500D01*
X1078809D01*
X1080078Y903770D01*
X1086426Y902500D02*
Y910117D01*
X1082617Y906309D01*
X1087696D01*
X1090235Y908848D02*
X1091505Y910117D01*
X1094044D01*
X1095313Y908848D01*
Y903770D01*
X1094044Y902500D01*
X1091505D01*
X1090235Y903770D01*
Y908848D01*
X1150882Y692250D02*
X1158500D01*
Y696059D01*
X1157230Y697328D01*
X1152152D01*
X1150882Y696059D01*
Y692250D01*
X1158500Y704946D02*
Y699867D01*
X1153422Y704946D01*
X1152152D01*
X1150882Y703676D01*
Y701137D01*
X1152152Y699867D01*
X505132Y821078D02*
Y818539D01*
Y819809D01*
X511480D01*
X512750Y818539D01*
Y817270D01*
X511480Y816000D01*
X512750Y823617D02*
Y826157D01*
Y824887D01*
X505132D01*
X506402Y823617D01*
X1187132Y823328D02*
Y820789D01*
Y822059D01*
X1193480D01*
X1194750Y820789D01*
Y819520D01*
X1193480Y818250D01*
X1194750Y830946D02*
Y825867D01*
X1189672Y830946D01*
X1188402D01*
X1187132Y829676D01*
Y827137D01*
X1188402Y825867D01*
X1163883Y692500D02*
X1171500D01*
Y697578D01*
Y705196D02*
Y700117D01*
X1166422Y705196D01*
X1165152D01*
X1163883Y703926D01*
Y701387D01*
X1165152Y700117D01*
X665383Y664750D02*
X673000D01*
Y669828D01*
X666652Y672367D02*
X665383Y673637D01*
Y676176D01*
X666652Y677446D01*
X667922D01*
X669191Y676176D01*
Y674907D01*
Y676176D01*
X670461Y677446D01*
X671730D01*
X673000Y676176D01*
Y673637D01*
X671730Y672367D01*
X627000Y658367D02*
Y650750D01*
X632078D01*
X639696Y658367D02*
X634618D01*
Y650750D01*
X639696D01*
X634618Y654559D02*
X637157D01*
X642235Y658367D02*
Y650750D01*
X646044D01*
X647313Y652020D01*
Y657098D01*
X646044Y658367D01*
X642235D01*
X649853Y650750D02*
X652392D01*
X651122D01*
Y658367D01*
X649853Y657098D01*
X1079000Y570368D02*
Y562750D01*
X1084078D01*
X1091696Y570368D02*
X1086618D01*
Y562750D01*
X1091696D01*
X1086618Y566559D02*
X1089157D01*
X1094235Y570368D02*
Y562750D01*
X1098044D01*
X1099313Y564020D01*
Y569098D01*
X1098044Y570368D01*
X1094235D01*
X1106931Y562750D02*
X1101853D01*
X1106931Y567828D01*
Y569098D01*
X1105661Y570368D01*
X1103122D01*
X1101853Y569098D01*
X521000Y623368D02*
Y615750D01*
X526078D01*
X533696Y623368D02*
X528618D01*
Y615750D01*
X533696D01*
X528618Y619559D02*
X531157D01*
X536235Y623368D02*
Y615750D01*
X540044D01*
X541313Y617020D01*
Y622098D01*
X540044Y623368D01*
X536235D01*
X543853Y622098D02*
X545122Y623368D01*
X547661D01*
X548931Y622098D01*
Y620828D01*
X547661Y619559D01*
X546392D01*
X547661D01*
X548931Y618289D01*
Y617020D01*
X547661Y615750D01*
X545122D01*
X543853Y617020D01*
X1036132Y881500D02*
X1043750D01*
Y886578D01*
X1036132Y894196D02*
Y889118D01*
X1043750D01*
Y894196D01*
X1039941Y889118D02*
Y891657D01*
X1036132Y896735D02*
X1043750D01*
Y900544D01*
X1042480Y901813D01*
X1037402D01*
X1036132Y900544D01*
Y896735D01*
Y909431D02*
Y904353D01*
X1039941D01*
X1038672Y906892D01*
Y908161D01*
X1039941Y909431D01*
X1042480D01*
X1043750Y908161D01*
Y905622D01*
X1042480Y904353D01*
X603132Y845250D02*
X610750D01*
Y850328D01*
X603132Y857946D02*
Y852868D01*
X610750D01*
Y857946D01*
X606941Y852868D02*
Y855407D01*
X603132Y860485D02*
X610750D01*
Y864294D01*
X609480Y865563D01*
X604402D01*
X603132Y864294D01*
Y860485D01*
Y873181D02*
X604402Y870642D01*
X606941Y868103D01*
X609480D01*
X610750Y869372D01*
Y871911D01*
X609480Y873181D01*
X608211D01*
X606941Y871911D01*
Y868103D01*
X542000Y717117D02*
Y709500D01*
X547078D01*
X554696Y717117D02*
X549618D01*
Y709500D01*
X554696D01*
X549618Y713309D02*
X552157D01*
X557235Y717117D02*
Y709500D01*
X561044D01*
X562313Y710770D01*
Y715848D01*
X561044Y717117D01*
X557235D01*
X564853D02*
X569931D01*
Y715848D01*
X564853Y710770D01*
Y709500D01*
X880328Y939098D02*
X879059Y940368D01*
X876520D01*
X875250Y939098D01*
Y937828D01*
X876520Y936559D01*
X879059D01*
X880328Y935289D01*
Y934020D01*
X879059Y932750D01*
X876520D01*
X875250Y934020D01*
X882868Y940368D02*
Y932750D01*
X885407Y935289D01*
X887946Y932750D01*
Y940368D01*
X890485D02*
Y932750D01*
X894294D01*
X895563Y934020D01*
Y939098D01*
X894294Y940368D01*
X890485D01*
X1091078Y941868D02*
X1086000D01*
Y938059D01*
X1088539Y939328D01*
X1089809D01*
X1091078Y938059D01*
Y935520D01*
X1089809Y934250D01*
X1087270D01*
X1086000Y935520D01*
X1093617Y941868D02*
Y936789D01*
X1096157Y934250D01*
X1098696Y936789D01*
Y941868D01*
X1108853Y934250D02*
Y939328D01*
X1111392Y941868D01*
X1113931Y939328D01*
Y934250D01*
Y938059D01*
X1108853D01*
X1116470Y934250D02*
X1119009D01*
X1117740D01*
Y941868D01*
X1116470D01*
X1124088Y940598D02*
Y939328D01*
X1122818D01*
X1125357D01*
X1124088D01*
Y935520D01*
X1125357Y934250D01*
X1129166D02*
Y935520D01*
X1130436D01*
Y934250D01*
X1129166D01*
X933750Y913367D02*
Y907020D01*
X935020Y905750D01*
X937559D01*
X938828Y907020D01*
Y913367D01*
X946446Y912098D02*
X945176Y913367D01*
X942637D01*
X941367Y912098D01*
Y910828D01*
X942637Y909559D01*
X945176D01*
X946446Y908289D01*
Y907020D01*
X945176Y905750D01*
X942637D01*
X941367Y907020D01*
X948985Y905750D02*
Y910828D01*
X951524Y913367D01*
X954063Y910828D01*
Y905750D01*
Y909559D01*
X948985D01*
X956603Y905750D02*
Y913367D01*
X960411D01*
X961681Y912098D01*
Y909559D01*
X960411Y908289D01*
X956603D01*
X959142D02*
X961681Y905750D01*
X964220Y913367D02*
X969298D01*
X966759D01*
Y905750D01*
X971838D02*
X974377D01*
X973107D01*
Y913367D01*
X971838Y912098D01*
X718250Y960750D02*
Y968367D01*
X722059D01*
X723328Y967098D01*
Y964559D01*
X722059Y963289D01*
X718250D01*
X720789D02*
X723328Y960750D01*
X725867D02*
X728407D01*
X727137D01*
Y968367D01*
X725867Y967098D01*
X1052000Y693750D02*
Y701367D01*
X1055809D01*
X1057078Y700098D01*
Y697559D01*
X1055809Y696289D01*
X1052000D01*
X1054539D02*
X1057078Y693750D01*
X1059617D02*
X1062157D01*
X1060887D01*
Y701367D01*
X1059617Y700098D01*
X1071044Y701367D02*
X1065965D01*
Y697559D01*
X1068505Y698828D01*
X1069774D01*
X1071044Y697559D01*
Y695020D01*
X1069774Y693750D01*
X1067235D01*
X1065965Y695020D01*
X1013500Y624750D02*
Y632368D01*
X1017309D01*
X1018578Y631098D01*
Y628559D01*
X1017309Y627289D01*
X1013500D01*
X1016039D02*
X1018578Y624750D01*
X1021117D02*
X1023657D01*
X1022387D01*
Y632368D01*
X1021117Y631098D01*
X1032544Y632368D02*
X1030005Y631098D01*
X1027466Y628559D01*
Y626020D01*
X1028735Y624750D01*
X1031274D01*
X1032544Y626020D01*
Y627289D01*
X1031274Y628559D01*
X1027466D01*
X1023000Y562000D02*
Y569618D01*
X1026809D01*
X1028078Y568348D01*
Y565809D01*
X1026809Y564539D01*
X1023000D01*
X1025539D02*
X1028078Y562000D01*
X1030618D02*
X1033157D01*
X1031887D01*
Y569618D01*
X1030618Y568348D01*
X1036965Y569618D02*
X1042044D01*
Y568348D01*
X1036965Y563270D01*
Y562000D01*
X1054250Y606250D02*
Y613867D01*
X1058059D01*
X1059328Y612598D01*
Y610059D01*
X1058059Y608789D01*
X1054250D01*
X1056789D02*
X1059328Y606250D01*
X1061868D02*
X1064407D01*
X1063137D01*
Y613867D01*
X1061868Y612598D01*
X1068215D02*
X1069485Y613867D01*
X1072024D01*
X1073294Y612598D01*
Y611328D01*
X1072024Y610059D01*
X1073294Y608789D01*
Y607520D01*
X1072024Y606250D01*
X1069485D01*
X1068215Y607520D01*
Y608789D01*
X1069485Y610059D01*
X1068215Y611328D01*
Y612598D01*
X1069485Y610059D02*
X1072024D01*
X712250Y840000D02*
Y847617D01*
X716059D01*
X717328Y846348D01*
Y843809D01*
X716059Y842539D01*
X712250D01*
X714789D02*
X717328Y840000D01*
X724946D02*
X719867D01*
X724946Y845078D01*
Y846348D01*
X723676Y847617D01*
X721137D01*
X719867Y846348D01*
X727485D02*
X728755Y847617D01*
X731294D01*
X732563Y846348D01*
Y841270D01*
X731294Y840000D01*
X728755D01*
X727485Y841270D01*
Y846348D01*
X680000Y579250D02*
Y586867D01*
X683809D01*
X685078Y585598D01*
Y583059D01*
X683809Y581789D01*
X680000D01*
X682539D02*
X685078Y579250D01*
X692696D02*
X687617D01*
X692696Y584328D01*
Y585598D01*
X691426Y586867D01*
X688887D01*
X687617Y585598D01*
X695235Y579250D02*
X697774D01*
X696505D01*
Y586867D01*
X695235Y585598D01*
X688750Y669750D02*
X681132D01*
Y673559D01*
X682402Y674828D01*
X684941D01*
X686211Y673559D01*
Y669750D01*
Y672289D02*
X688750Y674828D01*
Y682446D02*
Y677367D01*
X683672Y682446D01*
X682402D01*
X681132Y681176D01*
Y678637D01*
X682402Y677367D01*
Y684985D02*
X681132Y686255D01*
Y688794D01*
X682402Y690063D01*
X683672D01*
X684941Y688794D01*
Y687524D01*
Y688794D01*
X686211Y690063D01*
X687480D01*
X688750Y688794D01*
Y686255D01*
X687480Y684985D01*
X688750Y724750D02*
X681132D01*
Y728559D01*
X682402Y729828D01*
X684941D01*
X686211Y728559D01*
Y724750D01*
Y727289D02*
X688750Y729828D01*
Y737446D02*
Y732367D01*
X683672Y737446D01*
X682402D01*
X681132Y736176D01*
Y733637D01*
X682402Y732367D01*
X688750Y743794D02*
X681132D01*
X684941Y739985D01*
Y745063D01*
X692750Y785750D02*
Y793367D01*
X696559D01*
X697828Y792098D01*
Y789559D01*
X696559Y788289D01*
X692750D01*
X695289D02*
X697828Y785750D01*
X705446D02*
X700368D01*
X705446Y790828D01*
Y792098D01*
X704176Y793367D01*
X701637D01*
X700368Y792098D01*
X713063Y793367D02*
X707985D01*
Y789559D01*
X710524Y790828D01*
X711794D01*
X713063Y789559D01*
Y787020D01*
X711794Y785750D01*
X709255D01*
X707985Y787020D01*
X592000Y742250D02*
Y749867D01*
X595809D01*
X597078Y748598D01*
Y746059D01*
X595809Y744789D01*
X592000D01*
X594539D02*
X597078Y742250D01*
X604696D02*
X599618D01*
X604696Y747328D01*
Y748598D01*
X603426Y749867D01*
X600887D01*
X599618Y748598D01*
X612313Y749867D02*
X609774Y748598D01*
X607235Y746059D01*
Y743520D01*
X608505Y742250D01*
X611044D01*
X612313Y743520D01*
Y744789D01*
X611044Y746059D01*
X607235D01*
X594000Y940250D02*
Y947868D01*
X597809D01*
X599078Y946598D01*
Y944059D01*
X597809Y942789D01*
X594000D01*
X596539D02*
X599078Y940250D01*
X606696D02*
X601618D01*
X606696Y945328D01*
Y946598D01*
X605426Y947868D01*
X602887D01*
X601618Y946598D01*
X609235Y947868D02*
X614313D01*
Y946598D01*
X609235Y941520D01*
Y940250D01*
X587250Y584250D02*
Y591867D01*
X591059D01*
X592328Y590598D01*
Y588059D01*
X591059Y586789D01*
X587250D01*
X589789D02*
X592328Y584250D01*
X599946D02*
X594868D01*
X599946Y589328D01*
Y590598D01*
X598676Y591867D01*
X596137D01*
X594868Y590598D01*
X602485D02*
X603755Y591867D01*
X606294D01*
X607563Y590598D01*
Y589328D01*
X606294Y588059D01*
X607563Y586789D01*
Y585520D01*
X606294Y584250D01*
X603755D01*
X602485Y585520D01*
Y586789D01*
X603755Y588059D01*
X602485Y589328D01*
Y590598D01*
X603755Y588059D02*
X606294D01*
X511250Y831750D02*
X504902D01*
Y834924D01*
X505960Y835982D01*
X508076D01*
X509134Y834924D01*
Y831750D01*
Y833866D02*
X511250Y835982D01*
Y842330D02*
Y838098D01*
X507018Y842330D01*
X505960D01*
X504902Y841272D01*
Y839156D01*
X505960Y838098D01*
X510192Y844446D02*
X511250Y845504D01*
Y847620D01*
X510192Y848678D01*
X505960D01*
X504902Y847620D01*
Y845504D01*
X505960Y844446D01*
X507018D01*
X508076Y845504D01*
Y848678D01*
X517750Y930250D02*
X510132D01*
Y934059D01*
X511402Y935328D01*
X513941D01*
X515211Y934059D01*
Y930250D01*
Y932789D02*
X517750Y935328D01*
X511402Y937868D02*
X510132Y939137D01*
Y941676D01*
X511402Y942946D01*
X512672D01*
X513941Y941676D01*
Y940407D01*
Y941676D01*
X515211Y942946D01*
X516480D01*
X517750Y941676D01*
Y939137D01*
X516480Y937868D01*
X511402Y945485D02*
X510132Y946755D01*
Y949294D01*
X511402Y950563D01*
X516480D01*
X517750Y949294D01*
Y946755D01*
X516480Y945485D01*
X511402D01*
X1041750Y852500D02*
X1034133D01*
Y856309D01*
X1035402Y857578D01*
X1037941D01*
X1039211Y856309D01*
Y852500D01*
Y855039D02*
X1041750Y857578D01*
X1035402Y860117D02*
X1034133Y861387D01*
Y863926D01*
X1035402Y865196D01*
X1036672D01*
X1037941Y863926D01*
Y862657D01*
Y863926D01*
X1039211Y865196D01*
X1040480D01*
X1041750Y863926D01*
Y861387D01*
X1040480Y860117D01*
X1041750Y867735D02*
Y870274D01*
Y869005D01*
X1034133D01*
X1035402Y867735D01*
X1133750Y821000D02*
X1141367D01*
Y817191D01*
X1140098Y815922D01*
X1137559D01*
X1136289Y817191D01*
Y821000D01*
Y818461D02*
X1133750Y815922D01*
X1140098Y813382D02*
X1141367Y812113D01*
Y809574D01*
X1140098Y808304D01*
X1138828D01*
X1137559Y809574D01*
Y810843D01*
Y809574D01*
X1136289Y808304D01*
X1135020D01*
X1133750Y809574D01*
Y812113D01*
X1135020Y813382D01*
X1133750Y800687D02*
Y805765D01*
X1138828Y800687D01*
X1140098D01*
X1141367Y801956D01*
Y804495D01*
X1140098Y805765D01*
X1060500Y749250D02*
Y756868D01*
X1064309D01*
X1065578Y755598D01*
Y753059D01*
X1064309Y751789D01*
X1060500D01*
X1063039D02*
X1065578Y749250D01*
X1068118Y755598D02*
X1069387Y756868D01*
X1071926D01*
X1073196Y755598D01*
Y754328D01*
X1071926Y753059D01*
X1070657D01*
X1071926D01*
X1073196Y751789D01*
Y750520D01*
X1071926Y749250D01*
X1069387D01*
X1068118Y750520D01*
X1075735Y755598D02*
X1077005Y756868D01*
X1079544D01*
X1080813Y755598D01*
Y754328D01*
X1079544Y753059D01*
X1078274D01*
X1079544D01*
X1080813Y751789D01*
Y750520D01*
X1079544Y749250D01*
X1077005D01*
X1075735Y750520D01*
X1060750Y763750D02*
Y771367D01*
X1064559D01*
X1065828Y770098D01*
Y767559D01*
X1064559Y766289D01*
X1060750D01*
X1063289D02*
X1065828Y763750D01*
X1068367Y770098D02*
X1069637Y771367D01*
X1072176D01*
X1073446Y770098D01*
Y768828D01*
X1072176Y767559D01*
X1070907D01*
X1072176D01*
X1073446Y766289D01*
Y765020D01*
X1072176Y763750D01*
X1069637D01*
X1068367Y765020D01*
X1079794Y763750D02*
Y771367D01*
X1075985Y767559D01*
X1081063D01*
X1072250Y880000D02*
Y887617D01*
X1076059D01*
X1077328Y886348D01*
Y883809D01*
X1076059Y882539D01*
X1072250D01*
X1074789D02*
X1077328Y880000D01*
X1079867Y886348D02*
X1081137Y887617D01*
X1083676D01*
X1084946Y886348D01*
Y885078D01*
X1083676Y883809D01*
X1082407D01*
X1083676D01*
X1084946Y882539D01*
Y881270D01*
X1083676Y880000D01*
X1081137D01*
X1079867Y881270D01*
X1092563Y887617D02*
X1087485D01*
Y883809D01*
X1090024Y885078D01*
X1091294D01*
X1092563Y883809D01*
Y881270D01*
X1091294Y880000D01*
X1088755D01*
X1087485Y881270D01*
X1143000Y838500D02*
X1135383D01*
Y842309D01*
X1136652Y843578D01*
X1139191D01*
X1140461Y842309D01*
Y838500D01*
Y841039D02*
X1143000Y843578D01*
X1136652Y846117D02*
X1135383Y847387D01*
Y849926D01*
X1136652Y851196D01*
X1137922D01*
X1139191Y849926D01*
Y848657D01*
Y849926D01*
X1140461Y851196D01*
X1141730D01*
X1143000Y849926D01*
Y847387D01*
X1141730Y846117D01*
X1135383Y858813D02*
X1136652Y856274D01*
X1139191Y853735D01*
X1141730D01*
X1143000Y855005D01*
Y857544D01*
X1141730Y858813D01*
X1140461D01*
X1139191Y857544D01*
Y853735D01*
X630250Y582750D02*
Y590368D01*
X634059D01*
X635328Y589098D01*
Y586559D01*
X634059Y585289D01*
X630250D01*
X632789D02*
X635328Y582750D01*
X637868Y589098D02*
X639137Y590368D01*
X641676D01*
X642946Y589098D01*
Y587828D01*
X641676Y586559D01*
X640407D01*
X641676D01*
X642946Y585289D01*
Y584020D01*
X641676Y582750D01*
X639137D01*
X637868Y584020D01*
X645485Y590368D02*
X650563D01*
Y589098D01*
X645485Y584020D01*
Y582750D01*
X563000Y651750D02*
Y659368D01*
X566809D01*
X568078Y658098D01*
Y655559D01*
X566809Y654289D01*
X563000D01*
X565539D02*
X568078Y651750D01*
X570617Y658098D02*
X571887Y659368D01*
X574426D01*
X575696Y658098D01*
Y656828D01*
X574426Y655559D01*
X573157D01*
X574426D01*
X575696Y654289D01*
Y653020D01*
X574426Y651750D01*
X571887D01*
X570617Y653020D01*
X578235Y658098D02*
X579505Y659368D01*
X582044D01*
X583313Y658098D01*
Y656828D01*
X582044Y655559D01*
X583313Y654289D01*
Y653020D01*
X582044Y651750D01*
X579505D01*
X578235Y653020D01*
Y654289D01*
X579505Y655559D01*
X578235Y656828D01*
Y658098D01*
X579505Y655559D02*
X582044D01*
X665328Y972098D02*
X664059Y973367D01*
X661520D01*
X660250Y972098D01*
Y970828D01*
X661520Y969559D01*
X664059D01*
X665328Y968289D01*
Y967020D01*
X664059Y965750D01*
X661520D01*
X660250Y967020D01*
X667868Y973367D02*
Y965750D01*
X670407Y968289D01*
X672946Y965750D01*
Y973367D01*
X675485Y965750D02*
X678024D01*
X676755D01*
Y973367D01*
X675485Y972098D01*
X984750Y575617D02*
Y569270D01*
X986020Y568000D01*
X988559D01*
X989828Y569270D01*
Y575617D01*
X992367Y568000D02*
X994907D01*
X993637D01*
Y575617D01*
X992367Y574348D01*
X1055250Y714617D02*
Y708270D01*
X1056520Y707000D01*
X1059059D01*
X1060328Y708270D01*
Y714617D01*
X1066676Y707000D02*
Y714617D01*
X1062868Y710809D01*
X1067946D01*
X542632Y865250D02*
X548980D01*
X550250Y866520D01*
Y869059D01*
X548980Y870328D01*
X542632D01*
Y872868D02*
Y877946D01*
X543902D01*
X548980Y872868D01*
X550250D01*
X1076132Y831250D02*
X1082480D01*
X1083750Y832520D01*
Y835059D01*
X1082480Y836328D01*
X1076132D01*
X1077402Y838867D02*
X1076132Y840137D01*
Y842676D01*
X1077402Y843946D01*
X1078672D01*
X1079941Y842676D01*
X1081211Y843946D01*
X1082480D01*
X1083750Y842676D01*
Y840137D01*
X1082480Y838867D01*
X1081211D01*
X1079941Y840137D01*
X1078672Y838867D01*
X1077402D01*
X1079941Y840137D02*
Y842676D01*
X660750Y838118D02*
Y836848D01*
X663289Y834309D01*
X665828Y836848D01*
Y838118D01*
X663289Y834309D02*
Y830500D01*
X668367D02*
X670907D01*
X669637D01*
Y838118D01*
X668367Y836848D01*
X710000Y880235D02*
Y867539D01*
X712539Y865000D01*
X717617D01*
X720157Y867539D01*
Y880235D01*
X735392D02*
X730313Y877696D01*
X725235Y872617D01*
Y867539D01*
X727774Y865000D01*
X732853D01*
X735392Y867539D01*
Y870078D01*
X732853Y872617D01*
X725235D01*
X554000Y977117D02*
Y969500D01*
X557809D01*
X559078Y970770D01*
Y972039D01*
X557809Y973309D01*
X554000D01*
X557809D01*
X559078Y974578D01*
Y975848D01*
X557809Y977117D01*
X554000D01*
X562887Y974578D02*
X565426D01*
X566696Y973309D01*
Y969500D01*
X562887D01*
X561618Y970770D01*
X562887Y972039D01*
X566696D01*
X574313Y977117D02*
Y969500D01*
X570505D01*
X569235Y970770D01*
Y973309D01*
X570505Y974578D01*
X574313D01*
X576853D02*
Y969500D01*
Y972039D01*
X578122Y973309D01*
X579392Y974578D01*
X580661D01*
X592088Y977117D02*
Y969500D01*
X595896D01*
X597166Y970770D01*
Y972039D01*
X595896Y973309D01*
X592088D01*
X595896D01*
X597166Y974578D01*
Y975848D01*
X595896Y977117D01*
X592088D01*
X599705Y969500D02*
Y970770D01*
X600975D01*
Y969500D01*
X599705D01*
X554000Y962868D02*
Y955250D01*
X557809D01*
X559078Y956520D01*
Y961598D01*
X557809Y962868D01*
X554000D01*
X562887Y955250D02*
X565426D01*
X566696Y956520D01*
Y959059D01*
X565426Y960328D01*
X562887D01*
X561618Y959059D01*
Y956520D01*
X562887Y955250D01*
X569235Y960328D02*
Y956520D01*
X570505Y955250D01*
X574313D01*
Y960328D01*
X579392Y952711D02*
X580661D01*
X581931Y953980D01*
Y960328D01*
X578122D01*
X576853Y959059D01*
Y956520D01*
X578122Y955250D01*
X581931D01*
X584470D02*
X587009D01*
X585740D01*
Y962868D01*
X584470D01*
X592088Y960328D02*
X594627D01*
X595896Y959059D01*
Y955250D01*
X592088D01*
X590818Y956520D01*
X592088Y957789D01*
X595896D01*
X598436Y955250D02*
X602244D01*
X603514Y956520D01*
X602244Y957789D01*
X599705D01*
X598436Y959059D01*
X599705Y960328D01*
X603514D01*
X613671Y955250D02*
Y962868D01*
X617480D01*
X618749Y961598D01*
Y959059D01*
X617480Y957789D01*
X613671D01*
X616210D02*
X618749Y955250D01*
X621288D02*
Y956520D01*
X622558D01*
Y955250D01*
X621288D01*
X1011000Y961500D02*
Y969118D01*
X1014809D01*
X1016078Y967848D01*
Y965309D01*
X1014809Y964039D01*
X1011000D01*
X1018617Y961500D02*
Y969118D01*
X1022426D01*
X1023696Y967848D01*
Y965309D01*
X1022426Y964039D01*
X1018617D01*
X1021157D02*
X1023696Y961500D01*
X1026235Y969118D02*
X1031313D01*
X1028774D01*
Y961500D01*
X1041470Y965309D02*
X1046548D01*
X1061784Y961500D02*
X1056705D01*
X1061784Y966578D01*
Y967848D01*
X1060514Y969118D01*
X1057975D01*
X1056705Y967848D01*
X1064323D02*
X1065592Y969118D01*
X1068131D01*
X1069401Y967848D01*
Y962770D01*
X1068131Y961500D01*
X1065592D01*
X1064323Y962770D01*
Y967848D01*
X1071940Y961500D02*
X1074480D01*
X1073210D01*
Y969118D01*
X1071940Y967848D01*
X1083367Y969118D02*
X1078288D01*
Y965309D01*
X1080827Y966578D01*
X1082097D01*
X1083367Y965309D01*
Y962770D01*
X1082097Y961500D01*
X1079558D01*
X1078288Y962770D01*
X1093523Y965309D02*
X1098602D01*
X1108758Y969118D02*
Y964039D01*
X1111298Y961500D01*
X1113837Y964039D01*
Y969118D01*
X1116376Y967848D02*
X1117645Y969118D01*
X1120185D01*
X1121454Y967848D01*
Y962770D01*
X1120185Y961500D01*
X1117645D01*
X1116376Y962770D01*
Y967848D01*
D64*
X1024636Y610750D02*
G03*
X1024636Y610750I-8636J0D01*
G01*
X1051136Y677500D02*
G03*
X1051136Y677500I-8636J0D01*
G01*
X690500Y906250D02*
G03*
X690500Y906250I-17500J0D01*
G01*
X660600Y937250D02*
X685400D01*
X642000Y878350D02*
Y934150D01*
X704000Y878350D02*
Y934150D01*
X660600Y875250D02*
X685400D01*
D65*
X666250Y698250D02*
G03*
X666250Y698250I-1250J0D01*
G01*
X563130Y778000D02*
G03*
X563130Y778000I-1250J0D01*
G01*
X1091500Y831500D02*
G03*
X1091500Y831500I-1250J0D01*
G01*
X590750Y871250D02*
G03*
X590750Y871250I-1250J0D01*
G01*
X1139600Y676100D02*
G03*
X1139600Y676100I-1250J0D01*
G01*
X1139870Y751500D02*
G03*
X1139870Y751500I-1250J0D01*
G01*
X746000Y861750D02*
G03*
X746000Y861750I-1250J0D01*
G01*
D66*
X769500Y851000D02*
G03*
X769500Y851000I-3000J0D01*
G01*
D67*
X914300Y924800D02*
Y950200D01*
X990500D01*
Y924800D02*
Y950200D01*
X914300Y924800D02*
X990500D01*
X1076499Y661499D02*
X1107499D01*
X1076499Y666499D02*
X1107499D01*
X1076499Y661499D02*
Y666499D01*
X1107499Y661499D02*
Y666499D01*
X716500Y622750D02*
Y633750D01*
X701500Y622750D02*
Y633750D01*
X729500Y673250D02*
Y674250D01*
X721500Y673250D02*
Y674250D01*
X716500Y662000D02*
Y673000D01*
X701500Y662000D02*
Y673000D01*
X678000Y641500D02*
Y651500D01*
X693000Y641500D02*
Y651500D01*
X551000Y690250D02*
Y703250D01*
Y690250D02*
X562000D01*
X551000Y703250D02*
X562000D01*
X550250Y668000D02*
X560250D01*
X550250Y683000D02*
X560250D01*
X1000500Y861500D02*
X1011500D01*
X1000500Y846500D02*
X1011500D01*
X965500Y669750D02*
X976500D01*
X965500Y654750D02*
X976500D01*
X619250Y801750D02*
Y812750D01*
X604250Y801750D02*
Y812750D01*
X600750Y678750D02*
Y689750D01*
X615750Y678750D02*
Y689750D01*
X624500Y688750D02*
Y802750D01*
X632000D01*
X666000Y688750D02*
X673500D01*
Y802750D01*
X666000D02*
X673500D01*
X624500Y688750D02*
X632000D01*
X709750Y718250D02*
Y728250D01*
X694750Y718250D02*
Y728250D01*
X551375Y727500D02*
Y733510D01*
X546345Y727500D02*
X551375D01*
X546345Y802500D02*
X551375D01*
Y796490D02*
Y802500D01*
X947000Y647000D02*
X948000D01*
X947000Y639000D02*
X948000D01*
X699750Y810500D02*
Y811500D01*
X707750Y810500D02*
Y811500D01*
X715000Y811500D02*
Y821500D01*
X730000Y811500D02*
Y821500D01*
X758500Y895000D02*
Y896000D01*
X766500Y895000D02*
Y896000D01*
X891000Y899250D02*
X892000D01*
X891000Y891250D02*
X892000D01*
X829750Y897750D02*
X830750D01*
X829750Y889750D02*
X830750D01*
X981500Y859500D02*
Y860500D01*
X973500Y859500D02*
Y860500D01*
X981250Y785000D02*
X982250D01*
X981250Y777000D02*
X982250D01*
X982000Y732000D02*
Y733000D01*
X974000Y732000D02*
Y733000D01*
X884500Y638750D02*
X885500D01*
X884500Y646750D02*
X885500D01*
X834500Y638750D02*
X835500D01*
X834500Y646750D02*
X835500D01*
X769500Y638750D02*
X770500D01*
X769500Y646750D02*
X770500D01*
X728500Y707000D02*
Y708000D01*
X720500Y707000D02*
Y708000D01*
X720500Y777000D02*
Y778000D01*
X728500Y777000D02*
Y778000D01*
X1116750Y913250D02*
X1127750D01*
X1116750Y897250D02*
X1127750D01*
X1117250Y875500D02*
X1127250D01*
X1117250Y890500D02*
X1127250D01*
X1149250Y842250D02*
Y852250D01*
X1166250Y842250D02*
Y852250D01*
X1102500Y794750D02*
Y805750D01*
X1086500Y794750D02*
Y805750D01*
X1050250Y907750D02*
X1063250D01*
X1050250Y896750D02*
Y907750D01*
X1063250Y896750D02*
Y907750D01*
X1048250Y844250D02*
Y854250D01*
X1065250Y844250D02*
Y854250D01*
X1128250Y795000D02*
Y805000D01*
X1111250Y795000D02*
Y805000D01*
X585500Y757500D02*
Y767500D01*
X568500Y757500D02*
Y767500D01*
X1093000Y840000D02*
Y847000D01*
X1124000Y840000D02*
Y847000D01*
X1093000Y840000D02*
X1124000D01*
X1093000Y847000D02*
X1124000D01*
X615000Y902750D02*
Y912750D01*
X598000Y902750D02*
Y912750D01*
X535500Y828750D02*
Y838750D01*
X550500Y828750D02*
Y838750D01*
X583250Y821500D02*
X596250D01*
X583250Y810500D02*
Y821500D01*
X596250Y810500D02*
Y821500D01*
X586750Y855750D02*
Y862750D01*
X555750Y855750D02*
Y862750D01*
X586750D01*
X555750Y855750D02*
X586750D01*
X512500Y884500D02*
Y894500D01*
X529500Y884500D02*
Y894500D01*
X562250Y883000D02*
X573250D01*
X562250Y899000D02*
X573250D01*
X1057750Y619250D02*
X1067750D01*
X1057750Y636250D02*
X1067750D01*
X1069000Y666000D02*
Y676000D01*
X1054000Y666000D02*
Y676000D01*
X1024000Y665000D02*
X1034000D01*
X1024000Y650000D02*
X1034000D01*
X1183999Y615749D02*
Y681749D01*
X1139999Y615749D02*
Y681749D01*
X1118500Y667550D02*
X1135000D01*
X1118500Y651950D02*
Y667550D01*
Y651950D02*
X1135000D01*
Y667550D01*
X1109500Y613750D02*
Y624750D01*
X1093500Y613750D02*
Y624750D01*
X1100500Y757250D02*
X1101500D01*
X1100500Y748250D02*
X1101500D01*
X1100500Y771500D02*
X1101500D01*
X1100500Y762500D02*
X1101500D01*
X746000Y660000D02*
Y661000D01*
X738000Y660000D02*
Y661000D01*
X671000Y601500D02*
X681000D01*
X671000Y616500D02*
X681000D01*
X999500Y744500D02*
Y755500D01*
X1015500Y744500D02*
Y755500D01*
X1097500Y577500D02*
Y590500D01*
X1086500D02*
X1097500D01*
X1086500Y577500D02*
X1097500D01*
X1027500Y576000D02*
X1037500D01*
X1027500Y592000D02*
X1037500D01*
X1099249Y688999D02*
X1110249D01*
X1099249Y704999D02*
X1110249D01*
X1149125Y795990D02*
Y802000D01*
X1154155D01*
X1149125Y727000D02*
X1154155D01*
X1149125D02*
Y733010D01*
X745000Y940750D02*
Y941750D01*
X737000Y940750D02*
Y941750D01*
X729500Y930750D02*
Y940750D01*
X714500Y930750D02*
Y940750D01*
X563250Y624250D02*
X576250D01*
X563250Y613250D02*
Y624250D01*
X576250Y613250D02*
Y624250D01*
X586000Y614250D02*
Y624250D01*
X601000Y614250D02*
Y624250D01*
X610000D02*
X623000D01*
X610000Y613250D02*
Y624250D01*
X623000Y613250D02*
Y624250D01*
X632750Y614250D02*
Y624250D01*
X647750Y614250D02*
Y624250D01*
X756500Y674000D02*
X943500D01*
X756500Y861000D02*
X943500D01*
Y674000D02*
Y861000D01*
X756500Y674000D02*
Y861000D01*
X501300Y633250D02*
Y709450D01*
X526700Y633250D02*
Y709450D01*
X574300Y551300D02*
Y576700D01*
Y551300D02*
X675900D01*
X694750Y758000D02*
Y768000D01*
X709750Y758000D02*
Y768000D01*
X766800Y980200D02*
X868400D01*
X766800Y954800D02*
X868400D01*
X868700Y924800D02*
Y950200D01*
X792500Y924800D02*
X868700D01*
X792500D02*
Y950200D01*
X868700D01*
X914300Y954800D02*
X990500D01*
X914300Y980200D02*
X990500D01*
X1029800Y950200D02*
X1080600D01*
X1029800Y924800D02*
Y950200D01*
Y924800D02*
X1080600D01*
Y950200D01*
D68*
X732104Y545730D02*
Y560970D01*
X972896Y589926D02*
Y601610D01*
X748614D02*
X750138Y604658D01*
X732104Y601610D02*
X750138D01*
X954862D02*
X972896D01*
X732104Y589926D02*
Y601610D01*
Y545730D02*
X972896D01*
Y560970D01*
D69*
X552440Y696600D02*
D03*
X1096060Y584150D02*
D03*
D70*
X1056600Y906310D02*
D03*
X589600Y820060D02*
D03*
X569600Y622810D02*
D03*
X616350D02*
D03*
M02*
